<svg width="316" height="170" viewBox="0 0 316 170" fill="none" xmlns="http://www.w3.org/2000/svg">
<mask id="mask0_27_714" style="mask-type:alpha" maskUnits="userSpaceOnUse" x="0" y="72" width="316" height="64">
<rect width="316" height="64" transform="matrix(-1 0 0 1 316 72)" fill="url(#paint0_linear_27_714)"/>
</mask>
<g mask="url(#mask0_27_714)">
<path opacity="0.8" d="M406.703 126.3C407.193 129.51 406.993 132.29 406.703 134.28H-189.207C-189.617 132.2 -189.867 129.41 -189.207 126.3C-184.437 103.79 -137.117 89.4204 -98.0872 92.3804C-48.9072 96.1104 -39.8472 125.33 -2.97717 124.3C37.7228 123.17 44.3228 72.1804 78.1528 73.0904C105.953 73.8404 107.073 105.07 139.343 116.99C190.373 135.83 221.473 70.2404 302.283 73.0904C346.963 74.6704 402.233 97.0104 406.703 126.3Z" fill="url(#paint1_linear_27_714)"/>
<path opacity="0.8" d="M390.199 125.955C391.559 129.695 390.929 133.405 390.199 135.935H-134.551C-135.481 131.795 -135.201 128.485 -134.551 125.955C-125.961 92.435 -21.3008 67.115 30.3892 104.675C40.0392 111.685 50.1492 122.565 66.9692 123.295C84.4892 124.065 89.9892 112.985 108.869 107.995C135.009 101.085 147.949 116.105 181.359 121.295C205.979 125.125 207.559 118.305 257.839 112.645C281.209 110.015 336 112.645 390.189 125.945L390.199 125.955Z" fill="url(#paint2_linear_27_714)"/>
</g>
<path d="M160.37 79.5784C160.37 79.5784 160.386 79.5784 160.397 79.5784C162.983 78.599 165.05 76.3805 165.71 73.4802L168.946 59.2168C169.612 56.2787 168.676 53.3513 166.711 51.3493C165.607 50.2238 164.174 49.3851 162.518 49.0117L127.655 41.1009C126.291 40.7924 124.933 40.8249 123.667 41.1496C120.664 41.9125 118.186 44.2988 117.45 47.5291L114.214 61.7925C113.17 66.3864 116.048 70.9533 120.642 71.9976L122.623 72.4467L122.671 72.4359C122.606 72.0896 122.612 71.7216 122.698 71.3537L123.429 68.1287C123.618 67.2846 124.181 66.6245 124.906 66.2728L124.874 66.2078C125.101 66.0239 128.715 63.0587 129.559 62.3606C130.469 61.576 131.724 61.2189 132.985 61.5057L142.53 63.6701C143.547 63.9028 144.38 64.5088 144.916 65.315C145.489 66.1754 145.722 67.2576 145.479 68.3452L144.272 73.6588C143.909 75.2442 142.638 76.3859 141.128 76.6456L155.505 79.9085C157.188 80.2926 158.865 80.1465 160.37 79.5838V79.5784ZM127.925 60.1367C125.967 59.693 124.744 57.7451 125.187 55.7917C125.631 53.8383 127.574 52.61 129.532 53.0537C131.486 53.4974 132.714 55.4454 132.27 57.3988C131.827 59.3521 129.879 60.5804 127.925 60.1367ZM151.745 65.5423C149.791 65.0986 148.563 63.156 149.007 61.1973C149.45 59.2439 151.398 58.0156 153.352 58.4593C155.305 58.903 156.533 60.851 156.09 62.8043C155.646 64.7631 153.698 65.986 151.745 65.5423Z" fill="#E0D7FF"/>
<path d="M126.773 99.6801C123.353 102.754 118.278 111.882 121.281 115.226C123.196 117.358 127.942 116.616 132.011 114.999C131.232 112.704 130.674 110.567 130.382 108.716C129.765 104.831 130.176 101.022 131.426 97.5698C129.76 97.7646 128.131 98.4626 126.773 99.6801Z" fill="#A398ED"/>
<path d="M122.698 71.3483C122.612 71.7162 122.606 72.0842 122.671 72.4305C122.855 73.4748 123.651 74.3622 124.755 74.6111L131.54 76.1478C131.767 76.2019 132 76.2236 132.222 76.2127C133.434 76.1803 134.521 75.3307 134.803 74.097L135.533 70.8667C135.701 70.1254 135.549 69.3841 135.171 68.7943C134.797 68.2099 134.202 67.7662 133.477 67.6039L126.692 66.0671C126.064 65.9265 125.442 66.0076 124.906 66.2673C124.181 66.6191 123.618 67.2792 123.429 68.1233L122.698 71.3483Z" fill="#1A1820"/>
<path d="M150.262 41.5175L144.553 40.2189L144.667 41.7339L142.773 42.2588H142.757L134.316 40.3379L135.257 38.2655C134.348 38.2385 133.461 38.3521 132.617 38.5956C131.367 38.9419 124.863 40.7708 123.656 41.1117L123.667 41.1442C124.933 40.8195 126.291 40.787 127.655 41.0955L162.518 49.0063C164.173 49.3797 165.607 50.2184 166.711 51.3439L175.969 48.7791H175.975C174.86 47.6211 173.41 46.7662 171.727 46.3874L167.848 45.5108L167.918 46.3982C167.95 46.7986 167.691 47.1612 167.306 47.2694L166.078 47.6103L165.954 47.4588C165.894 47.5183 165.802 47.5508 165.71 47.5291L158.368 45.8625C157.978 45.776 157.772 45.3539 157.935 44.9968L158.649 43.4168L150.262 41.5175Z" fill="#FBFAFF"/>
<path d="M124.874 66.2023L124.906 66.2673C125.442 66.0075 126.064 65.9264 126.692 66.0671L133.477 67.6038C134.202 67.7661 134.797 68.2098 135.171 68.7942L135.23 68.7563L144.916 65.3095C144.38 64.5033 143.547 63.8973 142.53 63.6646L132.985 61.5002C131.724 61.2134 130.469 61.5705 129.56 62.3551C128.716 63.0531 125.101 66.0184 124.874 66.2023Z" fill="#FBFAFF"/>
<path d="M125.187 55.7916C124.744 57.745 125.967 59.693 127.925 60.1367C129.879 60.5804 131.827 59.3521 132.27 57.3987C132.714 55.4453 131.486 53.4974 129.532 53.0537C127.574 52.61 125.631 53.8383 125.187 55.7916Z" fill="#FFE878"/>
<path d="M131.426 97.5699C130.176 101.022 129.765 104.831 130.382 108.717C130.674 110.567 131.232 112.704 132.011 114.999C136.199 127.341 146.761 144.077 156.788 143.92C156.788 143.92 156.29 143.693 155.695 142.546C155.408 141.994 147.394 125.599 143.612 111.644C143.136 111.736 142.638 111.73 142.135 111.617C140.176 111.173 138.953 109.225 139.397 107.272C139.711 105.887 140.782 104.864 142.081 104.55C140.409 92.37 145.809 85.2275 146.837 83.9829C146.929 83.8639 147.416 83.3769 147.475 83.3174C139.851 85.076 133.948 90.6006 131.426 97.5699Z" fill="#BAB1E5"/>
<path d="M132.222 76.2127V76.2506C132.222 76.2506 138.877 76.6131 140.16 76.6835C140.484 76.7105 140.809 76.6943 141.123 76.6402H141.128C142.638 76.3804 143.909 75.2387 144.272 73.6533L145.479 68.3397C145.722 67.2521 145.49 66.1699 144.916 65.3096L135.23 68.7564L135.171 68.7942C135.55 69.384 135.701 70.1253 135.533 70.8667L134.803 74.097C134.521 75.3307 133.434 76.1802 132.222 76.2127Z" fill="#A398ED"/>
<path d="M135.257 38.2655L134.316 40.3379L142.757 42.2534L141.961 31.7939C141.945 31.5992 141.853 31.4206 141.718 31.2907C141.621 31.1987 141.501 31.1338 141.366 31.1013L139.38 30.6522C139.261 30.6252 139.148 30.6252 139.034 30.6576H139.007C138.796 30.7226 138.612 30.8741 138.515 31.0851L135.257 38.2655Z" fill="#E0D7FF"/>
<path d="M140.777 30.1706L139.034 30.6576C139.148 30.6251 139.261 30.6251 139.381 30.6522L141.366 31.1013C141.502 31.1337 141.621 31.1987 141.718 31.2907L143.596 30.7171H143.601C143.504 30.6197 143.379 30.5548 143.244 30.5223L141.599 30.1489C141.328 30.0894 141.047 30.0948 140.777 30.1706Z" fill="#FBFAFF"/>
<path d="M139.397 107.272C138.953 109.225 140.176 111.173 142.135 111.617C142.638 111.73 143.136 111.736 143.612 111.644C143.141 109.929 142.741 108.246 142.427 106.639C142.286 105.924 142.172 105.232 142.081 104.55C140.782 104.864 139.71 105.887 139.397 107.272Z" fill="#A398ED"/>
<path d="M144.553 40.2188L143.866 31.2474C143.85 31.0363 143.753 30.8469 143.601 30.7117H143.596L141.718 31.2906C141.853 31.4205 141.945 31.5991 141.961 31.7939L142.757 42.2533H142.773L144.667 41.7338L144.553 40.2188Z" fill="#A398ED"/>
<path d="M146.837 83.9829C145.809 85.2275 140.409 92.37 142.081 104.55C142.606 104.415 143.174 104.404 143.742 104.534C145.695 104.978 146.918 106.926 146.474 108.879C146.144 110.329 144.986 111.384 143.612 111.644C147.394 125.599 155.408 141.994 155.695 142.546C156.29 143.693 156.788 143.92 156.788 143.92C157.204 143.915 157.621 143.883 158.032 143.812C168.281 142.178 174.428 122.325 175.017 108.717C173.594 108.349 172.323 107.889 171.387 107.402C167.301 105.281 165.673 100.33 167.745 96.347C168.562 94.7779 169.834 93.5874 171.322 92.857C166.619 85.709 158.016 81.5805 149.018 83.0144C148.498 83.0955 147.984 83.1983 147.481 83.312H147.475C147.416 83.3769 146.929 83.8639 146.837 83.9829Z" fill="#E0D7FF"/>
<path d="M142.081 104.55C142.173 105.232 142.286 105.924 142.427 106.639C142.741 108.246 143.141 109.929 143.612 111.644C144.986 111.384 146.144 110.329 146.474 108.879C146.918 106.925 145.695 104.978 143.742 104.534C143.174 104.404 142.605 104.415 142.081 104.55Z" fill="#A398ED"/>
<path d="M149.007 61.1973C148.563 63.156 149.791 65.0986 151.744 65.5423C153.698 65.986 155.646 64.7631 156.09 62.8043C156.533 60.851 155.305 58.903 153.352 58.4593C151.398 58.0156 149.45 59.2439 149.007 61.1973Z" fill="#FFE878"/>
<path d="M157.935 44.9967C157.772 45.3539 157.978 45.7759 158.368 45.8625L165.71 47.5291C165.802 47.5507 165.894 47.5182 165.954 47.4587C166.008 47.4046 166.04 47.3289 166.035 47.2477L165.267 37.1454C165.25 36.9506 165.158 36.772 165.023 36.6422C164.926 36.5502 164.807 36.4852 164.671 36.4528L162.686 36.0037C162.567 35.9766 162.453 35.9766 162.339 36.0091H162.312C162.101 36.074 161.917 36.2255 161.82 36.4365L158.649 43.4167L157.935 44.9967Z" fill="#E0D7FF"/>
<path d="M164.087 35.5221L162.339 36.0091C162.453 35.9767 162.567 35.9767 162.686 36.0037L164.672 36.4528C164.807 36.4853 164.926 36.5502 165.023 36.6422L166.901 36.0686H166.906C166.809 35.9713 166.684 35.9117 166.549 35.8793L164.904 35.5005C164.634 35.441 164.352 35.4464 164.087 35.5221Z" fill="#FBFAFF"/>
<path d="M160.397 79.5729C161.035 79.3889 167.891 77.4626 168.881 77.1866C171.803 76.375 174.2 74.0212 174.92 70.8558L178.156 56.587C178.816 53.6759 177.901 50.7756 175.975 48.7736H175.97L166.711 51.3438C168.676 53.3458 169.612 56.2732 168.946 59.2114L165.71 73.4747C165.05 76.375 162.983 78.5935 160.397 79.5729Z" fill="#A398ED"/>
<path d="M167.848 45.5108L167.171 36.5989C167.155 36.3879 167.058 36.1985 166.906 36.0632H166.901L165.023 36.6422C165.158 36.7721 165.25 36.9506 165.267 37.1454L166.035 47.2477C166.035 47.3289 166.008 47.4047 165.954 47.4588L166.078 47.6103L167.306 47.2694C167.691 47.1612 167.95 46.7986 167.918 46.3982L167.848 45.5108Z" fill="#A398ED"/>
<path d="M167.036 11.1943C167.22 11.7138 167.658 12.1304 168.232 12.2603C169.119 12.4605 170.007 11.9086 170.207 11.0157C170.407 10.1283 169.85 9.24635 168.962 9.04073C168.075 8.84052 167.187 9.39785 166.987 10.2853C166.917 10.5991 166.939 10.9129 167.036 11.1943Z" fill="#A398ED"/>
<path d="M167.745 96.347C165.672 100.33 167.301 105.281 171.386 107.402C172.323 107.889 173.594 108.349 175.017 108.717C179.779 109.939 186.272 110.145 187.868 107.077C189.935 103.095 182.966 95.0971 178.886 92.976C176.413 91.6882 173.61 91.7369 171.322 92.8569C169.834 93.5874 168.562 94.7778 167.745 96.347Z" fill="#A398ED"/>
<path d="M160.397 79.5729C162.983 78.5935 165.05 76.375 165.71 73.4747L168.946 59.2114C169.612 56.2732 168.676 53.3459 166.711 51.3438C165.607 50.2183 164.174 49.3796 162.518 49.0062L127.655 41.0954C126.291 40.787 124.933 40.8194 123.667 41.1441C120.664 41.907 118.186 44.2933 117.45 47.5236L114.214 61.787C113.17 66.3809 116.048 70.9478 120.642 71.9921L122.623 72.4412" stroke="black" stroke-width="0.6" stroke-linecap="round" stroke-linejoin="round"/>
<path d="M141.128 76.6401L155.505 79.903C157.188 80.2871 158.865 80.141 160.37 79.5783" stroke="black" stroke-width="0.6" stroke-linecap="round" stroke-linejoin="round"/>
<path d="M175.969 48.7791L166.711 51.3439" stroke="black" stroke-width="0.6" stroke-linecap="round" stroke-linejoin="round"/>
<path d="M167.837 45.5054H167.848L171.727 46.3874C173.41 46.7661 174.86 47.6211 175.975 48.7736C177.901 50.7757 178.816 53.676 178.156 56.5871L174.92 70.8558C174.2 74.0213 171.803 76.375 168.881 77.1867C167.891 77.4627 161.035 79.389 160.397 79.5729C160.386 79.5729 160.375 79.5729 160.37 79.5729C160.353 79.5783 160.348 79.5784 160.348 79.5784" stroke="black" stroke-width="0.6" stroke-linecap="round" stroke-linejoin="round"/>
<path d="M144.542 40.2189H144.553L150.262 41.5175L158.649 43.4168" stroke="black" stroke-width="0.6" stroke-linecap="round" stroke-linejoin="round"/>
<path d="M123.461 41.1658C123.461 41.1658 123.532 41.1442 123.656 41.1117C124.863 40.7708 131.367 38.9419 132.617 38.5956C133.461 38.3521 134.348 38.2385 135.257 38.2655H135.301" stroke="black" stroke-width="0.6" stroke-linecap="round" stroke-linejoin="round"/>
<path d="M156.09 62.8043C156.533 60.851 155.305 58.903 153.352 58.4593C151.398 58.0156 149.45 59.2439 149.007 61.1973C148.563 63.156 149.791 65.0986 151.744 65.5423C153.698 65.986 155.646 64.7631 156.09 62.8043Z" stroke="black" stroke-width="0.6" stroke-linecap="round" stroke-linejoin="round"/>
<path d="M132.27 57.3987C132.714 55.4453 131.486 53.4974 129.532 53.0537C127.574 52.61 125.631 53.8383 125.187 55.7916C124.744 57.745 125.967 59.693 127.925 60.1367C129.879 60.5804 131.827 59.3521 132.27 57.3987Z" stroke="black" stroke-width="0.6" stroke-linecap="round" stroke-linejoin="round"/>
<path d="M132.222 76.2127C133.434 76.1803 134.521 75.3307 134.803 74.097L135.533 70.8667C135.701 70.1254 135.549 69.3841 135.171 68.7943C134.797 68.2099 134.202 67.7662 133.477 67.6039L126.692 66.0671C126.064 65.9265 125.442 66.0076 124.906 66.2673C124.181 66.6191 123.618 67.2792 123.429 68.1233L122.698 71.3483C122.612 71.7162 122.606 72.0842 122.671 72.4305C122.855 73.4748 123.651 74.3622 124.755 74.6111L131.54 76.1478C131.767 76.2019 132 76.2236 132.222 76.2127Z" stroke="black" stroke-width="0.6" stroke-linecap="round" stroke-linejoin="round"/>
<path d="M132.222 76.2505C132.222 76.2505 138.877 76.6131 140.16 76.6834C140.484 76.7105 140.809 76.6942 141.123 76.6401H141.128C142.638 76.3804 143.909 75.2387 144.272 73.6533L145.479 68.3397C145.722 67.2521 145.49 66.1699 144.916 65.3095C144.38 64.5033 143.547 63.8973 142.53 63.6646L132.985 61.5002C131.724 61.2134 130.469 61.5705 129.56 62.3551C128.715 63.0531 125.101 66.0184 124.874 66.2023L124.863 66.2132" stroke="black" stroke-width="0.6" stroke-linecap="round" stroke-linejoin="round"/>
<path d="M144.916 65.3096L135.23 68.7564" stroke="black" stroke-width="0.6" stroke-linecap="round" stroke-linejoin="round"/>
<path d="M131.426 97.5698C129.76 97.7646 128.131 98.4626 126.773 99.6801C123.353 102.754 118.278 111.882 121.281 115.226C123.196 117.358 127.942 116.616 132.011 114.999" stroke="black" stroke-width="0.6" stroke-miterlimit="10"/>
<path d="M147.475 83.3174C139.851 85.076 133.948 90.6006 131.426 97.5699C130.176 101.022 129.765 104.831 130.382 108.717C130.674 110.567 131.232 112.704 132.011 114.999C136.199 127.341 146.761 144.077 156.788 143.92C157.204 143.915 157.621 143.883 158.032 143.812C168.281 142.178 174.428 122.325 175.017 108.717" stroke="black" stroke-width="0.6" stroke-miterlimit="10"/>
<path d="M171.322 92.857C166.619 85.709 158.016 81.5805 149.017 83.0144C148.498 83.0955 147.984 83.1983 147.481 83.312" stroke="black" stroke-width="0.6" stroke-miterlimit="10"/>
<path d="M175.017 108.717C179.779 109.939 186.272 110.145 187.868 107.077C189.935 103.095 182.966 95.0971 178.886 92.976C176.413 91.6882 173.61 91.7369 171.322 92.8569C169.834 93.5874 168.562 94.7778 167.745 96.347C165.672 100.33 167.301 105.281 171.386 107.402C172.323 107.889 173.594 108.349 175.017 108.717Z" stroke="black" stroke-width="0.6" stroke-miterlimit="10"/>
<path d="M147.474 83.3174H147.481" stroke="black" stroke-width="0.6" stroke-miterlimit="10"/>
<path d="M162.339 36.0091C162.453 35.9766 162.566 35.9766 162.686 36.0037L164.671 36.4528C164.807 36.4852 164.926 36.5502 165.023 36.6422C165.158 36.772 165.25 36.9506 165.267 37.1454L166.035 47.2477C166.035 47.3289 166.008 47.4046 165.954 47.4587C165.894 47.5182 165.802 47.5507 165.71 47.5291L158.368 45.8625C157.978 45.7759 157.772 45.3539 157.935 44.9967L158.649 43.4167L161.82 36.4365C161.917 36.2255 162.101 36.074 162.312 36.0145" stroke="black" stroke-width="0.6" stroke-linecap="round" stroke-linejoin="round"/>
<path d="M166.901 36.0686L165.023 36.6422" stroke="black" stroke-width="0.6" stroke-linecap="round" stroke-linejoin="round"/>
<path d="M162.312 36.0145H162.339L164.087 35.5221C164.352 35.4464 164.633 35.441 164.904 35.5005L166.549 35.8793C166.684 35.9117 166.809 35.9713 166.906 36.0632C167.058 36.1985 167.155 36.3879 167.171 36.5989L167.848 45.5108L167.918 46.3982C167.95 46.7986 167.691 47.1612 167.306 47.2694L166.078 47.6103" stroke="black" stroke-width="0.6" stroke-linecap="round" stroke-linejoin="round"/>
<path d="M139.034 30.6576C139.148 30.6252 139.261 30.6252 139.38 30.6522L141.366 31.1013C141.501 31.1338 141.621 31.1987 141.718 31.2907C141.853 31.4206 141.945 31.5992 141.961 31.7939L142.757 42.2534L134.316 40.3379L135.257 38.2655L138.515 31.0851C138.612 30.8741 138.796 30.7226 139.007 30.6631" stroke="black" stroke-width="0.6" stroke-linecap="round" stroke-linejoin="round"/>
<path d="M143.596 30.7172L141.718 31.2907" stroke="black" stroke-width="0.6" stroke-linecap="round" stroke-linejoin="round"/>
<path d="M139.007 30.663H139.034L140.776 30.1706C141.047 30.0948 141.328 30.0894 141.599 30.1489L143.244 30.5223C143.379 30.5548 143.504 30.6197 143.601 30.7117C143.753 30.847 143.85 31.0363 143.866 31.2474L144.553 40.2188L144.667 41.7339L142.773 42.2587" stroke="black" stroke-width="0.6" stroke-linecap="round" stroke-linejoin="round"/>
<g filter="url(#filter0_d_27_714)">
<path fill-rule="evenodd" clip-rule="evenodd" d="M167.515 11.0237C167.463 10.8665 167.293 10.7816 167.136 10.834L167.134 10.8347L167.13 10.8359L167.118 10.84C167.109 10.8435 167.095 10.8485 167.077 10.8553C167.041 10.8685 166.99 10.8883 166.924 10.916C165.587 11.4369 157.69 14.7448 153.45 21.4501C151.63 24.3301 150.724 28.316 150.289 32.0773C149.852 35.8468 149.883 39.4293 149.962 41.5287L149.962 41.5298C149.987 42.1248 150.014 42.602 150.035 42.9307C150.045 43.0951 150.054 43.2224 150.061 43.3088L150.068 43.4073L150.07 43.4327L150.071 43.4392L150.071 43.441C150.085 43.6061 150.23 43.7295 150.395 43.7157C150.56 43.7019 150.683 43.5569 150.669 43.3918L150.668 43.3842L150.667 43.3601L150.659 43.2644C150.653 43.1799 150.644 43.0546 150.634 42.8923C150.613 42.5677 150.586 42.0954 150.562 41.5057C150.484 39.4223 150.453 35.8735 150.885 32.1464C151.317 28.4108 152.211 24.5344 153.957 21.7707C158.089 15.2355 165.832 11.9852 167.145 11.4739L167.151 11.4713C167.213 11.4456 167.258 11.4279 167.287 11.417C167.302 11.4116 167.312 11.4078 167.319 11.4056L167.325 11.4033C167.482 11.3509 167.568 11.1808 167.515 11.0237Z" fill="black"/>
</g>
<path d="M150.37 43.4167C150.37 43.4167 150.311 42.7025 150.262 41.5174C150.105 37.3348 150.137 27.2541 153.703 21.6104C157.891 14.9874 165.716 11.7083 167.036 11.1943C167.166 11.1402 167.231 11.1185 167.231 11.1185" stroke="black" stroke-width="0.6" stroke-linecap="round" stroke-linejoin="round"/>
<path d="M170.207 11.0157C170.407 10.1283 169.85 9.24635 168.962 9.04073C168.075 8.84052 167.187 9.39785 166.987 10.2853C166.917 10.5991 166.939 10.9129 167.036 11.1943C167.22 11.7138 167.658 12.1304 168.232 12.2603C169.119 12.4605 170.007 11.9086 170.207 11.0157Z" stroke="black" stroke-width="0.6" stroke-linecap="round" stroke-linejoin="round"/>
<path d="M143.612 111.644C144.986 111.384 146.144 110.329 146.474 108.879C146.918 106.925 145.695 104.978 143.742 104.534C143.174 104.404 142.605 104.415 142.081 104.55C140.782 104.864 139.711 105.887 139.397 107.272C138.953 109.225 140.176 111.173 142.135 111.617C142.638 111.73 143.136 111.736 143.612 111.644Z" stroke="black" stroke-width="0.6" stroke-miterlimit="10"/>
<g filter="url(#filter1_d_27_714)">
<path d="M114.459 61.8197L117.684 47.5482C118.417 44.316 120.888 41.9284 123.881 41.165L123.87 41.1325C125.073 40.7914 131.555 38.9615 132.801 38.615C133.642 38.3713 134.527 38.2576 135.433 38.2847L138.68 31.1002C138.777 30.8891 138.96 30.7375 139.17 30.6779H139.197L140.934 30.1853C141.204 30.1095 141.484 30.1041 141.754 30.1636L143.393 30.5372C143.528 30.5697 143.652 30.6346 143.749 30.7267C143.9 30.862 143.997 31.0515 144.014 31.2627L144.698 40.2392L150.388 41.5386L158.748 43.4389L161.908 36.4548C162.005 36.2436 162.189 36.092 162.399 36.0325H162.426L164.168 35.5398C164.432 35.464 164.713 35.4586 164.982 35.5181L166.622 35.8971C166.757 35.9296 166.881 35.9892 166.978 36.0812C167.129 36.2165 167.226 36.406 167.242 36.6172L167.916 45.5342L171.783 46.4112C173.46 46.7902 174.906 47.6457 176.017 48.7989C177.937 50.8021 178.848 53.704 178.19 56.6168L174.965 70.8937C174.248 74.0609 171.859 76.4161 168.946 77.2282C167.959 77.5043 161.126 79.4317 160.49 79.6158C160.479 79.6158 160.468 79.6158 160.463 79.6158C158.963 80.1788 157.292 80.325 155.614 79.9406L141.285 76.6759H141.279C140.966 76.7301 140.643 76.7463 140.319 76.7192C139.041 76.6489 132.407 76.2861 132.407 76.2861V76.2482C132.186 76.2591 131.954 76.2374 131.728 76.1833L124.965 74.6457C123.865 74.3966 123.072 73.5087 122.888 72.4638L122.84 72.4746L120.866 72.0252C116.287 70.9803 113.418 66.4108 114.459 61.8143V61.8197Z" fill="#A398ED" fill-opacity="0.28" shape-rendering="crispEdges"/>
</g>
<g filter="url(#filter2_d_27_714)">
<path d="M167.107 11.1981C167.291 11.7179 167.728 12.1348 168.299 12.2647C169.184 12.465 170.068 11.9128 170.268 11.0195C170.467 10.1315 169.912 9.24905 169.027 9.04332C168.143 8.843 167.258 9.40065 167.059 10.2886C166.989 10.6026 167.01 10.9166 167.107 11.1981Z" fill="#A398ED" fill-opacity="0.28" shape-rendering="crispEdges"/>
</g>
<path d="M158.817 13.9584C159.987 17.2628 162.775 19.9131 166.423 20.7392C172.068 22.0128 177.712 18.5019 178.986 12.8225C180.259 7.17759 176.714 1.56706 171.07 0.259091C165.425 -1.01446 159.781 2.53084 158.507 8.17578C158.06 10.1722 158.198 12.1685 158.817 13.9584Z" fill="url(#paint3_radial_27_714)" fill-opacity="0.12"/>
<g filter="url(#filter3_d_27_714)">
<path d="M126.976 99.7346C128.33 98.5164 129.954 97.818 131.615 97.6231C134.128 90.6498 140.012 85.122 147.611 83.3624H147.616C148.118 83.2433 148.63 83.1404 149.148 83.0592C158.117 81.6245 166.692 85.7554 171.379 92.9074C173.66 91.7867 176.454 91.738 178.918 93.0265C182.985 95.1488 189.931 103.151 187.871 107.136C186.28 110.205 179.808 110 175.062 108.776C174.474 122.392 168.348 142.257 158.133 143.892C157.723 143.962 157.308 143.995 156.893 144C146.899 144.157 136.371 127.411 132.197 115.062C128.141 116.681 123.412 117.422 121.502 115.289C118.509 111.943 123.568 102.81 126.976 99.7346Z" fill="#A398ED" fill-opacity="0.28" shape-rendering="crispEdges"/>
</g>
<defs>
<filter id="filter0_d_27_714" x="145.915" y="6.81848" width="25.616" height="40.8983" filterUnits="userSpaceOnUse" color-interpolation-filters="sRGB">
<feFlood flood-opacity="0" result="BackgroundImageFix"/>
<feColorMatrix in="SourceAlpha" type="matrix" values="0 0 0 0 0 0 0 0 0 0 0 0 0 0 0 0 0 0 127 0" result="hardAlpha"/>
<feOffset/>
<feGaussianBlur stdDeviation="2"/>
<feComposite in2="hardAlpha" operator="out"/>
<feColorMatrix type="matrix" values="0 0 0 0 0.596078 0 0 0 0 0.45098 0 0 0 0 1 0 0 0 0.44 0"/>
<feBlend mode="normal" in2="BackgroundImageFix" result="effect1_dropShadow_27_714"/>
<feBlend mode="normal" in="SourceGraphic" in2="effect1_dropShadow_27_714" result="shape"/>
</filter>
<filter id="filter1_d_27_714" x="89.2456" y="5.12317" width="114.157" height="100.032" filterUnits="userSpaceOnUse" color-interpolation-filters="sRGB">
<feFlood flood-opacity="0" result="BackgroundImageFix"/>
<feColorMatrix in="SourceAlpha" type="matrix" values="0 0 0 0 0 0 0 0 0 0 0 0 0 0 0 0 0 0 127 0" result="hardAlpha"/>
<feOffset/>
<feGaussianBlur stdDeviation="12.5"/>
<feComposite in2="hardAlpha" operator="out"/>
<feColorMatrix type="matrix" values="0 0 0 0 0.596078 0 0 0 0 0.45098 0 0 0 0 1 0 0 0 0.74 0"/>
<feBlend mode="normal" in2="BackgroundImageFix" result="effect1_dropShadow_27_714"/>
<feBlend mode="normal" in="SourceGraphic" in2="effect1_dropShadow_27_714" result="shape"/>
</filter>
<filter id="filter2_d_27_714" x="162.018" y="4.00256" width="13.2908" height="13.3031" filterUnits="userSpaceOnUse" color-interpolation-filters="sRGB">
<feFlood flood-opacity="0" result="BackgroundImageFix"/>
<feColorMatrix in="SourceAlpha" type="matrix" values="0 0 0 0 0 0 0 0 0 0 0 0 0 0 0 0 0 0 127 0" result="hardAlpha"/>
<feOffset/>
<feGaussianBlur stdDeviation="2.5"/>
<feComposite in2="hardAlpha" operator="out"/>
<feColorMatrix type="matrix" values="0 0 0 0 0.596078 0 0 0 0 0.45098 0 0 0 0 1 0 0 0 1 0"/>
<feBlend mode="normal" in2="BackgroundImageFix" result="effect1_dropShadow_27_714"/>
<feBlend mode="normal" in="SourceGraphic" in2="effect1_dropShadow_27_714" result="shape"/>
</filter>
<filter id="filter3_d_27_714" x="95.5918" y="57.7761" width="117.653" height="111.225" filterUnits="userSpaceOnUse" color-interpolation-filters="sRGB">
<feFlood flood-opacity="0" result="BackgroundImageFix"/>
<feColorMatrix in="SourceAlpha" type="matrix" values="0 0 0 0 0 0 0 0 0 0 0 0 0 0 0 0 0 0 127 0" result="hardAlpha"/>
<feOffset/>
<feGaussianBlur stdDeviation="12.5"/>
<feComposite in2="hardAlpha" operator="out"/>
<feColorMatrix type="matrix" values="0 0 0 0 0.596078 0 0 0 0 0.45098 0 0 0 0 1 0 0 0 0.74 0"/>
<feBlend mode="normal" in2="BackgroundImageFix" result="effect1_dropShadow_27_714"/>
<feBlend mode="normal" in="SourceGraphic" in2="effect1_dropShadow_27_714" result="shape"/>
</filter>
<linearGradient id="paint0_linear_27_714" x1="-1.76579e-06" y1="32" x2="316" y2="32" gradientUnits="userSpaceOnUse">
<stop offset="0.0260417" stop-color="#D20000" stop-opacity="0"/>
<stop offset="0.53125" stop-color="#D20000"/>
<stop offset="1" stop-color="#D20000" stop-opacity="0"/>
</linearGradient>
<linearGradient id="paint1_linear_27_714" x1="407.007" y1="103.639" x2="-189.607" y2="103.639" gradientUnits="userSpaceOnUse">
<stop stop-color="#382471" stop-opacity="0.8"/>
<stop offset="0.2" stop-color="#322165" stop-opacity="0.82"/>
<stop offset="0.53" stop-color="#241945" stop-opacity="0.88"/>
<stop offset="0.94" stop-color="#0D0C12" stop-opacity="0.98"/>
<stop offset="1" stop-color="#0A0A0A"/>
</linearGradient>
<linearGradient id="paint2_linear_27_714" x1="391.006" y1="110.967" x2="-135.142" y2="110.967" gradientUnits="userSpaceOnUse">
<stop stop-color="#382471" stop-opacity="0.8"/>
<stop offset="0.2" stop-color="#322165" stop-opacity="0.82"/>
<stop offset="0.53" stop-color="#241945" stop-opacity="0.88"/>
<stop offset="0.94" stop-color="#0D0C12" stop-opacity="0.98"/>
<stop offset="1" stop-color="#0A0A0A"/>
</linearGradient>
<radialGradient id="paint3_radial_27_714" cx="0" cy="0" r="1" gradientUnits="userSpaceOnUse" gradientTransform="translate(168.745 10.5) rotate(90) scale(10.5)">
<stop stop-color="#A398ED"/>
<stop offset="1" stop-color="#A398ED" stop-opacity="0"/>
</radialGradient>
</defs>
</svg>
