<svg width="1582" height="264" viewBox="0 0 1582 264" fill="none" xmlns="http://www.w3.org/2000/svg">
<g opacity="0.67">
<g filter="url(#filter0_d_114_1315)">
<path d="M235.863 57.1981C236.046 57.7179 236.483 58.1348 237.055 58.2647C237.939 58.465 238.824 57.9128 239.023 57.0195C239.223 56.1315 238.667 55.2491 237.783 55.0433C236.898 54.843 236.014 55.4006 235.814 56.2886C235.744 56.6026 235.766 56.9166 235.863 57.1981Z" fill="#A398ED"/>
</g>
<path d="M227.572 59.9584C228.743 63.2628 231.53 65.9131 235.179 66.7392C240.823 68.0128 246.467 64.5019 247.741 58.8225C249.014 53.1776 245.469 47.5671 239.825 46.2591C234.181 44.9855 228.536 48.5308 227.263 54.1758C226.815 56.1722 226.953 58.1685 227.572 59.9584Z" fill="url(#paint0_radial_114_1315)" fill-opacity="0.12"/>
</g>
<g opacity="0.3">
<g filter="url(#filter1_d_114_1315)">
<path d="M383.863 162.198C384.046 162.718 384.483 163.135 385.055 163.265C385.939 163.465 386.824 162.913 387.023 162.019C387.223 161.132 386.667 160.249 385.783 160.043C384.898 159.843 384.014 160.401 383.814 161.289C383.744 161.603 383.766 161.917 383.863 162.198Z" fill="#A398ED"/>
</g>
<path d="M375.572 164.958C376.743 168.263 379.53 170.913 383.179 171.739C388.823 173.013 394.467 169.502 395.741 163.823C397.014 158.178 393.469 152.567 387.825 151.259C382.181 149.986 376.536 153.531 375.263 159.176C374.815 161.172 374.953 163.169 375.572 164.958Z" fill="url(#paint1_radial_114_1315)" fill-opacity="0.12"/>
</g>
<g opacity="0.3">
<g filter="url(#filter2_d_114_1315)">
<path d="M849.863 222.198C850.046 222.718 850.483 223.135 851.055 223.265C851.939 223.465 852.824 222.913 853.023 222.019C853.223 221.132 852.667 220.249 851.783 220.043C850.898 219.843 850.014 220.401 849.814 221.289C849.744 221.603 849.766 221.917 849.863 222.198Z" fill="#A398ED"/>
</g>
<path d="M841.572 224.958C842.743 228.263 845.53 230.913 849.179 231.739C854.823 233.013 860.467 229.502 861.741 223.823C863.014 218.178 859.469 212.567 853.825 211.259C848.181 209.986 842.536 213.531 841.263 219.176C840.815 221.172 840.953 223.169 841.572 224.958Z" fill="url(#paint2_radial_114_1315)" fill-opacity="0.12"/>
</g>
<g opacity="0.16">
<g filter="url(#filter3_d_114_1315)">
<path d="M465.863 24.1981C466.046 24.7179 466.483 25.1348 467.055 25.2647C467.939 25.465 468.824 24.9128 469.023 24.0195C469.223 23.1315 468.667 22.2491 467.783 22.0433C466.898 21.843 466.014 22.4006 465.814 23.2886C465.744 23.6026 465.766 23.9166 465.863 24.1981Z" fill="#A398ED" fill-opacity="0.6" shape-rendering="crispEdges"/>
</g>
<path d="M457.572 26.9584C458.743 30.2628 461.53 32.9131 465.179 33.7392C470.823 35.0128 476.467 31.5019 477.741 25.8225C479.014 20.1776 475.469 14.5671 469.825 13.2591C464.181 11.9855 458.536 15.5308 457.263 21.1758C456.815 23.1722 456.953 25.1685 457.572 26.9584Z" fill="url(#paint3_radial_114_1315)" fill-opacity="0.12"/>
</g>
<g opacity="0.3">
<g filter="url(#filter4_d_114_1315)">
<path d="M931.863 84.1981C932.046 84.7179 932.483 85.1348 933.055 85.2647C933.939 85.465 934.824 84.9128 935.023 84.0195C935.223 83.1315 934.667 82.2491 933.783 82.0433C932.898 81.843 932.014 82.4006 931.814 83.2886C931.744 83.6026 931.766 83.9166 931.863 84.1981Z" fill="#A398ED"/>
</g>
<path d="M923.572 86.9584C924.743 90.2628 927.53 92.9131 931.179 93.7392C936.823 95.0128 942.467 91.5019 943.741 85.8225C945.014 80.1776 941.469 74.5671 935.825 73.2591C930.181 71.9855 924.536 75.5308 923.263 81.1758C922.815 83.1722 922.953 85.1685 923.572 86.9584Z" fill="url(#paint4_radial_114_1315)" fill-opacity="0.12"/>
</g>
<g opacity="0.3">
<g filter="url(#filter5_d_114_1315)">
<path d="M1024.86 124.198C1025.05 124.718 1025.48 125.135 1026.05 125.265C1026.94 125.465 1027.82 124.913 1028.02 124.019C1028.22 123.132 1027.67 122.249 1026.78 122.043C1025.9 121.843 1025.01 122.401 1024.81 123.289C1024.74 123.603 1024.77 123.917 1024.86 124.198Z" fill="#A398ED"/>
</g>
<path d="M1016.57 126.958C1017.74 130.263 1020.53 132.913 1024.18 133.739C1029.82 135.013 1035.47 131.502 1036.74 125.823C1038.01 120.178 1034.47 114.567 1028.82 113.259C1023.18 111.986 1017.54 115.531 1016.26 121.176C1015.82 123.172 1015.95 125.169 1016.57 126.958Z" fill="url(#paint5_radial_114_1315)" fill-opacity="0.12"/>
</g>
<g opacity="0.16">
<g filter="url(#filter6_d_114_1315)">
<path d="M722.863 49.1981C723.046 49.7179 723.483 50.1348 724.055 50.2647C724.939 50.465 725.824 49.9128 726.023 49.0195C726.223 48.1315 725.667 47.2491 724.783 47.0433C723.898 46.843 723.014 47.4006 722.814 48.2886C722.744 48.6026 722.766 48.9166 722.863 49.1981Z" fill="#A398ED" fill-opacity="0.6" shape-rendering="crispEdges"/>
</g>
<path d="M714.572 51.9584C715.743 55.2628 718.53 57.9131 722.179 58.7392C727.823 60.0128 733.467 56.5019 734.741 50.8225C736.014 45.1776 732.469 39.5671 726.825 38.2591C721.181 36.9855 715.536 40.5308 714.263 46.1758C713.815 48.1722 713.953 50.1685 714.572 51.9584Z" fill="url(#paint6_radial_114_1315)" fill-opacity="0.12"/>
</g>
<g opacity="0.3">
<g filter="url(#filter7_d_114_1315)">
<path d="M8.86272 223.198C9.04608 223.718 9.48293 224.135 10.0546 224.265C10.9391 224.465 11.8236 223.913 12.0231 223.019C12.2227 222.132 11.6672 221.249 10.7827 221.043C9.89821 220.843 9.01372 221.401 8.81418 222.289C8.74407 222.603 8.76564 222.917 8.86272 223.198Z" fill="#A398ED"/>
</g>
<path d="M0.572452 225.958C1.74264 229.263 4.53043 231.913 8.17865 232.739C13.8231 234.013 19.4675 230.502 20.7409 224.823C22.0144 219.178 18.4694 213.567 12.825 212.259C7.18055 210.986 1.53613 214.531 0.262696 220.176C-0.184727 222.172 -0.047058 224.169 0.572452 225.958Z" fill="url(#paint7_radial_114_1315)" fill-opacity="0.12"/>
</g>
<g opacity="0.56">
<g filter="url(#filter8_d_114_1315)">
<path d="M444.863 171.198C445.046 171.718 445.483 172.135 446.055 172.265C446.939 172.465 447.824 171.913 448.023 171.019C448.223 170.132 447.667 169.249 446.783 169.043C445.898 168.843 445.014 169.401 444.814 170.289C444.744 170.603 444.766 170.917 444.863 171.198Z" fill="#A398ED"/>
</g>
<path d="M436.572 173.958C437.743 177.263 440.53 179.913 444.179 180.739C449.823 182.013 455.467 178.502 456.741 172.823C458.014 167.178 454.469 161.567 448.825 160.259C443.181 158.986 437.536 162.531 436.263 168.176C435.815 170.172 435.953 172.169 436.572 173.958Z" fill="url(#paint8_radial_114_1315)" fill-opacity="0.12"/>
</g>
<g opacity="0.56">
<g filter="url(#filter9_d_114_1315)">
<path d="M1234.86 35.1981C1235.05 35.7179 1235.48 36.1348 1236.05 36.2647C1236.94 36.465 1237.82 35.9128 1238.02 35.0195C1238.22 34.1315 1237.67 33.2491 1236.78 33.0433C1235.9 32.843 1235.01 33.4006 1234.81 34.2886C1234.74 34.6026 1234.77 34.9166 1234.86 35.1981Z" fill="#A398ED"/>
</g>
<path d="M1226.57 37.9584C1227.74 41.2628 1230.53 43.9131 1234.18 44.7392C1239.82 46.0128 1245.47 42.5019 1246.74 36.8225C1248.01 31.1776 1244.47 25.5671 1238.82 24.2591C1233.18 22.9855 1227.54 26.5308 1226.26 32.1758C1225.82 34.1722 1225.95 36.1685 1226.57 37.9584Z" fill="url(#paint9_radial_114_1315)" fill-opacity="0.12"/>
</g>
<g opacity="0.62">
<g filter="url(#filter10_d_114_1315)">
<path d="M92.8627 254.198C93.0461 254.718 93.4829 255.135 94.0546 255.265C94.9391 255.465 95.8236 254.913 96.0231 254.019C96.2227 253.132 95.6672 252.249 94.7827 252.043C93.8982 251.843 93.0137 252.401 92.8142 253.289C92.7441 253.603 92.7656 253.917 92.8627 254.198Z" fill="#A398ED"/>
</g>
<path d="M84.5725 256.958C85.7426 260.263 88.5304 262.913 92.1787 263.739C97.8231 265.013 103.467 261.502 104.741 255.823C106.014 250.178 102.469 244.567 96.825 243.259C91.1806 241.986 85.5361 245.531 84.2627 251.176C83.8153 253.172 83.9529 255.169 84.5725 256.958Z" fill="url(#paint10_radial_114_1315)" fill-opacity="0.12"/>
</g>
<g opacity="0.3">
<g filter="url(#filter11_d_114_1315)">
<path d="M1152.86 103.198C1153.05 103.718 1153.48 104.135 1154.05 104.265C1154.94 104.465 1155.82 103.913 1156.02 103.019C1156.22 102.132 1155.67 101.249 1154.78 101.043C1153.9 100.843 1153.01 101.401 1152.81 102.289C1152.74 102.603 1152.77 102.917 1152.86 103.198Z" fill="#A398ED"/>
</g>
<path d="M1144.57 105.958C1145.74 109.263 1148.53 111.913 1152.18 112.739C1157.82 114.013 1163.47 110.502 1164.74 104.823C1166.01 99.1776 1162.47 93.5671 1156.82 92.2591C1151.18 90.9855 1145.54 94.5308 1144.26 100.176C1143.82 102.172 1143.95 104.169 1144.57 105.958Z" fill="url(#paint11_radial_114_1315)" fill-opacity="0.12"/>
</g>
<g opacity="0.3">
<g filter="url(#filter12_d_114_1315)">
<path d="M585.863 57.1981C586.046 57.7179 586.483 58.1348 587.055 58.2647C587.939 58.465 588.824 57.9128 589.023 57.0195C589.223 56.1315 588.667 55.2491 587.783 55.0433C586.898 54.843 586.014 55.4006 585.814 56.2886C585.744 56.6026 585.766 56.9166 585.863 57.1981Z" fill="#A398ED"/>
</g>
<path d="M577.572 59.9584C578.743 63.2628 581.53 65.9131 585.179 66.7392C590.823 68.0128 596.467 64.5019 597.741 58.8225C599.014 53.1776 595.469 47.5671 589.825 46.2591C584.181 44.9855 578.536 48.5308 577.263 54.1758C576.815 56.1722 576.953 58.1685 577.572 59.9584Z" fill="url(#paint12_radial_114_1315)" fill-opacity="0.12"/>
</g>
<g opacity="0.16">
<g filter="url(#filter13_d_114_1315)">
<path d="M1092.86 159.198C1093.05 159.718 1093.48 160.135 1094.05 160.265C1094.94 160.465 1095.82 159.913 1096.02 159.019C1096.22 158.132 1095.67 157.249 1094.78 157.043C1093.9 156.843 1093.01 157.401 1092.81 158.289C1092.74 158.603 1092.77 158.917 1092.86 159.198Z" fill="#A398ED" fill-opacity="0.6" shape-rendering="crispEdges"/>
</g>
<path d="M1084.57 161.958C1085.74 165.263 1088.53 167.913 1092.18 168.739C1097.82 170.013 1103.47 166.502 1104.74 160.823C1106.01 155.178 1102.47 149.567 1096.82 148.259C1091.18 146.986 1085.54 150.531 1084.26 156.176C1083.82 158.172 1083.95 160.169 1084.57 161.958Z" fill="url(#paint13_radial_114_1315)" fill-opacity="0.12"/>
</g>
<g opacity="0.16">
<g filter="url(#filter14_d_114_1315)">
<path d="M216.863 103.198C217.046 103.718 217.483 104.135 218.055 104.265C218.939 104.465 219.824 103.913 220.023 103.019C220.223 102.132 219.667 101.249 218.783 101.043C217.898 100.843 217.014 101.401 216.814 102.289C216.744 102.603 216.766 102.917 216.863 103.198Z" fill="#A398ED" fill-opacity="0.6" shape-rendering="crispEdges"/>
</g>
<path d="M208.572 105.958C209.743 109.263 212.53 111.913 216.179 112.739C221.823 114.013 227.467 110.502 228.741 104.823C230.014 99.1776 226.469 93.5671 220.825 92.2591C215.181 90.9855 209.536 94.5308 208.263 100.176C207.815 102.172 207.953 104.169 208.572 105.958Z" fill="url(#paint14_radial_114_1315)" fill-opacity="0.12"/>
</g>
<g opacity="0.3">
<g filter="url(#filter15_d_114_1315)">
<path d="M680.863 201.198C681.046 201.718 681.483 202.135 682.055 202.265C682.939 202.465 683.824 201.913 684.023 201.019C684.223 200.132 683.667 199.249 682.783 199.043C681.898 198.843 681.014 199.401 680.814 200.289C680.744 200.603 680.766 200.917 680.863 201.198Z" fill="#A398ED"/>
</g>
<path d="M672.572 203.958C673.743 207.263 676.53 209.913 680.179 210.739C685.823 212.013 691.467 208.502 692.741 202.823C694.014 197.178 690.469 191.567 684.825 190.259C679.181 188.986 673.536 192.531 672.263 198.176C671.815 200.172 671.953 202.169 672.572 203.958Z" fill="url(#paint15_radial_114_1315)" fill-opacity="0.12"/>
</g>
<g opacity="0.3">
<g filter="url(#filter16_d_114_1315)">
<path d="M1068.86 47.1981C1069.05 47.7179 1069.48 48.1348 1070.05 48.2647C1070.94 48.465 1071.82 47.9128 1072.02 47.0195C1072.22 46.1315 1071.67 45.2491 1070.78 45.0433C1069.9 44.843 1069.01 45.4006 1068.81 46.2886C1068.74 46.6026 1068.77 46.9166 1068.86 47.1981Z" fill="#A398ED"/>
</g>
<path d="M1060.57 49.9584C1061.74 53.2628 1064.53 55.9131 1068.18 56.7392C1073.82 58.0128 1079.47 54.5019 1080.74 48.8225C1082.01 43.1776 1078.47 37.5671 1072.82 36.2591C1067.18 34.9855 1061.54 38.5308 1060.26 44.1758C1059.82 46.1722 1059.95 48.1685 1060.57 49.9584Z" fill="url(#paint16_radial_114_1315)" fill-opacity="0.12"/>
</g>
<g opacity="0.16">
<g filter="url(#filter17_d_114_1315)">
<path d="M1569.86 164.198C1570.05 164.718 1570.48 165.135 1571.05 165.265C1571.94 165.465 1572.82 164.913 1573.02 164.019C1573.22 163.132 1572.67 162.249 1571.78 162.043C1570.9 161.843 1570.01 162.401 1569.81 163.289C1569.74 163.603 1569.77 163.917 1569.86 164.198Z" fill="#A398ED" fill-opacity="0.6" shape-rendering="crispEdges"/>
</g>
<path d="M1561.57 166.958C1562.74 170.263 1565.53 172.913 1569.18 173.739C1574.82 175.013 1580.47 171.502 1581.74 165.823C1583.01 160.178 1579.47 154.567 1573.82 153.259C1568.18 151.986 1562.54 155.531 1561.26 161.176C1560.82 163.172 1560.95 165.169 1561.57 166.958Z" fill="url(#paint17_radial_114_1315)" fill-opacity="0.12"/>
</g>
<g opacity="0.62">
<g filter="url(#filter18_d_114_1315)">
<path d="M1320.86 185.198C1321.05 185.718 1321.48 186.135 1322.05 186.265C1322.94 186.465 1323.82 185.913 1324.02 185.019C1324.22 184.132 1323.67 183.249 1322.78 183.043C1321.9 182.843 1321.01 183.401 1320.81 184.289C1320.74 184.603 1320.77 184.917 1320.86 185.198Z" fill="#A398ED"/>
</g>
<path d="M1312.57 187.958C1313.74 191.263 1316.53 193.913 1320.18 194.739C1325.82 196.013 1331.47 192.502 1332.74 186.823C1334.01 181.178 1330.47 175.567 1324.82 174.259C1319.18 172.986 1313.54 176.531 1312.26 182.176C1311.82 184.172 1311.95 186.169 1312.57 187.958Z" fill="url(#paint18_radial_114_1315)" fill-opacity="0.12"/>
</g>
<g opacity="0.16">
<g filter="url(#filter19_d_114_1315)">
<path d="M1377.86 11.1981C1378.05 11.7179 1378.48 12.1348 1379.05 12.2647C1379.94 12.465 1380.82 11.9128 1381.02 11.0195C1381.22 10.1315 1380.67 9.24905 1379.78 9.04332C1378.9 8.843 1378.01 9.40065 1377.81 10.2886C1377.74 10.6026 1377.77 10.9166 1377.86 11.1981Z" fill="#A398ED" fill-opacity="0.6" shape-rendering="crispEdges"/>
</g>
<path d="M1369.57 13.9584C1370.74 17.2628 1373.53 19.9131 1377.18 20.7392C1382.82 22.0128 1388.47 18.5019 1389.74 12.8225C1391.01 7.17759 1387.47 1.56706 1381.82 0.259091C1376.18 -1.01446 1370.54 2.53084 1369.26 8.17578C1368.82 10.1722 1368.95 12.1685 1369.57 13.9584Z" fill="url(#paint19_radial_114_1315)" fill-opacity="0.12"/>
</g>
<g opacity="0.62">
<g filter="url(#filter20_d_114_1315)">
<path d="M334.863 42.1981C335.046 42.7179 335.483 43.1348 336.055 43.2647C336.939 43.465 337.824 42.9128 338.023 42.0195C338.223 41.1315 337.667 40.2491 336.783 40.0433C335.898 39.843 335.014 40.4006 334.814 41.2886C334.744 41.6026 334.766 41.9166 334.863 42.1981Z" fill="#A398ED"/>
</g>
<path d="M326.572 44.9584C327.743 48.2628 330.53 50.9131 334.179 51.7392C339.823 53.0128 345.467 49.5019 346.741 43.8225C348.014 38.1776 344.469 32.5671 338.825 31.2591C333.181 29.9855 327.536 33.5308 326.263 39.1758C325.815 41.1722 325.953 43.1685 326.572 44.9584Z" fill="url(#paint20_radial_114_1315)" fill-opacity="0.12"/>
</g>
<g opacity="0.56">
<g filter="url(#filter21_d_114_1315)">
<path d="M622.863 33.1981C623.046 33.7179 623.483 34.1348 624.055 34.2647C624.939 34.465 625.824 33.9128 626.023 33.0195C626.223 32.1315 625.667 31.2491 624.783 31.0433C623.898 30.843 623.014 31.4006 622.814 32.2886C622.744 32.6026 622.766 32.9166 622.863 33.1981Z" fill="#A398ED"/>
</g>
<path d="M614.572 35.9584C615.743 39.2628 618.53 41.9131 622.179 42.7392C627.823 44.0128 633.467 40.5019 634.741 34.8225C636.014 29.1776 632.469 23.5671 626.825 22.2591C621.181 20.9855 615.536 24.5308 614.263 30.1758C613.815 32.1722 613.953 34.1685 614.572 35.9584Z" fill="url(#paint21_radial_114_1315)" fill-opacity="0.12"/>
</g>
<g filter="url(#filter22_d_114_1315)">
<path d="M1319.86 112.198C1320.05 112.718 1320.48 113.135 1321.05 113.265C1321.94 113.465 1322.82 112.913 1323.02 112.019C1323.22 111.132 1322.67 110.249 1321.78 110.043C1320.9 109.843 1320.01 110.401 1319.81 111.289C1319.74 111.603 1319.77 111.917 1319.86 112.198Z" fill="#A398ED"/>
</g>
<path d="M1311.57 114.958C1312.74 118.263 1315.53 120.913 1319.18 121.739C1324.82 123.013 1330.47 119.502 1331.74 113.823C1333.01 108.178 1329.47 102.567 1323.82 101.259C1318.18 99.9855 1312.54 103.531 1311.26 109.176C1310.82 111.172 1310.95 113.169 1311.57 114.958Z" fill="url(#paint22_radial_114_1315)" fill-opacity="0.12"/>
<g filter="url(#filter23_d_114_1315)">
<path d="M35.8627 26.1981C36.0461 26.7179 36.4829 27.1348 37.0546 27.2647C37.9391 27.465 38.8236 26.9128 39.0231 26.0195C39.2227 25.1315 38.6672 24.2491 37.7827 24.0433C36.8982 23.843 36.0137 24.4006 35.8142 25.2886C35.7441 25.6026 35.7656 25.9166 35.8627 26.1981Z" fill="#A398ED"/>
</g>
<path d="M27.5725 28.9584C28.7426 32.2628 31.5304 34.9131 35.1787 35.7392C40.8231 37.0128 46.4675 33.5019 47.7409 27.8225C49.0144 22.1776 45.4694 16.5671 39.825 15.2591C34.1806 13.9855 28.5361 17.5308 27.2627 23.1758C26.8153 25.1722 26.9529 27.1685 27.5725 28.9584Z" fill="url(#paint23_radial_114_1315)" fill-opacity="0.12"/>
<g filter="url(#filter24_d_114_1315)">
<path d="M1523.86 48.1981C1524.05 48.7179 1524.48 49.1348 1525.05 49.2647C1525.94 49.465 1526.82 48.9128 1527.02 48.0195C1527.22 47.1315 1526.67 46.2491 1525.78 46.0433C1524.9 45.843 1524.01 46.4006 1523.81 47.2886C1523.74 47.6026 1523.77 47.9166 1523.86 48.1981Z" fill="#A398ED"/>
</g>
<path d="M1515.57 50.9584C1516.74 54.2628 1519.53 56.9131 1523.18 57.7392C1528.82 59.0128 1534.47 55.5019 1535.74 49.8225C1537.01 44.1776 1533.47 38.5671 1527.82 37.2591C1522.18 35.9855 1516.54 39.5308 1515.26 45.1758C1514.82 47.1722 1514.95 49.1685 1515.57 50.9584Z" fill="url(#paint24_radial_114_1315)" fill-opacity="0.12"/>
<g filter="url(#filter25_d_114_1315)">
<path d="M1441.86 72.1981C1442.05 72.7179 1442.48 73.1348 1443.05 73.2647C1443.94 73.465 1444.82 72.9128 1445.02 72.0195C1445.22 71.1315 1444.67 70.2491 1443.78 70.0433C1442.9 69.843 1442.01 70.4006 1441.81 71.2886C1441.74 71.6026 1441.77 71.9166 1441.86 72.1981Z" fill="#A398ED"/>
</g>
<path d="M1433.57 74.9584C1434.74 78.2628 1437.53 80.9131 1441.18 81.7392C1446.82 83.0128 1452.47 79.5019 1453.74 73.8225C1455.01 68.1776 1451.47 62.5671 1445.82 61.2591C1440.18 59.9855 1434.54 63.5308 1433.26 69.1758C1432.82 71.1722 1432.95 73.1685 1433.57 74.9584Z" fill="url(#paint25_radial_114_1315)" fill-opacity="0.12"/>
<g filter="url(#filter26_d_114_1315)">
<path d="M267.863 218.198C268.046 218.718 268.483 219.135 269.055 219.265C269.939 219.465 270.824 218.913 271.023 218.019C271.223 217.132 270.667 216.249 269.783 216.043C268.898 215.843 268.014 216.401 267.814 217.289C267.744 217.603 267.766 217.917 267.863 218.198Z" fill="#A398ED"/>
</g>
<path d="M259.572 220.958C260.743 224.263 263.53 226.913 267.179 227.739C272.823 229.013 278.467 225.502 279.741 219.823C281.014 214.178 277.469 208.567 271.825 207.259C266.181 205.986 260.536 209.531 259.263 215.176C258.815 217.172 258.953 219.169 259.572 220.958Z" fill="url(#paint26_radial_114_1315)" fill-opacity="0.12"/>
<defs>
<filter id="filter0_d_114_1315" x="230.773" y="50.0026" width="13.2907" height="13.3032" filterUnits="userSpaceOnUse" color-interpolation-filters="sRGB">
<feFlood flood-opacity="0" result="BackgroundImageFix"/>
<feColorMatrix in="SourceAlpha" type="matrix" values="0 0 0 0 0 0 0 0 0 0 0 0 0 0 0 0 0 0 127 0" result="hardAlpha"/>
<feOffset/>
<feGaussianBlur stdDeviation="2.5"/>
<feComposite in2="hardAlpha" operator="out"/>
<feColorMatrix type="matrix" values="0 0 0 0 0.596078 0 0 0 0 0.45098 0 0 0 0 1 0 0 0 1 0"/>
<feBlend mode="normal" in2="BackgroundImageFix" result="effect1_dropShadow_114_1315"/>
<feBlend mode="normal" in="SourceGraphic" in2="effect1_dropShadow_114_1315" result="shape"/>
</filter>
<filter id="filter1_d_114_1315" x="378.773" y="155.003" width="13.2907" height="13.3032" filterUnits="userSpaceOnUse" color-interpolation-filters="sRGB">
<feFlood flood-opacity="0" result="BackgroundImageFix"/>
<feColorMatrix in="SourceAlpha" type="matrix" values="0 0 0 0 0 0 0 0 0 0 0 0 0 0 0 0 0 0 127 0" result="hardAlpha"/>
<feOffset/>
<feGaussianBlur stdDeviation="2.5"/>
<feComposite in2="hardAlpha" operator="out"/>
<feColorMatrix type="matrix" values="0 0 0 0 0.596078 0 0 0 0 0.45098 0 0 0 0 1 0 0 0 1 0"/>
<feBlend mode="normal" in2="BackgroundImageFix" result="effect1_dropShadow_114_1315"/>
<feBlend mode="normal" in="SourceGraphic" in2="effect1_dropShadow_114_1315" result="shape"/>
</filter>
<filter id="filter2_d_114_1315" x="844.773" y="215.003" width="13.2907" height="13.3032" filterUnits="userSpaceOnUse" color-interpolation-filters="sRGB">
<feFlood flood-opacity="0" result="BackgroundImageFix"/>
<feColorMatrix in="SourceAlpha" type="matrix" values="0 0 0 0 0 0 0 0 0 0 0 0 0 0 0 0 0 0 127 0" result="hardAlpha"/>
<feOffset/>
<feGaussianBlur stdDeviation="2.5"/>
<feComposite in2="hardAlpha" operator="out"/>
<feColorMatrix type="matrix" values="0 0 0 0 0.596078 0 0 0 0 0.45098 0 0 0 0 1 0 0 0 1 0"/>
<feBlend mode="normal" in2="BackgroundImageFix" result="effect1_dropShadow_114_1315"/>
<feBlend mode="normal" in="SourceGraphic" in2="effect1_dropShadow_114_1315" result="shape"/>
</filter>
<filter id="filter3_d_114_1315" x="460.773" y="17.0026" width="13.2907" height="13.3032" filterUnits="userSpaceOnUse" color-interpolation-filters="sRGB">
<feFlood flood-opacity="0" result="BackgroundImageFix"/>
<feColorMatrix in="SourceAlpha" type="matrix" values="0 0 0 0 0 0 0 0 0 0 0 0 0 0 0 0 0 0 127 0" result="hardAlpha"/>
<feOffset/>
<feGaussianBlur stdDeviation="2.5"/>
<feComposite in2="hardAlpha" operator="out"/>
<feColorMatrix type="matrix" values="0 0 0 0 0.596078 0 0 0 0 0.45098 0 0 0 0 1 0 0 0 1 0"/>
<feBlend mode="normal" in2="BackgroundImageFix" result="effect1_dropShadow_114_1315"/>
<feBlend mode="normal" in="SourceGraphic" in2="effect1_dropShadow_114_1315" result="shape"/>
</filter>
<filter id="filter4_d_114_1315" x="926.773" y="77.0026" width="13.2907" height="13.3032" filterUnits="userSpaceOnUse" color-interpolation-filters="sRGB">
<feFlood flood-opacity="0" result="BackgroundImageFix"/>
<feColorMatrix in="SourceAlpha" type="matrix" values="0 0 0 0 0 0 0 0 0 0 0 0 0 0 0 0 0 0 127 0" result="hardAlpha"/>
<feOffset/>
<feGaussianBlur stdDeviation="2.5"/>
<feComposite in2="hardAlpha" operator="out"/>
<feColorMatrix type="matrix" values="0 0 0 0 0.596078 0 0 0 0 0.45098 0 0 0 0 1 0 0 0 1 0"/>
<feBlend mode="normal" in2="BackgroundImageFix" result="effect1_dropShadow_114_1315"/>
<feBlend mode="normal" in="SourceGraphic" in2="effect1_dropShadow_114_1315" result="shape"/>
</filter>
<filter id="filter5_d_114_1315" x="1019.77" y="117.003" width="13.2907" height="13.3032" filterUnits="userSpaceOnUse" color-interpolation-filters="sRGB">
<feFlood flood-opacity="0" result="BackgroundImageFix"/>
<feColorMatrix in="SourceAlpha" type="matrix" values="0 0 0 0 0 0 0 0 0 0 0 0 0 0 0 0 0 0 127 0" result="hardAlpha"/>
<feOffset/>
<feGaussianBlur stdDeviation="2.5"/>
<feComposite in2="hardAlpha" operator="out"/>
<feColorMatrix type="matrix" values="0 0 0 0 0.596078 0 0 0 0 0.45098 0 0 0 0 1 0 0 0 1 0"/>
<feBlend mode="normal" in2="BackgroundImageFix" result="effect1_dropShadow_114_1315"/>
<feBlend mode="normal" in="SourceGraphic" in2="effect1_dropShadow_114_1315" result="shape"/>
</filter>
<filter id="filter6_d_114_1315" x="717.773" y="42.0026" width="13.2907" height="13.3032" filterUnits="userSpaceOnUse" color-interpolation-filters="sRGB">
<feFlood flood-opacity="0" result="BackgroundImageFix"/>
<feColorMatrix in="SourceAlpha" type="matrix" values="0 0 0 0 0 0 0 0 0 0 0 0 0 0 0 0 0 0 127 0" result="hardAlpha"/>
<feOffset/>
<feGaussianBlur stdDeviation="2.5"/>
<feComposite in2="hardAlpha" operator="out"/>
<feColorMatrix type="matrix" values="0 0 0 0 0.596078 0 0 0 0 0.45098 0 0 0 0 1 0 0 0 1 0"/>
<feBlend mode="normal" in2="BackgroundImageFix" result="effect1_dropShadow_114_1315"/>
<feBlend mode="normal" in="SourceGraphic" in2="effect1_dropShadow_114_1315" result="shape"/>
</filter>
<filter id="filter7_d_114_1315" x="3.77301" y="216.003" width="13.2907" height="13.3032" filterUnits="userSpaceOnUse" color-interpolation-filters="sRGB">
<feFlood flood-opacity="0" result="BackgroundImageFix"/>
<feColorMatrix in="SourceAlpha" type="matrix" values="0 0 0 0 0 0 0 0 0 0 0 0 0 0 0 0 0 0 127 0" result="hardAlpha"/>
<feOffset/>
<feGaussianBlur stdDeviation="2.5"/>
<feComposite in2="hardAlpha" operator="out"/>
<feColorMatrix type="matrix" values="0 0 0 0 0.596078 0 0 0 0 0.45098 0 0 0 0 1 0 0 0 1 0"/>
<feBlend mode="normal" in2="BackgroundImageFix" result="effect1_dropShadow_114_1315"/>
<feBlend mode="normal" in="SourceGraphic" in2="effect1_dropShadow_114_1315" result="shape"/>
</filter>
<filter id="filter8_d_114_1315" x="439.773" y="164.003" width="13.2907" height="13.3032" filterUnits="userSpaceOnUse" color-interpolation-filters="sRGB">
<feFlood flood-opacity="0" result="BackgroundImageFix"/>
<feColorMatrix in="SourceAlpha" type="matrix" values="0 0 0 0 0 0 0 0 0 0 0 0 0 0 0 0 0 0 127 0" result="hardAlpha"/>
<feOffset/>
<feGaussianBlur stdDeviation="2.5"/>
<feComposite in2="hardAlpha" operator="out"/>
<feColorMatrix type="matrix" values="0 0 0 0 0.596078 0 0 0 0 0.45098 0 0 0 0 1 0 0 0 1 0"/>
<feBlend mode="normal" in2="BackgroundImageFix" result="effect1_dropShadow_114_1315"/>
<feBlend mode="normal" in="SourceGraphic" in2="effect1_dropShadow_114_1315" result="shape"/>
</filter>
<filter id="filter9_d_114_1315" x="1229.77" y="28.0026" width="13.2907" height="13.3032" filterUnits="userSpaceOnUse" color-interpolation-filters="sRGB">
<feFlood flood-opacity="0" result="BackgroundImageFix"/>
<feColorMatrix in="SourceAlpha" type="matrix" values="0 0 0 0 0 0 0 0 0 0 0 0 0 0 0 0 0 0 127 0" result="hardAlpha"/>
<feOffset/>
<feGaussianBlur stdDeviation="2.5"/>
<feComposite in2="hardAlpha" operator="out"/>
<feColorMatrix type="matrix" values="0 0 0 0 0.596078 0 0 0 0 0.45098 0 0 0 0 1 0 0 0 1 0"/>
<feBlend mode="normal" in2="BackgroundImageFix" result="effect1_dropShadow_114_1315"/>
<feBlend mode="normal" in="SourceGraphic" in2="effect1_dropShadow_114_1315" result="shape"/>
</filter>
<filter id="filter10_d_114_1315" x="87.773" y="247.003" width="13.2907" height="13.3032" filterUnits="userSpaceOnUse" color-interpolation-filters="sRGB">
<feFlood flood-opacity="0" result="BackgroundImageFix"/>
<feColorMatrix in="SourceAlpha" type="matrix" values="0 0 0 0 0 0 0 0 0 0 0 0 0 0 0 0 0 0 127 0" result="hardAlpha"/>
<feOffset/>
<feGaussianBlur stdDeviation="2.5"/>
<feComposite in2="hardAlpha" operator="out"/>
<feColorMatrix type="matrix" values="0 0 0 0 0.596078 0 0 0 0 0.45098 0 0 0 0 1 0 0 0 1 0"/>
<feBlend mode="normal" in2="BackgroundImageFix" result="effect1_dropShadow_114_1315"/>
<feBlend mode="normal" in="SourceGraphic" in2="effect1_dropShadow_114_1315" result="shape"/>
</filter>
<filter id="filter11_d_114_1315" x="1147.77" y="96.0026" width="13.2907" height="13.3032" filterUnits="userSpaceOnUse" color-interpolation-filters="sRGB">
<feFlood flood-opacity="0" result="BackgroundImageFix"/>
<feColorMatrix in="SourceAlpha" type="matrix" values="0 0 0 0 0 0 0 0 0 0 0 0 0 0 0 0 0 0 127 0" result="hardAlpha"/>
<feOffset/>
<feGaussianBlur stdDeviation="2.5"/>
<feComposite in2="hardAlpha" operator="out"/>
<feColorMatrix type="matrix" values="0 0 0 0 0.596078 0 0 0 0 0.45098 0 0 0 0 1 0 0 0 1 0"/>
<feBlend mode="normal" in2="BackgroundImageFix" result="effect1_dropShadow_114_1315"/>
<feBlend mode="normal" in="SourceGraphic" in2="effect1_dropShadow_114_1315" result="shape"/>
</filter>
<filter id="filter12_d_114_1315" x="580.773" y="50.0026" width="13.2907" height="13.3032" filterUnits="userSpaceOnUse" color-interpolation-filters="sRGB">
<feFlood flood-opacity="0" result="BackgroundImageFix"/>
<feColorMatrix in="SourceAlpha" type="matrix" values="0 0 0 0 0 0 0 0 0 0 0 0 0 0 0 0 0 0 127 0" result="hardAlpha"/>
<feOffset/>
<feGaussianBlur stdDeviation="2.5"/>
<feComposite in2="hardAlpha" operator="out"/>
<feColorMatrix type="matrix" values="0 0 0 0 0.596078 0 0 0 0 0.45098 0 0 0 0 1 0 0 0 1 0"/>
<feBlend mode="normal" in2="BackgroundImageFix" result="effect1_dropShadow_114_1315"/>
<feBlend mode="normal" in="SourceGraphic" in2="effect1_dropShadow_114_1315" result="shape"/>
</filter>
<filter id="filter13_d_114_1315" x="1087.77" y="152.003" width="13.2907" height="13.3032" filterUnits="userSpaceOnUse" color-interpolation-filters="sRGB">
<feFlood flood-opacity="0" result="BackgroundImageFix"/>
<feColorMatrix in="SourceAlpha" type="matrix" values="0 0 0 0 0 0 0 0 0 0 0 0 0 0 0 0 0 0 127 0" result="hardAlpha"/>
<feOffset/>
<feGaussianBlur stdDeviation="2.5"/>
<feComposite in2="hardAlpha" operator="out"/>
<feColorMatrix type="matrix" values="0 0 0 0 0.596078 0 0 0 0 0.45098 0 0 0 0 1 0 0 0 1 0"/>
<feBlend mode="normal" in2="BackgroundImageFix" result="effect1_dropShadow_114_1315"/>
<feBlend mode="normal" in="SourceGraphic" in2="effect1_dropShadow_114_1315" result="shape"/>
</filter>
<filter id="filter14_d_114_1315" x="211.773" y="96.0026" width="13.2907" height="13.3032" filterUnits="userSpaceOnUse" color-interpolation-filters="sRGB">
<feFlood flood-opacity="0" result="BackgroundImageFix"/>
<feColorMatrix in="SourceAlpha" type="matrix" values="0 0 0 0 0 0 0 0 0 0 0 0 0 0 0 0 0 0 127 0" result="hardAlpha"/>
<feOffset/>
<feGaussianBlur stdDeviation="2.5"/>
<feComposite in2="hardAlpha" operator="out"/>
<feColorMatrix type="matrix" values="0 0 0 0 0.596078 0 0 0 0 0.45098 0 0 0 0 1 0 0 0 1 0"/>
<feBlend mode="normal" in2="BackgroundImageFix" result="effect1_dropShadow_114_1315"/>
<feBlend mode="normal" in="SourceGraphic" in2="effect1_dropShadow_114_1315" result="shape"/>
</filter>
<filter id="filter15_d_114_1315" x="675.773" y="194.003" width="13.2907" height="13.3032" filterUnits="userSpaceOnUse" color-interpolation-filters="sRGB">
<feFlood flood-opacity="0" result="BackgroundImageFix"/>
<feColorMatrix in="SourceAlpha" type="matrix" values="0 0 0 0 0 0 0 0 0 0 0 0 0 0 0 0 0 0 127 0" result="hardAlpha"/>
<feOffset/>
<feGaussianBlur stdDeviation="2.5"/>
<feComposite in2="hardAlpha" operator="out"/>
<feColorMatrix type="matrix" values="0 0 0 0 0.596078 0 0 0 0 0.45098 0 0 0 0 1 0 0 0 1 0"/>
<feBlend mode="normal" in2="BackgroundImageFix" result="effect1_dropShadow_114_1315"/>
<feBlend mode="normal" in="SourceGraphic" in2="effect1_dropShadow_114_1315" result="shape"/>
</filter>
<filter id="filter16_d_114_1315" x="1063.77" y="40.0026" width="13.2907" height="13.3032" filterUnits="userSpaceOnUse" color-interpolation-filters="sRGB">
<feFlood flood-opacity="0" result="BackgroundImageFix"/>
<feColorMatrix in="SourceAlpha" type="matrix" values="0 0 0 0 0 0 0 0 0 0 0 0 0 0 0 0 0 0 127 0" result="hardAlpha"/>
<feOffset/>
<feGaussianBlur stdDeviation="2.5"/>
<feComposite in2="hardAlpha" operator="out"/>
<feColorMatrix type="matrix" values="0 0 0 0 0.596078 0 0 0 0 0.45098 0 0 0 0 1 0 0 0 1 0"/>
<feBlend mode="normal" in2="BackgroundImageFix" result="effect1_dropShadow_114_1315"/>
<feBlend mode="normal" in="SourceGraphic" in2="effect1_dropShadow_114_1315" result="shape"/>
</filter>
<filter id="filter17_d_114_1315" x="1564.77" y="157.003" width="13.2906" height="13.3032" filterUnits="userSpaceOnUse" color-interpolation-filters="sRGB">
<feFlood flood-opacity="0" result="BackgroundImageFix"/>
<feColorMatrix in="SourceAlpha" type="matrix" values="0 0 0 0 0 0 0 0 0 0 0 0 0 0 0 0 0 0 127 0" result="hardAlpha"/>
<feOffset/>
<feGaussianBlur stdDeviation="2.5"/>
<feComposite in2="hardAlpha" operator="out"/>
<feColorMatrix type="matrix" values="0 0 0 0 0.596078 0 0 0 0 0.45098 0 0 0 0 1 0 0 0 1 0"/>
<feBlend mode="normal" in2="BackgroundImageFix" result="effect1_dropShadow_114_1315"/>
<feBlend mode="normal" in="SourceGraphic" in2="effect1_dropShadow_114_1315" result="shape"/>
</filter>
<filter id="filter18_d_114_1315" x="1315.77" y="178.003" width="13.2907" height="13.3032" filterUnits="userSpaceOnUse" color-interpolation-filters="sRGB">
<feFlood flood-opacity="0" result="BackgroundImageFix"/>
<feColorMatrix in="SourceAlpha" type="matrix" values="0 0 0 0 0 0 0 0 0 0 0 0 0 0 0 0 0 0 127 0" result="hardAlpha"/>
<feOffset/>
<feGaussianBlur stdDeviation="2.5"/>
<feComposite in2="hardAlpha" operator="out"/>
<feColorMatrix type="matrix" values="0 0 0 0 0.596078 0 0 0 0 0.45098 0 0 0 0 1 0 0 0 1 0"/>
<feBlend mode="normal" in2="BackgroundImageFix" result="effect1_dropShadow_114_1315"/>
<feBlend mode="normal" in="SourceGraphic" in2="effect1_dropShadow_114_1315" result="shape"/>
</filter>
<filter id="filter19_d_114_1315" x="1372.77" y="4.00256" width="13.2907" height="13.3032" filterUnits="userSpaceOnUse" color-interpolation-filters="sRGB">
<feFlood flood-opacity="0" result="BackgroundImageFix"/>
<feColorMatrix in="SourceAlpha" type="matrix" values="0 0 0 0 0 0 0 0 0 0 0 0 0 0 0 0 0 0 127 0" result="hardAlpha"/>
<feOffset/>
<feGaussianBlur stdDeviation="2.5"/>
<feComposite in2="hardAlpha" operator="out"/>
<feColorMatrix type="matrix" values="0 0 0 0 0.596078 0 0 0 0 0.45098 0 0 0 0 1 0 0 0 1 0"/>
<feBlend mode="normal" in2="BackgroundImageFix" result="effect1_dropShadow_114_1315"/>
<feBlend mode="normal" in="SourceGraphic" in2="effect1_dropShadow_114_1315" result="shape"/>
</filter>
<filter id="filter20_d_114_1315" x="329.773" y="35.0026" width="13.2907" height="13.3032" filterUnits="userSpaceOnUse" color-interpolation-filters="sRGB">
<feFlood flood-opacity="0" result="BackgroundImageFix"/>
<feColorMatrix in="SourceAlpha" type="matrix" values="0 0 0 0 0 0 0 0 0 0 0 0 0 0 0 0 0 0 127 0" result="hardAlpha"/>
<feOffset/>
<feGaussianBlur stdDeviation="2.5"/>
<feComposite in2="hardAlpha" operator="out"/>
<feColorMatrix type="matrix" values="0 0 0 0 0.596078 0 0 0 0 0.45098 0 0 0 0 1 0 0 0 1 0"/>
<feBlend mode="normal" in2="BackgroundImageFix" result="effect1_dropShadow_114_1315"/>
<feBlend mode="normal" in="SourceGraphic" in2="effect1_dropShadow_114_1315" result="shape"/>
</filter>
<filter id="filter21_d_114_1315" x="617.773" y="26.0026" width="13.2907" height="13.3032" filterUnits="userSpaceOnUse" color-interpolation-filters="sRGB">
<feFlood flood-opacity="0" result="BackgroundImageFix"/>
<feColorMatrix in="SourceAlpha" type="matrix" values="0 0 0 0 0 0 0 0 0 0 0 0 0 0 0 0 0 0 127 0" result="hardAlpha"/>
<feOffset/>
<feGaussianBlur stdDeviation="2.5"/>
<feComposite in2="hardAlpha" operator="out"/>
<feColorMatrix type="matrix" values="0 0 0 0 0.596078 0 0 0 0 0.45098 0 0 0 0 1 0 0 0 1 0"/>
<feBlend mode="normal" in2="BackgroundImageFix" result="effect1_dropShadow_114_1315"/>
<feBlend mode="normal" in="SourceGraphic" in2="effect1_dropShadow_114_1315" result="shape"/>
</filter>
<filter id="filter22_d_114_1315" x="1314.77" y="105.003" width="13.2907" height="13.3032" filterUnits="userSpaceOnUse" color-interpolation-filters="sRGB">
<feFlood flood-opacity="0" result="BackgroundImageFix"/>
<feColorMatrix in="SourceAlpha" type="matrix" values="0 0 0 0 0 0 0 0 0 0 0 0 0 0 0 0 0 0 127 0" result="hardAlpha"/>
<feOffset/>
<feGaussianBlur stdDeviation="2.5"/>
<feComposite in2="hardAlpha" operator="out"/>
<feColorMatrix type="matrix" values="0 0 0 0 0.596078 0 0 0 0 0.45098 0 0 0 0 1 0 0 0 1 0"/>
<feBlend mode="normal" in2="BackgroundImageFix" result="effect1_dropShadow_114_1315"/>
<feBlend mode="normal" in="SourceGraphic" in2="effect1_dropShadow_114_1315" result="shape"/>
</filter>
<filter id="filter23_d_114_1315" x="30.773" y="19.0026" width="13.2907" height="13.3032" filterUnits="userSpaceOnUse" color-interpolation-filters="sRGB">
<feFlood flood-opacity="0" result="BackgroundImageFix"/>
<feColorMatrix in="SourceAlpha" type="matrix" values="0 0 0 0 0 0 0 0 0 0 0 0 0 0 0 0 0 0 127 0" result="hardAlpha"/>
<feOffset/>
<feGaussianBlur stdDeviation="2.5"/>
<feComposite in2="hardAlpha" operator="out"/>
<feColorMatrix type="matrix" values="0 0 0 0 0.596078 0 0 0 0 0.45098 0 0 0 0 1 0 0 0 1 0"/>
<feBlend mode="normal" in2="BackgroundImageFix" result="effect1_dropShadow_114_1315"/>
<feBlend mode="normal" in="SourceGraphic" in2="effect1_dropShadow_114_1315" result="shape"/>
</filter>
<filter id="filter24_d_114_1315" x="1518.77" y="41.0026" width="13.2906" height="13.3032" filterUnits="userSpaceOnUse" color-interpolation-filters="sRGB">
<feFlood flood-opacity="0" result="BackgroundImageFix"/>
<feColorMatrix in="SourceAlpha" type="matrix" values="0 0 0 0 0 0 0 0 0 0 0 0 0 0 0 0 0 0 127 0" result="hardAlpha"/>
<feOffset/>
<feGaussianBlur stdDeviation="2.5"/>
<feComposite in2="hardAlpha" operator="out"/>
<feColorMatrix type="matrix" values="0 0 0 0 0.596078 0 0 0 0 0.45098 0 0 0 0 1 0 0 0 1 0"/>
<feBlend mode="normal" in2="BackgroundImageFix" result="effect1_dropShadow_114_1315"/>
<feBlend mode="normal" in="SourceGraphic" in2="effect1_dropShadow_114_1315" result="shape"/>
</filter>
<filter id="filter25_d_114_1315" x="1436.77" y="65.0026" width="13.2907" height="13.3032" filterUnits="userSpaceOnUse" color-interpolation-filters="sRGB">
<feFlood flood-opacity="0" result="BackgroundImageFix"/>
<feColorMatrix in="SourceAlpha" type="matrix" values="0 0 0 0 0 0 0 0 0 0 0 0 0 0 0 0 0 0 127 0" result="hardAlpha"/>
<feOffset/>
<feGaussianBlur stdDeviation="2.5"/>
<feComposite in2="hardAlpha" operator="out"/>
<feColorMatrix type="matrix" values="0 0 0 0 0.596078 0 0 0 0 0.45098 0 0 0 0 1 0 0 0 1 0"/>
<feBlend mode="normal" in2="BackgroundImageFix" result="effect1_dropShadow_114_1315"/>
<feBlend mode="normal" in="SourceGraphic" in2="effect1_dropShadow_114_1315" result="shape"/>
</filter>
<filter id="filter26_d_114_1315" x="262.773" y="211.003" width="13.2907" height="13.3032" filterUnits="userSpaceOnUse" color-interpolation-filters="sRGB">
<feFlood flood-opacity="0" result="BackgroundImageFix"/>
<feColorMatrix in="SourceAlpha" type="matrix" values="0 0 0 0 0 0 0 0 0 0 0 0 0 0 0 0 0 0 127 0" result="hardAlpha"/>
<feOffset/>
<feGaussianBlur stdDeviation="2.5"/>
<feComposite in2="hardAlpha" operator="out"/>
<feColorMatrix type="matrix" values="0 0 0 0 0.596078 0 0 0 0 0.45098 0 0 0 0 1 0 0 0 1 0"/>
<feBlend mode="normal" in2="BackgroundImageFix" result="effect1_dropShadow_114_1315"/>
<feBlend mode="normal" in="SourceGraphic" in2="effect1_dropShadow_114_1315" result="shape"/>
</filter>
<radialGradient id="paint0_radial_114_1315" cx="0" cy="0" r="1" gradientUnits="userSpaceOnUse" gradientTransform="translate(237.5 56.5) rotate(90) scale(10.5)">
<stop stop-color="#A398ED"/>
<stop offset="1" stop-color="#A398ED" stop-opacity="0"/>
</radialGradient>
<radialGradient id="paint1_radial_114_1315" cx="0" cy="0" r="1" gradientUnits="userSpaceOnUse" gradientTransform="translate(385.5 161.5) rotate(90) scale(10.5)">
<stop stop-color="#A398ED"/>
<stop offset="1" stop-color="#A398ED" stop-opacity="0"/>
</radialGradient>
<radialGradient id="paint2_radial_114_1315" cx="0" cy="0" r="1" gradientUnits="userSpaceOnUse" gradientTransform="translate(851.5 221.5) rotate(90) scale(10.5)">
<stop stop-color="#A398ED"/>
<stop offset="1" stop-color="#A398ED" stop-opacity="0"/>
</radialGradient>
<radialGradient id="paint3_radial_114_1315" cx="0" cy="0" r="1" gradientUnits="userSpaceOnUse" gradientTransform="translate(467.5 23.5) rotate(90) scale(10.5)">
<stop stop-color="#A398ED"/>
<stop offset="1" stop-color="#A398ED" stop-opacity="0"/>
</radialGradient>
<radialGradient id="paint4_radial_114_1315" cx="0" cy="0" r="1" gradientUnits="userSpaceOnUse" gradientTransform="translate(933.5 83.5) rotate(90) scale(10.5)">
<stop stop-color="#A398ED"/>
<stop offset="1" stop-color="#A398ED" stop-opacity="0"/>
</radialGradient>
<radialGradient id="paint5_radial_114_1315" cx="0" cy="0" r="1" gradientUnits="userSpaceOnUse" gradientTransform="translate(1026.5 123.5) rotate(90) scale(10.5)">
<stop stop-color="#A398ED"/>
<stop offset="1" stop-color="#A398ED" stop-opacity="0"/>
</radialGradient>
<radialGradient id="paint6_radial_114_1315" cx="0" cy="0" r="1" gradientUnits="userSpaceOnUse" gradientTransform="translate(724.5 48.5) rotate(90) scale(10.5)">
<stop stop-color="#A398ED"/>
<stop offset="1" stop-color="#A398ED" stop-opacity="0"/>
</radialGradient>
<radialGradient id="paint7_radial_114_1315" cx="0" cy="0" r="1" gradientUnits="userSpaceOnUse" gradientTransform="translate(10.5 222.5) rotate(90) scale(10.5)">
<stop stop-color="#A398ED"/>
<stop offset="1" stop-color="#A398ED" stop-opacity="0"/>
</radialGradient>
<radialGradient id="paint8_radial_114_1315" cx="0" cy="0" r="1" gradientUnits="userSpaceOnUse" gradientTransform="translate(446.5 170.5) rotate(90) scale(10.5)">
<stop stop-color="#A398ED"/>
<stop offset="1" stop-color="#A398ED" stop-opacity="0"/>
</radialGradient>
<radialGradient id="paint9_radial_114_1315" cx="0" cy="0" r="1" gradientUnits="userSpaceOnUse" gradientTransform="translate(1236.5 34.5) rotate(90) scale(10.5)">
<stop stop-color="#A398ED"/>
<stop offset="1" stop-color="#A398ED" stop-opacity="0"/>
</radialGradient>
<radialGradient id="paint10_radial_114_1315" cx="0" cy="0" r="1" gradientUnits="userSpaceOnUse" gradientTransform="translate(94.5 253.5) rotate(90) scale(10.5)">
<stop stop-color="#A398ED"/>
<stop offset="1" stop-color="#A398ED" stop-opacity="0"/>
</radialGradient>
<radialGradient id="paint11_radial_114_1315" cx="0" cy="0" r="1" gradientUnits="userSpaceOnUse" gradientTransform="translate(1154.5 102.5) rotate(90) scale(10.5)">
<stop stop-color="#A398ED"/>
<stop offset="1" stop-color="#A398ED" stop-opacity="0"/>
</radialGradient>
<radialGradient id="paint12_radial_114_1315" cx="0" cy="0" r="1" gradientUnits="userSpaceOnUse" gradientTransform="translate(587.5 56.5) rotate(90) scale(10.5)">
<stop stop-color="#A398ED"/>
<stop offset="1" stop-color="#A398ED" stop-opacity="0"/>
</radialGradient>
<radialGradient id="paint13_radial_114_1315" cx="0" cy="0" r="1" gradientUnits="userSpaceOnUse" gradientTransform="translate(1094.5 158.5) rotate(90) scale(10.5)">
<stop stop-color="#A398ED"/>
<stop offset="1" stop-color="#A398ED" stop-opacity="0"/>
</radialGradient>
<radialGradient id="paint14_radial_114_1315" cx="0" cy="0" r="1" gradientUnits="userSpaceOnUse" gradientTransform="translate(218.5 102.5) rotate(90) scale(10.5)">
<stop stop-color="#A398ED"/>
<stop offset="1" stop-color="#A398ED" stop-opacity="0"/>
</radialGradient>
<radialGradient id="paint15_radial_114_1315" cx="0" cy="0" r="1" gradientUnits="userSpaceOnUse" gradientTransform="translate(682.5 200.5) rotate(90) scale(10.5)">
<stop stop-color="#A398ED"/>
<stop offset="1" stop-color="#A398ED" stop-opacity="0"/>
</radialGradient>
<radialGradient id="paint16_radial_114_1315" cx="0" cy="0" r="1" gradientUnits="userSpaceOnUse" gradientTransform="translate(1070.5 46.5) rotate(90) scale(10.5)">
<stop stop-color="#A398ED"/>
<stop offset="1" stop-color="#A398ED" stop-opacity="0"/>
</radialGradient>
<radialGradient id="paint17_radial_114_1315" cx="0" cy="0" r="1" gradientUnits="userSpaceOnUse" gradientTransform="translate(1571.5 163.5) rotate(90) scale(10.5)">
<stop stop-color="#A398ED"/>
<stop offset="1" stop-color="#A398ED" stop-opacity="0"/>
</radialGradient>
<radialGradient id="paint18_radial_114_1315" cx="0" cy="0" r="1" gradientUnits="userSpaceOnUse" gradientTransform="translate(1322.5 184.5) rotate(90) scale(10.5)">
<stop stop-color="#A398ED"/>
<stop offset="1" stop-color="#A398ED" stop-opacity="0"/>
</radialGradient>
<radialGradient id="paint19_radial_114_1315" cx="0" cy="0" r="1" gradientUnits="userSpaceOnUse" gradientTransform="translate(1379.5 10.5) rotate(90) scale(10.5)">
<stop stop-color="#A398ED"/>
<stop offset="1" stop-color="#A398ED" stop-opacity="0"/>
</radialGradient>
<radialGradient id="paint20_radial_114_1315" cx="0" cy="0" r="1" gradientUnits="userSpaceOnUse" gradientTransform="translate(336.5 41.5) rotate(90) scale(10.5)">
<stop stop-color="#A398ED"/>
<stop offset="1" stop-color="#A398ED" stop-opacity="0"/>
</radialGradient>
<radialGradient id="paint21_radial_114_1315" cx="0" cy="0" r="1" gradientUnits="userSpaceOnUse" gradientTransform="translate(624.5 32.5) rotate(90) scale(10.5)">
<stop stop-color="#A398ED"/>
<stop offset="1" stop-color="#A398ED" stop-opacity="0"/>
</radialGradient>
<radialGradient id="paint22_radial_114_1315" cx="0" cy="0" r="1" gradientUnits="userSpaceOnUse" gradientTransform="translate(1321.5 111.5) rotate(90) scale(10.5)">
<stop stop-color="#A398ED"/>
<stop offset="1" stop-color="#A398ED" stop-opacity="0"/>
</radialGradient>
<radialGradient id="paint23_radial_114_1315" cx="0" cy="0" r="1" gradientUnits="userSpaceOnUse" gradientTransform="translate(37.5 25.5) rotate(90) scale(10.5)">
<stop stop-color="#A398ED"/>
<stop offset="1" stop-color="#A398ED" stop-opacity="0"/>
</radialGradient>
<radialGradient id="paint24_radial_114_1315" cx="0" cy="0" r="1" gradientUnits="userSpaceOnUse" gradientTransform="translate(1525.5 47.5) rotate(90) scale(10.5)">
<stop stop-color="#A398ED"/>
<stop offset="1" stop-color="#A398ED" stop-opacity="0"/>
</radialGradient>
<radialGradient id="paint25_radial_114_1315" cx="0" cy="0" r="1" gradientUnits="userSpaceOnUse" gradientTransform="translate(1443.5 71.5) rotate(90) scale(10.5)">
<stop stop-color="#A398ED"/>
<stop offset="1" stop-color="#A398ED" stop-opacity="0"/>
</radialGradient>
<radialGradient id="paint26_radial_114_1315" cx="0" cy="0" r="1" gradientUnits="userSpaceOnUse" gradientTransform="translate(269.5 217.5) rotate(90) scale(10.5)">
<stop stop-color="#A398ED"/>
<stop offset="1" stop-color="#A398ED" stop-opacity="0"/>
</radialGradient>
</defs>
</svg>
