<svg width="2053" height="64" viewBox="0 0 2053 64" fill="none" xmlns="http://www.w3.org/2000/svg">
<g clip-path="url(#clip0_113_3253)">
<rect width="2053" height="64" fill="#552DC2"/>
<path d="M136.93 -1.26282L-153.609 65.2628" stroke="#6443CE" stroke-width="2" stroke-linecap="round" stroke-linejoin="round"/>
<path d="M211.061 -1.26282L-55.2654 65.2628" stroke="#6443CE" stroke-width="2" stroke-linecap="round" stroke-linejoin="round"/>
<path d="M285.192 -1.26282L43.0762 65.2628" stroke="#6443CE" stroke-width="2" stroke-linecap="round" stroke-linejoin="round"/>
<path d="M359.321 -1.26282L141.418 65.2628" stroke="#6443CE" stroke-width="2" stroke-linecap="round" stroke-linejoin="round"/>
<path d="M433.452 -1.26282L239.76 65.2628" stroke="#6443CE" stroke-width="2" stroke-linecap="round" stroke-linejoin="round"/>
<path d="M507.583 -1.26282L338.104 65.2628" stroke="#6443CE" stroke-width="2" stroke-linecap="round" stroke-linejoin="round"/>
<path d="M581.714 -1.26282L436.445 65.2628" stroke="#6443CE" stroke-width="2" stroke-linecap="round" stroke-linejoin="round"/>
<path d="M655.845 -1.26282L534.787 65.2628" stroke="#6443CE" stroke-width="2" stroke-linecap="round" stroke-linejoin="round"/>
<path d="M729.976 -1.26282L633.131 65.2628" stroke="#6443CE" stroke-width="2" stroke-linecap="round" stroke-linejoin="round"/>
<path d="M804.107 -1.26282L731.473 65.2628" stroke="#6443CE" stroke-width="2" stroke-linecap="round" stroke-linejoin="round"/>
<path d="M878.238 -1.26282L829.814 65.2628" stroke="#6443CE" stroke-width="2" stroke-linecap="round" stroke-linejoin="round"/>
<path d="M952.369 -1.26282L928.158 65.2628" stroke="#6443CE" stroke-width="2" stroke-linecap="round" stroke-linejoin="round"/>
<path d="M1026.5 -1.26282V65.2628" stroke="#6443CE" stroke-width="2" stroke-linecap="round" stroke-linejoin="round"/>
<path d="M1100.63 -1.26282L1124.84 65.2628" stroke="#6443CE" stroke-width="2" stroke-linecap="round" stroke-linejoin="round"/>
<path d="M1174.76 -1.26282L1223.19 65.2628" stroke="#6443CE" stroke-width="2" stroke-linecap="round" stroke-linejoin="round"/>
<path d="M1248.89 -1.26282L1321.53 65.2628" stroke="#6443CE" stroke-width="2" stroke-linecap="round" stroke-linejoin="round"/>
<path d="M1323.02 -1.26282L1419.87 65.2628" stroke="#6443CE" stroke-width="2" stroke-linecap="round" stroke-linejoin="round"/>
<path d="M1397.15 -1.26282L1518.21 65.2628" stroke="#6443CE" stroke-width="2" stroke-linecap="round" stroke-linejoin="round"/>
<path d="M1471.29 -1.26282L1616.55 65.2628" stroke="#6443CE" stroke-width="2" stroke-linecap="round" stroke-linejoin="round"/>
<path d="M1545.42 -1.26282L1714.9 65.2628" stroke="#6443CE" stroke-width="2" stroke-linecap="round" stroke-linejoin="round"/>
<path d="M1619.55 -1.26282L1813.24 65.2628" stroke="#6443CE" stroke-width="2" stroke-linecap="round" stroke-linejoin="round"/>
<path d="M1693.68 -1.26282L1911.58 65.2628" stroke="#6443CE" stroke-width="2" stroke-linecap="round" stroke-linejoin="round"/>
<path d="M1767.81 -1.26282L2009.92 65.2628" stroke="#6443CE" stroke-width="2" stroke-linecap="round" stroke-linejoin="round"/>
<path d="M1841.94 -1.26282L2108.27 65.2628" stroke="#6443CE" stroke-width="2" stroke-linecap="round" stroke-linejoin="round"/>
<path d="M1916.07 -1.26282L2206.61 65.2628" stroke="#6443CE" stroke-width="2" stroke-linecap="round" stroke-linejoin="round"/>
<path d="M2208.44 44.8657H-155.444" stroke="#6443CE" stroke-width="2" stroke-linecap="round" stroke-linejoin="round"/>
<path d="M2125.48 27.3291H-72.4845" stroke="#6443CE" stroke-width="2" stroke-linecap="round" stroke-linejoin="round"/>
<path d="M2053.41 12.0955H-0.406097" stroke="#6443CE" stroke-width="2" stroke-linecap="round" stroke-linejoin="round"/>
</g>
<defs>
<clipPath id="clip0_113_3253">
<rect width="2053" height="64" fill="white"/>
</clipPath>
</defs>
</svg>
