<svg width="102" height="76" viewBox="0 0 102 76" fill="none" xmlns="http://www.w3.org/2000/svg">
<path d="M22.2823 7.40964H31.0957" stroke="#FFE878" stroke-width="2" stroke-linecap="round" stroke-linejoin="round"/>
<path d="M26.2888 1V13.8194" stroke="#FFE878" stroke-width="2" stroke-linecap="round" stroke-linejoin="round"/>
<path d="M91.9878 43.4641H99.9999" stroke="#FFE878" stroke-width="2" stroke-linecap="round" stroke-linejoin="round"/>
<path d="M95.9938 36.2533V49.8739" stroke="#FFE878" stroke-width="2" stroke-linecap="round" stroke-linejoin="round"/>
<path d="M11.867 17.8254H16.5914" stroke="#FFE878" stroke-width="2" stroke-linecap="round" stroke-linejoin="round"/>
<path d="M14.4142 13.8194V21.0303" stroke="#FFE878" stroke-width="2" stroke-linecap="round" stroke-linejoin="round"/>
<path d="M39.505 56.8879L39.6368 62.3C39.6368 66.6239 31.8654 70.1294 22.2743 70.1294C12.6833 70.1294 4.91286 66.6239 4.91286 62.3L4.78107 56.8879" fill="#0C0B0E"/>
<path d="M39.505 56.8879L39.6368 62.3C39.6368 66.6239 31.8654 70.1294 22.2743 70.1294C12.6833 70.1294 4.91286 66.6239 4.91286 62.3L4.78107 56.8879" stroke="#7549FF" stroke-width="2" stroke-linecap="round" stroke-linejoin="round"/>
<path d="M39.5034 56.8879C39.5034 52.5641 31.7302 49.0585 22.1419 49.0585C12.5536 49.0585 4.77948 52.5641 4.77948 56.8879" stroke="#7549FF" stroke-width="2" stroke-linecap="round" stroke-linejoin="round"/>
<path d="M26.1608 64.5066C29.3023 64.1709 32.1124 63.4504 34.335 62.4618Z" fill="#0C0B0E"/>
<path d="M26.1608 64.5066C29.3023 64.1709 32.1124 63.4504 34.335 62.4618" stroke="#9E99FF" stroke-width="1.5" stroke-linecap="round" stroke-linejoin="round"/>
<path d="M12.8721 63.5096C15.0307 64.1257 17.5104 64.5329 20.1736 64.6684Z" fill="#0C0B0E"/>
<path d="M12.8721 63.5096C15.0307 64.1257 17.5104 64.5329 20.1736 64.6684" stroke="#9E99FF" stroke-width="1.5" stroke-linecap="round" stroke-linejoin="round"/>
<path d="M34.3352 62.4618C37.5257 61.0425 39.5036 59.0691 39.5036 56.8879M4.77966 56.8879C4.77966 58.3788 5.70319 59.7718 7.30641 60.9578" stroke="#9E99FF" stroke-width="1.5" stroke-linecap="round" stroke-linejoin="round"/>
<path d="M39.505 45.5494L39.6368 50.9615C39.6368 55.2853 31.8654 58.7909 22.2743 58.7909C12.6833 58.7909 4.91286 55.2853 4.91286 50.9615L4.78107 45.5494" fill="#0C0B0E"/>
<path d="M39.505 45.5494L39.6368 50.9615C39.6368 55.2853 31.8654 58.7909 22.2743 58.7909C12.6833 58.7909 4.91286 55.2853 4.91286 50.9615L4.78107 45.5494" stroke="#7549FF" stroke-width="2" stroke-linecap="round" stroke-linejoin="round"/>
<path d="M39.5034 45.5494C39.5034 41.2255 31.7302 37.72 22.1419 37.72C12.5536 37.72 4.77948 41.2255 4.77948 45.5494" stroke="#7549FF" stroke-width="2" stroke-linecap="round" stroke-linejoin="round"/>
<path d="M26.1608 53.1681C29.3023 52.8323 32.1124 52.1118 34.335 51.1233Z" fill="#0C0B0E"/>
<path d="M26.1608 53.1681C29.3023 52.8323 32.1124 52.1118 34.335 51.1233" stroke="#9E99FF" stroke-width="1.5" stroke-linecap="round" stroke-linejoin="round"/>
<path d="M12.8721 52.171C15.0307 52.7871 17.5104 53.1944 20.1736 53.3298Z" fill="#0C0B0E"/>
<path d="M12.8721 52.171C15.0307 52.7871 17.5104 53.1944 20.1736 53.3298" stroke="#9E99FF" stroke-width="1.5" stroke-linecap="round" stroke-linejoin="round"/>
<path d="M34.3352 51.1233C37.5257 49.7039 39.5036 47.7306 39.5036 45.5494M4.77966 45.5494C4.77966 47.0402 5.70319 48.4332 7.30641 49.6193" stroke="#9E99FF" stroke-width="1.5" stroke-linecap="round" stroke-linejoin="round"/>
<path d="M35.7253 35.1558L35.8571 40.5679C35.8571 44.8917 28.0858 48.3973 18.4947 48.3973C8.9036 48.3973 1.1332 44.8917 1.1332 40.5679L1.0014 35.1558" fill="#0C0B0E"/>
<path d="M35.7253 35.1558L35.8571 40.5679C35.8571 44.8917 28.0858 48.3973 18.4947 48.3973C8.9036 48.3973 1.1332 44.8917 1.1332 40.5679L1.0014 35.1558" stroke="#7549FF" stroke-width="2" stroke-linecap="round" stroke-linejoin="round"/>
<path d="M35.7239 35.1557C35.7239 30.8319 27.9507 27.3263 18.3624 27.3263C8.77417 27.3263 1 30.8319 1 35.1557" stroke="#7549FF" stroke-width="2" stroke-linecap="round" stroke-linejoin="round"/>
<path d="M22.3811 42.7745C25.5226 42.4387 28.3327 41.7182 30.5554 40.7296Z" fill="#0C0B0E"/>
<path d="M22.3811 42.7745C25.5226 42.4387 28.3327 41.7182 30.5554 40.7296" stroke="#9E99FF" stroke-width="1.5" stroke-linecap="round" stroke-linejoin="round"/>
<path d="M9.09235 41.7774C11.251 42.3935 13.7307 42.8008 16.3939 42.9362Z" fill="#0C0B0E"/>
<path d="M9.09235 41.7774C11.251 42.3935 13.7307 42.8008 16.3939 42.9362" stroke="#9E99FF" stroke-width="1.5" stroke-linecap="round" stroke-linejoin="round"/>
<path d="M30.5556 40.7296C33.746 39.3103 35.7239 37.337 35.7239 35.1558M1 35.1558C1 36.6466 1.92352 38.0396 3.52674 39.2257" stroke="#9E99FF" stroke-width="1.5" stroke-linecap="round" stroke-linejoin="round"/>
<path d="M80.3431 52.2937L80.4749 57.7058C80.4749 62.0297 72.7036 65.5352 63.1125 65.5352C53.5214 65.5352 45.751 62.0297 45.751 57.7058L45.6192 52.2937" fill="#0C0B0E"/>
<path d="M80.3431 52.2937L80.4749 57.7058C80.4749 62.0297 72.7036 65.5352 63.1125 65.5352C53.5214 65.5352 45.751 62.0297 45.751 57.7058L45.6192 52.2937" stroke="#7549FF" stroke-width="2" stroke-linecap="round" stroke-linejoin="round"/>
<path d="M80.3417 52.2937C80.3417 47.9699 72.5684 44.4644 62.9802 44.4644C53.3919 44.4644 45.6177 47.9699 45.6177 52.2937" stroke="#7549FF" stroke-width="2" stroke-linecap="round" stroke-linejoin="round"/>
<path d="M66.9989 59.9124C70.1404 59.5766 72.9505 58.8562 75.1732 57.8676Z" fill="#0C0B0E"/>
<path d="M66.9989 59.9124C70.1404 59.5766 72.9505 58.8562 75.1732 57.8676" stroke="#9E99FF" stroke-width="1.5" stroke-linecap="round" stroke-linejoin="round"/>
<path d="M53.7102 58.9154C55.8689 59.5315 58.3485 59.9387 61.0118 60.0742Z" fill="#0C0B0E"/>
<path d="M53.7102 58.9154C55.8689 59.5315 58.3485 59.9387 61.0118 60.0742" stroke="#9E99FF" stroke-width="1.5" stroke-linecap="round" stroke-linejoin="round"/>
<path d="M75.1734 57.8676C78.3638 56.4483 80.3417 54.4749 80.3417 52.2937M45.6178 52.2937C45.6178 53.7846 46.5413 55.1776 48.1445 56.3636" stroke="#9E99FF" stroke-width="1.5" stroke-linecap="round" stroke-linejoin="round"/>
<path d="M78.2447 41.7699L78.3765 47.182C78.3765 51.5059 70.6052 55.0114 61.0141 55.0114C51.423 55.0114 43.6526 51.5059 43.6526 47.182L43.5208 41.7699" fill="#0C0B0E"/>
<path d="M78.2447 41.7699L78.3765 47.182C78.3765 51.5059 70.6052 55.0114 61.0141 55.0114C51.423 55.0114 43.6526 51.5059 43.6526 47.182L43.5208 41.7699" stroke="#7549FF" stroke-width="2" stroke-linecap="round" stroke-linejoin="round"/>
<path d="M78.2434 41.7699C78.2434 37.446 70.4702 33.9405 60.8819 33.9405C51.2936 33.9405 43.5195 37.446 43.5195 41.7699" stroke="#7549FF" stroke-width="2" stroke-linecap="round" stroke-linejoin="round"/>
<path d="M64.9005 49.3886C68.042 49.0528 70.8521 48.3323 73.0748 47.3438Z" fill="#0C0B0E"/>
<path d="M64.9005 49.3886C68.042 49.0528 70.8521 48.3323 73.0748 47.3438" stroke="#9E99FF" stroke-width="1.5" stroke-linecap="round" stroke-linejoin="round"/>
<path d="M51.6118 48.3915C53.7704 49.0076 56.2501 49.4149 58.9133 49.5503Z" fill="#0C0B0E"/>
<path d="M51.6118 48.3915C53.7704 49.0076 56.2501 49.4149 58.9133 49.5503" stroke="#9E99FF" stroke-width="1.5" stroke-linecap="round" stroke-linejoin="round"/>
<path d="M73.075 47.3438C76.2654 45.9245 78.2433 43.9511 78.2433 41.7699M43.5194 41.7699C43.5194 43.2607 44.4429 44.6537 46.0462 45.8398" stroke="#9E99FF" stroke-width="1.5" stroke-linecap="round" stroke-linejoin="round"/>
<path d="M82.0244 32.3211L82.1562 37.7332C82.1562 42.057 74.3848 45.5626 64.7938 45.5626C55.2027 45.5626 47.4323 42.057 47.4323 37.7332L47.3005 32.3211" fill="#0C0B0E"/>
<path d="M82.0244 32.3211L82.1562 37.7332C82.1562 42.057 74.3848 45.5626 64.7938 45.5626C55.2027 45.5626 47.4323 42.057 47.4323 37.7332L47.3005 32.3211" stroke="#7549FF" stroke-width="2" stroke-linecap="round" stroke-linejoin="round"/>
<path d="M82.0229 32.3211C82.0229 27.9972 74.2496 24.4917 64.6614 24.4917C55.0731 24.4917 47.299 27.9972 47.299 32.3211" stroke="#7549FF" stroke-width="2" stroke-linecap="round" stroke-linejoin="round"/>
<path d="M68.6802 39.9398C71.8217 39.604 74.6318 38.8835 76.8544 37.895Z" fill="#0C0B0E"/>
<path d="M68.6802 39.9398C71.8217 39.604 74.6318 38.8835 76.8544 37.895" stroke="#9E99FF" stroke-width="1.5" stroke-linecap="round" stroke-linejoin="round"/>
<path d="M55.3915 38.9427C57.5501 39.5588 60.0298 39.9661 62.6931 40.1015Z" fill="#0C0B0E"/>
<path d="M55.3915 38.9427C57.5501 39.5588 60.0298 39.9661 62.6931 40.1015" stroke="#9E99FF" stroke-width="1.5" stroke-linecap="round" stroke-linejoin="round"/>
<path d="M76.8546 37.895C80.0451 36.4756 82.023 34.5023 82.023 32.3211M47.2991 32.3211C47.2991 33.8119 48.2226 35.2049 49.8258 36.391" stroke="#9E99FF" stroke-width="1.5" stroke-linecap="round" stroke-linejoin="round"/>
<path d="M72.5756 21.9275L72.7074 27.3396C72.7074 31.6634 64.9361 35.169 55.345 35.169C45.7539 35.169 37.9835 31.6634 37.9835 27.3396L37.8517 21.9275" fill="#0C0B0E"/>
<path d="M72.5756 21.9275L72.7074 27.3396C72.7074 31.6634 64.9361 35.169 55.345 35.169C45.7539 35.169 37.9835 31.6634 37.9835 27.3396L37.8517 21.9275" stroke="#7549FF" stroke-width="2" stroke-linecap="round" stroke-linejoin="round"/>
<path d="M72.5741 21.9274C72.5741 17.6036 64.8009 14.0981 55.2127 14.0981C45.6244 14.0981 37.8502 17.6036 37.8502 21.9274" stroke="#7549FF" stroke-width="2" stroke-linecap="round" stroke-linejoin="round"/>
<path d="M59.2314 29.5462C62.3729 29.2104 65.183 28.4899 67.4056 27.5013Z" fill="#0C0B0E"/>
<path d="M59.2314 29.5462C62.3729 29.2104 65.183 28.4899 67.4056 27.5013" stroke="#9E99FF" stroke-width="1.5" stroke-linecap="round" stroke-linejoin="round"/>
<path d="M45.9427 28.5491C48.1013 29.1652 50.581 29.5725 53.2443 29.7079Z" fill="#0C0B0E"/>
<path d="M45.9427 28.5491C48.1013 29.1652 50.581 29.5725 53.2443 29.7079" stroke="#9E99FF" stroke-width="1.5" stroke-linecap="round" stroke-linejoin="round"/>
<path d="M67.4059 27.5013C70.5964 26.082 72.5743 24.1087 72.5743 21.9275M37.8503 21.9275C37.8503 23.4183 38.7739 24.8113 40.3771 25.9974" stroke="#9E99FF" stroke-width="1.5" stroke-linecap="round" stroke-linejoin="round"/>
<path d="M82.233 8.82938L82.3648 14.2415C82.3648 18.5653 74.5935 22.0709 65.0024 22.0709C55.4113 22.0709 47.6409 18.5653 47.6409 14.2415L47.5091 8.82938" fill="#0C0B0E"/>
<path d="M82.233 8.82938L82.3648 14.2415C82.3648 18.5653 74.5935 22.0709 65.0024 22.0709C55.4113 22.0709 47.6409 18.5653 47.6409 14.2415L47.5091 8.82938" stroke="#7549FF" stroke-width="2" stroke-linecap="round" stroke-linejoin="round"/>
<path d="M82.2314 8.82939C82.2314 4.50554 74.4582 1 64.8699 1C55.2817 1 47.5075 4.50554 47.5075 8.82939" stroke="#7549FF" stroke-width="2" stroke-linecap="round" stroke-linejoin="round"/>
<path d="M68.8888 16.4481C72.0303 16.1123 74.8404 15.3918 77.0631 14.4033Z" fill="#0C0B0E"/>
<path d="M68.8888 16.4481C72.0303 16.1123 74.8404 15.3918 77.0631 14.4033" stroke="#9E99FF" stroke-width="1.5" stroke-linecap="round" stroke-linejoin="round"/>
<path d="M55.6 15.451C57.7587 16.0671 60.2384 16.4744 62.9016 16.6098Z" fill="#0C0B0E"/>
<path d="M55.6 15.451C57.7587 16.0671 60.2384 16.4744 62.9016 16.6098" stroke="#9E99FF" stroke-width="1.5" stroke-linecap="round" stroke-linejoin="round"/>
<path d="M77.0633 14.4033C80.2537 12.9839 82.2316 11.0106 82.2316 8.82938M47.5077 8.82938C47.5077 10.3202 48.4312 11.7132 50.0344 12.8993" stroke="#9E99FF" stroke-width="1.5" stroke-linecap="round" stroke-linejoin="round"/>
</svg>
