<svg width="102" height="91" viewBox="0 0 102 91" fill="none" xmlns="http://www.w3.org/2000/svg">
<path d="M1.53479 36.3654C1.53479 36.3654 11.1599 66.6861 47.1605 66.7722C83.1611 66.8583 83.0129 43.1379 83.0129 43.1379" stroke="#7549FF" stroke-width="2" stroke-linecap="round" stroke-linejoin="round"/>
<path d="M1 40.364C1 40.364 11.1598 72.0021 47.154 72.0021C80.9899 72.0021 82.6263 48.871 82.6263 48.871" stroke="#7549FF" stroke-width="2" stroke-linecap="round" stroke-linejoin="round"/>
<path d="M55.3552 43.78C59.7174 43.78 63.2537 40.1462 63.2537 35.6636C63.2537 31.181 59.7174 27.5472 55.3552 27.5472C50.993 27.5472 47.4567 31.181 47.4567 35.6636C47.4567 40.1462 50.993 43.78 55.3552 43.78Z" stroke="#FFE878" stroke-width="2" stroke-linecap="round" stroke-linejoin="round"/>
<path d="M55.3554 46.1898C61.0128 46.1898 65.599 41.477 65.599 35.6636C65.599 29.8501 61.0128 25.1374 55.3554 25.1374C49.6981 25.1374 45.1119 29.8501 45.1119 35.6636C45.1119 41.477 49.6981 46.1898 55.3554 46.1898Z" stroke="#FFE878" stroke-width="2" stroke-linecap="round" stroke-linejoin="round"/>
<path d="M74.4186 17.3255C74.4186 17.3255 74.1222 19.3182 72.1637 21.5625C70.2052 23.8068 67.6282 25.5347 67.6282 25.5347L74.8566 38.0271C74.8566 38.0271 76.7057 36.5905 78.5546 33.8232C80.4036 31.0626 80.6162 28.8911 80.6162 28.8911" stroke="#9385FF" stroke-width="2" stroke-linecap="round" stroke-linejoin="round"/>
<path d="M9.04651 18.0736C9.04651 18.0736 19.7539 25.1705 34.6167 19.6492C49.4796 14.1213 51.7989 2.21146 51.7989 2.21146" stroke="#9385FF" stroke-width="2" stroke-linecap="round" stroke-linejoin="round"/>
<path d="M42.0063 85.2625C64.65 85.2625 83.0064 66.3997 83.0064 43.1313C83.0064 19.8628 64.65 1 42.0063 1C19.3627 1 1.00635 19.8628 1.00635 43.1313C1.00635 66.3997 19.3627 85.2625 42.0063 85.2625Z" stroke="#7549FF" stroke-width="2" stroke-linecap="round" stroke-linejoin="round"/>
</svg>
