<svg width="102" height="121" viewBox="0 0 102 121" fill="none" xmlns="http://www.w3.org/2000/svg">
<path d="M90.1469 74.5536L74.9346 83.3272" stroke="#9D98FF" stroke-linecap="round" stroke-linejoin="round"/>
<path d="M85.2786 71.7366L70.0662 80.5102" stroke="#9D98FF" stroke-linecap="round" stroke-linejoin="round"/>
<path d="M80.5752 69.1085L65.3629 77.8742" stroke="#9D98FF" stroke-linecap="round" stroke-linejoin="round"/>
<path d="M75.4151 65.9348L60.2027 74.7084" stroke="#9D98FF" stroke-linecap="round" stroke-linejoin="round"/>
<path d="M44.6677 73.153L29.999 81.7692C26.0836 84.0275 21.1914 81.2026 21.1914 76.6939V52.6628C21.1914 49.476 22.893 46.5331 25.6582 44.9358L67.9865 20.0864C71.5315 18.0405 75.9668 20.5978 75.9668 24.6896V49.2557C75.9668 52.474 74.3597 55.472 71.7127 57.2503" stroke="#7549FF" stroke-width="2" stroke-linecap="round" stroke-linejoin="round"/>
<path d="M90.2259 99.7492L75.0136 108.523" stroke="#9D98FF" stroke-linecap="round" stroke-linejoin="round"/>
<path d="M85.515 97.0896L70.3027 105.863" stroke="#9D98FF" stroke-linecap="round" stroke-linejoin="round"/>
<path d="M80.5752 94.2962L65.3629 103.07" stroke="#9D98FF" stroke-linecap="round" stroke-linejoin="round"/>
<path d="M75.5494 91.314L60.337 100.088" stroke="#9D98FF" stroke-linecap="round" stroke-linejoin="round"/>
<path d="M67.8288 89.9841L55.3817 97.1525" stroke="#9D98FF" stroke-linecap="round" stroke-linejoin="round"/>
<path d="M56.1692 90.8104L50.2844 94.2018" stroke="#9D98FF" stroke-linecap="round" stroke-linejoin="round"/>
<path d="M49.4336 68.5183L52.1908 73.633L54.1603 69.6986" stroke="#7549FF" stroke-width="2" stroke-linecap="round" stroke-linejoin="round"/>
<path d="M38.5623 65.6777L35.1117 67.6685L72.7841 89.276L100.121 73.5464L68.53 55.4248" stroke="#9D98FF" stroke-width="2" stroke-linecap="round" stroke-linejoin="round"/>
<path d="M38.5725 58.564V65.4169" stroke="#7549FF" stroke-width="2" stroke-linecap="round" stroke-linejoin="round"/>
<path d="M56.1301 70.092L38.5623 65.6777" stroke="#7549FF" stroke-width="2" stroke-linecap="round" stroke-linejoin="round"/>
<path d="M66.1744 37.9956C67.5058 35.7136 67.5215 33.2429 66.2059 32.4717C64.8903 31.7006 62.7396 32.9281 61.4004 35.21C60.069 37.492 60.0532 39.9627 61.3689 40.7339C62.6845 41.505 64.8352 40.2775 66.1744 37.9956Z" stroke="#FFE878" stroke-width="2" stroke-linecap="round" stroke-linejoin="round"/>
<path d="M35.8599 55.5192C37.1912 53.2373 37.207 50.7665 35.8914 49.9954C34.5758 49.2243 32.4251 50.4518 31.0858 52.7337C29.7544 55.0156 29.7387 57.4864 31.0543 58.2575C32.3699 59.0287 34.5206 57.8011 35.8599 55.5192Z" stroke="#FFE878" stroke-width="2" stroke-linecap="round" stroke-linejoin="round"/>
<path d="M78.4484 86.0576L100.121 98.4902L72.7841 114.22L35.1117 92.6122L56.7525 80.1482" stroke="#9D98FF" stroke-width="2" stroke-linecap="round" stroke-linejoin="round"/>
<path d="M100.121 73.5464L72.7841 89.276L35.1117 92.6123L56.7525 80.1483" stroke="#9D98FF" stroke-width="2" stroke-linecap="round" stroke-linejoin="round"/>
<path d="M73.3354 61.6725C73.4299 61.6725 73.5087 61.5938 73.5087 61.4994C73.5087 61.405 73.4299 61.3263 73.3354 61.3263C73.2408 61.3263 73.162 61.405 73.162 61.4994C73.162 61.5938 73.2408 61.6725 73.3354 61.6725Z" stroke="#9D98FF" stroke-width="2" stroke-linecap="round" stroke-linejoin="round"/>
<path d="M78.2434 64.3926C78.338 64.3926 78.4168 64.3139 78.4168 64.2194C78.4168 64.125 78.338 64.0463 78.2434 64.0463C78.1489 64.0463 78.0701 64.125 78.0701 64.2194C78.0701 64.3139 78.1489 64.3926 78.2434 64.3926Z" stroke="#9D98FF" stroke-width="2" stroke-linecap="round" stroke-linejoin="round"/>
<path d="M83.1908 67.3223C83.2854 67.3223 83.3641 67.2436 83.3641 67.1492C83.3641 67.0548 83.2854 66.9761 83.1908 66.9761C83.0963 66.9761 83.0175 67.0548 83.0175 67.1492C83.0175 67.2436 83.0963 67.3223 83.1908 67.3223Z" stroke="#9D98FF" stroke-width="2" stroke-linecap="round" stroke-linejoin="round"/>
<path d="M88.0753 70.1471C88.1698 70.1471 88.2486 70.0684 88.2486 69.974C88.2486 69.8796 88.1698 69.8009 88.0753 69.8009C87.9807 69.8009 87.9019 69.8796 87.9019 69.974C87.9019 70.0684 87.9807 70.1471 88.0753 70.1471Z" stroke="#9D98FF" stroke-width="2" stroke-linecap="round" stroke-linejoin="round"/>
<path d="M92.9593 72.9798C93.0538 72.9798 93.1326 72.9011 93.1326 72.8067C93.1326 72.7123 93.0538 72.6336 92.9593 72.6336C92.8647 72.6336 92.7859 72.7123 92.7859 72.8067C92.7859 72.9011 92.8647 72.9798 92.9593 72.9798Z" stroke="#9D98FF" stroke-width="2" stroke-linecap="round" stroke-linejoin="round"/>
<path d="M42.4145 68.3216C42.5091 68.3216 42.5878 68.2429 42.5878 68.1485C42.5878 68.054 42.5091 67.9753 42.4145 67.9753C42.32 67.9753 42.2412 68.054 42.2412 68.1485C42.2412 68.2429 42.32 68.3216 42.4145 68.3216Z" stroke="#9D98FF" stroke-width="2" stroke-linecap="round" stroke-linejoin="round"/>
<path d="M47.3066 71.1465C47.4011 71.1465 47.4799 71.0678 47.4799 70.9733C47.4799 70.8789 47.4011 70.8002 47.3066 70.8002C47.212 70.8002 47.1332 70.8789 47.1332 70.9733C47.1332 71.0678 47.212 71.1465 47.3066 71.1465Z" stroke="#9D98FF" stroke-width="2" stroke-linecap="round" stroke-linejoin="round"/>
<path d="M57.0201 76.6993C57.1146 76.6993 57.1934 76.6206 57.1934 76.5261C57.1934 76.4317 57.1146 76.353 57.0201 76.353C56.9256 76.353 56.8468 76.4317 56.8468 76.5261C56.8468 76.6206 56.9256 76.6993 57.0201 76.6993Z" stroke="#9D98FF" stroke-width="2" stroke-linecap="round" stroke-linejoin="round"/>
<path d="M61.9599 79.6289C62.0544 79.6289 62.1332 79.5502 62.1332 79.4558C62.1332 79.3613 62.0544 79.2827 61.9599 79.2827C61.8653 79.2827 61.7866 79.3613 61.7866 79.4558C61.7866 79.5502 61.8653 79.6289 61.9599 79.6289Z" stroke="#9D98FF" stroke-width="2" stroke-linecap="round" stroke-linejoin="round"/>
<path d="M66.8439 82.4538C66.9384 82.4538 67.0172 82.3751 67.0172 82.2807C67.0172 82.1863 66.9384 82.1076 66.8439 82.1076C66.7493 82.1076 66.6706 82.1863 66.6706 82.2807C66.6706 82.3751 66.7493 82.4538 66.8439 82.4538Z" stroke="#9D98FF" stroke-width="2" stroke-linecap="round" stroke-linejoin="round"/>
<path d="M71.7283 85.2786C71.8229 85.2786 71.9016 85.1999 71.9016 85.1055C71.9016 85.0111 71.8229 84.9324 71.7283 84.9324C71.6338 84.9324 71.555 85.0111 71.555 85.1055C71.555 85.1999 71.6338 85.2786 71.7283 85.2786Z" stroke="#9D98FF" stroke-width="2" stroke-linecap="round" stroke-linejoin="round"/>
<path d="M42.7058 93.3441C42.8004 93.3441 42.8792 93.2654 42.8792 93.171C42.8792 93.0766 42.8004 92.9979 42.7058 92.9979C42.6113 92.9979 42.5325 93.0766 42.5325 93.171C42.5325 93.2654 42.6113 93.3441 42.7058 93.3441Z" stroke="#9D98FF" stroke-width="2" stroke-linecap="round" stroke-linejoin="round"/>
<path d="M47.5903 96.1689C47.6848 96.1689 47.7636 96.0902 47.7636 95.9958C47.7636 95.9014 47.6848 95.8227 47.5903 95.8227C47.4958 95.8227 47.417 95.9014 47.417 95.9958C47.417 96.0902 47.4958 96.1689 47.5903 96.1689Z" stroke="#9D98FF" stroke-width="2" stroke-linecap="round" stroke-linejoin="round"/>
<path d="M52.4747 98.9938C52.5693 98.9938 52.6481 98.9151 52.6481 98.8207C52.6481 98.7263 52.5693 98.6476 52.4747 98.6476C52.3802 98.6476 52.3014 98.7263 52.3014 98.8207C52.3014 98.9151 52.3802 98.9938 52.4747 98.9938Z" stroke="#9D98FF" stroke-width="2" stroke-linecap="round" stroke-linejoin="round"/>
<path d="M57.4377 101.897C57.5323 101.897 57.611 101.819 57.611 101.724C57.611 101.63 57.5323 101.551 57.4377 101.551C57.3432 101.551 57.2644 101.63 57.2644 101.724C57.2644 101.819 57.3432 101.897 57.4377 101.897Z" stroke="#9D98FF" stroke-width="2" stroke-linecap="round" stroke-linejoin="round"/>
<path d="M62.5586 104.958C62.6532 104.958 62.7319 104.88 62.7319 104.785C62.7319 104.691 62.6532 104.612 62.5586 104.612C62.4641 104.612 62.3853 104.691 62.3853 104.785C62.3853 104.88 62.4641 104.958 62.5586 104.958Z" stroke="#9D98FF" stroke-width="2" stroke-linecap="round" stroke-linejoin="round"/>
<path d="M67.3641 107.712C67.4586 107.712 67.5374 107.634 67.5374 107.539C67.5374 107.445 67.4586 107.366 67.3641 107.366C67.2696 107.366 67.1908 107.445 67.1908 107.539C67.1908 107.634 67.2696 107.712 67.3641 107.712Z" stroke="#9D98FF" stroke-width="2" stroke-linecap="round" stroke-linejoin="round"/>
<path d="M72.0121 110.301C72.1066 110.301 72.1854 110.222 72.1854 110.128C72.1854 110.034 72.1066 109.955 72.0121 109.955C71.9176 109.955 71.8388 110.034 71.8388 110.128C71.8388 110.222 71.9176 110.301 72.0121 110.301Z" stroke="#9D98FF" stroke-width="2" stroke-linecap="round" stroke-linejoin="round"/>
<path d="M78.4955 90.0078C78.5901 90.0078 78.6688 89.9291 78.6688 89.8347C78.6688 89.7402 78.5901 89.6616 78.4955 89.6616C78.401 89.6616 78.3222 89.7402 78.3222 89.8347C78.3222 89.9291 78.401 90.0078 78.4955 90.0078Z" stroke="#9D98FF" stroke-width="2" stroke-linecap="round" stroke-linejoin="round"/>
<path d="M83.5375 92.99C83.632 92.99 83.7108 92.9113 83.7108 92.8168C83.7108 92.7224 83.632 92.6437 83.5375 92.6437C83.4429 92.6437 83.3642 92.7224 83.3642 92.8168C83.3642 92.9113 83.4429 92.99 83.5375 92.99Z" stroke="#9D98FF" stroke-width="2" stroke-linecap="round" stroke-linejoin="round"/>
<path d="M88.4219 95.8227C88.5164 95.8227 88.5952 95.744 88.5952 95.6496C88.5952 95.5551 88.5164 95.4764 88.4219 95.4764C88.3274 95.4764 88.2486 95.5551 88.2486 95.6496C88.2486 95.744 88.3274 95.8227 88.4219 95.8227Z" stroke="#9D98FF" stroke-width="2" stroke-linecap="round" stroke-linejoin="round"/>
<path d="M92.9124 98.4116C93.007 98.4116 93.0857 98.3329 93.0857 98.2385C93.0857 98.1441 93.007 98.0654 92.9124 98.0654C92.8179 98.0654 92.7391 98.1441 92.7391 98.2385C92.7391 98.3329 92.8179 98.4116 92.9124 98.4116Z" stroke="#9D98FF" stroke-width="2" stroke-linecap="round" stroke-linejoin="round"/>
<path d="M39.7909 56.07L59.1943 44.8807C61.6601 43.4564 64.8271 44.4872 65.9694 47.0918L68.703 56.9434L54.6566 65.0482L40.2794 60.5237C38.2469 59.8863 37.9475 57.1401 39.7909 56.0779V56.07Z" stroke="#7549FF" stroke-width="2" stroke-linecap="round" stroke-linejoin="round"/>
<path d="M51.7973 9.62103C53.8455 9.45579 55.9253 9.92004 57.7451 11.0138L73.1859 19.8346" stroke="#7549FF" stroke-width="2" stroke-linecap="round" stroke-linejoin="round"/>
<path d="M27.2729 22.628L43.4384 13.3193" stroke="#7549FF" stroke-width="2" stroke-linecap="round" stroke-linejoin="round"/>
<path d="M24.2322 81.8007L5.97896 71.1071C2.89868 69.3131 1.0001 66.0239 1.0001 62.4594V43.5509C0.98434 39.9549 2.91444 36.6422 6.03411 34.856L18.8122 27.4987" stroke="#7549FF" stroke-width="2" stroke-linecap="round" stroke-linejoin="round"/>
<path d="M69.9556 60.7676V59.6739C69.9556 58.0923 68.2382 57.1087 66.8754 57.9113L56.4607 63.9859C55.342 64.639 54.6566 65.8272 54.6566 67.1177V67.7787C54.6566 69.6829 56.7128 70.8789 58.3672 69.9347L67.7183 64.5997C69.0969 63.8128 69.9478 62.3492 69.9478 60.7598H69.9556V60.7676Z" stroke="#7549FF" stroke-width="2" stroke-linecap="round" stroke-linejoin="round"/>
<path d="M2.93005 38.7195L21.1912 49.2478" stroke="#7549FF" stroke-width="2" stroke-linecap="round" stroke-linejoin="round"/>
<path d="M46.3458 7.60659L48.5752 6.35547L50.8126 7.66168L48.5752 8.88919L46.3458 7.60659Z" stroke="#7549FF" stroke-width="2" stroke-linecap="round" stroke-linejoin="round"/>
<path d="M39.4447 21.1722L48.2602 26.2554L48.5753 8.88918L46.3458 7.60658L39.4447 21.1722Z" stroke="#7549FF" stroke-width="2" stroke-linecap="round" stroke-linejoin="round"/>
<path d="M22.003 21.6444L24.2324 20.3932L26.4698 21.6995L24.2324 22.927L22.003 21.6444Z" stroke="#7549FF" stroke-width="2" stroke-linecap="round" stroke-linejoin="round"/>
<path d="M15.1015 35.21L23.9169 40.2932L24.232 22.9269L22.0026 21.6443L15.1015 35.21Z" stroke="#7549FF" stroke-width="2" stroke-linecap="round" stroke-linejoin="round"/>
<path d="M57.6979 21.1723L50.8125 7.66168L48.5752 8.8892V26.4364L57.6979 21.1723Z" stroke="#7549FF" stroke-width="2" stroke-linecap="round" stroke-linejoin="round"/>
<path d="M33.3629 35.21L26.4697 21.6995L24.2324 22.927V40.4742L33.3629 35.21Z" stroke="#7549FF" stroke-width="2" stroke-linecap="round" stroke-linejoin="round"/>
<path d="M37.2019 27.9546V9.22343" stroke="#9D98FF" stroke-width="2" stroke-linecap="round" stroke-linejoin="round"/>
<path d="M39.7864 6.75427C41.1178 4.47234 41.1336 2.00157 39.8179 1.23043C38.5023 0.459299 36.3516 1.68682 35.0124 3.96874C33.681 6.25067 33.6653 8.72145 34.9809 9.49258C36.2965 10.2637 38.4472 9.0362 39.7864 6.75427Z" stroke="#FFE878" stroke-width="2" stroke-linecap="round" stroke-linejoin="round"/>
</svg>
