<svg width="1134" height="220" viewBox="0 0 1134 220" fill="none" xmlns="http://www.w3.org/2000/svg">
<path d="M274 118.489C274 145.865 291.039 164 317.119 164C339.549 164 356.24 150.225 358.848 130.172H337.462C335.202 139.588 327.725 144.819 317.119 144.819C303.558 144.819 295.212 134.705 295.212 118.489C295.212 102.272 304.253 91.9842 317.815 91.9842C327.899 91.9842 335.028 97.0409 337.462 106.806H358.674C356.414 86.0555 340.418 72.9776 316.946 72.9776C291.561 72.9776 274 91.8098 274 118.489Z" fill="white"/>
<path d="M369.594 118.489C369.594 145.342 388.893 163.826 415.495 163.826C442.097 163.826 461.397 145.342 461.397 118.489C461.397 91.6354 442.097 73.1519 415.495 73.1519C388.893 73.1519 369.594 91.6354 369.594 118.489ZM390.806 118.489C390.806 102.795 400.89 92.1585 415.495 92.1585C430.1 92.1585 440.185 102.795 440.185 118.489C440.185 134.182 430.1 144.819 415.495 144.819C400.89 144.819 390.806 134.182 390.806 118.489Z" fill="white"/>
<path d="M513.506 164C526.546 164 537.673 158.246 542.889 148.306L544.28 161.733H563.754V32H542.716V86.5786C537.326 78.0343 526.72 72.9776 514.723 72.9776C488.816 72.9776 473.168 92.1585 473.168 119.012C473.168 145.691 488.642 164 513.506 164ZM518.2 144.47C503.421 144.47 494.38 133.659 494.38 118.314C494.38 102.97 503.421 91.9842 518.2 91.9842C532.979 91.9842 542.542 102.795 542.542 118.314C542.542 133.834 532.979 144.47 518.2 144.47Z" fill="white"/>
<path d="M624.285 164C646.714 164 662.362 152.666 666.013 133.834H646.366C643.932 142.029 636.281 146.563 624.632 146.563C610.549 146.563 602.551 138.89 600.986 123.72L665.665 123.546V117.094C665.665 90.2404 649.322 72.9776 623.589 72.9776C598.378 72.9776 580.817 91.6354 580.817 118.663C580.817 145.342 598.726 164 624.285 164ZM623.763 90.4148C636.455 90.4148 644.627 98.2616 644.627 110.119H601.508C603.594 97.2153 611.244 90.4148 623.763 90.4148Z" fill="white"/>
<path d="M777.574 137.495V117.966H762.1V34.2668H734.107L676.557 117.966V137.495H741.062V161.733H762.1V137.495H777.574ZM700.203 117.966L741.062 58.3302V117.966H700.203Z" fill="white"/>
<path d="M848.945 75.2444C845.467 74.3725 842.512 74.0238 839.556 74.0238C828.081 74.0238 819.909 79.7781 816.257 88.3223L815.04 75.7675H795.045V161.733H816.257V119.884C816.257 103.144 825.82 94.9485 841.121 94.9485H848.945V75.2444Z" fill="white"/>
<path d="M898.841 164C921.27 164 936.918 152.666 940.57 133.834H920.922C918.488 142.029 910.838 146.563 899.189 146.563C885.105 146.563 877.107 138.89 875.543 123.72L940.222 123.546V117.094C940.222 90.2404 923.878 72.9776 898.146 72.9776C872.935 72.9776 855.374 91.6354 855.374 118.663C855.374 145.342 873.282 164 898.841 164ZM898.319 90.4148C911.012 90.4148 919.184 98.2616 919.184 110.119H876.064C878.151 97.2153 885.801 90.4148 898.319 90.4148Z" fill="white"/>
<path d="M978.41 161.733V115.35C978.41 101.4 986.408 92.3329 999.449 92.3329C1010.4 92.3329 1017.53 99.3078 1017.53 113.781V161.733H1038.74V108.724C1038.74 86.4042 1027.62 72.9776 1006.06 72.9776C994.406 72.9776 983.974 78.0343 978.584 86.753L976.846 75.5931H957.198V161.733H978.41Z" fill="white"/>
<path d="M1085.14 164C1098.53 164 1110.18 157.897 1113.83 149.004L1115.4 161.733H1134V109.421C1134 85.5324 1119.74 72.9776 1096.62 72.9776C1073.32 72.9776 1058.02 85.1836 1058.02 103.841H1076.1C1076.1 94.7741 1083.06 89.5429 1095.57 89.5429C1106.35 89.5429 1113.31 94.251 1113.31 105.934V107.852L1087.58 109.77C1067.23 111.34 1055.76 121.279 1055.76 137.147C1055.76 153.363 1066.89 164 1085.14 164ZM1092.1 147.958C1082.53 147.958 1077.32 144.122 1077.32 136.275C1077.32 129.3 1082.36 124.941 1095.57 123.72L1113.48 122.325V126.859C1113.48 140.111 1105.14 147.958 1092.1 147.958Z" fill="white"/>
<path d="M223.893 131.053L211.207 71.2026C211.095 70.6709 210.936 70.1501 210.731 69.6463C208.929 63.4213 206.518 62.0733 203.266 59.454C200.258 57.1963 198.964 56.3415 198.964 56.3415C198.964 56.3415 190.735 75.17 188.49 76.9564C166.481 94.4916 129.607 121.814 120.593 126.745L120.428 126.833C117.465 128.624 114.112 129.683 110.651 129.924V220C118.347 219.801 125.864 217.65 132.483 213.753C142.437 208.273 168.914 187.209 199.948 162.243L212.114 152.467C220.199 146.012 224.081 139.601 223.992 132.839C224.017 132.242 223.983 131.644 223.893 131.053Z" fill="#4D26BC"/>
<path d="M102.706 127.946L32.6005 76.3952C32.0157 75.9108 31.495 75.3542 31.0508 74.7386C30.9888 73.0468 30.477 71.402 29.5679 69.9731C28.6588 68.5442 27.3853 67.3828 25.878 66.6081L26.3255 56.3415C26.3255 56.3415 24.8631 57.3006 21.5237 59.3168C17.3222 61.8345 14.1683 63.6763 12.0076 73.5833L10.3815 81.692L0.188723 132.633C0.0468538 133.35 -0.0153628 134.081 0.00320136 134.812C0.243288 144.022 8.15525 150.474 9.96681 151.825L89.9158 213.251C95.8923 217.724 103.183 220.096 110.651 219.997V130.355C107.799 130.529 104.979 129.674 102.706 127.946Z" fill="#2C0E83"/>
<path d="M206.297 60.1607C206.158 60.0616 206.025 59.9548 205.897 59.8408C203.387 57.7334 153.828 23.928 124.511 3.9691C120.631 1.30902 116.009 -0.0777618 111.295 0.003367C106.581 0.0844958 102.011 1.62947 98.2261 4.42146L94.6377 7.11354C88.4165 11.7585 76.8629 20.3533 62.9318 30.2058C46.9566 41.5148 32.259 51.3563 19.1833 59.1567C13.6287 62.4667 8.49617 71.4145 22.5161 82.3262C23.9937 83.4296 97.7484 137.768 97.7484 137.768C106.214 143.957 116.234 143.406 126.177 137.679C135.853 132.372 170.114 106.897 191.722 89.895L197.21 85.5589C197.721 85.1507 198.188 84.7535 198.632 84.3563C207.864 76.7766 215.607 66.5489 206.297 60.1607Z" fill="#7547F5"/>
</svg>
