<svg xmlns="http://www.w3.org/2000/svg" viewBox="0 0 1140 204"><defs><style>.cls-1{fill:#fff;}.cls-2{fill:#cdbef4;}.cls-3{fill:#56189e;}.cls-4{fill:#3a1b9b;}.cls-5{fill:#8524e2;}</style></defs><g id="lines"><path class="cls-1" d="M310.83,124.39a20,20,0,0,1-7.34,5.75,22.84,22.84,0,0,1-9.66,2,21.58,21.58,0,0,1-17.09-7.83Q270,116.48,270,102.48q0-9.51,3-16a22.13,22.13,0,0,1,8.58-9.92,23.94,23.94,0,0,1,12.76-3.42q8.32,0,13.58,4.17t6.59,12.33h23A34.77,34.77,0,0,0,331.17,71,38.07,38.07,0,0,0,316,58.73a50.79,50.79,0,0,0-21.67-4.42q-14.34,0-24.93,5.75a40.59,40.59,0,0,0-16.5,16.5Q247,87.3,247,102.48q0,14.83,5.59,25.66a39,39,0,0,0,16.17,16.67q10.58,5.83,25.09,5.83a51.4,51.4,0,0,0,21.42-4.33,40.36,40.36,0,0,0,15.58-12.08A35.83,35.83,0,0,0,338,115.81H315A21.75,21.75,0,0,1,310.83,124.39Z"/><path class="cls-1" d="M396.58,54.31q-14.67,0-25.17,5.83a39.83,39.83,0,0,0-16.17,16.58q-5.67,10.75-5.67,25.92,0,14.83,5.67,25.59a39.83,39.83,0,0,0,16.17,16.58q10.5,5.83,25.17,5.83t25.18-5.83a39.27,39.27,0,0,0,16.08-16.58q5.6-10.75,5.59-25.59,0-22.67-12.42-35.5T396.58,54.31Zm17.59,69.75Q407.75,132,396.58,132q-11.32,0-17.75-7.92t-6.42-21.58q0-13.85,6.42-21.67T396.58,73q11.18,0,17.59,7.83t6.42,21.67Q420.59,116.15,414.17,124.06Z"/><path class="cls-1" d="M525,66.31a34.74,34.74,0,0,0-12.08-8.75,38.06,38.06,0,0,0-15.76-3.25,37.09,37.09,0,0,0-21.33,6.33,43.35,43.35,0,0,0-14.67,17.25,55.25,55.25,0,0,0-5.34,24.59,54.77,54.77,0,0,0,5.34,24.41,43.9,43.9,0,0,0,14.67,17.34,36.79,36.79,0,0,0,21.33,6.41,37.38,37.38,0,0,0,16.09-3.41,35.6,35.6,0,0,0,12.09-9.09l.5,10.5H547.7v-123H525Zm0,48.5a25.86,25.86,0,0,1-8.58,12.25,21.58,21.58,0,0,1-13.59,4.58,21.3,21.3,0,0,1-12.5-3.83,25,25,0,0,1-8.5-10.42,35.58,35.58,0,0,1-3-14.91,36,36,0,0,1,3-15.09,24.41,24.41,0,0,1,8.5-10.33,21.67,21.67,0,0,1,12.5-3.75,22.16,22.16,0,0,1,13.59,4.41A24.83,24.83,0,0,1,525,90Z"/><path class="cls-1" d="M644.76,67.56Q633.84,54.15,610,54.14q-15.33,0-26.17,5.75a39.26,39.26,0,0,0-16.59,16.58q-5.75,10.85-5.75,25.84t5.75,25.83a40,40,0,0,0,16.34,16.67q10.59,5.83,25.42,5.83,19.17,0,31.18-9.16t14-24.67h-23a17.51,17.51,0,0,1-7.42,11A24.79,24.79,0,0,1,609,132.14q-8,0-13.42-3.83a24.87,24.87,0,0,1-8.33-10.25,34.7,34.7,0,0,1-2.9-13.75H654Q655.68,81,644.76,67.56ZM586.48,88.31a26.07,26.07,0,0,1,4.19-8q6.33-8,19.17-8,8.83,0,14.5,4.5a15.54,15.54,0,0,1,6.17,11.5Z"/><path class="cls-2" d="M826,54.31a34.52,34.52,0,0,0-25.92,10.91C799,66.33,798,67.53,797,68.79l-.81-12.48H774.33v92.33h23V90.56a39.89,39.89,0,0,1,8.75-11.17,23.8,23.8,0,0,1,15.59-5.92c4.77,0,8.39,1.37,10.83,4.09l11.7-18.76A35.73,35.73,0,0,0,826,54.31Z"/><path class="cls-2" d="M925.6,67.56q-10.92-13.41-34.76-13.42-15.35,0-26.17,5.75a39.15,39.15,0,0,0-16.59,16.58q-5.76,10.85-5.75,25.84t5.75,25.83a40,40,0,0,0,16.34,16.67q10.58,5.83,25.42,5.83,19.17,0,31.17-9.16t14-24.67H912a17.44,17.44,0,0,1-7.42,11,24.75,24.75,0,0,1-14.75,4.33q-8,0-13.42-3.83a25,25,0,0,1-8.34-10.25,34.87,34.87,0,0,1-2.89-13.75h69.66Q936.52,81,925.6,67.56ZM867.31,88.31a26.07,26.07,0,0,1,4.19-8q6.33-8,19.17-8,8.83,0,14.51,4.5a15.56,15.56,0,0,1,6.16,11.5Z"/><path class="cls-2" d="M1019.67,58.81q-7.59-4.5-18.09-4.5a38.3,38.3,0,0,0-19.33,5.25,35.13,35.13,0,0,0-10.11,8.86l-.56-12.11h-22v92.33h22.84V93.14c3.2-6.29,6.59-11,10.17-14.08a21.72,21.72,0,0,1,14.5-5.59,14.16,14.16,0,0,1,11.25,4.92q4.26,4.92,4.26,12.92v57.33h23V90q0-10.83-4.17-18.74A30.83,30.83,0,0,0,1019.67,58.81Z"/><path class="cls-2" d="M1129.83,69.89a32.54,32.54,0,0,0-14.58-11.58q-9.42-4-22.26-4a61.53,61.53,0,0,0-22.34,3.75,36.62,36.62,0,0,0-15.42,10.75,29.77,29.77,0,0,0-6.58,16.83h22.17a14.79,14.79,0,0,1,6.5-10.92q5.67-3.9,14.84-3.91,9.33,0,14.67,4.33t5.33,12v6h-19q-19.68,0-30.68,7.92t-11,22.08a26.56,26.56,0,0,0,3.84,14.34,26.28,26.28,0,0,0,10.75,9.66,35.08,35.08,0,0,0,16.09,3.5q12.33,0,21-4.75a29,29,0,0,0,9.33-8.06l.51,10.81h22V88.48Q1135,77.47,1129.83,69.89Zm-17.67,48.35a34.62,34.62,0,0,1-9.5,9.74,26.49,26.49,0,0,1-15.17,4.5q-6.35,0-10-3.09a9.51,9.51,0,0,1-3.67-7.58,10.35,10.35,0,0,1,5-9.33q5-3.17,13.67-3.17h19.67Z"/><path class="cls-2" d="M748.45,25.74H717.24l-51,90.31v17.09H726V150h22.49v-16.9h13.69V112.63H748.45ZM726,85.29v27.34H691.51l35-62.92Z"/><path class="cls-3" d="M208.65,120.84,197.18,66.23a8.34,8.34,0,0,0-.43-1.42c-1.63-5.68-3.81-6.91-6.75-9.3-2.72-2.06-3.89-2.84-3.89-2.84s-7.44,17.18-9.47,18.81c-19.9,16-53.24,40.93-61.39,45.43l-.15.08a19.61,19.61,0,0,1-8.84,2.82V202A40.73,40.73,0,0,0,126,196.3c9-5,32.94-24.22,61-47l11-8.92c7.31-5.89,10.82-11.74,10.74-17.91A8.55,8.55,0,0,0,208.65,120.84Z"/><path class="cls-4" d="M99.11,117.59,34.87,70.29a8.21,8.21,0,0,1-1.42-1.52,8.75,8.75,0,0,0-4.74-7.46l.41-9.42s-1.34.88-4.4,2.73c-3.85,2.31-6.74,4-8.72,13.09l-1.49,7.44h0L5.17,121.89a9.13,9.13,0,0,0-.17,2c.22,8.45,7.47,14.37,9.13,15.61l73.26,56.36a31,31,0,0,0,19,6.19V119.8A10.92,10.92,0,0,1,99.11,117.59Z"/><path class="cls-5" d="M191.43,56.52a4.1,4.1,0,0,1-.36-.29c-2.26-1.91-46.87-32.55-73.26-50.64A20.32,20.32,0,0,0,94.15,6L90.92,8.44c-5.6,4.21-16,12-28.54,20.93C48,39.62,34.77,48.54,23,55.61c-5,3-9.62,11.11,3,21,1.33,1,67.72,50.25,67.72,50.25,7.62,5.61,16.64,5.11,25.59-.08,8.71-4.81,39.55-27.9,59-43.31l4.94-3.93c.46-.37.88-.73,1.28-1.09C192.84,71.58,199.81,62.31,191.43,56.52Z"/><path class="cls-1" d="M75.48,74.31A17,17,0,0,0,83.28,78a21.72,21.72,0,0,0,8.34-.2,48.25,48.25,0,0,0,8.31-2.59c1.93-.79,3.88-1.66,6-2.66.18-.08,1-.49,1.11-.37l10.41,8c.73.54.76.8-.69,1.38a10.77,10.77,0,0,1-3.94.66h-.1a14.7,14.7,0,0,1-8.69-3,1.65,1.65,0,0,0-2,0l-9.74,7.56a1.61,1.61,0,0,0-.63,1.31,1.67,1.67,0,0,0,.69,1.33A26.62,26.62,0,0,0,103.7,94.3a28.46,28.46,0,0,0,4.88.42,31.92,31.92,0,0,0,9.34-1.45A37.31,37.31,0,0,0,127.13,89a.54.54,0,0,1,.63,0l5,3.82a1.67,1.67,0,0,0,2,0l4.71-3.72a1.62,1.62,0,0,0,.63-1.32,1.65,1.65,0,0,0-.66-1.29l-4.27-3.2a.56.56,0,0,1-.21-.39.55.55,0,0,1,.16-.45A27.5,27.5,0,0,0,140,75.76a14.66,14.66,0,0,0,1.63-9.56,12.1,12.1,0,0,0-5.25-7.56,21.23,21.23,0,0,0-8.32-3.71,22.27,22.27,0,0,0-8.18,0,40.29,40.29,0,0,0-7.87,2.3c-2.29.93-6.27,2.77-6.78,3s-1.13.41-1.42.2l-9.15-6.86a8.46,8.46,0,0,1,1.14-.45,15,15,0,0,1,5.38-.66,9.49,9.49,0,0,1,4.3,1.32,1.66,1.66,0,0,0,1.84-.07L116,47.32a1.65,1.65,0,0,0-.18-2.77,21.75,21.75,0,0,0-9.39-2.71,33.48,33.48,0,0,0-12,1.54,40.69,40.69,0,0,0-7.53,3.21.55.55,0,0,1-.59,0l-4.18-3.14a1.67,1.67,0,0,0-1.93,0l-4.4,3a1.61,1.61,0,0,0-.71,1.31,1.63,1.63,0,0,0,.64,1.35l3.07,2.36a.54.54,0,0,1,.22.41.61.61,0,0,1-.2.45,26.81,26.81,0,0,0-4.86,5.54,14.47,14.47,0,0,0-2.64,8.95A10.61,10.61,0,0,0,75.48,74.31ZM86.61,60.47a7.67,7.67,0,0,1,.87-1.64c.58-.84.69-.86,1.22-.46l6.7,5.14c.62.5,1,.7-.57,1.29a12.22,12.22,0,0,1-2.89.62,5.19,5.19,0,0,1-4-1A3.24,3.24,0,0,1,86.61,60.47Zm38.28,7.61c1.74,1.28,2.38,2.75,2,4.5a6.67,6.67,0,0,1-1.32,2.69c-.51.62-.8.79-1.3.45l-8.39-6.29c-1-.84-1-.84.71-1.6a19.13,19.13,0,0,1,4-.89A6.16,6.16,0,0,1,124.89,68.08Z"/></g></svg>