<?xml version="1.0" encoding="UTF-8"?>
<svg width="134px" height="20px" viewBox="0 0 134 20" version="1.1" xmlns="http://www.w3.org/2000/svg" xmlns:xlink="http://www.w3.org/1999/xlink">
    <title>logo</title>
    <g id="Page-1" stroke="none" stroke-width="1" fill="none" fill-rule="evenodd">
        <g id="Desktop" transform="translate(-445.000000, -538.000000)">
            <g id="logo" transform="translate(445.421564, 538.000000)">
                <path d="M5.72169404,16.1235955 C6.60760588,16.1235955 7.39016134,15.9796348 8.06936041,15.6917135 C8.74855949,15.4037921 9.31701959,15.0051318 9.77474071,14.4957325 C10.2324618,13.9863332 10.579444,13.3883427 10.8156871,12.701761 C11.0519303,12.0151793 11.1700519,11.2806108 11.1700519,10.4980553 L11.1700519,10.4980553 L11.1700519,10.2322818 L9.30963699,10.2322818 L9.30963699,10.4980553 C9.30963699,11.0148372 9.2395023,11.50578 9.09923293,11.9708838 C8.95896356,12.4359875 8.74486819,12.849413 8.45694685,13.2111603 C8.1690255,13.5729077 7.79989556,13.860829 7.34955704,14.0749244 C6.89921852,14.2890197 6.35659752,14.3960674 5.72169404,14.3960674 C4.52571305,14.3960674 3.62872731,13.9863332 3.03073682,13.1668647 C2.43274633,12.3473963 2.13375108,11.1772544 2.13375108,9.65643907 L2.13375108,9.65643907 L2.13375108,6.46715644 C2.13375108,5.04969749 2.43274633,3.9053947 3.03073682,3.03424806 C3.62872731,2.16310141 4.52571305,1.72752809 5.72169404,1.72752809 C6.35659752,1.72752809 6.89552723,1.83457577 7.33848315,2.04867113 C7.78143907,2.26276649 8.1468777,2.55068784 8.43479905,2.91243518 C8.7227204,3.27418251 8.93681576,3.69129934 9.07708513,4.16378565 C9.21735451,4.63627197 9.29487179,5.12352348 9.30963699,5.62554019 L9.30963699,5.62554019 L9.30963699,5.89131374 L11.1700519,5.89131374 L11.1700519,5.62554019 C11.1700519,4.84298473 11.0519303,4.10841616 10.8156871,3.42183449 C10.579444,2.73525281 10.2324618,2.13726232 9.77474071,1.62786301 C9.31701959,1.1184637 8.74855949,0.719803371 8.06936041,0.431882022 C7.39016134,0.143960674 6.60760588,0 5.72169404,0 C4.00893114,0 2.67268078,0.553694901 1.71294296,1.6610847 C0.753205128,2.7684745 0.273336214,4.32620282 0.273336214,6.33426966 L0.273336214,6.33426966 L0.273336214,9.78932584 C0.273336214,11.8564535 0.753205128,13.428947 1.71294296,14.5068064 C2.67268078,15.5846658 4.00893114,16.1235955 5.72169404,16.1235955 Z M19.187554,16.1235955 C19.9110487,16.1235955 20.6087043,15.9980913 21.2805207,15.747083 C21.9523372,15.4960746 22.5392538,15.130636 23.0412705,14.6507671 C23.5432872,14.1708982 23.9456389,13.5802903 24.2483254,12.8789434 C24.551012,12.1775965 24.7023552,11.369202 24.7023552,10.4537597 L24.7023552,10.4537597 L24.7023552,10.1879862 C24.7023552,9.28730913 24.551012,8.48629718 24.2483254,7.7849503 C23.9456389,7.08360343 23.5395959,6.48930424 23.0301966,6.00205272 C22.5207973,5.51480121 21.9338807,5.14567128 21.2694468,4.89466292 C20.605013,4.64365457 19.9110487,4.51815039 19.187554,4.51815039 C18.4640593,4.51815039 17.7700951,4.64365457 17.1056612,4.89466292 C16.4412273,5.14567128 15.8543107,5.51480121 15.3449114,6.00205272 C14.8355121,6.48930424 14.4294692,7.08360343 14.1267826,7.7849503 C13.8240961,8.48629718 13.6727528,9.28730913 13.6727528,10.1879862 L13.6727528,10.1879862 L13.6727528,10.4537597 C13.6727528,11.369202 13.8240961,12.1775965 14.1267826,12.8789434 C14.4294692,13.5802903 14.8318208,14.1708982 15.3338375,14.6507671 C15.8358542,15.130636 16.4190795,15.4960746 17.0835134,15.747083 C17.7479473,15.9980913 18.4492942,16.1235955 19.187554,16.1235955 Z M19.187554,14.4846586 C18.6560069,14.4846586 18.1650641,14.3923761 17.7147256,14.2078111 C17.2643871,14.0232462 16.869418,13.7537813 16.5298185,13.3994166 C16.190219,13.0450519 15.9244454,12.6205524 15.7324978,12.1259183 C15.5405503,11.6312842 15.4445765,11.073898 15.4445765,10.4537597 L15.4445765,10.4537597 L15.4445765,10.1879862 C15.4445765,9.59737828 15.5405503,9.05475727 15.7324978,8.56012316 C15.9244454,8.06548905 16.190219,7.64098963 16.5298185,7.28662489 C16.869418,6.93226016 17.2680784,6.65541271 17.7257995,6.45608254 C18.1835206,6.25675238 18.6707721,6.15708729 19.187554,6.15708729 C19.7043359,6.15708729 20.1915874,6.25675238 20.6493086,6.45608254 C21.1070297,6.65541271 21.50569,6.93226016 21.8452895,7.28662489 C22.1848891,7.64098963 22.4506626,8.06548905 22.6426102,8.56012316 C22.8345578,9.05475727 22.9305315,9.59737828 22.9305315,10.1879862 L22.9305315,10.1879862 L22.9305315,10.4537597 C22.9305315,11.073898 22.8345578,11.6312842 22.6426102,12.1259183 C22.4506626,12.6205524 22.1848891,13.0450519 21.8452895,13.3994166 C21.50569,13.7537813 21.110721,14.0232462 20.6603825,14.2078111 C20.2100439,14.3923761 19.7191011,14.4846586 19.187554,14.4846586 Z M32.542675,16.1235955 C32.8675094,16.1235955 33.2071089,16.0829912 33.5614736,16.0017826 C33.9158384,15.920574 34.2517466,15.7987612 34.5691984,15.636344 C34.8866501,15.4739268 35.181954,15.2672141 35.4551102,15.0162057 C35.7282663,14.7651973 35.9534356,14.4698934 36.130618,14.1302939 L36.130618,14.1302939 L36.3963915,14.1302939 L36.3963915,15.8135264 L38.1239196,15.8135264 L38.1239196,0.310069144 L36.3963915,0.310069144 L36.3963915,6.55574762 L36.130618,6.55574762 C35.7762532,5.86178335 35.2705452,5.34869274 34.6134939,5.0164758 C33.9564427,4.68425886 33.2514045,4.51815039 32.4983794,4.51815039 C31.78965,4.51815039 31.1178335,4.64365457 30.48293,4.89466292 C29.8480265,5.14567128 29.2943316,5.51110991 28.8218453,5.99097882 C28.349359,6.47084774 27.9728464,7.06145563 27.6923077,7.76280251 C27.4117689,8.46414938 27.2714996,9.25777874 27.2714996,10.1436906 L27.2714996,10.1436906 L27.2714996,10.4980553 C27.2714996,11.3987324 27.4080776,12.1997443 27.6812338,12.9010912 C27.9543899,13.6024381 28.3309025,14.1893547 28.8107714,14.661841 C29.2906403,15.1343273 29.8480265,15.4960746 30.48293,15.747083 C31.1178335,15.9980913 31.8044152,16.1235955 32.542675,16.1235955 Z M32.7198574,14.4846586 C32.1883103,14.4846586 31.7010588,14.3923761 31.2581029,14.2078111 C30.8151469,14.0232462 30.4275605,13.7574726 30.0953436,13.4104905 C29.7631266,13.0635084 29.5047357,12.6463915 29.3201707,12.15914 C29.1356057,11.6718885 29.0433232,11.1181936 29.0433232,10.4980553 L29.0433232,10.4980553 L29.0433232,10.1436906 C29.0433232,9.55308269 29.1356057,9.01415298 29.3201707,8.52690147 C29.5047357,8.03964996 29.7631266,7.61884183 30.0953436,7.2644771 C30.4275605,6.91011236 30.8188382,6.63695621 31.2691768,6.44500864 C31.7195153,6.25306108 32.2030755,6.15708729 32.7198574,6.15708729 C33.2218741,6.15708729 33.6980517,6.25675238 34.1483902,6.45608254 C34.5987288,6.65541271 34.9900065,6.93226016 35.3222234,7.28662489 C35.6544404,7.64098963 35.9165226,8.06548905 36.1084702,8.56012316 C36.3004177,9.05475727 36.3963915,9.59737828 36.3963915,10.1879862 L36.3963915,10.1879862 L36.3963915,10.4537597 C36.3963915,11.0591328 36.3004177,11.6091364 36.1084702,12.1037705 C35.9165226,12.5984046 35.6544404,13.0229041 35.3222234,13.3772688 C34.9900065,13.7316335 34.6024201,14.0047897 34.1594641,14.1967373 C33.7165082,14.3886848 33.2366393,14.4846586 32.7198574,14.4846586 Z M46.3407519,16.1235955 C47.7582109,16.1235955 48.8840572,15.8024525 49.7182908,15.1601664 C50.5525245,14.5178803 51.1246759,13.6873379 51.434745,12.6685393 L51.434745,12.6685393 L49.7958081,12.2255834 C49.6924517,12.5356525 49.5558737,12.8272652 49.3860739,13.1004213 C49.2162741,13.3735775 48.9947962,13.613512 48.72164,13.8202247 C48.4484839,14.0269375 48.1199582,14.1893547 47.7360631,14.3074762 C47.352168,14.4255978 46.9018294,14.4846586 46.3850475,14.4846586 C45.2481273,14.4846586 44.3622155,14.1524417 43.727312,13.4880078 C43.0924085,12.8235739 42.752809,11.9450447 42.7085134,10.8524201 L42.7085134,10.8524201 L51.5676318,10.8524201 L51.5676318,9.43496111 C51.5676318,8.94770959 51.4679667,8.41616249 51.2686366,7.84031979 C51.0693064,7.2644771 50.7592373,6.73292999 50.3384291,6.24567848 C49.917621,5.75842697 49.3786913,5.34869274 48.72164,5.0164758 C48.0645887,4.68425886 47.2857246,4.51815039 46.3850475,4.51815039 C45.6172573,4.51815039 44.9048365,4.65472846 44.2477852,4.92788462 C43.5907339,5.20104077 43.0185825,5.5775533 42.531331,6.05742221 C42.0440795,6.53729113 41.6638757,7.10944252 41.3907195,7.7738764 C41.1175634,8.43831029 40.9809853,9.15442236 40.9809853,9.92221262 L40.9809853,9.92221262 L40.9809853,10.4537597 C40.9809853,11.295376 41.1138721,12.0631662 41.3796456,12.7571305 C41.6454192,13.4510948 42.0145491,14.0490853 42.4870354,14.551102 C42.9595218,15.0531187 43.5242906,15.4407051 44.1813418,15.7138613 C44.8383931,15.9870174 45.5581965,16.1235955 46.3407519,16.1235955 Z M49.8401037,9.25777874 L42.752809,9.25777874 C42.8118698,8.81482282 42.9410653,8.40508859 43.1403954,8.02857606 C43.3397256,7.65206353 43.5981165,7.32353789 43.9155683,7.04299914 C44.23302,6.76246039 44.60215,6.54467373 45.0229581,6.38963915 C45.4437662,6.23460458 45.897796,6.15708729 46.3850475,6.15708729 C46.8132383,6.15708729 47.2303551,6.23091328 47.636398,6.37856525 C48.0424409,6.52621723 48.4041883,6.73292999 48.72164,6.99870354 C49.0390918,7.2644771 49.2974827,7.58931144 49.4968129,7.97320657 C49.696143,8.3571017 49.8105733,8.78529242 49.8401037,9.25777874 L49.8401037,9.25777874 Z" id="Code" fill="#FFFFFF" fill-rule="nonzero"></path>
                <path d="M76.4514909,15.8135264 L76.4514909,12.8900173 L78.8434529,12.8900173 L78.8434529,11.1624892 L76.4514909,11.1624892 L76.4514909,0.310069144 L72.8414002,0.310069144 L67.4151901,10.3208729 L67.4151901,12.8900173 L74.5910761,12.8900173 L74.5910761,15.8135264 L76.4514909,15.8135264 Z M74.5910761,11.1624892 L69.0098315,11.1624892 L69.0098315,10.8967156 L74.3253025,1.1073898 L74.5910761,1.1073898 L74.5910761,11.1624892 Z M91.9328003,15.8135264 L91.9328003,14.0859983 L83.2951599,14.0859983 L83.2951599,13.4215644 C83.2951599,12.4470614 83.6273768,11.7051102 84.2918107,11.1957109 C84.9562446,10.6863116 85.997191,10.2765774 87.41465,9.96650821 C89.0388217,9.61214347 90.2200375,9.01784428 90.9582973,8.18361063 C91.6965572,7.34937698 92.0656871,6.34165226 92.0656871,5.16043647 L92.0656871,5.16043647 L92.0656871,4.76177615 C92.0656871,4.17116825 91.9586394,3.59163426 91.7445441,3.02317416 C91.5304487,2.45471406 91.2019231,1.94531475 90.7589672,1.49497623 C90.3160112,1.04463771 89.7623163,0.682890377 89.0978825,0.409734226 C88.4334486,0.136578075 87.6508931,0 86.7502161,0 C85.8643042,0 85.0817488,0.147651973 84.4025497,0.44295592 C83.7233506,0.738259867 83.1548905,1.1369202 82.6971694,1.63893691 C82.2394483,2.14095362 81.8924661,2.71679631 81.656223,3.366465 C81.4199798,4.01613368 81.3018583,4.69533276 81.3018583,5.40406223 L81.3018583,5.40406223 L81.3018583,6.51145203 L83.1622731,6.51145203 L83.1622731,5.53694901 C83.1622731,4.38526361 83.4760336,3.46243878 84.1035545,2.7684745 C84.7310753,2.07451023 85.6132959,1.72752809 86.7502161,1.72752809 C87.3555892,1.72752809 87.8760624,1.81981057 88.3116357,2.00437554 C88.747209,2.18894051 89.1052651,2.43625756 89.3858038,2.74632671 C89.6663426,3.05639585 89.8730553,3.40337799 90.0059421,3.78727312 C90.1388289,4.17116825 90.2052723,4.56244598 90.2052723,4.96110631 L90.2052723,4.96110631 L90.2052723,5.09399309 C90.2052723,5.89131374 89.9136596,6.56313022 89.3304343,7.10944252 C88.747209,7.65575483 87.7985451,8.07656295 86.4844425,8.3718669 C85.7018871,8.54904927 85.0005402,8.76314463 84.3804019,9.01415298 C83.7602636,9.26516134 83.2324078,9.57892178 82.7968345,9.95543431 C82.3612612,10.3319468 82.0253529,10.7822854 81.7891098,11.3064499 C81.5528666,11.8306144 81.434745,12.4470614 81.434745,13.1557908 L81.434745,13.1557908 L81.434745,15.8135264 L91.9328003,15.8135264 Z M100.459702,16.1235955 C101.212727,16.1235955 101.910382,16.0017826 102.552669,15.7581569 C103.194955,15.5145311 103.752341,15.1823142 104.224827,14.7615061 C104.697313,14.3406979 105.066443,13.8423725 105.332217,13.2665298 C105.59799,12.6906871 105.730877,12.0705488 105.730877,11.406115 L105.730877,11.406115 L105.730877,11.0074546 C105.730877,10.2987252 105.601682,9.67489556 105.343291,9.13596586 C105.0849,8.59703616 104.7453,8.14300634 104.324492,7.7738764 C103.903684,7.40474647 103.420124,7.12420772 102.873812,6.93226016 C102.327499,6.74031259 101.759039,6.64433881 101.168431,6.64433881 L101.168431,6.64433881 L100.282519,6.64433881 L100.282519,6.37856525 L105.332217,3.14498704 L105.332217,0.310069144 L94.9670484,0.310069144 L94.9670484,2.03759723 L103.737576,2.03759723 L103.737576,2.30337079 L98.6878781,5.53694901 L98.6878781,8.10609334 L100.769771,8.10609334 C101.655683,8.10609334 102.393943,8.3681756 102.984551,8.8923401 C103.575158,9.41650461 103.870462,10.1436906 103.870462,11.073898 L103.870462,11.073898 L103.870462,11.2067848 C103.870462,11.6497407 103.781871,12.0668575 103.604689,12.4581353 C103.427506,12.849413 103.183881,13.1890125 102.873812,13.4769339 C102.563742,13.7648552 102.198304,13.9900245 101.777496,14.1524417 C101.356688,14.3148588 100.902658,14.3960674 100.415406,14.3960674 C99.8838591,14.3960674 99.389225,14.3148588 98.9315039,14.1524417 C98.4737828,13.9900245 98.0788137,13.7574726 97.7465968,13.4547861 C97.4143799,13.1520995 97.1559889,12.7829696 96.9714239,12.3473963 C96.786859,11.911823 96.6945765,11.4134976 96.6945765,10.8524201 L96.6945765,10.8524201 L96.6945765,9.78932584 L94.8341616,9.78932584 L94.8341616,10.9853068 C94.8341616,11.6940363 94.9633571,12.3621615 95.2217481,12.9896824 C95.480139,13.6172033 95.8529602,14.1635156 96.3402118,14.6286193 C96.8274633,15.093723 97.4180712,15.4591616 98.1120354,15.7249352 C98.8059997,15.9907087 99.5885552,16.1235955 100.459702,16.1235955 Z M110.647688,15.8135264 L110.647688,10.099395 C110.647688,8.903414 110.946683,7.94736747 111.544674,7.2312554 C112.142664,6.51514333 112.965824,6.15708729 114.014153,6.15708729 C114.900065,6.15708729 115.601412,6.44500864 116.118194,7.02085134 C116.634976,7.59669404 116.893366,8.46045808 116.893366,9.61214347 L116.893366,9.61214347 L116.893366,15.8135264 L118.620895,15.8135264 L118.620895,9.25777874 C118.620895,7.67790262 118.244382,6.49299553 117.491357,5.70305748 C116.738332,4.91311942 115.726916,4.51815039 114.457109,4.51815039 C112.773876,4.51815039 111.592661,5.24164506 110.913462,6.6886344 L110.913462,6.6886344 L110.647688,6.6886344 L110.647688,4.82821953 L108.92016,4.82821953 L108.92016,15.8135264 L110.647688,15.8135264 Z M130.669296,15.8135264 L130.669296,12.8900173 L133.061258,12.8900173 L133.061258,11.1624892 L130.669296,11.1624892 L130.669296,0.310069144 L127.059205,0.310069144 L121.632995,10.3208729 L121.632995,12.8900173 L128.808881,12.8900173 L128.808881,15.8135264 L130.669296,15.8135264 Z M128.808881,11.1624892 L123.227636,11.1624892 L123.227636,10.8967156 L128.543107,1.1073898 L128.808881,1.1073898 L128.808881,11.1624892 Z" id="423n4" fill="#FFFFFF" fill-rule="nonzero"></path>
                <rect id="Rectangle" fill="#7C04FB" x="0" y="17.2990493" width="133.156871" height="2.70095073"></rect>
            </g>
        </g>
    </g>
</svg>