<?xml version="1.0" encoding="iso-8859-1"?>
<!-- Generator: Adobe Illustrator 19.0.0, SVG Export Plug-In . SVG Version: 6.00 Build 0)  -->
<svg version="1.1" id="Layer_1" xmlns="http://www.w3.org/2000/svg" xmlns:xlink="http://www.w3.org/1999/xlink" x="0px" y="0px"
	 viewBox="0 0 472.625 472.625" style="enable-background:new 0 0 472.625 472.625;" xml:space="preserve">
<g>
	<g>
		<polygon points="472.625,13.813 458.817,0.005 298.344,160.473 298.344,27.922 278.815,27.922 278.815,193.811 444.704,193.811 
			444.704,174.281 312.154,174.281 		"/>
	</g>
</g>
<g>
	<g>
		<polygon points="174.281,27.922 174.281,160.473 13.808,0.005 0,13.813 160.472,174.281 27.931,174.281 27.931,193.811 
			193.811,193.811 193.811,27.922 		"/>
	</g>
</g>
<g>
	<g>
		<polygon points="312.154,298.344 444.704,298.344 444.704,278.815 278.815,278.815 278.815,444.704 298.344,444.704 
			298.344,312.153 458.817,472.62 472.625,458.812 		"/>
	</g>
</g>
<g>
	<g>
		<polygon points="27.931,278.815 27.931,298.344 160.472,298.344 0,458.812 13.808,472.62 174.281,312.153 174.281,444.704 
			193.811,444.704 193.811,278.815 		"/>
	</g>
</g>
<g>
</g>
<g>
</g>
<g>
</g>
<g>
</g>
<g>
</g>
<g>
</g>
<g>
</g>
<g>
</g>
<g>
</g>
<g>
</g>
<g>
</g>
<g>
</g>
<g>
</g>
<g>
</g>
<g>
</g>
</svg>
