<?xml version="1.0" encoding="UTF-8"?>
<svg width="254px" height="253px" viewBox="0 0 254 253" version="1.1" xmlns="http://www.w3.org/2000/svg" xmlns:xlink="http://www.w3.org/1999/xlink">
    <title>atom</title>
    <g id="Page-1" stroke="none" stroke-width="1" fill="none" fill-rule="evenodd">
        <g id="Desktop" transform="translate(-577.000000, -164.000000)">
            <g id="Group-2" transform="translate(577.710113, 164.000000)">
                <g id="atom" transform="translate(0.242476, 0.000000)">
                    <g id="cosmos-logo-vertical-dark" transform="translate(0.000000, 0.000000)">
                        <path d="M126.047192,0 C195.661302,0 252.094366,56.4330819 252.094366,126.047192 C252.094366,195.661302 195.661302,252.094366 126.047192,252.094366 C56.4330819,252.094366 0,195.661302 0,126.047192 C0,56.4330819 56.4330819,0 126.047192,0 Z" id="Path" fill="#20152B" opacity="0.538085938"></path>
                        <path d="M125.805137,53.3275838 C165.967005,53.3275838 198.524744,85.8853233 198.524744,126.047192 C198.524744,166.20906 165.967005,198.7668 125.805137,198.7668 C85.6432681,198.7668 53.0855286,166.20906 53.0855286,126.047192 C53.0855286,85.8853233 85.6432681,53.3275838 125.805137,53.3275838 Z" id="Path" fill="#000000" opacity="0.472701672"></path>
                        <path d="M128.026607,21.5597248 C127.025498,20.6382488 126.5085,20.6207962 126.421676,20.6207962 C126.334852,20.6207962 125.818292,20.6382488 124.816745,21.5597248 C123.788887,22.5056257 122.560194,24.1376127 121.236783,26.655776 C118.594347,31.6819294 116.065484,39.2790423 113.885672,49.0819708 C111.434425,60.1055679 109.497545,73.5795353 108.275429,88.662819 C114.177278,91.5183687 120.246637,94.6229897 126.42036,97.9565108 C132.59496,94.6221127 138.664757,91.5174917 144.567922,88.661065 C143.345807,73.5786583 141.408927,60.1051294 138.957679,49.0819708 C136.778305,39.2790423 134.249004,31.6819294 131.607007,26.655776 C130.283158,24.1376127 129.054464,22.5055818 128.026607,21.5597248 Z M121.254762,100.78575 C116.721051,98.3770378 112.254431,96.0981232 107.880774,93.9568994 C107.549263,98.8124741 107.290984,103.818018 107.111635,108.946343 C109.424753,107.561103 111.772074,106.181125 114.15053,104.808602 C116.528985,103.436518 118.898232,102.095128 121.254762,100.78575 Z M103.514133,86.3957441 C107.055944,45.0354393 115.976906,15.6876061 126.421676,15.6876061 C136.866445,15.6876061 145.786968,45.0345623 149.329218,86.3939901 C186.940298,68.7805279 216.831046,61.8284571 222.05365,70.868254 C227.276254,79.9080509 206.305153,102.302103 172.235884,126.047192 C206.305153,149.79228 227.276254,172.186771 222.05365,181.226568 C216.831046,190.266365 186.940298,183.313856 149.329218,165.700393 C145.786968,207.059821 136.866445,236.406821 126.421676,236.406821 C115.976906,236.406821 107.055944,207.058944 103.514133,165.699078 C65.9017374,183.313417 36.0091923,190.266365 30.7865883,181.226568 C25.5641597,172.186771 46.5351291,149.79228 80.6043981,126.047192 C46.5351291,102.302103 25.5641597,79.9080509 30.7865883,70.868254 C36.0091923,61.8280186 65.9017374,68.7809664 103.514133,86.3957441 Z M84.951306,123.058775 C72.4911639,114.458799 61.782414,106.04475 53.4547505,98.4112413 C46.0492647,91.6227331 40.7303649,85.635375 37.6959048,80.8354906 C36.1756052,78.4302864 35.3758584,76.5512891 35.0702198,75.1892901 C34.7726498,73.8632486 35.0158889,73.4089566 35.0581609,73.3357261 L35.0582048,73.3357261 C35.1007398,73.2620571 35.3736658,72.8235513 36.673397,72.417495 C38.0076386,72.0009145 40.0369557,71.7531587 42.8815427,71.8667317 C48.5592719,72.0930007 56.4076485,73.7027554 65.9929466,76.7174828 C76.771419,80.1080095 89.416172,85.1688049 103.097991,91.6525515 C102.621774,98.1876033 102.277547,104.991459 102.079781,112.000536 C96.1029468,115.677407 90.3778152,119.377957 84.951306,123.058775 Z M84.951306,129.036047 C72.4911639,137.635584 61.782414,146.049633 53.4547505,153.683581 C46.0492647,160.47165 40.7303649,166.459008 37.6959048,171.259331 C36.1756052,173.664097 35.3758584,175.543533 35.0702198,176.905093 C34.7726059,178.231573 35.0159328,178.685427 35.0581609,178.758657 C35.1005644,178.831888 35.3732273,179.270832 36.673397,179.676889 C38.0076386,180.093908 40.0369557,180.341225 42.8815427,180.227652 C48.5592719,180.001821 56.4076485,178.391628 65.9929466,175.376901 C76.771419,171.986374 89.416172,166.925579 103.097991,160.441832 C102.621774,153.90678 102.277547,147.102924 102.079781,140.093848 C96.1029468,136.416977 90.3778152,132.716426 84.951306,129.036047 Z M101.948667,134.2091 C97.593428,131.489049 93.3846494,128.76242 89.341626,126.047192 C93.3846494,123.331964 97.593428,120.605335 101.948667,117.885722 C101.904817,120.58034 101.882892,123.302146 101.882892,126.047192 C101.882892,128.792238 101.904817,131.514043 101.948667,134.2091 Z M106.94281,137.285218 C106.859055,133.592999 106.816082,129.843775 106.816082,126.047192 C106.816082,122.250609 106.859055,118.501823 106.94281,114.809165 C110.100052,112.891141 113.326577,110.979694 116.615809,109.081841 C119.906795,107.183111 123.17761,105.345333 126.42036,103.571139 C129.662672,105.345333 132.933487,107.183111 136.224473,109.081841 C139.51502,110.980133 142.742861,112.892457 145.900541,114.811358 C145.984735,118.503138 146.027708,122.251486 146.027708,126.047192 C146.027708,129.843336 145.984735,133.591684 145.900541,137.283026 C142.742861,139.202365 139.51502,141.114251 136.224473,143.012542 C132.933487,144.911711 129.662672,146.74905 126.42036,148.523245 C123.17761,146.74905 119.906795,144.911711 116.615809,143.012542 C113.326577,141.114689 110.100052,139.203681 106.94281,137.285218 Z M107.111635,143.148041 C107.290984,148.276804 107.549263,153.281909 107.880774,158.137484 C112.254431,155.996699 116.721051,153.717784 121.254762,151.308633 C118.898232,149.999255 116.528985,148.657866 114.15053,147.285781 C111.772074,145.913258 109.424753,144.53328 107.111635,143.148041 Z M126.42036,154.137873 C120.246637,157.471832 114.177278,160.576015 108.275429,163.432003 C109.497545,178.514848 111.434425,191.988816 113.885672,203.012413 C116.065484,212.815648 118.594347,220.412761 121.236783,225.438914 C122.560194,227.956815 123.788887,229.588933 124.816745,230.53479 C125.818292,231.456091 126.334852,231.473631 126.421676,231.473631 C126.5085,231.473631 127.025498,231.456091 128.026607,230.53479 C129.054464,229.588933 130.283158,227.956815 131.607007,225.438914 C134.249004,220.412761 136.778305,212.815648 138.957679,203.012413 C141.408927,191.989254 143.345807,178.515725 144.567922,163.433319 C138.664757,160.57733 132.59496,157.472271 126.42036,154.137873 Z M149.74536,160.443148 C163.425864,166.926456 176.06974,171.986812 186.847335,175.376901 C196.432633,178.391628 204.28101,180.001821 209.958783,180.227652 C212.80337,180.341225 214.832775,180.093908 216.166709,179.676889 C217.467318,179.270832 217.73963,178.831888 217.782165,178.758657 C217.824261,178.685865 218.067632,178.232012 217.769887,176.905093 C217.464248,175.543533 216.664852,173.664097 215.144552,171.259331 C212.110092,166.459008 206.791017,160.47165 199.38597,153.683581 C191.057868,146.049633 180.349118,137.635584 167.888976,129.036047 C162.463344,132.715549 156.739089,136.415661 150.764009,140.092094 C150.565805,147.102047 150.221578,153.907219 149.74536,160.443148 Z M167.888976,123.058775 C180.349118,114.458799 191.057868,106.04475 199.38597,98.4112413 C206.791017,91.6227331 212.110092,85.635375 215.144552,80.8354906 C216.664852,78.4302864 217.464248,76.5512891 217.769887,75.1892901 C218.067632,73.8623715 217.824261,73.4085181 217.782165,73.3357261 C217.73963,73.2624956 217.467318,72.8235513 216.166709,72.417495 C214.832775,72.0009145 212.80337,71.7531587 209.958783,71.8667317 C204.28101,72.0930007 196.432633,73.7027554 186.847335,76.7174828 C176.06974,80.1080095 163.425864,85.1679279 149.74536,91.651236 C150.221578,98.1871648 150.565805,104.992336 150.764009,112.002728 C156.739089,115.678722 162.463344,119.378834 167.888976,123.058775 Z M150.894684,117.887476 C155.249046,120.60665 159.456948,123.332841 163.498656,126.047192 C159.456948,128.761543 155.249046,131.487733 150.894684,134.206908 C150.938534,131.512728 150.960898,128.7918 150.960898,126.047192 C150.960898,123.303023 150.938534,120.581656 150.894684,117.887476 Z M145.731717,108.948097 C145.552806,103.818456 145.294088,98.8124741 144.962578,93.9555839 C140.588044,96.0968077 136.120547,98.3761608 131.58552,100.78575 C133.94205,102.095128 136.311297,103.436518 138.689752,104.808602 C141.069523,106.182002 143.417722,107.562419 145.731717,108.948097 Z M144.962578,158.139238 C140.588044,155.997576 136.120547,153.718223 131.58552,151.308633 C133.94205,149.999255 136.311297,148.657866 138.689752,147.285781 C141.069523,145.91282 143.417722,144.531965 145.731717,143.146287 C145.552806,148.275927 145.294088,153.282348 144.962578,158.139238 Z" id="Shape" fill="#CEA1FD" opacity="0.67"></path>
                        <path d="M55.8840726,95.1417421 C60.1700282,95.1417421 63.6447481,98.6177775 63.6447481,102.905926 C63.6447481,107.194074 60.1700282,110.670109 55.8840726,110.670109 C51.598117,110.670109 48.1238356,107.194074 48.1238356,102.905926 C48.1238356,98.6177775 51.598117,95.1417421 55.8840726,95.1417421 Z" id="Path" fill="#CEA1FD"></path>
                        <path d="M179.223912,68.5533819 C183.511622,68.5533819 186.988096,72.0294173 186.988096,76.3175655 C186.988096,80.6057136 183.511622,84.081749 179.223912,84.081749 C174.935764,84.081749 171.45929,80.6057136 171.45929,76.3175655 C171.45929,72.0294173 174.935764,68.5533819 179.223912,68.5533819 Z" id="Path" fill="#CEA1FD"></path>
                        <path d="M110.784121,190.418965 C115.072269,190.418965 118.548304,193.893685 118.548304,198.17964 C118.548304,202.465596 115.072269,205.940316 110.784121,205.940316 C106.495973,205.940316 103.019499,202.465596 103.019499,198.17964 C103.019499,193.893685 106.495973,190.418965 110.784121,190.418965 Z" id="Path" fill="#CEA1FD"></path>
                        <path d="M125.989747,112.844221 C133.249649,112.844221 139.134836,118.729846 139.134836,125.989747 C139.134836,133.249649 133.249649,139.134836 125.989747,139.134836 C118.729846,139.134836 112.844221,133.249649 112.844221,125.989747 C112.844221,118.729846 118.729846,112.844221 125.989747,112.844221 Z" id="Path" fill="#CEA1FD"></path>
                    </g>
                    <circle id="Oval" fill="#22093B" opacity="0.128815407" cx="126.047183" cy="126.047183" r="126.047183"></circle>
                </g>
            </g>
        </g>
    </g>
</svg>