<?xml version="1.0" encoding="UTF-8"?>
<svg width="254px" height="333px" viewBox="0 0 254 333" version="1.1" xmlns="http://www.w3.org/2000/svg" xmlns:xlink="http://www.w3.org/1999/xlink">
    <title>Group 2</title>
    <g id="Page-1" stroke="none" stroke-width="1" fill="none" fill-rule="evenodd">
        <g id="Desktop" transform="translate(-385.000000, -164.000000)">
            <g id="Group-2" transform="translate(385.710113, 164.000000)">
                <g id="cosmos-logo-vertical-dark" transform="translate(0.242476, 0.000000)">
                    <path d="M126.047192,0 C195.661302,0 252.094366,56.4330819 252.094366,126.047192 C252.094366,195.661302 195.661302,252.094366 126.047192,252.094366 C56.4330819,252.094366 0,195.661302 0,126.047192 C0,56.4330819 56.4330819,0 126.047192,0 Z" id="Path" fill="#20152B" opacity="0.538085938"></path>
                    <path d="M125.805137,53.3275838 C165.967005,53.3275838 198.524744,85.8853233 198.524744,126.047192 C198.524744,166.20906 165.967005,198.7668 125.805137,198.7668 C85.6432681,198.7668 53.0855286,166.20906 53.0855286,126.047192 C53.0855286,85.8853233 85.6432681,53.3275838 125.805137,53.3275838 Z" id="Path" fill="#000000" opacity="0.472701672"></path>
                    <path d="M128.026607,21.5597248 C127.025498,20.6382488 126.5085,20.6207962 126.421676,20.6207962 C126.334852,20.6207962 125.818292,20.6382488 124.816745,21.5597248 C123.788887,22.5056257 122.560194,24.1376127 121.236783,26.655776 C118.594347,31.6819294 116.065484,39.2790423 113.885672,49.0819708 C111.434425,60.1055679 109.497545,73.5795353 108.275429,88.662819 C114.177278,91.5183687 120.246637,94.6229897 126.42036,97.9565108 C132.59496,94.6221127 138.664757,91.5174917 144.567922,88.661065 C143.345807,73.5786583 141.408927,60.1051294 138.957679,49.0819708 C136.778305,39.2790423 134.249004,31.6819294 131.607007,26.655776 C130.283158,24.1376127 129.054464,22.5055818 128.026607,21.5597248 Z M121.254762,100.78575 C116.721051,98.3770378 112.254431,96.0981232 107.880774,93.9568994 C107.549263,98.8124741 107.290984,103.818018 107.111635,108.946343 C109.424753,107.561103 111.772074,106.181125 114.15053,104.808602 C116.528985,103.436518 118.898232,102.095128 121.254762,100.78575 Z M103.514133,86.3957441 C107.055944,45.0354393 115.976906,15.6876061 126.421676,15.6876061 C136.866445,15.6876061 145.786968,45.0345623 149.329218,86.3939901 C186.940298,68.7805279 216.831046,61.8284571 222.05365,70.868254 C227.276254,79.9080509 206.305153,102.302103 172.235884,126.047192 C206.305153,149.79228 227.276254,172.186771 222.05365,181.226568 C216.831046,190.266365 186.940298,183.313856 149.329218,165.700393 C145.786968,207.059821 136.866445,236.406821 126.421676,236.406821 C115.976906,236.406821 107.055944,207.058944 103.514133,165.699078 C65.9017374,183.313417 36.0091923,190.266365 30.7865883,181.226568 C25.5641597,172.186771 46.5351291,149.79228 80.6043981,126.047192 C46.5351291,102.302103 25.5641597,79.9080509 30.7865883,70.868254 C36.0091923,61.8280186 65.9017374,68.7809664 103.514133,86.3957441 Z M84.951306,123.058775 C72.4911639,114.458799 61.782414,106.04475 53.4547505,98.4112413 C46.0492647,91.6227331 40.7303649,85.635375 37.6959048,80.8354906 C36.1756052,78.4302864 35.3758584,76.5512891 35.0702198,75.1892901 C34.7726498,73.8632486 35.0158889,73.4089566 35.0581609,73.3357261 L35.0582048,73.3357261 C35.1007398,73.2620571 35.3736658,72.8235513 36.673397,72.417495 C38.0076386,72.0009145 40.0369557,71.7531587 42.8815427,71.8667317 C48.5592719,72.0930007 56.4076485,73.7027554 65.9929466,76.7174828 C76.771419,80.1080095 89.416172,85.1688049 103.097991,91.6525515 C102.621774,98.1876033 102.277547,104.991459 102.079781,112.000536 C96.1029468,115.677407 90.3778152,119.377957 84.951306,123.058775 Z M84.951306,129.036047 C72.4911639,137.635584 61.782414,146.049633 53.4547505,153.683581 C46.0492647,160.47165 40.7303649,166.459008 37.6959048,171.259331 C36.1756052,173.664097 35.3758584,175.543533 35.0702198,176.905093 C34.7726059,178.231573 35.0159328,178.685427 35.0581609,178.758657 C35.1005644,178.831888 35.3732273,179.270832 36.673397,179.676889 C38.0076386,180.093908 40.0369557,180.341225 42.8815427,180.227652 C48.5592719,180.001821 56.4076485,178.391628 65.9929466,175.376901 C76.771419,171.986374 89.416172,166.925579 103.097991,160.441832 C102.621774,153.90678 102.277547,147.102924 102.079781,140.093848 C96.1029468,136.416977 90.3778152,132.716426 84.951306,129.036047 Z M101.948667,134.2091 C97.593428,131.489049 93.3846494,128.76242 89.341626,126.047192 C93.3846494,123.331964 97.593428,120.605335 101.948667,117.885722 C101.904817,120.58034 101.882892,123.302146 101.882892,126.047192 C101.882892,128.792238 101.904817,131.514043 101.948667,134.2091 Z M106.94281,137.285218 C106.859055,133.592999 106.816082,129.843775 106.816082,126.047192 C106.816082,122.250609 106.859055,118.501823 106.94281,114.809165 C110.100052,112.891141 113.326577,110.979694 116.615809,109.081841 C119.906795,107.183111 123.17761,105.345333 126.42036,103.571139 C129.662672,105.345333 132.933487,107.183111 136.224473,109.081841 C139.51502,110.980133 142.742861,112.892457 145.900541,114.811358 C145.984735,118.503138 146.027708,122.251486 146.027708,126.047192 C146.027708,129.843336 145.984735,133.591684 145.900541,137.283026 C142.742861,139.202365 139.51502,141.114251 136.224473,143.012542 C132.933487,144.911711 129.662672,146.74905 126.42036,148.523245 C123.17761,146.74905 119.906795,144.911711 116.615809,143.012542 C113.326577,141.114689 110.100052,139.203681 106.94281,137.285218 Z M107.111635,143.148041 C107.290984,148.276804 107.549263,153.281909 107.880774,158.137484 C112.254431,155.996699 116.721051,153.717784 121.254762,151.308633 C118.898232,149.999255 116.528985,148.657866 114.15053,147.285781 C111.772074,145.913258 109.424753,144.53328 107.111635,143.148041 Z M126.42036,154.137873 C120.246637,157.471832 114.177278,160.576015 108.275429,163.432003 C109.497545,178.514848 111.434425,191.988816 113.885672,203.012413 C116.065484,212.815648 118.594347,220.412761 121.236783,225.438914 C122.560194,227.956815 123.788887,229.588933 124.816745,230.53479 C125.818292,231.456091 126.334852,231.473631 126.421676,231.473631 C126.5085,231.473631 127.025498,231.456091 128.026607,230.53479 C129.054464,229.588933 130.283158,227.956815 131.607007,225.438914 C134.249004,220.412761 136.778305,212.815648 138.957679,203.012413 C141.408927,191.989254 143.345807,178.515725 144.567922,163.433319 C138.664757,160.57733 132.59496,157.472271 126.42036,154.137873 Z M149.74536,160.443148 C163.425864,166.926456 176.06974,171.986812 186.847335,175.376901 C196.432633,178.391628 204.28101,180.001821 209.958783,180.227652 C212.80337,180.341225 214.832775,180.093908 216.166709,179.676889 C217.467318,179.270832 217.73963,178.831888 217.782165,178.758657 C217.824261,178.685865 218.067632,178.232012 217.769887,176.905093 C217.464248,175.543533 216.664852,173.664097 215.144552,171.259331 C212.110092,166.459008 206.791017,160.47165 199.38597,153.683581 C191.057868,146.049633 180.349118,137.635584 167.888976,129.036047 C162.463344,132.715549 156.739089,136.415661 150.764009,140.092094 C150.565805,147.102047 150.221578,153.907219 149.74536,160.443148 Z M167.888976,123.058775 C180.349118,114.458799 191.057868,106.04475 199.38597,98.4112413 C206.791017,91.6227331 212.110092,85.635375 215.144552,80.8354906 C216.664852,78.4302864 217.464248,76.5512891 217.769887,75.1892901 C218.067632,73.8623715 217.824261,73.4085181 217.782165,73.3357261 C217.73963,73.2624956 217.467318,72.8235513 216.166709,72.417495 C214.832775,72.0009145 212.80337,71.7531587 209.958783,71.8667317 C204.28101,72.0930007 196.432633,73.7027554 186.847335,76.7174828 C176.06974,80.1080095 163.425864,85.1679279 149.74536,91.651236 C150.221578,98.1871648 150.565805,104.992336 150.764009,112.002728 C156.739089,115.678722 162.463344,119.378834 167.888976,123.058775 Z M150.894684,117.887476 C155.249046,120.60665 159.456948,123.332841 163.498656,126.047192 C159.456948,128.761543 155.249046,131.487733 150.894684,134.206908 C150.938534,131.512728 150.960898,128.7918 150.960898,126.047192 C150.960898,123.303023 150.938534,120.581656 150.894684,117.887476 Z M145.731717,108.948097 C145.552806,103.818456 145.294088,98.8124741 144.962578,93.9555839 C140.588044,96.0968077 136.120547,98.3761608 131.58552,100.78575 C133.94205,102.095128 136.311297,103.436518 138.689752,104.808602 C141.069523,106.182002 143.417722,107.562419 145.731717,108.948097 Z M144.962578,158.139238 C140.588044,155.997576 136.120547,153.718223 131.58552,151.308633 C133.94205,149.999255 136.311297,148.657866 138.689752,147.285781 C141.069523,145.91282 143.417722,144.531965 145.731717,143.146287 C145.552806,148.275927 145.294088,153.282348 144.962578,158.139238 Z" id="Shape" fill="#CEA1FD" opacity="0.67"></path>
                    <path d="M55.8840726,95.1417421 C60.1700282,95.1417421 63.6447481,98.6177775 63.6447481,102.905926 C63.6447481,107.194074 60.1700282,110.670109 55.8840726,110.670109 C51.598117,110.670109 48.1238356,107.194074 48.1238356,102.905926 C48.1238356,98.6177775 51.598117,95.1417421 55.8840726,95.1417421 Z" id="Path" fill="#CEA1FD"></path>
                    <path d="M179.223912,68.5533819 C183.511622,68.5533819 186.988096,72.0294173 186.988096,76.3175655 C186.988096,80.6057136 183.511622,84.081749 179.223912,84.081749 C174.935764,84.081749 171.45929,80.6057136 171.45929,76.3175655 C171.45929,72.0294173 174.935764,68.5533819 179.223912,68.5533819 Z" id="Path" fill="#CEA1FD"></path>
                    <path d="M110.784121,190.418965 C115.072269,190.418965 118.548304,193.893685 118.548304,198.17964 C118.548304,202.465596 115.072269,205.940316 110.784121,205.940316 C106.495973,205.940316 103.019499,202.465596 103.019499,198.17964 C103.019499,193.893685 106.495973,190.418965 110.784121,190.418965 Z" id="Path" fill="#CEA1FD"></path>
                    <path d="M125.989747,112.844221 C133.249649,112.844221 139.134836,118.729846 139.134836,125.989747 C139.134836,133.249649 133.249649,139.134836 125.989747,139.134836 C118.729846,139.134836 112.844221,133.249649 112.844221,125.989747 C112.844221,118.729846 118.729846,112.844221 125.989747,112.844221 Z" id="Path" fill="#CEA1FD"></path>
                </g>
                <circle id="Oval" fill="#22093B" opacity="0.128815407" cx="126.289659" cy="126.047183" r="126.047183"></circle>
                <g id="Group" transform="translate(0.000000, 287.861529)" fill="#FFFFFF">
                    <path d="M28.0643706,33.0054539 L24.6003941,29.4969691 C23.2846137,30.7247853 21.9546695,31.6973911 20.6092898,32.4134711 C19.265138,33.129551 17.6570934,33.4873718 15.78634,33.4873718 C14.3244494,33.4873718 12.9725799,33.2027815 11.7301615,32.632724 C10.487743,32.0622279 9.41335997,31.2808106 8.50701235,30.2862795 C7.60062088,29.2926254 6.89953782,28.130585 6.4019653,26.800597 C5.90500669,25.4706089 5.65711936,24.0450266 5.65711936,22.5260425 C5.65711936,21.0053044 5.90500669,19.5876152 6.4019653,18.2716593 C6.89953782,16.9565804 7.60062088,15.8094493 8.50701235,14.8298274 C9.41335997,13.8506439 10.487743,13.0762427 11.7301615,12.5061852 C12.9725799,11.9365661 14.3244494,11.6510989 15.78634,11.6510989 C17.5399247,11.6510989 19.1042064,12.0019035 20.4779574,12.7035128 C21.8522784,13.4046835 23.1532812,14.3259842 24.3803081,15.4656608 L27.8448985,11.4761351 C27.1142163,10.7745258 26.3397712,10.1312378 25.5209932,9.54627108 C24.7027414,8.96174286 23.8111714,8.45702269 22.8462394,8.0338646 C21.8813074,7.609391 20.821702,7.28095016 19.6668532,7.04766508 C18.5119605,6.81306448 17.2328829,6.69598343 15.8301468,6.69598343 C13.49142,6.69598343 11.3574315,7.11300244 9.42813762,7.94616345 C7.49827363,8.77888594 5.83225858,9.919001 4.42890849,11.3660701 C3.02557595,12.8131392 1.93698532,14.500948 1.16195265,16.430812 C0.386923478,18.359799 0,20.4207762 0,22.6133052 C0,24.8347755 0.394614431,26.9102234 1.18384286,28.8400874 C1.97307435,30.7686359 3.06225696,32.441974 4.45078993,33.8601017 C5.83936237,35.2773524 7.48349599,36.3955422 9.38376083,37.2142325 C11.2840695,38.0333613 13.3600875,38.4420487 15.6106308,38.4420487 C17.04358,38.4420487 18.3516428,38.3179516 19.5354769,38.0693188 C20.7193548,37.820686 21.8085155,37.4558492 22.8024327,36.9734928 C23.7963938,36.4906979 24.7246228,35.9206404 25.5872514,35.2633202 C26.4492223,34.6055615 27.2751479,33.8522086 28.0643706,33.0054539 Z" id="Path"></path>
                    <path d="M97.6442771,15.3876067 C97.6442771,14.3667652 98.0805904,13.4989623 98.9532169,12.7846363 C99.8249664,12.0694334 101.046644,11.7124897 102.616494,11.7124897 C104.012258,11.7124897 105.393113,11.9826093 106.759497,12.5219714 C108.12632,13.061772 109.507174,13.8418738 110.9025,14.8622768 L113.780852,10.7938201 C112.211439,9.53969349 110.532401,8.58462788 108.744174,7.92906172 C106.955509,7.27261855 104.942329,6.94461622 102.703757,6.94461622 C101.191789,6.94461622 99.7964635,7.1555375 98.5239197,7.5791341 C97.2447983,8.00141518 96.1551114,8.60655317 95.2460889,9.39410957 C94.3375049,10.181666 93.624933,11.1222609 93.1017956,12.2158943 C92.5861128,13.3095278 92.3238863,14.5272584 92.3238863,15.8686476 C92.3238863,17.297738 92.5492783,18.5084524 93.0000623,19.499914 C93.4508462,20.4913756 94.1121129,21.3372533 94.9702688,22.0375471 C95.8275476,22.7374023 96.8961862,23.320615 98.1603984,23.7871852 C99.4325037,24.2541938 100.879573,24.6764749 102.514761,25.0557824 C103.939905,25.40571 105.094929,25.741167 105.989042,26.0617147 C106.87614,26.3827009 107.573802,26.7256125 108.089924,27.0895723 C108.598152,27.4544091 108.947641,27.8552034 109.136637,28.2928322 C109.325633,28.7304609 109.419473,29.2259725 109.419473,29.7802438 C109.419473,30.9764876 108.93317,31.9245371 107.959249,32.6239539 C106.984889,33.3242476 105.668933,33.6737367 104.012258,33.6737367 C102.093357,33.6737367 100.377484,33.3308252 98.8659542,32.6454407 C97.3539863,31.9604946 95.8569275,30.9764876 94.3734624,29.6925427 L91.1464983,33.5426235 C92.9785755,35.204999 94.9702688,36.4372002 97.1215782,37.2392273 C99.2733261,38.0416929 101.526369,38.4424872 103.881145,38.4424872 C105.480376,38.4424872 106.948931,38.2381435 108.286374,37.8303331 C109.616362,37.4212072 110.764809,36.8235238 111.709789,36.0359674 C112.661785,35.248411 113.403298,34.2863293 113.940906,33.1492838 C114.471498,32.0117998 114.740741,30.7138226 114.740741,29.2553524 C114.740741,27.9722844 114.52982,26.8567257 114.107977,25.9086762 C113.686134,24.9606267 113.061264,24.1300967 112.247397,23.4148937 C111.433092,22.7005678 110.401288,22.0949913 109.165578,21.5994798 C107.930307,21.1039682 106.505164,20.6518688 104.905933,20.2436199 C103.444832,19.8936922 102.245957,19.5577968 101.293961,19.2372491 C100.348981,18.9167013 99.6074675,18.5667737 99.0619663,18.1870277 C98.5239197,17.8081587 98.1538208,17.3999098 97.9499156,16.962281 C97.7468875,16.5246522 97.6442771,15.9997608 97.6442771,15.3876067 Z" id="Path"></path>
                    <polygon id="Path" points="157.345964 15.8208504 157.345964 37.6983429 162.674247 37.6983429 162.674247 7.19237199 156.952185 7.19237199 147.648408 21.6174585 138.345069 7.19237199 132.623007 7.19237199 132.623007 37.6983429 137.951729 37.6983429 137.951729 15.9081131 147.516856 30.2025249 147.692259 30.2025249"></polygon>
                    <path d="M207.444373,22.6133052 C207.444373,24.1042248 207.189163,25.5144595 206.678742,26.844886 C206.168321,28.1748741 205.461012,29.3290214 204.555497,30.3082048 C203.651737,31.2873882 202.564242,32.0622279 201.295207,32.632724 C200.025732,33.2027815 198.632599,33.4873718 197.115808,33.4873718 C195.598139,33.4873718 194.197113,33.1953269 192.913607,32.6107987 C191.629662,32.025832 190.527697,31.2365215 189.609027,30.2433059 C188.689919,29.2487748 187.975155,28.0867344 187.464295,26.7567464 C186.953875,25.4271968 186.698226,24.0160852 186.698226,22.5260425 C186.698226,21.0346843 186.953875,19.6240112 187.464295,18.2944616 C187.975155,16.9635965 188.682464,15.8094493 189.587102,14.8298274 C190.491739,13.8506439 191.578795,13.0762427 192.847831,12.5061852 C194.116867,11.9365661 195.510438,11.6510989 197.027668,11.6510989 C198.545337,11.6510989 199.945924,11.9435822 201.229869,12.528549 C202.512937,13.1130772 203.614902,13.9023876 204.533572,14.8960417 C205.453118,15.8892574 206.168321,17.0517362 206.678742,18.3817243 C207.189163,19.7117123 207.444373,21.122824 207.444373,22.6133052 Z M213.090574,22.5260425 C213.090574,20.3624549 212.696357,18.3159484 211.908801,16.3865229 C211.121683,14.4575359 210.026734,12.7763047 208.626585,11.3441448 C207.225997,9.9115464 205.548274,8.77888594 203.592538,7.94616345 C201.63768,7.11300244 199.478916,6.69598343 197.115808,6.69598343 C194.751823,6.69598343 192.593059,7.12045704 190.637762,7.96808874 C188.682464,8.81572043 186.989832,9.96285158 185.560303,11.4099207 C184.130336,12.8569898 183.022232,14.5452371 182.233798,16.4746626 C181.446242,18.4036496 181.052464,20.4501561 181.052464,22.6133052 C181.052464,24.7764542 181.446242,26.8220837 182.233798,28.7515092 C183.022232,30.6813732 184.115865,32.3621659 185.516891,33.7943258 C186.916602,35.2264857 188.595202,36.3595847 190.550499,37.1927457 C192.504919,38.0254682 194.663683,38.4420487 197.027668,38.4420487 C199.390776,38.4420487 201.550417,38.0180136 203.505276,37.1708204 C205.461012,36.3227502 207.152767,35.1756191 208.583173,33.7281115 C210.012702,32.2819194 211.121683,30.5932335 211.908801,28.6642466 C212.696357,26.7348211 213.090574,24.6887531 213.090574,22.5260425 Z" id="Shape"></path>
                    <path d="M235.483311,15.3876067 C235.483311,14.3667652 235.919624,13.4989623 236.791373,12.7846363 C237.664,12.0694334 238.885238,11.7124897 240.455528,11.7124897 C241.850415,11.7124897 243.232146,11.9826093 244.59853,12.5219714 C245.964914,13.061772 247.346208,13.8418738 248.741972,14.8622768 L251.619885,10.7938201 C250.050034,9.53969349 248.370557,8.58462788 246.582769,7.92906172 C244.794981,7.27261855 242.781362,6.94461622 240.54279,6.94461622 C239.030822,6.94461622 237.635058,7.1555375 236.362953,7.5791341 C235.083832,8.00141518 233.994145,8.60655317 233.085122,9.39410957 C232.176538,10.181666 231.464843,11.1222609 230.940391,12.2158943 C230.424708,13.3095278 230.16292,14.5272584 230.16292,15.8686476 C230.16292,17.297738 230.388312,18.5084524 230.839096,19.499914 C231.28988,20.4913756 231.951146,21.3372533 232.808425,22.0375471 C233.666581,22.7374023 234.734781,23.320615 235.99987,23.7871852 C237.271537,24.2541938 238.718606,24.6764749 240.353794,25.0557824 C241.778061,25.40571 242.933962,25.741167 243.828076,26.0617147 C244.714296,26.3827009 245.412836,26.7256125 245.928957,27.0895723 C246.437185,27.4544091 246.786674,27.8552034 246.97567,28.2928322 C247.164666,28.7304609 247.259384,29.2259725 247.259384,29.7802438 C247.259384,30.9764876 246.771327,31.9245371 245.798282,32.6239539 C244.823922,33.3242476 243.507967,33.6737367 241.850415,33.6737367 C239.931952,33.6737367 238.216079,33.3308252 236.704988,32.6454407 C235.193458,31.9604946 233.695961,30.9764876 232.212496,29.6925427 L228.985532,33.5426235 C230.816732,35.204999 232.808425,36.4372002 234.960173,37.2392273 C237.111483,38.0416929 239.364525,38.4424872 241.720178,38.4424872 C243.319409,38.4424872 244.787526,38.2381435 246.125408,37.8303331 C247.455396,37.4212072 248.603842,36.8235238 249.548822,36.0359674 C250.500818,35.248411 251.242332,34.2863293 251.77994,33.1492838 C252.310093,32.0117998 252.579774,30.7138226 252.579774,29.2553524 C252.579774,27.9722844 252.368415,26.8567257 251.94701,25.9086762 C251.525168,24.9606267 250.900297,24.1300967 250.085992,23.4148937 C249.272125,22.7005678 248.240321,22.0949913 247.004612,21.5994798 C245.768902,21.1039682 244.343759,20.6518688 242.744966,20.2436199 C241.283865,19.8936922 240.08499,19.5577968 239.132556,19.2372491 C238.187576,18.9167013 237.446501,18.5667737 236.901,18.1870277 C236.362953,17.8081587 235.992416,17.3999098 235.788949,16.962281 C235.585921,16.5246522 235.483311,15.9997608 235.483311,15.3876067 Z" id="Path"></path>
                    <path d="M64.6177749,13.2994421 L50.0172861,27.8806367 C49.8287286,27.5157999 49.6590269,27.1356154 49.5068653,26.7413987 C48.9968831,25.4162342 48.7416727,24.0108231 48.7416727,22.5260425 C48.7416727,21.0403849 48.9968831,19.6354123 49.5068653,18.3106863 C50.0172861,16.9850833 50.7241574,15.8353211 51.6283564,14.8592072 C52.5325553,13.8839704 53.6187341,13.1126387 54.8873314,12.5443352 C56.1559287,11.9769087 57.5481845,11.6927569 59.0645376,11.6927569 C60.5813291,11.6927569 61.9810396,11.9839248 63.263669,12.566699 C63.7403248,12.7828823 64.1919858,13.0271301 64.6177749,13.2994421 Z M63.3294449,32.594574 C62.0608476,33.1628775 60.6685918,33.4461522 59.1522387,33.4461522 C57.6354472,33.4461522 56.2357367,33.1554229 54.9526688,32.5730872 C54.4764515,32.3560268 54.0247905,32.1122176 53.5994399,31.8390285 L68.1994902,17.2591494 C68.3880477,17.6235478 68.5577494,18.0028553 68.7103495,18.397949 C69.2198932,19.722675 69.4751036,21.128086 69.4751036,22.6133052 C69.4751036,24.0985243 69.2198932,25.5034968 68.7103495,26.8290998 C68.1994902,28.1538258 67.4926189,29.303588 66.5884199,30.2792634 C65.684221,31.2545003 64.5984807,32.026709 63.3294449,32.594574 Z M65.5386371,37.1155687 C67.4926189,36.2710065 69.1839357,35.1282604 70.6130261,33.6860149 C72.041678,32.2450849 73.1493436,30.5634152 73.9364615,28.6414443 C74.7244564,26.7194734 75.1182346,24.68086 75.1182346,22.5260425 C75.1182346,20.3707865 74.7244564,18.3321731 73.9364615,16.4097637 C73.4698913,15.2700872 72.8950102,14.2176733 72.2126952,13.251645 L81.7094151,3.76808027 L77.9356343,0 L68.4104115,9.51206763 C67.5553252,8.92973194 66.6270084,8.42632729 65.6258997,8.00141518 C63.6719179,7.17176222 61.5140309,6.75605873 59.1522387,6.75605873 C56.790008,6.75605873 54.632121,7.17877831 52.6781392,8.02334046 C50.7241574,8.86790262 49.0328406,10.0106487 47.6037502,11.4520172 C46.1750983,12.8938243 45.0669942,14.5759325 44.2794378,16.4974649 C43.4922322,18.4194358 43.0985856,20.4580492 43.0985856,22.6133052 C43.0985856,24.7681226 43.4922322,26.8062975 44.2794378,28.7287069 C44.746885,29.868822 45.3217661,30.9216744 46.0040811,31.8881411 L36.5081943,41.3703904 L40.2817121,45.1384706 L49.8063648,35.6268415 C50.6614511,36.2091772 51.5897679,36.7125819 52.5908766,37.137494 C54.5448584,37.9671469 56.7027454,38.3824119 59.0645376,38.3824119 C61.4267683,38.3824119 63.5846553,37.9596923 65.5386371,37.1155687 Z" id="Shape"></path>
                </g>
            </g>
        </g>
    </g>
</svg>