<?xml version="1.0" encoding="UTF-8"?>
<svg width="138px" height="164px" viewBox="0 0 138 164" version="1.1" xmlns="http://www.w3.org/2000/svg" xmlns:xlink="http://www.w3.org/1999/xlink">
    <title>Group 9</title>
    <g id="Page-1" stroke="none" stroke-width="1" fill="none" fill-rule="evenodd">
        <g id="Desktop" transform="translate(-567.000000, -694.000000)">
            <g id="Group-9" transform="translate(570.000000, 697.000000)">
                <g id="Group-8" transform="translate(12.178947, 31.500000)" fill="#51486D">
                    <g id="Group-7">
                        <rect id="Rectangle" x="0" y="0" width="8.15384615" height="5.52631579" rx="2.76315789"></rect>
                        <rect id="Rectangle" x="13.1715976" y="0" width="92.8284024" height="5.52631579" rx="2.76315789"></rect>
                        <rect id="Rectangle" x="0" y="14.7368421" width="8.15384615" height="5.52631579" rx="2.76315789"></rect>
                        <rect id="Rectangle" x="13.1715976" y="14.7368421" width="92.8284024" height="5.52631579" rx="2.76315789"></rect>
                        <rect id="Rectangle" x="0" y="29.4736842" width="8.15384615" height="5.52631579" rx="2.76315789"></rect>
                        <rect id="Rectangle" x="13.1715976" y="29.4736842" width="92.8284024" height="5.52631579" rx="2.76315789"></rect>
                    </g>
                    <g id="Group-7" transform="translate(0.000000, 60.000000)">
                        <rect id="Rectangle" x="0" y="0" width="8.15384615" height="5.52631579" rx="2.76315789"></rect>
                        <rect id="Rectangle" x="13.1715976" y="0" width="92.8284024" height="5.52631579" rx="2.76315789"></rect>
                        <rect id="Rectangle" x="0" y="14.7368421" width="8.15384615" height="5.52631579" rx="2.76315789"></rect>
                        <rect id="Rectangle" x="13.1715976" y="14.7368421" width="92.8284024" height="5.52631579" rx="2.76315789"></rect>
                        <rect id="Rectangle" x="0" y="29.4736842" width="8.15384615" height="5.52631579" rx="2.76315789"></rect>
                        <rect id="Rectangle" x="13.1715976" y="29.4736842" width="92.8284024" height="5.52631579" rx="2.76315789"></rect>
                    </g>
                </g>
                <rect id="Rectangle" stroke="#51486D" stroke-width="5" x="0" y="0" width="132" height="158" rx="7"></rect>
            </g>
        </g>
    </g>
</svg>