<svg width="408" height="275" viewBox="0 0 408 275" fill="none" xmlns="http://www.w3.org/2000/svg">
<g opacity="0.9">
<g opacity="0.6">
<path d="M239.579 114.124V205.047C239.579 207.089 237.918 208.752 235.874 208.752H5.12623C3.08416 208.752 1.42102 207.089 1.42102 205.047V114.124C1.42102 112.082 3.08416 110.421 5.12623 110.421H235.874C237.918 110.421 239.579 112.082 239.579 114.124Z" fill="#41388C"/>
</g>
<g opacity="0.7">
<path d="M235.874 110H5.12625C2.8505 110 1 111.85 1 114.124V205.047C1 207.322 2.8505 209.173 5.12625 209.173H235.874C238.149 209.173 240 207.322 240 205.047V114.124C240 111.85 238.149 110 235.874 110ZM239.579 205.047C239.579 207.089 237.918 208.752 235.874 208.752H5.12625C3.08418 208.752 1.42105 207.089 1.42105 205.047V114.124C1.42105 112.082 3.08418 110.421 5.12625 110.421H235.874C237.918 110.421 239.579 112.082 239.579 114.124V205.047Z" fill="#9F83E1"/>
</g>
<g opacity="0.13">
<g style="mix-blend-mode:screen">
<path d="M1.21057 198.047H239.79" stroke="#9F83E1" stroke-linecap="round" stroke-linejoin="round"/>
</g>
<g style="mix-blend-mode:screen">
<path d="M1.21057 192.177H239.79" stroke="#9F83E1" stroke-linecap="round" stroke-linejoin="round"/>
</g>
<g style="mix-blend-mode:screen">
<path d="M1.21057 186.308H239.79" stroke="#9F83E1" stroke-linecap="round" stroke-linejoin="round"/>
</g>
<g style="mix-blend-mode:screen">
<path d="M1.21057 180.439H239.79" stroke="#9F83E1" stroke-linecap="round" stroke-linejoin="round"/>
</g>
<g style="mix-blend-mode:screen">
<path d="M1.21057 174.569H239.79" stroke="#9F83E1" stroke-linecap="round" stroke-linejoin="round"/>
</g>
<g style="mix-blend-mode:screen">
<path d="M1.21057 168.7H239.79" stroke="#9F83E1" stroke-linecap="round" stroke-linejoin="round"/>
</g>
<g style="mix-blend-mode:screen">
<path d="M1.21057 162.831H239.79" stroke="#9F83E1" stroke-linecap="round" stroke-linejoin="round"/>
</g>
<g style="mix-blend-mode:screen">
<path d="M1.21057 156.961H239.79" stroke="#9F83E1" stroke-linecap="round" stroke-linejoin="round"/>
</g>
<g style="mix-blend-mode:screen">
<path d="M1.21057 151.092H239.79" stroke="#9F83E1" stroke-linecap="round" stroke-linejoin="round"/>
</g>
<g style="mix-blend-mode:screen">
<path d="M1.21057 145.223H239.79" stroke="#9F83E1" stroke-linecap="round" stroke-linejoin="round"/>
</g>
<g style="mix-blend-mode:screen">
<path d="M1.21057 139.353H239.79" stroke="#9F83E1" stroke-linecap="round" stroke-linejoin="round"/>
</g>
<g style="mix-blend-mode:screen">
<path d="M1.21057 133.484H239.79" stroke="#9F83E1" stroke-linecap="round" stroke-linejoin="round"/>
</g>
<g style="mix-blend-mode:screen">
<path d="M1.21057 127.614H239.79" stroke="#9F83E1" stroke-linecap="round" stroke-linejoin="round"/>
</g>
<g style="mix-blend-mode:screen">
<path d="M1.21057 121.745H239.79" stroke="#9F83E1" stroke-linecap="round" stroke-linejoin="round"/>
</g>
</g>
<g opacity="0.3">
<path d="M68.2347 188.681H15.3198V198.049H68.2347V188.681Z" fill="#CCAB9E"/>
<g style="mix-blend-mode:hard-light">
<path d="M96.2805 157.477H15.3198V166.845H96.2805V157.477Z" fill="#28CAAF"/>
</g>
<path d="M75.8093 138.08H15.3198V147.448H75.8093V138.08Z" fill="#CCAB9E"/>
<g style="mix-blend-mode:hard-light">
<path d="M96.2805 122.48H15.3198V131.848H96.2805V122.48Z" fill="#28CAAF"/>
</g>
<g style="mix-blend-mode:hard-light" opacity="0.9">
<path d="M49.715 173.079H15.3198V182.447H49.715V173.079Z" fill="#CA288F"/>
</g>
<g style="mix-blend-mode:hard-light" opacity="0.9">
<path d="M183.551 138.08H139.49V147.448H183.551V138.08Z" fill="#CA288F"/>
</g>
<g style="mix-blend-mode:hard-light" opacity="0.9">
<path d="M164.41 157.477H139.49V166.845H164.41V157.477Z" fill="#CA288F"/>
</g>
<g style="mix-blend-mode:hard-light">
<path d="M220.451 122.48H139.49V131.848H220.451V122.48Z" fill="#28CAAF"/>
</g>
<g style="mix-blend-mode:hard-light">
<path d="M220.451 188.788H139.49V198.22H220.451V188.788Z" fill="#28CAAF"/>
</g>
<path d="M198.266 173.079H139.49V182.51H198.266V173.079Z" fill="#CCAB9E"/>
</g>
</g>
<g opacity="0.8">
<g opacity="0.66">
<path d="M406.078 135.132V187.071C406.078 188.841 404.636 190.283 402.866 190.283H327.132C325.362 190.283 323.922 188.841 323.922 187.071V135.132C323.922 133.362 325.362 131.922 327.132 131.922H402.866C404.636 131.922 406.078 133.362 406.078 135.132Z" fill="#41388C" stroke="#9F83E1"/>
</g>
<path opacity="0.13" d="M323.211 184.386H406.789" stroke="#9F83E1" stroke-linecap="round" stroke-linejoin="round"/>
<path opacity="0.13" d="M323.211 180.832H406.789" stroke="#9F83E1" stroke-linecap="round" stroke-linejoin="round"/>
<path opacity="0.13" d="M323.211 177.28H406.789" stroke="#9F83E1" stroke-linecap="round" stroke-linejoin="round"/>
<path opacity="0.13" d="M323.211 173.727H406.789" stroke="#9F83E1" stroke-linecap="round" stroke-linejoin="round"/>
<path opacity="0.13" d="M323.211 170.173H406.789" stroke="#9F83E1" stroke-linecap="round" stroke-linejoin="round"/>
<path opacity="0.13" d="M323.211 166.621H406.789" stroke="#9F83E1" stroke-linecap="round" stroke-linejoin="round"/>
<path opacity="0.13" d="M323.211 163.067H406.789" stroke="#9F83E1" stroke-linecap="round" stroke-linejoin="round"/>
<path opacity="0.13" d="M323.211 159.513H406.789" stroke="#9F83E1" stroke-linecap="round" stroke-linejoin="round"/>
<path opacity="0.13" d="M323.211 155.959H406.789" stroke="#9F83E1" stroke-linecap="round" stroke-linejoin="round"/>
<path opacity="0.13" d="M323.211 152.408H406.789" stroke="#9F83E1" stroke-linecap="round" stroke-linejoin="round"/>
<path opacity="0.13" d="M323.211 148.854H406.789" stroke="#9F83E1" stroke-linecap="round" stroke-linejoin="round"/>
<path opacity="0.13" d="M323.211 145.3H406.789" stroke="#9F83E1" stroke-linecap="round" stroke-linejoin="round"/>
<path opacity="0.13" d="M323.211 141.748H406.789" stroke="#9F83E1" stroke-linecap="round" stroke-linejoin="round"/>
<path opacity="0.13" d="M323.211 138.194H406.789" stroke="#9F83E1" stroke-linecap="round" stroke-linejoin="round"/>
<g opacity="0.3">
<g style="mix-blend-mode:hard-light">
<path d="M395.879 177.057H330.272V182.965H395.879V177.057Z" fill="#28CAAF"/>
</g>
<path d="M380.573 167.642H330.272V173.549H380.573V167.642Z" fill="#CCAB9E"/>
<g style="mix-blend-mode:hard-light" opacity="0.9">
<path d="M345.173 158.225H330.272V164.132H345.173V158.225Z" fill="#CA288F"/>
</g>
<g style="mix-blend-mode:hard-light" opacity="0.9">
<path d="M364.126 148.809H330.272V154.717H364.126V148.809Z" fill="#CA288F"/>
</g>
<g style="mix-blend-mode:hard-light">
<path d="M395.879 139.392H330.272V145.3H395.879V139.392Z" fill="#28CAAF"/>
</g>
</g>
</g>
<g opacity="0.6">
<g opacity="0.66">
<path d="M324.867 32.7099V84.6492C324.867 86.4189 323.425 87.8612 321.655 87.8612H245.921C244.152 87.8612 242.711 86.4193 242.711 84.6492V32.7099C242.711 30.9402 244.151 29.5 245.921 29.5H321.655C323.425 29.5 324.867 30.9406 324.867 32.7099Z" fill="#41388C" stroke="#9F83E1"/>
</g>
<path opacity="0.13" d="M242 81.9643H325.578" stroke="#9F83E1" stroke-linecap="round" stroke-linejoin="round"/>
<path opacity="0.13" d="M242 78.4104H325.578" stroke="#9F83E1" stroke-linecap="round" stroke-linejoin="round"/>
<path opacity="0.13" d="M242 74.8586H325.578" stroke="#9F83E1" stroke-linecap="round" stroke-linejoin="round"/>
<path opacity="0.13" d="M242 71.3047H325.578" stroke="#9F83E1" stroke-linecap="round" stroke-linejoin="round"/>
<path opacity="0.13" d="M242 67.7509H325.578" stroke="#9F83E1" stroke-linecap="round" stroke-linejoin="round"/>
<path opacity="0.13" d="M242 64.1992H325.578" stroke="#9F83E1" stroke-linecap="round" stroke-linejoin="round"/>
<path opacity="0.13" d="M242 60.6453H325.578" stroke="#9F83E1" stroke-linecap="round" stroke-linejoin="round"/>
<path opacity="0.13" d="M242 57.0914H325.578" stroke="#9F83E1" stroke-linecap="round" stroke-linejoin="round"/>
<path opacity="0.13" d="M242 53.5375H325.578" stroke="#9F83E1" stroke-linecap="round" stroke-linejoin="round"/>
<path opacity="0.13" d="M242 49.9858H325.578" stroke="#9F83E1" stroke-linecap="round" stroke-linejoin="round"/>
<path opacity="0.13" d="M242 46.4319H325.578" stroke="#9F83E1" stroke-linecap="round" stroke-linejoin="round"/>
<path opacity="0.13" d="M242 42.878H325.578" stroke="#9F83E1" stroke-linecap="round" stroke-linejoin="round"/>
<path opacity="0.13" d="M242 39.3263H325.578" stroke="#9F83E1" stroke-linecap="round" stroke-linejoin="round"/>
<path opacity="0.13" d="M242 35.7723H325.578" stroke="#9F83E1" stroke-linecap="round" stroke-linejoin="round"/>
<g opacity="0.3">
<g style="mix-blend-mode:hard-light">
<path d="M314.668 74.635H249.061V80.5427H314.668V74.635Z" fill="#28CAAF"/>
</g>
<path d="M299.362 65.2199H249.061V71.1276H299.362V65.2199Z" fill="#CCAB9E"/>
<g style="mix-blend-mode:hard-light" opacity="0.9">
<path d="M263.962 55.8027H249.061V61.7103H263.962V55.8027Z" fill="#CA288F"/>
</g>
<g style="mix-blend-mode:hard-light" opacity="0.9">
<path d="M282.915 46.3876H249.061V52.2952H282.915V46.3876Z" fill="#CA288F"/>
</g>
<g style="mix-blend-mode:hard-light">
<path d="M314.668 36.9703H249.061V42.878H314.668V36.9703Z" fill="#28CAAF"/>
</g>
</g>
</g>
<g opacity="0.6">
<path d="M355.414 185.741V268.848C355.414 271.689 353.103 274 350.262 274H229.741C226.9 274 224.586 271.689 224.586 268.848V185.741C224.586 182.9 226.9 180.586 229.741 180.586H350.262C353.103 180.586 355.414 182.9 355.414 185.741Z" fill="#41388C"/>
</g>
<g style="mix-blend-mode:screen" opacity="0.7">
<path d="M350.262 180H229.741C226.575 180 224 182.575 224 185.741V268.848C224 272.012 226.575 274.586 229.741 274.586H350.262C353.425 274.586 356 272.012 356 268.848V185.741C356 182.575 353.425 180 350.262 180ZM355.414 268.848C355.414 271.689 353.103 274 350.262 274H229.741C226.9 274 224.586 271.689 224.586 268.848V185.741C224.586 182.9 226.9 180.586 229.741 180.586H350.262C353.103 180.586 355.414 182.9 355.414 185.741V268.848Z" fill="#9F83E1"/>
</g>
<g opacity="0.13">
<g style="mix-blend-mode:screen">
<path d="M224.293 263.904H355.707" stroke="#9F83E1" stroke-linecap="round" stroke-linejoin="round"/>
</g>
<g style="mix-blend-mode:screen">
<path d="M224.293 258.319H355.707" stroke="#9F83E1" stroke-linecap="round" stroke-linejoin="round"/>
</g>
<g style="mix-blend-mode:screen">
<path d="M224.293 252.731H355.707" stroke="#9F83E1" stroke-linecap="round" stroke-linejoin="round"/>
</g>
<g style="mix-blend-mode:screen">
<path d="M224.293 247.145H355.707" stroke="#9F83E1" stroke-linecap="round" stroke-linejoin="round"/>
</g>
<g style="mix-blend-mode:screen">
<path d="M224.293 241.557H355.707" stroke="#9F83E1" stroke-linecap="round" stroke-linejoin="round"/>
</g>
<g style="mix-blend-mode:screen">
<path d="M224.293 235.969H355.707" stroke="#9F83E1" stroke-linecap="round" stroke-linejoin="round"/>
</g>
<g style="mix-blend-mode:screen">
<path d="M224.293 230.383H355.707" stroke="#9F83E1" stroke-linecap="round" stroke-linejoin="round"/>
</g>
<g style="mix-blend-mode:screen">
<path d="M224.293 224.795H355.707" stroke="#9F83E1" stroke-linecap="round" stroke-linejoin="round"/>
</g>
<g style="mix-blend-mode:screen">
<path d="M224.293 219.209H355.707" stroke="#9F83E1" stroke-linecap="round" stroke-linejoin="round"/>
</g>
<g style="mix-blend-mode:screen">
<path d="M224.293 213.621H355.707" stroke="#9F83E1" stroke-linecap="round" stroke-linejoin="round"/>
</g>
<g style="mix-blend-mode:screen">
<path d="M224.293 208.036H355.707" stroke="#9F83E1" stroke-linecap="round" stroke-linejoin="round"/>
</g>
<g style="mix-blend-mode:screen">
<path d="M224.293 202.447H355.707" stroke="#9F83E1" stroke-linecap="round" stroke-linejoin="round"/>
</g>
<g style="mix-blend-mode:screen">
<path d="M224.293 196.862H355.707" stroke="#9F83E1" stroke-linecap="round" stroke-linejoin="round"/>
</g>
<g style="mix-blend-mode:screen">
<path d="M224.293 191.273H355.707" stroke="#9F83E1" stroke-linecap="round" stroke-linejoin="round"/>
</g>
</g>
<g opacity="0.3">
<g style="mix-blend-mode:hard-light" opacity="0.9">
<path d="M264.987 223.658H237.25V233.201H264.987V223.658Z" fill="#CA288F"/>
</g>
<path d="M326.289 238.602H237.25V248.144H326.289V238.602Z" fill="#CCAB9E"/>
<g style="mix-blend-mode:hard-light">
<path d="M341.294 253.548H237.25V263.09H341.294V253.548Z" fill="#28CAAF"/>
</g>
<path d="M302.817 208.715H237.25V218.257H302.817V208.715Z" fill="#CCAB9E"/>
<path d="M314.011 193.772H237.25V203.314H314.011V193.772Z" fill="#CCAB9E"/>
</g>
<g opacity="0.6">
<path d="M216.414 5.74069V88.8484C216.414 91.6895 214.103 94.0004 211.262 94.0004H90.7406C87.8995 94.0004 85.5857 91.6895 85.5857 88.8484V5.74069C85.5857 2.89965 87.8995 0.585815 90.7406 0.585815H211.262C214.103 0.585815 216.414 2.89965 216.414 5.74069Z" fill="#41388C"/>
</g>
<g style="mix-blend-mode:screen" opacity="0.7">
<path d="M211.262 0H90.7407C87.5745 0 85 2.57451 85 5.74066V88.8484C85 92.0116 87.5745 94.5862 90.7407 94.5862H211.262C214.425 94.5862 217 92.0116 217 88.8484V5.74066C217 2.57451 214.425 0 211.262 0ZM216.414 88.8484C216.414 91.6895 214.103 94.0004 211.262 94.0004H90.7407C87.8996 94.0004 85.5858 91.6895 85.5858 88.8484V5.74066C85.5858 2.89962 87.8996 0.585782 90.7407 0.585782H211.262C214.103 0.585782 216.414 2.89962 216.414 5.74066V88.8484Z" fill="#9F83E1"/>
</g>
<g opacity="0.13">
<g style="mix-blend-mode:screen">
<path d="M85.293 83.9045H216.707" stroke="#9F83E1" stroke-linecap="round" stroke-linejoin="round"/>
</g>
<g style="mix-blend-mode:screen">
<path d="M85.293 78.319H216.707" stroke="#9F83E1" stroke-linecap="round" stroke-linejoin="round"/>
</g>
<g style="mix-blend-mode:screen">
<path d="M85.293 72.7307H216.707" stroke="#9F83E1" stroke-linecap="round" stroke-linejoin="round"/>
</g>
<g style="mix-blend-mode:screen">
<path d="M85.293 67.1453H216.707" stroke="#9F83E1" stroke-linecap="round" stroke-linejoin="round"/>
</g>
<g style="mix-blend-mode:screen">
<path d="M85.293 61.5569H216.707" stroke="#9F83E1" stroke-linecap="round" stroke-linejoin="round"/>
</g>
<g style="mix-blend-mode:screen">
<path d="M85.293 55.9686H216.707" stroke="#9F83E1" stroke-linecap="round" stroke-linejoin="round"/>
</g>
<g style="mix-blend-mode:screen">
<path d="M85.293 50.3831H216.707" stroke="#9F83E1" stroke-linecap="round" stroke-linejoin="round"/>
</g>
<g style="mix-blend-mode:screen">
<path d="M85.293 44.7948H216.707" stroke="#9F83E1" stroke-linecap="round" stroke-linejoin="round"/>
</g>
<g style="mix-blend-mode:screen">
<path d="M85.293 39.2094H216.707" stroke="#9F83E1" stroke-linecap="round" stroke-linejoin="round"/>
</g>
<g style="mix-blend-mode:screen">
<path d="M85.293 33.621H216.707" stroke="#9F83E1" stroke-linecap="round" stroke-linejoin="round"/>
</g>
<g style="mix-blend-mode:screen">
<path d="M85.293 28.0356H216.707" stroke="#9F83E1" stroke-linecap="round" stroke-linejoin="round"/>
</g>
<g style="mix-blend-mode:screen">
<path d="M85.293 22.4472H216.707" stroke="#9F83E1" stroke-linecap="round" stroke-linejoin="round"/>
</g>
<g style="mix-blend-mode:screen">
<path d="M85.293 16.8618H216.707" stroke="#9F83E1" stroke-linecap="round" stroke-linejoin="round"/>
</g>
<g style="mix-blend-mode:screen">
<path d="M85.293 11.2734H216.707" stroke="#9F83E1" stroke-linecap="round" stroke-linejoin="round"/>
</g>
</g>
<g opacity="0.3">
<g style="mix-blend-mode:hard-light" opacity="0.9">
<path d="M125.987 43.6583H98.2504V53.2007H125.987V43.6583Z" fill="#CA288F"/>
</g>
<path d="M187.289 58.6016H98.2504V68.1439H187.289V58.6016Z" fill="#CCAB9E"/>
<g style="mix-blend-mode:hard-light">
<path d="M202.294 73.5478H98.2504V83.0902H202.294V73.5478Z" fill="#28CAAF"/>
</g>
<path d="M163.817 28.715H98.2504V38.2574H163.817V28.715Z" fill="#CCAB9E"/>
<path d="M175.011 13.7717H98.2504V23.3141H175.011V13.7717Z" fill="#CCAB9E"/>
</g>
</svg>
