<svg width="408" height="165" viewBox="0 0 408 165" fill="none" xmlns="http://www.w3.org/2000/svg">
<g opacity="0.6">
<path d="M239.579 4.12414V95.0468C239.579 97.0888 237.918 98.7519 235.874 98.7519H5.12623C3.08416 98.7519 1.42102 97.0888 1.42102 95.0468V4.12414C1.42102 2.08207 3.08416 0.421051 5.12623 0.421051H235.874C237.918 0.421051 239.579 2.08207 239.579 4.12414Z" fill="#41388C"/>
</g>
<g opacity="0.7">
<path d="M235.874 0H5.12625C2.8505 0 1 1.85049 1 4.12414V95.0467C1 97.3225 2.8505 99.173 5.12625 99.173H235.874C238.149 99.173 240 97.3225 240 95.0467V4.12414C240 1.85049 238.149 0 235.874 0ZM239.579 95.0467C239.579 97.0888 237.918 98.7519 235.874 98.7519H5.12625C3.08418 98.7519 1.42105 97.0888 1.42105 95.0467V4.12414C1.42105 2.08207 3.08418 0.421045 5.12625 0.421045H235.874C237.918 0.421045 239.579 2.08207 239.579 4.12414V95.0467Z" fill="#9F83E1"/>
</g>
<g opacity="0.13">
<g style="mix-blend-mode:screen">
<path d="M1.21057 88.0469H239.79" stroke="#9F83E1" stroke-linecap="round" stroke-linejoin="round"/>
</g>
<g style="mix-blend-mode:screen">
<path d="M1.21057 82.1775H239.79" stroke="#9F83E1" stroke-linecap="round" stroke-linejoin="round"/>
</g>
<g style="mix-blend-mode:screen">
<path d="M1.21057 76.3081H239.79" stroke="#9F83E1" stroke-linecap="round" stroke-linejoin="round"/>
</g>
<g style="mix-blend-mode:screen">
<path d="M1.21057 70.4387H239.79" stroke="#9F83E1" stroke-linecap="round" stroke-linejoin="round"/>
</g>
<g style="mix-blend-mode:screen">
<path d="M1.21057 64.5693H239.79" stroke="#9F83E1" stroke-linecap="round" stroke-linejoin="round"/>
</g>
<g style="mix-blend-mode:screen">
<path d="M1.21057 58.7H239.79" stroke="#9F83E1" stroke-linecap="round" stroke-linejoin="round"/>
</g>
<g style="mix-blend-mode:screen">
<path d="M1.21057 52.8307H239.79" stroke="#9F83E1" stroke-linecap="round" stroke-linejoin="round"/>
</g>
<g style="mix-blend-mode:screen">
<path d="M1.21057 46.9612H239.79" stroke="#9F83E1" stroke-linecap="round" stroke-linejoin="round"/>
</g>
<g style="mix-blend-mode:screen">
<path d="M1.21057 41.0919H239.79" stroke="#9F83E1" stroke-linecap="round" stroke-linejoin="round"/>
</g>
<g style="mix-blend-mode:screen">
<path d="M1.21057 35.2225H239.79" stroke="#9F83E1" stroke-linecap="round" stroke-linejoin="round"/>
</g>
<g style="mix-blend-mode:screen">
<path d="M1.21057 29.3531H239.79" stroke="#9F83E1" stroke-linecap="round" stroke-linejoin="round"/>
</g>
<g style="mix-blend-mode:screen">
<path d="M1.21057 23.4838H239.79" stroke="#9F83E1" stroke-linecap="round" stroke-linejoin="round"/>
</g>
<g style="mix-blend-mode:screen">
<path d="M1.21057 17.6144H239.79" stroke="#9F83E1" stroke-linecap="round" stroke-linejoin="round"/>
</g>
<g style="mix-blend-mode:screen">
<path d="M1.21057 11.7451H239.79" stroke="#9F83E1" stroke-linecap="round" stroke-linejoin="round"/>
</g>
</g>
<g opacity="0.3">
<path d="M68.2347 78.6807H15.3198V88.049H68.2347V78.6807Z" fill="#CCAB9E"/>
<g style="mix-blend-mode:hard-light">
<path d="M96.2805 47.4771H15.3198V56.8453H96.2805V47.4771Z" fill="#28CAAF"/>
</g>
<path d="M75.8093 28.0795H15.3198V37.4478H75.8093V28.0795Z" fill="#CCAB9E"/>
<g style="mix-blend-mode:hard-light">
<path d="M96.2805 12.4798H15.3198V21.8481H96.2805V12.4798Z" fill="#28CAAF"/>
</g>
<g style="mix-blend-mode:hard-light" opacity="0.9">
<path d="M49.715 63.0789H15.3198V72.4472H49.715V63.0789Z" fill="#CA288F"/>
</g>
<g style="mix-blend-mode:hard-light" opacity="0.9">
<path d="M183.551 28.0795H139.49V37.4478H183.551V28.0795Z" fill="#CA288F"/>
</g>
<g style="mix-blend-mode:hard-light" opacity="0.9">
<path d="M164.41 47.4771H139.49V56.8453H164.41V47.4771Z" fill="#CA288F"/>
</g>
<g style="mix-blend-mode:hard-light">
<path d="M220.451 12.4798H139.49V21.8481H220.451V12.4798Z" fill="#28CAAF"/>
</g>
<g style="mix-blend-mode:hard-light">
<path d="M220.451 78.7881H139.49V88.2195H220.451V78.7881Z" fill="#28CAAF"/>
</g>
<path d="M198.266 63.0789H139.49V72.5103H198.266V63.0789Z" fill="#CCAB9E"/>
</g>
<g opacity="0.66">
<path d="M406.078 25.1318V77.071C406.078 78.8407 404.636 80.2831 402.866 80.2831H327.132C325.362 80.2831 323.922 78.8411 323.922 77.071V25.1318C323.922 23.3621 325.362 21.9218 327.132 21.9218H402.866C404.636 21.9218 406.078 23.3625 406.078 25.1318Z" fill="#41388C" stroke="#9F83E1"/>
</g>
<path opacity="0.13" d="M323.211 74.3861H406.789" stroke="#9F83E1" stroke-linecap="round" stroke-linejoin="round"/>
<path opacity="0.13" d="M323.211 70.8322H406.789" stroke="#9F83E1" stroke-linecap="round" stroke-linejoin="round"/>
<path opacity="0.13" d="M323.211 67.2805H406.789" stroke="#9F83E1" stroke-linecap="round" stroke-linejoin="round"/>
<path opacity="0.13" d="M323.211 63.7266H406.789" stroke="#9F83E1" stroke-linecap="round" stroke-linejoin="round"/>
<path opacity="0.13" d="M323.211 60.1727H406.789" stroke="#9F83E1" stroke-linecap="round" stroke-linejoin="round"/>
<path opacity="0.13" d="M323.211 56.621H406.789" stroke="#9F83E1" stroke-linecap="round" stroke-linejoin="round"/>
<path opacity="0.13" d="M323.211 53.0671H406.789" stroke="#9F83E1" stroke-linecap="round" stroke-linejoin="round"/>
<path opacity="0.13" d="M323.211 49.5132H406.789" stroke="#9F83E1" stroke-linecap="round" stroke-linejoin="round"/>
<path opacity="0.13" d="M323.211 45.9594H406.789" stroke="#9F83E1" stroke-linecap="round" stroke-linejoin="round"/>
<path opacity="0.13" d="M323.211 42.4076H406.789" stroke="#9F83E1" stroke-linecap="round" stroke-linejoin="round"/>
<path opacity="0.13" d="M323.211 38.8537H406.789" stroke="#9F83E1" stroke-linecap="round" stroke-linejoin="round"/>
<path opacity="0.13" d="M323.211 35.2999H406.789" stroke="#9F83E1" stroke-linecap="round" stroke-linejoin="round"/>
<path opacity="0.13" d="M323.211 31.7481H406.789" stroke="#9F83E1" stroke-linecap="round" stroke-linejoin="round"/>
<path opacity="0.13" d="M323.211 28.1942H406.789" stroke="#9F83E1" stroke-linecap="round" stroke-linejoin="round"/>
<g opacity="0.3">
<g style="mix-blend-mode:hard-light">
<path d="M395.879 67.0569H330.272V72.9645H395.879V67.0569Z" fill="#28CAAF"/>
</g>
<path d="M380.573 57.6418H330.272V63.5494H380.573V57.6418Z" fill="#CCAB9E"/>
<g style="mix-blend-mode:hard-light" opacity="0.9">
<path d="M345.173 48.2245H330.272V54.1322H345.173V48.2245Z" fill="#CA288F"/>
</g>
<g style="mix-blend-mode:hard-light" opacity="0.9">
<path d="M364.126 38.8094H330.272V44.7171H364.126V38.8094Z" fill="#CA288F"/>
</g>
<g style="mix-blend-mode:hard-light">
<path d="M395.879 29.3922H330.272V35.2998H395.879V29.3922Z" fill="#28CAAF"/>
</g>
</g>
<g opacity="0.6">
<path d="M355.414 75.7407V158.848C355.414 161.689 353.103 164 350.262 164H229.741C226.9 164 224.586 161.689 224.586 158.848V75.7407C224.586 72.8997 226.9 70.5858 229.741 70.5858H350.262C353.103 70.5858 355.414 72.8997 355.414 75.7407Z" fill="#41388C"/>
</g>
<g style="mix-blend-mode:screen" opacity="0.7">
<path d="M350.262 70H229.741C226.575 70 224 72.5745 224 75.7407V158.848C224 162.012 226.575 164.586 229.741 164.586H350.262C353.425 164.586 356 162.012 356 158.848V75.7407C356 72.5745 353.425 70 350.262 70ZM355.414 158.848C355.414 161.689 353.103 164 350.262 164H229.741C226.9 164 224.586 161.689 224.586 158.848V75.7407C224.586 72.8996 226.9 70.5858 229.741 70.5858H350.262C353.103 70.5858 355.414 72.8996 355.414 75.7407V158.848Z" fill="#9F83E1"/>
</g>
<g opacity="0.13">
<g style="mix-blend-mode:screen">
<path d="M224.293 153.904H355.707" stroke="#9F83E1" stroke-linecap="round" stroke-linejoin="round"/>
</g>
<g style="mix-blend-mode:screen">
<path d="M224.293 148.319H355.707" stroke="#9F83E1" stroke-linecap="round" stroke-linejoin="round"/>
</g>
<g style="mix-blend-mode:screen">
<path d="M224.293 142.731H355.707" stroke="#9F83E1" stroke-linecap="round" stroke-linejoin="round"/>
</g>
<g style="mix-blend-mode:screen">
<path d="M224.293 137.145H355.707" stroke="#9F83E1" stroke-linecap="round" stroke-linejoin="round"/>
</g>
<g style="mix-blend-mode:screen">
<path d="M224.293 131.557H355.707" stroke="#9F83E1" stroke-linecap="round" stroke-linejoin="round"/>
</g>
<g style="mix-blend-mode:screen">
<path d="M224.293 125.969H355.707" stroke="#9F83E1" stroke-linecap="round" stroke-linejoin="round"/>
</g>
<g style="mix-blend-mode:screen">
<path d="M224.293 120.383H355.707" stroke="#9F83E1" stroke-linecap="round" stroke-linejoin="round"/>
</g>
<g style="mix-blend-mode:screen">
<path d="M224.293 114.795H355.707" stroke="#9F83E1" stroke-linecap="round" stroke-linejoin="round"/>
</g>
<g style="mix-blend-mode:screen">
<path d="M224.293 109.209H355.707" stroke="#9F83E1" stroke-linecap="round" stroke-linejoin="round"/>
</g>
<g style="mix-blend-mode:screen">
<path d="M224.293 103.621H355.707" stroke="#9F83E1" stroke-linecap="round" stroke-linejoin="round"/>
</g>
<g style="mix-blend-mode:screen">
<path d="M224.293 98.0356H355.707" stroke="#9F83E1" stroke-linecap="round" stroke-linejoin="round"/>
</g>
<g style="mix-blend-mode:screen">
<path d="M224.293 92.4472H355.707" stroke="#9F83E1" stroke-linecap="round" stroke-linejoin="round"/>
</g>
<g style="mix-blend-mode:screen">
<path d="M224.293 86.8618H355.707" stroke="#9F83E1" stroke-linecap="round" stroke-linejoin="round"/>
</g>
<g style="mix-blend-mode:screen">
<path d="M224.293 81.2734H355.707" stroke="#9F83E1" stroke-linecap="round" stroke-linejoin="round"/>
</g>
</g>
<g opacity="0.3">
<g style="mix-blend-mode:hard-light" opacity="0.9">
<path d="M264.987 113.658H237.25V123.201H264.987V113.658Z" fill="#CA288F"/>
</g>
<path d="M326.289 128.602H237.25V138.144H326.289V128.602Z" fill="#CCAB9E"/>
<g style="mix-blend-mode:hard-light">
<path d="M341.294 143.548H237.25V153.09H341.294V143.548Z" fill="#28CAAF"/>
</g>
<path d="M302.817 98.715H237.25V108.257H302.817V98.715Z" fill="#CCAB9E"/>
<path d="M314.011 83.7717H237.25V93.3141H314.011V83.7717Z" fill="#CCAB9E"/>
</g>
</svg>
