<svg id="Layer_1" data-name="Layer 1" xmlns="http://www.w3.org/2000/svg" xmlns:xlink="http://www.w3.org/1999/xlink" viewBox="0 0 931.2 284.96">
  <defs>
    <style>
      .cls-1 {
        fill: none;
      }
      .cls-2 {
        fill: #8716e8;
      }
      .cls-3 {
        clip-path: url("#clip-path");
      }
      .cls-4 {
        fill: #fff;
      }
      .cls-5 {
        clip-path: url("#clip-path-2");
      }
    </style>
    <clipPath id="clip-path" transform="translate(-7.99 -6.22)"><rect class="cls-1" x="389.63" y="113.08" width="473.23" height="66.15"/></clipPath>
    <clipPath id="clip-path-2" transform="translate(-7.99 -6.22)"><rect class="cls-1" x="883.22" y="107.99" width="55.97" height="30.53"/></clipPath>
  </defs><rect class="cls-2" width="284.96" height="284.96"/>
  <g class="cls-3"><path
    class="cls-4"
    d="M438.45,147a21.38,21.38,0,0,0-6.18-4.35,39.2,39.2,0,0,0-9.07-3L418,138.47a28.42,28.42,0,0,1-3.93-1.06,11.5,11.5,0,0,1-2.7-1.33,4.67,4.67,0,0,1-1.55-1.67,4,4,0,0,1-.43-2.1,4.35,4.35,0,0,1,.84-2.51,5.31,5.31,0,0,1,2.52-1.74,12.55,12.55,0,0,1,4.39-.65c2.8,0,4.9.59,6.28,1.76a6.84,6.84,0,0,1,2.32,4.9h16.59a19.44,19.44,0,0,0-11.81-18.39,31.72,31.72,0,0,0-13.38-2.61,32.77,32.77,0,0,0-13.43,2.58,21.73,21.73,0,0,0-9.15,7.18,17.88,17.88,0,0,0-3.26,10.74c0,5,1.6,9,4.85,11.91s7.71,5,13.37,6.2l6.37,1.38a34.46,34.46,0,0,1,5.65,1.69,7.87,7.87,0,0,1,3,2,4.1,4.1,0,0,1,.95,2.59,4.54,4.54,0,0,1-1,2.8,6.25,6.25,0,0,1-2.83,1.91,13.39,13.39,0,0,1-4.66.69,14.23,14.23,0,0,1-5.68-1,8.26,8.26,0,0,1-3.71-3.06,9.84,9.84,0,0,1-1.45-5H389.64q0,8.09,3.44,13.26a20.14,20.14,0,0,0,9.61,7.66,39,39,0,0,0,14.52,2.48,37.68,37.68,0,0,0,13.89-2.3,19.19,19.19,0,0,0,8.92-6.69,18.43,18.43,0,0,0,3.15-10.75,20.27,20.27,0,0,0-1.18-6.79,16,16,0,0,0-3.54-5.62"
    transform="translate(-7.99 -6.22)"/><polygon class="cls-4" points="482.09 132.89 459.12 132.89 459.12 107.74 441.78 107.74 441.78 172.14 459.12 172.14 459.12 146.98 482.09 146.98 482.09 172.14 499.43 172.14 499.43 107.74 482.09 107.74 482.09 132.89"/><polygon class="cls-4" points="507.67 172.13 553.59 172.13 553.59 158.05 525.01 158.05 525.01 146.99 551.35 146.99 551.35 132.88 525.01 132.88 525.01 121.82 553.71 121.82 553.71 107.74 507.67 107.74 507.67 172.13"/><path
    class="cls-4"
    d="M618.57,147.5a21.15,21.15,0,0,0,3-11.66,22.26,22.26,0,0,0-3-11.76,19.38,19.38,0,0,0-8.29-7.52A28,28,0,0,0,597.9,114H570.32v64.4h17.34V157.09h6l11.21,21.26h18.85l-13-24.09a18.83,18.83,0,0,0,7.85-6.76m-30.91-19.59h6.12a14.48,14.48,0,0,1,5.23.84,7,7,0,0,1,3.34,2.57,8,8,0,0,1,1.16,4.52,7.6,7.6,0,0,1-1.16,4.42,6.55,6.55,0,0,1-3.34,2.47,15.25,15.25,0,0,1-5.23.78h-6.12Z"
    transform="translate(-7.99 -6.22)"/><polygon class="cls-4" points="638.31 107.74 620.97 107.74 620.97 172.13 664.15 172.13 664.15 158.05 638.31 158.05 638.31 107.74"/><path
    class="cls-4"
    d="M720.15,116.86a34.7,34.7,0,0,0-31.5,0A27.75,27.75,0,0,0,677.49,128q-4.14,7.38-4.14,18.12t4.14,18.08a27.89,27.89,0,0,0,11.16,11.19,34.54,34.54,0,0,0,31.5,0,28.05,28.05,0,0,0,11.2-11.17q4.14-7.38,4.14-18.14T731.35,128a28,28,0,0,0-11.2-11.16m-4,39.06a12.68,12.68,0,0,1-4.46,6,13.92,13.92,0,0,1-14.51,0,12.62,12.62,0,0,1-4.46-6,27.65,27.65,0,0,1-1.51-9.78,27.51,27.51,0,0,1,1.51-9.75,12.6,12.6,0,0,1,4.46-6,13.86,13.86,0,0,1,14.51,0,12.66,12.66,0,0,1,4.46,6,32.33,32.33,0,0,1,0,19.53"
    transform="translate(-7.99 -6.22)"/><path
    class="cls-4"
    d="M763.41,130.43a12.4,12.4,0,0,1,7.38-2.14,13.12,13.12,0,0,1,4.46.71,9.27,9.27,0,0,1,5.54,5.11,12.43,12.43,0,0,1,1,4h17.6a28.79,28.79,0,0,0-2.85-10.66,24,24,0,0,0-6.17-7.84,26.69,26.69,0,0,0-8.93-4.86,35.48,35.48,0,0,0-11.12-1.66,32.09,32.09,0,0,0-15.6,3.78A27.82,27.82,0,0,0,743.59,128q-4.11,7.38-4.12,18.12t4,18.09a27.38,27.38,0,0,0,11,11.19,35.18,35.18,0,0,0,28.09,1.64,26.77,26.77,0,0,0,14.48-13.53,24.15,24.15,0,0,0,2.28-8.32l-17.6-.13a11.27,11.27,0,0,1-1.2,3.73,9.22,9.22,0,0,1-2.3,2.81,9.71,9.71,0,0,1-3.3,1.78,14,14,0,0,1-4.31.61,12.78,12.78,0,0,1-7.2-2,12.45,12.45,0,0,1-4.57-6,26.8,26.8,0,0,1-1.57-9.9,26.54,26.54,0,0,1,1.54-9.58,13,13,0,0,1,4.55-6.13"
    transform="translate(-7.99 -6.22)"/><polygon class="cls-4" points="832.79 136.41 854.37 107.74 834.16 107.74 814.95 133.78 814.07 133.78 814.07 107.74 796.72 107.74 796.72 172.13 814.07 172.13 814.07 155.53 819.81 147.98 834.16 172.13 854.88 172.13 832.79 136.41"/></g>
    <path
      fill="#FFFFFF"
    d="M270.08,79.94l-33,.58-1.43,0v.06a30.28,30.28,0,0,0-17.84,7.25v0l-24,19c-.12.09-.26.15-.39.25L127.63,159l-.5-28.16a6.2,6.2,0,0,0-6.3-6.09L52,125.92a6.19,6.19,0,0,0-6.08,6.31l.8,45.94.1,5.91.07,3.78h0v.81h0a25.25,25.25,0,0,0,.14,2.71c0,.24,0,.46.07.68s0,.45.06.69a23.38,23.38,0,0,0,.41,2.86,31.07,31.07,0,0,0,.7,3.15,24.83,24.83,0,0,0,2.76,6.56,38.34,38.34,0,0,0,2.76,4.27A29.77,29.77,0,0,0,61.32,217c6.47,5.07,16.5,8.25,27.74,8s21.35-3.79,27.62-9.18a20.07,20.07,0,0,0,2.11-1.71,103.58,103.58,0,0,0,8.47-8c2.44-2.52,4.58-4.9,6.15-6.78L194.48,134a7.75,7.75,0,0,0,.9-1.19l13-13.86L223.22,103l3.13-3.34a30.23,30.23,0,0,1,20.17-8.19l14.24-.25,9.52-.17a5.57,5.57,0,0,0-.2-11.14Z"
    transform="translate(-7.99 -6.22)"/></svg>