<?xml version="1.0" encoding="utf-8"?>
<!-- Generator: Adobe Illustrator 26.5.0, SVG Export Plug-In . SVG Version: 6.00 Build 0)  -->
<svg version="1.1" id="Layer_1" xmlns="http://www.w3.org/2000/svg" xmlns:xlink="http://www.w3.org/1999/xlink" x="0px" y="0px"
	 viewBox="0 0 372.54 106.03" style="enable-background:new 0 0 372.54 106.03;" xml:space="preserve">
<style type="text/css">
	.st0{fill:#FFFFFF;}
</style>
<g>
	<path class="st0" d="M65.31,11.7c-1.86-4.55-6.23-7.49-11.14-7.49c-0.01,0-0.02,0-0.03,0c-4.93,0.01-9.3,2.97-11.13,7.54
		L28.84,47.02h-11c-3.31,0-6,2.69-6,6s2.69,6,6,6h6.18L9.85,94.26c-1.24,3.08,0.26,6.57,3.33,7.8c0.73,0.29,1.49,0.43,2.24,0.43
		c2.38,0,4.63-1.42,5.57-3.76l15.94-39.72h11.15c3.31,0,6-2.69,6-6s-2.69-6-6-6h-6.34l12.36-30.8c0.02-0.01,0.09-0.01,0.09,0.01
		l33.64,82.54c1.25,3.07,4.75,4.54,7.82,3.29c3.07-1.25,4.54-4.75,3.29-7.82L65.31,11.7z"/>
	<path class="st0" d="M167.98,11.7c-1.86-4.55-6.23-7.49-11.14-7.49c-0.01,0-0.02,0-0.03,0c-4.93,0.01-9.3,2.97-11.13,7.54
		l-14.17,35.26h-11c-3.31,0-6,2.69-6,6s2.69,6,6,6h6.18l-14.16,35.25c-1.24,3.08,0.26,6.57,3.33,7.8c0.73,0.29,1.49,0.43,2.24,0.43
		c2.38,0,4.63-1.42,5.57-3.76l15.94-39.72h11.15c3.31,0,6-2.69,6-6s-2.69-6-6-6h-6.34l12.36-30.8c0.02-0.01,0.09-0.01,0.09,0.01
		l33.64,82.54c1.25,3.07,4.75,4.54,7.82,3.29c3.07-1.25,4.54-4.75,3.29-7.82L167.98,11.7z"/>
	<path class="st0" d="M279.25,4.64c-3.07-1.23-6.57,0.25-7.8,3.33l-33.12,82.52c-0.03,0.01-0.09,0.01-0.08-0.01L204.6,7.95
		c-1.25-3.07-4.75-4.54-7.82-3.29c-3.07,1.25-4.54,4.75-3.29,7.82l33.64,82.54c1.86,4.55,6.23,7.49,11.14,7.49c0.01,0,0.02,0,0.03,0
		c4.93-0.01,9.29-2.97,11.13-7.54l33.15-82.51C283.82,9.37,282.32,5.88,279.25,4.64z"/>
	<path class="st0" d="M357.92,90.5H308.7V59.02h43.89c3.31,0,6-2.69,6-6s-2.69-6-6-6H308.7V16.21h49.22c3.31,0,6-2.69,6-6
		s-2.69-6-6-6H302.7c-3.31,0-6,2.69-6,6V96.5c0,3.31,2.69,6,6,6h55.22c3.31,0,6-2.69,6-6S361.23,90.5,357.92,90.5z"/>
</g>
</svg>
