<?xml version="1.0" encoding="utf-8"?>
<!-- Generator: Adobe Illustrator 26.5.0, SVG Export Plug-In . SVG Version: 6.00 Build 0)  -->
<svg version="1.1" id="Layer_1" xmlns="http://www.w3.org/2000/svg" xmlns:xlink="http://www.w3.org/1999/xlink" x="0px" y="0px"
	 viewBox="0 0 1325 320" style="enable-background:new 0 0 1325 320;" xml:space="preserve">
<style type="text/css">
	.st0{fill:#FFFFFF;}
	.st1{fill:none;stroke:#FFFFFF;stroke-width:6.7463;stroke-linecap:round;stroke-linejoin:round;stroke-miterlimit:10;}
</style>
<g id="Logo01">
</g>
<g>
	<path class="st0" d="M454.5,200.8c-1.5-3.6-3.4-7.9-5.5-13c-2.2-5.1-4.5-10.7-7.1-16.7c-2.6-6.1-5.2-12.2-7.9-18.5
		c-2.7-6.3-5.3-12.4-7.9-18.6c-2.6-6.1-4.9-11.7-7-16.7l-5.4-13c-1.5-3.6-2.6-6.1-3.2-7.5l-1.8-4.1l-50.3,118.2h20l12.6-30.5h35
		c1.2,3,2.4,5.9,3.6,8.7c1.3,3.2,2.5,6.1,3.7,8.8c1.1,2.7,2.1,5.1,3,7.1c0.9,2.1,1.6,3.7,2.1,4.7l0.5,1.1h20l-1.1-2.7
		C457.1,206.8,456.1,204.4,454.5,200.8z M419,163h-20.8l10.4-25.2c0.4,1,0.9,2.3,1.5,3.8c0.8,1.9,1.7,4,2.7,6.5l3.4,8.2
		C417.1,158.5,418,160.7,419,163z"/>
	<polygon class="st0" points="515.1,100.7 495.1,100.7 495.1,210.9 567.9,210.9 567.9,191.8 515.1,191.8 	"/>
	<path class="st0" d="M678.2,183l-1.9,2.6c0,0-0.4,0.4-2.1,1.3c-1.4,0.7-3.3,1.5-5.5,2.2c-2.2,0.8-4.7,1.4-7.5,2
		c-2.7,0.6-5.5,0.8-8.4,0.8c-5.4,0-10.4-1-14.8-3.1c-4.5-2-8.4-4.8-11.6-8.2c-3.2-3.4-5.7-7.4-7.6-11.8c-1.8-4.3-2.7-8.9-2.7-13.6
		c0-4.8,1-9.5,2.9-13.9s4.6-8.4,7.9-11.8c3.3-3.4,7.3-6.1,11.9-8.1c4.6-2,9.6-3,15-3c1.5,0,3.2,0.1,5,0.3s3.7,0.5,5.4,0.8
		c1.8,0.4,3.5,0.8,5.1,1.4c1.5,0.5,2.9,1.2,4,2l1.7,1.2l1-1.9c1-1.8,1.8-3.2,2.4-4.3c0.6-1.1,1.1-2,1.6-2.8s1-1.7,1.4-2.5
		s1-1.7,1.8-2.8l0.9-1.4l-1.2-1.1c-1.2-1.1-2.9-2.2-5.1-3.2c-2.1-1-4.5-1.8-7.2-2.5s-5.5-1.3-8.5-1.7c-11-1.5-21.5-0.2-31,3.6
		c-6.9,2.8-13,6.8-18.2,11.9c-5.1,5-9.3,11.1-12.2,18.1c-3,7-4.5,14.7-4.5,22.9c0,7.4,1.3,14.6,3.8,21.2c2.5,6.7,6.2,12.6,11,17.7
		s10.6,9.1,17.4,12.1c6.8,3,14.6,4.5,23.1,4.5c4,0,7.8-0.3,11.4-0.9c3.5-0.6,6.8-1.4,9.7-2.3s5.5-1.9,7.7-3s3.9-2.1,5.2-3.1l1.2-0.9
		l-7.4-15.9L678.2,183z"/>
	<path class="st0" d="M794.4,145.9H745v-45.2h-19.8v110.2H745V165h49.4v45.9h19.8v-37.4c0-5.9,0-11.9,0.1-17.7
		c0-6.1,0.1-12.1,0.1-17.8v-37.4h-20L794.4,145.9L794.4,145.9z"/>
	<polygon class="st0" points="884.5,165 932.3,165 932.3,146.3 884.5,146.3 884.5,119 938.2,119 938.2,100.7 864.5,100.7 
		864.5,210.9 940.2,210.9 940.2,192.2 884.5,192.2 	"/>
	<path class="st0" d="M1085.9,102.2c-1.8,2.6-4,5.6-6.5,9.1c-2.5,3.4-5.2,7.2-8.3,11.5c-3,4.3-6.1,8.5-9.1,12.7l-9,12.5
		c-2.9,4.1-5.6,7.7-7.9,10.9c-2.3,3.2-4.2,5.9-5.8,8.1c-0.5,0.7-0.9,1.3-1.3,1.8c-1-1.3-2.2-3-3.7-5.2c-2.7-3.7-5.8-8.1-9.5-13.1
		l-11.6-16.1c-4.1-5.7-8-11.1-11.7-16.2l-9.7-13.4c-2.8-3.8-4.6-6.4-5.4-7.8l-3.5-5.5V211h19.8v-59c1.7,2.4,3.7,5.2,5.9,8.3
		c2.5,3.6,5.3,7.5,8.3,11.7c3,4.3,5.9,8.3,8.5,11.9c2.7,3.7,5,7,7,9.8s3.4,4.6,4.1,5.6l1.7,2.2l1.5-2.3c0.7-1,1.9-2.9,3.8-5.6
		s4-5.8,6.5-9.3c2.4-3.5,5-7.3,7.8-11.2c2.7-4,5.4-7.7,7.8-11.3c2.5-3.6,4.7-6.8,6.6-9.6c0.1-0.1,0.2-0.2,0.2-0.3v59.2h20.9V92.4
		l-3.4,4.3C1089,97.7,1087.7,99.5,1085.9,102.2z"/>
	<rect x="1143.4" y="100.7" class="st0" width="19.8" height="110.2"/>
	<path class="st0" d="M1261.4,155.4c0.6-1,1.5-2.4,2.7-4.3l6-9.5c2.3-3.5,4.7-7.5,7.3-11.6c2.6-4.1,5-8,7.3-11.6s4.3-6.8,6-9.5
		c1.6-2.6,2.8-4.4,3.3-5.3l2-3h-24.3l-0.6,0.9c-0.5,0.8-1.3,2.1-2.4,4s-2.4,4-3.8,6.4s-2.9,4.9-4.5,7.6c-1.6,2.7-3.1,5.2-4.5,7.6
		c-1.4,2.4-2.7,4.5-3.8,6.4c-1.1,1.8-1.9,3.2-2.4,3.9l-0.1,0.2c-0.1,0.1-0.3,0.6-0.6,1.2c-0.3-0.7-0.6-1.1-0.6-1.2l-0.1-0.2
		c-0.5-0.8-1.3-2.1-2.4-3.9c-1.1-1.9-2.4-4-3.9-6.4c-1.5-2.4-3-4.9-4.7-7.6s-3.2-5.2-4.7-7.6c-1.5-2.4-2.8-4.5-4-6.4s-2-3.2-2.5-3.9
		l-0.6-0.9h-24.2l34.5,53.9l-36,56.4h24.5l5-8.2c2.2-3.5,4.5-7.4,6.9-11.6c2.4-4.1,4.7-7.9,6.9-11.5l4.4-7.2
		c0.2-0.2,0.3-0.5,0.7-1.2c0.1,0.1,0.1,0.2,0.2,0.3c0.4,0.8,0.8,1.5,1.3,2.1l23.1,37.1h24.6L1261.4,155.4z"/>
</g>
<g>
	<circle class="st1" cx="160.6" cy="155.8" r="148.8"/>
	<line class="st1" x1="160.6" y1="198.8" x2="160.6" y2="304.6"/>
	<line class="st1" x1="160.6" y1="7" x2="160.6" y2="38.3"/>
	<g>
		<polyline class="st1" points="160.6,198.8 59.2,118.6 160.6,38.3 262,118.6 216.7,154.4 		"/>
		<polyline class="st1" points="246.4,205.9 262,193.5 262,118.6 		"/>
		<polyline class="st1" points="59.2,118.6 59.2,193.5 160.6,273.8 206.4,237.6 		"/>
	</g>
	<g>
		<polyline class="st1" points="77,207.6 59.7,237.6 114.9,237.6 		"/>
		<polyline class="st1" points="160.6,237.6 261.5,237.6 160.6,62.8 107.9,154.2 		"/>
	</g>
</g>
<g id="Logo01_00000131366485527207483120000003033113843169929404_">
</g>
</svg>
