<svg width="167" height="38" viewBox="0 0 167 38" fill="none" xmlns="http://www.w3.org/2000/svg">
<path d="M36.0589 6.42959C35.9142 6.44523 35.7697 6.47287 35.625 6.47426C34.7734 6.48208 33.9216 6.4871 33.07 6.48682C26.5708 6.48403 20.072 6.47817 13.5728 6.47677C9.28639 6.47594 4.99994 6.48096 0.713765 6.4818C0.557066 6.4818 0.398144 6.47622 0.244223 6.44997C0.041958 6.41564 0.00722854 6.37544 0.00583936 6.17415C0.000838316 5.53234 4.80868e-06 4.89053 0.00583936 4.24871C0.00806205 3.99774 0.089468 3.91985 0.344244 3.90868C0.750995 3.89054 1.15802 3.8696 1.56478 3.86932C11.5263 3.86709 21.4878 3.86709 31.4494 3.86932C32.0876 3.86932 32.726 3.89556 33.3642 3.90394C33.6082 3.90729 33.8071 3.98629 33.9818 4.16468C34.6042 4.79896 35.2368 5.42318 35.8614 6.05523C35.9492 6.144 36.015 6.25483 36.0909 6.35561C36.0803 6.38018 36.0698 6.40503 36.0589 6.42959Z" fill="white"/>
<path d="M36.0225 31.2875C35.9539 31.383 35.9156 31.455 35.8603 31.5105C35.2201 32.1546 34.577 32.7953 33.936 33.4385C33.709 33.6663 33.4456 33.7816 33.118 33.7794C32.2292 33.7732 31.3404 33.7847 30.4514 33.7847C20.9147 33.7852 11.3779 33.7852 1.84094 33.7847C1.40585 33.7847 0.970479 33.7816 0.535388 33.7791C0.461484 33.7788 0.386746 33.7796 0.313397 33.771C0.108632 33.7467 0.0100005 33.6532 0.00805565 33.446C0.00194326 32.8042 0.00194326 32.1621 0.00888916 31.5203C0.0111118 31.3165 0.080293 31.2389 0.290615 31.2054C0.481488 31.175 0.677085 31.1649 0.870736 31.1649C3.77801 31.1627 6.68529 31.1633 9.59284 31.1635C14.4075 31.1641 19.2221 31.1647 24.037 31.1652C27.7219 31.1658 31.4071 31.1658 35.0921 31.1688C35.3229 31.1688 35.5538 31.1923 35.7842 31.213C35.8519 31.2191 35.917 31.2534 36.022 31.2875H36.0225Z" fill="white"/>
<path d="M45.0089 31.2959C45.2278 31.1719 45.4318 31.1708 45.6318 31.1688C46.2522 31.1627 46.8723 31.1621 47.4927 31.1621C57.946 31.1621 68.3993 31.1621 78.8526 31.1649C79.4261 31.1649 79.9998 31.1836 80.5727 31.2082C80.8861 31.2216 80.9642 31.3101 80.967 31.6228C80.9722 32.1995 80.9709 32.7763 80.9659 33.3531C80.9633 33.6543 80.8486 33.769 80.5391 33.7732C79.919 33.7816 79.2986 33.7841 78.6782 33.7841C68.5674 33.783 58.4567 33.781 48.346 33.7791C48.1793 33.7791 48.0126 33.7791 47.8461 33.7738C47.5664 33.7651 47.3219 33.6624 47.124 33.4653C46.475 32.8185 45.8296 32.1683 45.1845 31.5175C45.1272 31.4597 45.0825 31.3897 45.0086 31.2956L45.0089 31.2959Z" fill="white"/>
<path d="M18.3091 22.079C12.8738 22.079 7.43849 22.079 2.00318 22.079C1.53086 22.079 1.05882 22.076 0.586499 22.0735C0.493979 22.0729 0.400904 22.0735 0.308941 22.0642C0.110566 22.0447 0.0124897 21.9618 0.0099892 21.7686C0.0022098 21.1176 0.00276547 20.466 0.0105449 19.815C0.0127676 19.6279 0.113622 19.5285 0.302828 19.502C0.439524 19.4828 0.579831 19.4844 0.718471 19.4844C4.18142 19.483 7.64464 19.4819 11.1076 19.4819C18.543 19.4819 25.9782 19.4825 33.4136 19.4828C33.4323 19.4828 33.4509 19.4844 33.4692 19.4828C33.9357 19.4328 34.3083 19.581 34.6169 19.9526C34.8334 20.2133 35.1126 20.4208 35.3554 20.6603C35.7097 21.0098 36.0564 21.3666 36.4065 21.7206C36.4259 21.7404 36.4518 21.7583 36.4621 21.7823C36.489 21.8468 36.5326 21.918 36.5226 21.9788C36.5168 22.014 36.4226 22.05 36.3645 22.0578C36.2551 22.0723 36.1428 22.0693 36.032 22.0693C30.5411 22.0701 25.0502 22.0707 19.5594 22.0709C19.1426 22.0709 18.7261 22.0709 18.3094 22.0709V22.0788L18.3091 22.079Z" fill="white"/>
<path d="M36.4154 15.6551C36.3468 15.98 36.117 16.1497 35.9258 16.3192C35.7255 16.4968 35.5488 16.6941 35.3599 16.8803C35.0106 17.2248 34.6772 17.5858 34.3252 17.9275C34.1713 18.0771 33.9807 18.1718 33.7518 18.169C33.4 18.1648 33.0483 18.1729 32.6965 18.1729C22.3088 18.1732 11.9208 18.1732 1.53309 18.1729C1.16273 18.1729 0.792377 18.1751 0.4223 18.1676C0.0900081 18.1606 0.00665735 18.0777 0.00443466 17.7527C0.000267125 17.176 0.000544961 16.5992 0.00387899 16.0224C0.00582384 15.6897 0.100288 15.5934 0.437859 15.5872C0.87295 15.5794 1.30804 15.5808 1.74313 15.5811C4.50204 15.5825 7.26095 15.5861 10.0201 15.5858C13.8715 15.5853 17.7229 15.58 21.5742 15.5797C26.1755 15.5791 30.777 15.5814 35.3782 15.5827C35.6188 15.5827 35.86 15.5822 36.1 15.5934C36.2028 15.5981 36.3043 15.6324 36.4154 15.6551Z" fill="white"/>
<path d="M16.1428 2.58093C10.9848 2.58093 5.82704 2.58093 0.669018 2.5801C0.530377 2.5801 0.39007 2.5801 0.253931 2.55832C0.0613904 2.52789 0.00943508 2.47317 0.00832374 2.28445C0.00387836 1.64264 0.00332269 1.00055 0.0122134 0.358456C0.0152696 0.123115 0.120292 0.0290342 0.361175 0.0170299C0.57372 0.00642137 0.787098 0.00697971 0.99992 0.00697971C10.4269 0.0061422 19.8539 0.00781722 29.2806 4.4549e-07C29.6559 -0.000278725 29.9349 0.130652 30.1877 0.388327C30.7903 1.00222 31.4016 1.60747 32.0084 2.21745C32.0531 2.2624 32.0998 2.31125 32.1256 2.36737C32.1678 2.45977 32.1367 2.5385 32.0314 2.55497C31.9225 2.57228 31.8105 2.57647 31.7 2.57675C29.32 2.58038 26.9403 2.58345 24.5604 2.58456C21.7545 2.58568 18.9487 2.58484 16.1428 2.58484V2.58093Z" fill="white"/>
<path d="M32.1356 35.1959C32.0312 35.3126 31.9625 35.3972 31.8861 35.4737C31.291 36.0691 30.6937 36.6626 30.0983 37.2578C29.9215 37.4343 29.7248 37.5431 29.4623 37.5404C28.7958 37.5331 28.1292 37.5448 27.4627 37.5448C19.4269 37.5462 11.391 37.5468 3.35515 37.5471C2.45719 37.5471 1.55922 37.5434 0.66098 37.5409C0.549846 37.5406 0.438712 37.5404 0.327855 37.5339C0.0719681 37.5189 0.0155674 37.4708 0.0122334 37.2148C0.00445401 36.6289 0.00334267 36.0429 0.00778804 35.4569C0.00945506 35.2241 0.056965 35.1565 0.289514 35.1174C0.56985 35.0705 0.855465 35.0395 1.13941 35.0351C1.92624 35.0231 2.71308 35.0273 3.50019 35.0273C9.88819 35.027 16.2762 35.0267 22.6642 35.0273C25.3398 35.0275 28.0153 35.0281 30.6906 35.0345C31.1046 35.0356 31.5224 35.0122 31.9303 35.1188C31.9814 35.1322 32.0298 35.156 32.1359 35.1962L32.1356 35.1959Z" fill="white"/>
<path d="M64.8811 35.0323C69.826 35.0323 74.7709 35.0309 79.7158 35.0357C80.029 35.0359 80.3435 35.0725 80.6552 35.1113C80.9203 35.1445 80.9633 35.2015 80.9656 35.4765C80.9697 36.0161 80.9639 36.5557 80.965 37.0954C80.9658 37.4013 80.8772 37.5412 80.5141 37.5393C79.3844 37.5331 78.2547 37.539 77.125 37.5393C68.726 37.5401 60.3271 37.5409 51.9281 37.5412C51.2193 37.5412 51.2163 37.5426 50.7184 37.0529C50.2111 36.5541 49.7068 36.0518 49.2097 35.5426C49.1261 35.4569 48.9753 35.3813 49.0233 35.2252C49.0722 35.0664 49.2367 35.094 49.3556 35.0814C49.6309 35.0521 49.9085 35.0334 50.1852 35.0331C55.0838 35.0303 59.9826 35.0312 64.8811 35.0312V35.0323Z" fill="white"/>
<path d="M49.8488 29.8785C48.0353 29.8785 46.2219 29.8785 44.4088 29.8782C44.3162 29.8782 44.2234 29.878 44.1315 29.8699C43.8839 29.8481 43.7936 29.7565 43.7875 29.4919C43.7783 29.0924 43.7811 28.6926 43.78 28.2928C43.7795 28.0606 43.7767 27.828 43.7836 27.5957C43.7895 27.3989 43.8281 27.347 44.0167 27.3076C44.1606 27.2778 44.3098 27.2596 44.4565 27.2596C47.2229 27.2571 49.9894 27.2582 52.7558 27.2577C53.17 27.2577 53.517 27.3718 53.8177 27.694C54.3772 28.2945 54.9751 28.8584 55.5525 29.4424C55.6461 29.5371 55.8031 29.6345 55.7453 29.7844C55.6833 29.9447 55.5008 29.8774 55.3727 29.878C53.5315 29.883 51.6906 29.8813 49.8493 29.8813V29.8791L49.8488 29.8785Z" fill="white"/>
<path d="M32.1467 29.8794C30.6378 29.8794 29.1289 29.8794 27.62 29.8794C27.5366 29.8794 27.4508 29.888 27.371 29.8699C27.3068 29.8551 27.2168 29.8182 27.1993 29.7688C27.1804 29.7161 27.2138 29.62 27.2568 29.5734C27.4321 29.3833 27.6241 29.2088 27.8019 29.0206C28.0112 28.7993 28.2126 28.5703 28.4157 28.3431C28.5199 28.2267 28.561 28.0882 28.5518 27.9316C28.5465 27.8389 28.5493 27.7457 28.5529 27.6527C28.5627 27.3989 28.6207 27.3264 28.8722 27.2803C28.9805 27.2605 29.093 27.258 29.2036 27.258C31.6105 27.2571 34.0174 27.2568 36.4243 27.2602C36.6177 27.2605 36.8122 27.2817 37.0041 27.3085C37.187 27.3339 37.2217 27.3761 37.2353 27.5614C37.2456 27.7002 37.2411 27.8403 37.2409 27.9799C37.2409 28.4263 37.2339 28.873 37.2406 29.3194C37.2467 29.7417 37.1928 29.8841 36.6735 29.8816C35.1646 29.8741 33.6557 29.8791 32.1467 29.8791C32.1467 29.8794 32.1467 29.8797 32.1467 29.8799V29.8794Z" fill="white"/>
<path d="M32.2481 7.77434C33.4878 7.77434 34.7275 7.77295 35.9672 7.77546C36.2723 7.77602 36.5777 7.78104 36.8822 7.79863C37.1842 7.81594 37.2353 7.87317 37.2372 8.17216C37.2408 8.78578 37.2408 9.39912 37.2372 10.0127C37.2356 10.3008 37.2131 10.3332 36.9249 10.3597C36.6493 10.3849 36.3709 10.3891 36.0939 10.3896C33.846 10.3924 31.5977 10.3927 29.3498 10.3913C29.1653 10.3913 28.9791 10.3835 28.7969 10.3575C28.6004 10.3296 28.5693 10.286 28.5576 10.082C28.5485 9.92424 28.5521 9.76595 28.5488 9.60794C28.5449 9.42257 28.4746 9.27014 28.3418 9.13781C27.9956 8.79276 27.6558 8.44128 27.314 8.09176C27.1912 7.96641 27.2199 7.85084 27.3949 7.81901C27.5577 7.78942 27.7255 7.77658 27.8911 7.7763C29.3436 7.77323 30.7962 7.77462 32.2484 7.77462L32.2481 7.77434Z" fill="white"/>
<path d="M27.6702 23.4852C27.7808 23.4481 27.853 23.4104 27.9286 23.4009C28.1117 23.3777 28.2965 23.3543 28.4807 23.3543C31.1448 23.3521 33.809 23.3523 36.4735 23.3565C36.6479 23.3565 36.8241 23.3822 36.9958 23.4149C37.1839 23.4503 37.2211 23.5056 37.2381 23.6982C37.2406 23.7259 37.2403 23.7541 37.2403 23.7817C37.2403 24.3858 37.2436 24.99 37.2392 25.5944C37.2367 25.9151 37.1853 25.9687 36.8677 25.9749C36.359 25.9846 35.8503 25.9871 35.3416 25.9869C33.2786 25.9866 31.2157 25.9844 29.1528 25.9818C29.0327 25.9818 28.9119 25.9818 28.7924 25.9698C28.6065 25.9517 28.5688 25.9168 28.5601 25.7267C28.549 25.4855 28.539 25.2426 28.5546 25.002C28.5774 24.6496 28.4479 24.3696 28.2053 24.1287C28.0937 24.0179 27.9845 23.9037 27.8822 23.7842C27.8122 23.7024 27.7564 23.6083 27.67 23.4852H27.6702Z" fill="white"/>
<path d="M27.5483 14.1531C27.7516 13.9404 27.9481 13.7207 28.16 13.5169C28.4193 13.2676 28.5762 12.9848 28.554 12.6118C28.5412 12.3988 28.5546 12.1844 28.5551 11.9705C28.5554 11.829 28.6201 11.7405 28.7627 11.721C28.8905 11.7037 29.0194 11.6802 29.1478 11.6802C31.6555 11.6788 34.1632 11.6791 36.671 11.683C37.2108 11.6838 37.2406 11.7196 37.2408 12.2466C37.2411 12.7489 37.2406 13.2508 37.2389 13.7531C37.2389 13.8365 37.2378 13.9211 37.2264 14.0035C37.2008 14.1872 37.1628 14.2251 36.9819 14.245C36.881 14.2561 36.7788 14.2567 36.6771 14.2572C35.8536 14.2611 35.0298 14.262 34.2063 14.2676C33.1516 14.2745 32.097 14.2927 31.0423 14.2921C30.0246 14.2916 29.0072 14.2748 27.9895 14.2623C27.8541 14.2606 27.7188 14.2424 27.5838 14.2318C27.5719 14.2056 27.5599 14.1793 27.548 14.1531H27.5483Z" fill="white"/>
<path d="M4.36202 29.8807C3.09369 29.8807 1.8251 29.8807 0.556775 29.8807C0.492039 29.8807 0.427026 29.8805 0.362568 29.8752C0.110015 29.8542 0.00943823 29.7593 0.00749338 29.5078C0.0022145 28.8844 0.0022145 28.2613 0.00804905 27.6379C0.00999391 27.4118 0.075841 27.3375 0.293109 27.2951C0.419524 27.2705 0.550385 27.2599 0.679023 27.2596C3.11398 27.2579 5.54921 27.2582 7.98416 27.2602C8.11308 27.2602 8.24311 27.2727 8.37063 27.2914C8.67458 27.3361 8.76099 27.433 8.77183 27.747C8.77933 27.9609 8.77377 28.175 8.77377 28.3889C8.77377 28.7239 8.77572 29.0586 8.77322 29.3936C8.77016 29.7903 8.69181 29.8771 8.30617 29.878C6.99145 29.8813 5.67673 29.8791 4.36202 29.8791V29.8805V29.8807Z" fill="white"/>
<path d="M4.39093 25.9818C3.114 25.9818 1.83734 25.9793 0.560407 25.9832C0.0961435 25.9846 -0.00915636 25.9375 0.000845733 25.4274C0.0108478 24.9163 0.00223491 24.4048 0.00417976 23.8934C0.00584678 23.497 0.059747 23.4353 0.458997 23.3763C0.568187 23.3602 0.679877 23.3532 0.790455 23.3532C3.14067 23.3515 5.4906 23.3507 7.84082 23.3532C8.01585 23.3532 8.19117 23.3775 8.36565 23.3945C8.65266 23.4224 8.75907 23.5274 8.76962 23.8191C8.7799 24.0977 8.77324 24.3769 8.77351 24.6558C8.77379 24.9439 8.77713 25.2323 8.77324 25.5204C8.76851 25.8769 8.68183 25.9738 8.33231 25.9763C7.15734 25.9844 5.9821 25.9849 4.80713 25.988C4.66821 25.9883 4.52957 25.988 4.39065 25.988V25.9821L4.39093 25.9818Z" fill="white"/>
<path d="M4.32451 10.3888C3.09398 10.3888 1.86344 10.3918 0.632906 10.3874C0.0030515 10.3851 0.00277363 10.379 0.0024958 9.7478C0.0024958 9.23635 0.000273108 8.72519 0.00360714 8.21375C0.00582983 7.90666 0.0644532 7.83911 0.36396 7.79444C0.47315 7.77797 0.585118 7.77434 0.695696 7.77434C3.12898 7.7735 5.56255 7.77322 7.99584 7.77573C8.14337 7.77573 8.29173 7.78969 8.43787 7.81063C8.65097 7.84078 8.75961 7.93961 8.76488 8.15541C8.77683 8.64758 8.77628 9.14088 8.7635 9.63306C8.75877 9.81563 8.70487 9.99654 8.67403 10.1786C8.6582 10.2721 8.60624 10.3324 8.51205 10.3433C8.35619 10.3614 8.19977 10.3854 8.04362 10.3857C6.80392 10.389 5.56394 10.3877 4.32423 10.3877C4.32423 10.3879 4.32423 10.3885 4.32423 10.3888H4.32451Z" fill="white"/>
<path d="M4.34619 14.2944C3.70744 14.2944 3.06897 14.2983 2.43023 14.2933C1.76398 14.288 1.09801 14.274 0.431755 14.2637C0.41314 14.2634 0.394803 14.2628 0.376188 14.262C0.0311159 14.2439 0.00499933 14.2193 0.00333231 13.8636C0.000553955 13.2963 0.000831792 12.7291 0.00277664 12.1615C0.00388799 11.7972 0.0927955 11.6933 0.456761 11.6853C1.06744 11.6719 1.67841 11.6727 2.28937 11.673C4.20532 11.6741 6.12128 11.678 8.03724 11.6811C8.0928 11.6811 8.14837 11.6811 8.20394 11.6822C8.63819 11.6922 8.75711 11.8061 8.77128 12.2542C8.78128 12.5702 8.7735 12.8865 8.7735 13.2028C8.7735 13.4167 8.77822 13.6308 8.77128 13.8446C8.761 14.1484 8.66542 14.2441 8.37147 14.2614C8.32535 14.2642 8.27895 14.2645 8.23255 14.2645C6.93701 14.2645 5.64146 14.2645 4.34591 14.2645C4.34591 14.2743 4.34591 14.2843 4.34591 14.2941L4.34619 14.2944Z" fill="white"/>
<path d="M48.1126 25.9821C46.8726 25.9821 45.6326 25.9863 44.3929 25.9805C43.7447 25.9774 43.7806 26.005 43.7828 25.3741C43.7844 24.8348 43.7811 24.2957 43.785 23.7563C43.787 23.4825 43.8311 23.4319 44.0995 23.3976C44.2918 23.373 44.486 23.351 44.6794 23.3507C46.8909 23.3476 49.1025 23.3471 51.3141 23.351C51.6 23.3515 51.8867 23.3744 52.1718 23.4015C52.4085 23.4241 52.4602 23.4819 52.4621 23.7211C52.4671 24.3719 52.4674 25.0229 52.4621 25.6737C52.4599 25.9221 52.419 25.9648 52.1659 25.9721C51.7219 25.9849 51.2777 25.9855 50.8337 25.9866C49.9268 25.9886 49.02 25.9872 48.1131 25.9872V25.9819L48.1126 25.9821Z" fill="white"/>
<path d="M48.1506 7.77768C49.3631 7.77768 50.5756 7.77629 51.7881 7.77936C51.9353 7.77964 52.0828 7.8003 52.2298 7.81621C52.3843 7.83296 52.4563 7.92509 52.4563 8.07975C52.4563 8.3123 52.4585 8.54484 52.4585 8.77711C52.4585 9.2048 52.4615 9.63277 52.4563 10.0605C52.4535 10.2941 52.434 10.3142 52.2109 10.3488C52.0742 10.3701 51.935 10.3854 51.797 10.3857C49.3534 10.3888 46.9098 10.3896 44.4662 10.3879C44.3098 10.3879 44.1529 10.3673 43.9967 10.3491C43.8572 10.3327 43.7831 10.2506 43.7831 10.1054C43.7842 9.42647 43.7858 8.74752 43.785 8.06858C43.785 7.90973 43.862 7.82626 44.0153 7.8123C44.1901 7.79639 44.3654 7.7735 44.5404 7.77294C45.7437 7.76959 46.947 7.77126 48.1504 7.77126V7.77768H48.1506Z" fill="white"/>
<path d="M48.1242 6.48319C46.8929 6.48319 45.6615 6.48459 44.4304 6.48151C44.2834 6.48124 44.1356 6.46253 43.9895 6.44243C43.8497 6.42345 43.7819 6.33579 43.7831 6.19201C43.785 5.96868 43.7831 5.74562 43.7831 5.52228C43.7831 5.10381 43.78 4.68505 43.785 4.26657C43.7883 3.98322 43.8497 3.91845 44.1256 3.90672C44.5324 3.88941 44.9394 3.87099 45.3462 3.86959C46.6887 3.86513 48.0309 3.86317 49.3734 3.86959C50.2616 3.87378 51.1499 3.89416 52.0381 3.90728C52.0845 3.90784 52.1309 3.9084 52.1768 3.91287C52.3993 3.9338 52.4535 3.9807 52.4552 4.20795C52.4607 4.85897 52.4604 5.51028 52.4557 6.16131C52.454 6.38688 52.426 6.41451 52.2048 6.45025C52.0867 6.46951 51.9656 6.47761 51.8456 6.47761C50.605 6.47956 49.3645 6.47872 48.124 6.47872V6.48319H48.1242Z" fill="white"/>
<path d="M48.1395 14.2648C46.8526 14.2648 45.5656 14.267 44.2784 14.2637C43.7922 14.2623 43.7822 14.2458 43.7828 13.7617C43.7833 13.1942 43.7808 12.6263 43.7847 12.0588C43.7866 11.7651 43.8467 11.695 44.1428 11.6855C44.5871 11.6716 45.0316 11.673 45.4762 11.6732C47.5783 11.6749 49.6807 11.678 51.7828 11.6816C51.9028 11.6816 52.0242 11.6833 52.1428 11.6998C52.4204 11.7383 52.4529 11.7765 52.4571 12.0543C52.461 12.2961 52.4585 12.5381 52.4585 12.7801C52.4585 13.171 52.4615 13.5618 52.4565 13.9527C52.4532 14.2106 52.4279 14.2441 52.1665 14.2508C51.648 14.2642 51.1296 14.2642 50.6109 14.2656C49.7871 14.2676 48.963 14.2662 48.1392 14.2662C48.1392 14.2656 48.1392 14.2653 48.1392 14.2648H48.1395Z" fill="white"/>
<path d="M48.1203 18.1724C46.9265 18.1724 45.7329 18.1729 44.539 18.1718C44.3726 18.1718 44.2054 18.1718 44.0398 18.1578C43.8383 18.1411 43.7867 18.095 43.7853 17.9027C43.7803 17.2332 43.7814 16.5638 43.7872 15.8943C43.7889 15.6939 43.8514 15.6305 44.0478 15.6001C44.1479 15.5847 44.2507 15.5858 44.3523 15.5858C46.8323 15.5842 49.3125 15.583 51.7925 15.5828C51.9125 15.5828 52.0337 15.5853 52.1529 15.599C52.4074 15.628 52.4493 15.6777 52.4582 15.9331C52.4588 15.9518 52.4588 15.9703 52.4588 15.989C52.4588 16.5747 52.4607 17.1606 52.4582 17.7463C52.4565 18.1037 52.4107 18.1559 52.0628 18.1623C51.5541 18.1718 51.0451 18.1718 50.5361 18.1726C49.731 18.174 48.9258 18.1729 48.1209 18.1729V18.1718L48.1203 18.1724Z" fill="white"/>
<path d="M48.1065 22.0743C46.9026 22.0743 45.6987 22.0743 44.4949 22.0743C44.3837 22.0743 44.2726 22.0743 44.1615 22.0704C43.8097 22.0573 43.7789 22.0252 43.78 21.6815C43.7806 21.5606 43.7828 21.4395 43.7831 21.3186C43.7836 20.8348 43.7811 20.3507 43.7844 19.8669C43.7864 19.5701 43.8447 19.5065 44.1384 19.4906C44.3509 19.4791 44.5643 19.4825 44.7771 19.4825C47.0832 19.4825 49.3889 19.483 51.695 19.4844C51.8614 19.4844 52.0295 19.4819 52.1943 19.5015C52.394 19.5249 52.4535 19.5902 52.4551 19.7935C52.4604 20.4448 52.4615 21.0961 52.4551 21.7474C52.4526 21.9956 52.3876 22.0595 52.1348 22.064C51.5422 22.0749 50.9496 22.0765 50.3569 22.0782C49.6068 22.0804 48.8566 22.0788 48.1065 22.0788V22.074V22.0743Z" fill="white"/>
<path d="M48.1059 2.58036C46.8465 2.58036 45.587 2.58232 44.3276 2.57952C43.8064 2.57841 43.7808 2.54714 43.7808 2.02397C43.7808 1.51225 43.7791 1.00053 43.7789 0.488814C43.7789 0.0655915 43.8303 0.00975735 44.262 0.00724481C45.1694 0.00221974 46.0771 0.000823888 46.9845 0.0016614C48.6235 0.0036156 50.2627 0.0083615 51.9017 0.0119907C51.9664 0.0119907 52.0314 0.0105949 52.0962 0.0150616C52.3509 0.0332077 52.4504 0.122263 52.4537 0.379938C52.4615 1.01254 52.4604 1.64542 52.4549 2.27802C52.4529 2.48349 52.3982 2.53346 52.1892 2.56305C52.0981 2.57589 52.0045 2.57506 51.9122 2.57506C50.6436 2.57589 49.3748 2.57562 48.1062 2.57562V2.58008L48.1059 2.58036Z" fill="white"/>
<path d="M165.784 6.35629C165.54 6.50676 165.3 6.51513 165.062 6.51709C164.331 6.52323 163.599 6.52463 162.868 6.52407C159.924 6.52211 156.979 6.52184 154.035 6.51486C151.008 6.5076 147.981 6.48219 144.953 6.4847C140.343 6.48861 135.733 6.51095 131.122 6.52184C130.79 6.52267 130.455 6.51681 130.125 6.47661C129.74 6.42943 129.681 6.34121 129.679 5.94367C129.677 5.45987 129.678 4.97607 129.679 4.49226C129.679 4.41828 129.673 4.33844 129.697 4.27116C129.813 3.94286 129.829 3.9021 130.156 3.89428C130.646 3.88256 131.137 3.86664 131.627 3.86664C141.488 3.86497 151.349 3.86497 161.21 3.86664C161.811 3.86664 162.413 3.89065 163.015 3.89009C163.273 3.89009 163.481 3.97775 163.66 4.15754C164.3 4.80075 164.943 5.44145 165.582 6.08661C165.657 6.16171 165.71 6.25718 165.784 6.35656L165.784 6.35629Z" fill="white"/>
<path d="M147.981 15.5765C153.508 15.5765 159.036 15.5765 164.563 15.5767C164.952 15.5767 165.341 15.5809 165.73 15.5837C165.794 15.5843 165.86 15.5826 165.924 15.5904C166.124 15.615 166.171 15.7308 166.045 15.895C165.994 15.9609 165.935 16.0209 165.876 16.0798C165.294 16.663 164.707 17.242 164.129 17.8291C163.901 18.0608 163.643 18.166 163.313 18.1666C161.332 18.1694 159.352 18.1965 157.371 18.1973C148.908 18.2012 140.446 18.1998 131.984 18.1973C131.364 18.1973 130.745 18.1669 130.126 18.1621C129.845 18.1599 129.684 18.0909 129.681 17.7021C129.678 17.1532 129.677 16.6044 129.681 16.0555C129.685 15.6945 129.787 15.5885 130.149 15.5829C130.76 15.5737 131.371 15.5734 131.982 15.5731C137.315 15.5725 142.648 15.5728 147.981 15.5728V15.5759L147.981 15.5765Z" fill="white"/>
<path d="M166.215 21.9385C166.077 22.082 165.94 22.0566 165.814 22.0577C165.166 22.063 164.518 22.0649 163.87 22.0649C155.017 22.0652 146.165 22.0655 137.312 22.0649C134.988 22.0649 132.664 22.0624 130.34 22.0605C130.229 22.0605 130.116 22.063 130.007 22.0473C129.8 22.0177 129.688 21.905 129.685 21.6928C129.677 21.0881 129.675 20.4832 129.687 19.8787C129.692 19.5898 129.82 19.4874 130.146 19.4834C130.878 19.4751 131.609 19.4734 132.341 19.4734C142.601 19.4737 152.861 19.4751 163.121 19.4759C163.204 19.4759 163.288 19.486 163.37 19.4773C163.737 19.4388 164.016 19.6141 164.255 19.8581C164.553 20.1618 164.829 20.4873 165.123 20.795C165.416 21.1021 165.722 21.3972 166.019 21.7006C166.088 21.7707 166.145 21.8525 166.215 21.9387V21.9385Z" fill="white"/>
<path d="M104.668 31.2547C106.862 31.2547 109.057 31.258 111.251 31.2538C114.334 31.248 117.417 31.2354 120.5 31.229C120.907 31.2282 121.314 31.2466 121.722 31.258C121.777 31.2594 121.834 31.2628 121.886 31.2801C121.985 31.3136 122.01 31.3851 121.956 31.4766C121.933 31.5163 121.903 31.5537 121.871 31.5863C121.539 31.9219 121.206 32.2569 120.873 32.5905C120.572 32.8915 120.261 33.1832 119.969 33.4934C119.718 33.7611 119.421 33.8808 119.058 33.8808C112.114 33.8797 105.17 33.8817 98.2252 33.8822C95.5955 33.8822 92.966 33.8781 90.3363 33.885C90.0785 33.8856 89.8426 33.8261 89.6084 33.7413C89.5339 33.7142 89.4642 33.6597 89.4067 33.6028C88.7946 32.9967 88.1842 32.3892 87.5771 31.7781C87.4932 31.6938 87.4177 31.5953 87.361 31.4911C87.2993 31.3772 87.349 31.294 87.4757 31.2678C87.5296 31.2566 87.5863 31.258 87.6416 31.2572C88.3451 31.2463 89.0483 31.2282 89.7518 31.2276C92.3537 31.2251 94.9554 31.229 97.5573 31.2298C99.9275 31.2304 102.297 31.2298 104.668 31.2298C104.668 31.2382 104.668 31.2463 104.668 31.2547H104.668Z" fill="white"/>
<path d="M161.882 2.42445C161.774 2.61568 161.616 2.61652 161.457 2.6168C160.734 2.61819 160.012 2.62099 159.29 2.62127C153.02 2.62155 146.75 2.62183 140.481 2.62127C137.175 2.62127 133.869 2.62043 130.563 2.61596C130.379 2.61596 130.192 2.5981 130.013 2.55845C129.761 2.50234 129.699 2.40937 129.682 2.15086C129.68 2.12294 129.68 2.09503 129.68 2.06711C129.681 1.57382 129.686 1.0808 129.681 0.587505C129.677 0.235192 129.867 0.000410369 130.257 0.00208539C131.886 0.009623 133.516 0.000691312 135.146 0.000412141C142.99 -0.0001462 150.834 -0.000427688 158.678 0.00152651C158.907 0.00152651 159.135 -0.0129906 159.365 0.0640605C159.557 0.128828 159.713 0.227936 159.85 0.366684C160.305 0.82592 160.757 1.28795 161.213 1.74662C161.376 1.91022 161.547 2.0646 161.711 2.2268C161.775 2.28933 161.828 2.36136 161.882 2.42445H161.882Z" fill="white"/>
<path d="M104.673 35.1285C108.912 35.1285 113.152 35.1285 117.392 35.1285C117.531 35.1285 117.671 35.1187 117.808 35.1366C117.901 35.1488 118.021 35.177 118.072 35.2426C118.154 35.3485 118.029 35.4291 117.965 35.4967C117.729 35.7449 117.483 35.9838 117.241 36.2262C116.875 36.5927 116.503 36.9542 116.143 37.3278C115.954 37.524 115.747 37.6572 115.468 37.6572C115.339 37.6572 115.209 37.6706 115.08 37.6706C108.137 37.6714 101.194 37.6714 94.2516 37.67C94.0763 37.67 93.8979 37.6678 93.7265 37.6371C93.5954 37.6136 93.4462 37.5729 93.3503 37.488C93.0055 37.1832 92.6465 36.8953 92.3479 36.5355C92.1014 36.2385 91.7922 35.9945 91.5169 35.7209C91.4257 35.6304 91.3454 35.5263 91.2743 35.4188C91.1785 35.2739 91.2254 35.1636 91.3991 35.1461C91.601 35.1254 91.8058 35.1262 92.0092 35.1262C96.2304 35.1254 100.452 35.1254 104.673 35.1254V35.1279V35.1285Z" fill="white"/>
<path d="M97.9965 29.7701C97.9799 29.9395 97.8735 29.9722 97.7409 29.9727C97.4075 29.9741 97.0741 29.9786 96.7407 29.9786C93.3789 29.9775 90.0171 29.9758 86.6555 29.9741C86.5814 29.9741 86.5072 29.9747 86.4333 29.9719C86.1371 29.9599 86.0093 29.8379 86.0051 29.5436C85.9993 29.1157 86.0029 28.6874 86.0032 28.2595C86.0032 28.1012 86.0012 27.9429 86.0071 27.7849C86.0165 27.5317 86.1413 27.391 86.3933 27.3605C86.5214 27.3449 86.6522 27.3491 86.7817 27.3491C89.2636 27.3491 91.7455 27.3499 94.2277 27.3502C94.4964 27.3502 94.765 27.3552 95.0334 27.3468C95.4971 27.3326 95.8444 27.5509 96.1423 27.8817C96.2403 27.9909 96.3495 28.09 96.454 28.1933C96.6571 28.3949 96.8635 28.5931 97.0633 28.798C97.3781 29.121 97.6884 29.4484 97.9968 29.7698L97.9965 29.7701Z" fill="white"/>
<path d="M117.17 29.9744C115.382 29.9744 113.595 29.9744 111.808 29.9741C111.697 29.9741 111.584 29.9811 111.475 29.9646C111.41 29.9546 111.321 29.9191 111.298 29.8692C111.277 29.8259 111.318 29.7315 111.36 29.6849C111.501 29.5261 111.655 29.3781 111.805 29.2268C112.34 28.6872 112.872 28.1456 113.411 27.6098C113.597 27.4247 113.834 27.351 114.094 27.3502C114.502 27.3491 114.909 27.3505 115.317 27.3502C117.752 27.3494 120.188 27.3482 122.623 27.3474C123.195 27.3474 123.24 27.3921 123.24 27.9619C123.24 28.4736 123.227 28.9859 123.242 29.497C123.252 29.8382 123.08 29.9797 122.754 29.9783C120.893 29.9697 119.032 29.9741 117.17 29.9741L117.17 29.9744Z" fill="white"/>
<path d="M161.895 7.77252C163.384 7.77252 164.873 7.77503 166.363 7.77113C166.799 7.77001 166.987 7.80016 166.969 8.3853C166.952 8.91461 166.968 9.44475 166.964 9.97462C166.962 10.2878 166.933 10.3186 166.623 10.3657C166.523 10.3808 166.42 10.3836 166.319 10.3836C163.821 10.3853 161.323 10.3858 158.826 10.3864C158.77 10.3864 158.715 10.3864 158.659 10.3811C158.359 10.3518 158.25 10.2387 158.234 9.94028C158.231 9.89394 158.232 9.84732 158.232 9.80097C158.227 9.44475 158.135 9.13934 157.843 8.89283C157.562 8.6547 157.317 8.37246 157.065 8.10194C157.015 8.04834 156.972 7.9551 156.981 7.88726C156.996 7.76917 157.114 7.77754 157.204 7.77671C157.833 7.77029 158.463 7.7647 159.092 7.76331C160.026 7.76107 160.96 7.76275 161.895 7.76275V7.77308V7.77252Z" fill="white"/>
<path d="M162.014 14.2939C160.69 14.2939 159.367 14.2956 158.044 14.292C157.86 14.2914 157.675 14.2708 157.493 14.244C157.428 14.2345 157.337 14.1909 157.32 14.141C157.303 14.0935 157.353 14.005 157.397 13.9567C157.585 13.7529 157.77 13.5449 157.977 13.3621C158.172 13.1904 158.221 12.9749 158.229 12.7384C158.236 12.5248 158.229 12.3107 158.233 12.0969C158.24 11.7984 158.33 11.7002 158.633 11.6809C158.845 11.6675 159.058 11.6711 159.271 11.6711C161.621 11.6722 163.971 11.6739 166.321 11.6759C166.423 11.6759 166.525 11.6756 166.626 11.684C166.839 11.7018 166.946 11.8037 166.962 12.0165C166.974 12.1644 166.968 12.3138 166.968 12.4626C166.967 12.9182 166.968 13.3738 166.965 13.8291C166.963 14.17 166.921 14.2286 166.591 14.2454C166.055 14.2724 165.519 14.2895 164.983 14.2937C163.993 14.3009 163.003 14.2956 162.013 14.2956V14.2937L162.014 14.2939Z" fill="white"/>
<path d="M90.4036 14.3894C89.2092 14.3894 88.0145 14.3906 86.82 14.388C86.6539 14.3878 86.4864 14.3777 86.3219 14.3554C86.0949 14.3244 86.0057 14.2311 86.004 14.0092C85.9993 13.3858 86.0001 12.7624 86.0071 12.139C86.0093 11.9263 86.0682 11.8682 86.2805 11.8174C86.3613 11.7982 86.4441 11.7806 86.5266 11.777C86.9056 11.7599 87.2846 11.737 87.6638 11.7362C89.5437 11.732 91.4232 11.7295 93.3031 11.7384C93.6904 11.7404 94.0768 11.7971 94.4644 11.8222C94.62 11.8322 94.6981 11.9271 94.7392 12.0572C94.7639 12.1349 94.7678 12.2217 94.7684 12.3046C94.7709 12.8442 94.7717 13.3839 94.7689 13.9235C94.767 14.2691 94.6967 14.3498 94.3477 14.3769C94.1082 14.3956 93.8668 14.3931 93.6262 14.3933C92.5521 14.3947 91.478 14.3939 90.4038 14.3939V14.3894H90.4036Z" fill="white"/>
<path d="M118.904 14.3894C117.701 14.3894 116.499 14.3903 115.296 14.3883C115.149 14.3883 114.999 14.383 114.854 14.3596C114.643 14.3258 114.561 14.235 114.559 14.0232C114.553 13.3911 114.553 12.7591 114.559 12.1267C114.561 11.9109 114.614 11.84 114.834 11.813C115.172 11.7711 115.515 11.739 115.856 11.7379C117.956 11.7312 120.056 11.7314 122.156 11.7379C122.432 11.7387 122.709 11.7806 122.983 11.8191C123.185 11.8476 123.23 11.8936 123.232 12.0871C123.238 12.7563 123.239 13.4257 123.231 14.0949C123.228 14.2945 123.183 14.3328 122.982 14.3618C122.846 14.3816 122.706 14.3886 122.568 14.3889C121.346 14.3908 120.125 14.39 118.904 14.39V14.3889L118.904 14.3894Z" fill="white"/>
<path d="M157.333 23.4996C157.464 23.3648 157.619 23.3927 157.76 23.3916C158.603 23.3854 159.445 23.3818 160.287 23.3821C162.296 23.3829 164.304 23.3863 166.313 23.3888C166.406 23.3888 166.498 23.3899 166.591 23.3955C166.917 23.4153 166.961 23.4572 166.966 23.7768C166.971 24.1023 166.968 24.4278 166.968 24.7534C166.968 25.0322 166.972 25.3114 166.967 25.5903C166.963 25.8885 166.91 25.9412 166.608 25.9619C166.525 25.9675 166.441 25.9677 166.358 25.9677C163.887 25.968 161.415 25.968 158.944 25.9677C158.815 25.9677 158.685 25.9683 158.556 25.9585C158.356 25.9437 158.293 25.8935 158.256 25.6956C158.233 25.5688 158.24 25.4368 158.232 25.3069C158.218 25.0476 158.204 24.7885 158.188 24.5295C158.18 24.4122 158.122 24.3282 158.034 24.2472C157.836 24.0671 157.65 23.8728 157.464 23.6805C157.415 23.6297 157.38 23.5646 157.334 23.4993L157.333 23.4996Z" fill="white"/>
<path d="M90.3911 22.1724C89.15 22.1724 87.9092 22.1724 86.6681 22.1724C86.5756 22.1724 86.4828 22.173 86.3902 22.1671C86.1082 22.1492 86.0054 22.049 86.0038 21.7707C86.0002 21.1844 86.0004 20.5982 86.0046 20.0119C86.0065 19.7244 86.1241 19.5879 86.4177 19.5569C86.6472 19.5326 86.8801 19.5365 87.1112 19.5365C89.4356 19.5359 91.7602 19.5373 94.0846 19.5382C94.1402 19.5382 94.1958 19.5437 94.2513 19.541C94.5622 19.5253 94.76 19.6917 94.7687 20.0856C94.7734 20.2995 94.7706 20.5136 94.7706 20.7277C94.7706 21.0627 94.7731 21.3977 94.7687 21.7327C94.7642 22.0711 94.6789 22.164 94.3363 22.1688C93.6512 22.178 92.9658 22.1763 92.2804 22.1774C91.6505 22.1786 91.0209 22.1774 90.3911 22.1774C90.3911 22.1758 90.3911 22.1741 90.3911 22.1721V22.1724Z" fill="white"/>
<path d="M90.4141 26.0722C89.1269 26.0722 87.84 26.0724 86.5528 26.0716C86.4605 26.0716 86.3661 26.0727 86.2763 26.054C86.0916 26.0155 86.0071 25.9164 86.0057 25.7235C86.0013 25.1093 85.9999 24.4954 86.0057 23.8812C86.0082 23.6258 86.1391 23.487 86.3888 23.453C86.48 23.4404 86.5736 23.4424 86.6661 23.4424C89.1477 23.4415 91.6294 23.4407 94.111 23.4413C94.6381 23.4413 94.7686 23.5741 94.7698 24.1015C94.7706 24.5574 94.7611 25.0135 94.7714 25.4691C94.7848 26.059 94.6281 26.0777 94.1641 26.0761C92.9141 26.0719 91.6638 26.0747 90.4138 26.0747C90.4138 26.0738 90.4138 26.0727 90.4138 26.0719L90.4141 26.0722Z" fill="white"/>
<path d="M134.112 7.76807C135.362 7.76807 136.611 7.76667 137.861 7.76863C138.394 7.76947 138.452 7.82949 138.452 8.35684C138.452 8.86856 138.452 9.38028 138.448 9.89172C138.445 10.2407 138.358 10.3367 138.015 10.375C137.915 10.3861 137.812 10.3856 137.71 10.3856C135.285 10.3861 132.859 10.3861 130.433 10.3856C130.313 10.3856 130.192 10.3872 130.072 10.3741C129.813 10.3454 129.693 10.2407 129.688 9.98496C129.676 9.37134 129.677 8.75689 129.687 8.14327C129.691 7.89956 129.803 7.79515 130.057 7.78035C130.343 7.7636 130.631 7.76556 130.918 7.765C131.982 7.7636 133.047 7.76444 134.112 7.76444V7.76779L134.112 7.76807Z" fill="white"/>
<path d="M90.3574 18.2643C89.1266 18.2643 87.8958 18.2643 86.665 18.2643C86.5725 18.2643 86.4797 18.2649 86.3874 18.259C86.1046 18.2403 86.0054 18.1421 86.0037 17.8612C86.0004 17.2755 86.0004 16.6895 86.0046 16.1038C86.0068 15.8065 86.1443 15.6616 86.443 15.6454C86.6739 15.6329 86.9056 15.6373 87.137 15.6371C89.4045 15.6365 91.6716 15.6359 93.939 15.6384C94.086 15.6384 94.2366 15.6463 94.3788 15.6792C94.6753 15.7479 94.7634 15.8609 94.7675 16.1661C94.7734 16.6217 94.7697 17.0773 94.7697 17.5329C94.7697 17.663 94.7742 17.7936 94.767 17.9235C94.7553 18.1384 94.6781 18.2255 94.4655 18.2515C94.3374 18.2674 94.2069 18.2671 94.0777 18.2671C92.8377 18.2682 91.5974 18.2677 90.3574 18.2677V18.2643Z" fill="white"/>
<path d="M134.103 11.6762C135.344 11.6762 136.584 11.6756 137.825 11.677C137.945 11.677 138.067 11.6804 138.184 11.7007C138.378 11.7342 138.441 11.7993 138.444 12.0008C138.451 12.6427 138.454 13.2847 138.448 13.9266C138.445 14.1627 138.358 14.235 138.088 14.2468C137.644 14.266 137.2 14.2872 136.756 14.2884C135.108 14.2931 133.46 14.2937 131.811 14.2884C131.238 14.2864 130.666 14.2663 130.093 14.2473C129.794 14.2376 129.692 14.144 129.687 13.84C129.675 13.2448 129.677 12.6491 129.684 12.0539C129.687 11.8071 129.786 11.7069 130.048 11.6898C130.343 11.6706 130.64 11.6714 130.936 11.6709C131.991 11.6689 133.047 11.67 134.103 11.67V11.6756V11.6762Z" fill="white"/>
<path d="M118.915 26.0758C117.656 26.0758 116.396 26.0766 115.137 26.0755C114.587 26.075 114.552 26.0387 114.552 25.4934C114.553 24.9538 114.552 24.4142 114.556 23.8745C114.558 23.573 114.666 23.4566 114.972 23.4457C115.258 23.4357 115.546 23.4429 115.833 23.4429C118.074 23.4424 120.315 23.4415 122.556 23.4424C122.694 23.4424 122.835 23.4415 122.971 23.4633C123.16 23.4937 123.23 23.5697 123.232 23.764C123.239 24.4245 123.241 25.0853 123.233 25.7458C123.23 25.9982 123.163 26.059 122.915 26.0669C122.573 26.0777 122.23 26.0775 121.887 26.0777C120.896 26.0789 119.905 26.0783 118.915 26.0783V26.0761L118.915 26.0758Z" fill="white"/>
<path d="M118.921 22.1719C117.653 22.1719 116.385 22.1685 115.117 22.1733C114.555 22.1755 114.546 22.0577 114.553 21.5968C114.561 21.0482 114.553 20.4994 114.556 19.9508C114.558 19.6705 114.655 19.5608 114.936 19.5516C115.389 19.5368 115.843 19.5354 116.296 19.5354C118.36 19.5348 120.423 19.5365 122.487 19.5382C122.617 19.5382 122.747 19.5373 122.876 19.5493C123.14 19.5739 123.235 19.6733 123.237 19.9416C123.242 20.5552 123.243 21.1691 123.237 21.7827C123.233 22.1068 123.17 22.1691 122.836 22.1702C121.531 22.1738 120.226 22.1716 118.921 22.1716V22.1719Z" fill="white"/>
<path d="M118.895 18.2643C117.655 18.2643 116.415 18.2643 115.175 18.2643C115.129 18.2643 115.083 18.2643 115.036 18.2635C114.611 18.2565 114.556 18.202 114.555 17.7755C114.554 17.2085 114.553 16.6412 114.556 16.0742C114.558 15.7894 114.642 15.6943 114.922 15.6513C115.004 15.6387 115.088 15.6401 115.172 15.6401C117.642 15.6384 120.112 15.6376 122.583 15.637C122.657 15.637 122.731 15.6379 122.804 15.6476C123.183 15.6973 123.238 15.7601 123.239 16.1443C123.24 16.6836 123.24 17.2227 123.238 17.7621C123.238 17.8548 123.234 17.9483 123.222 18.0398C123.205 18.1655 123.131 18.2425 123.002 18.2515C122.864 18.2609 122.725 18.2668 122.586 18.2668C121.356 18.2679 120.125 18.2674 118.894 18.2674V18.2643H118.895Z" fill="white"/>
<path d="M162.596 33.7734C161.346 33.7734 160.096 33.7747 158.846 33.7728C158.331 33.772 158.239 33.6871 158.241 33.174C158.244 32.6355 158.261 32.0967 158.284 31.5587C158.296 31.2603 158.357 31.2106 158.658 31.2014C158.88 31.1944 159.102 31.1972 159.325 31.1952C160.907 31.1821 162.49 31.1623 164.072 31.1586C164.896 31.157 165.719 31.184 166.542 31.1986C166.598 31.1997 166.654 31.2016 166.708 31.2103C166.895 31.2402 166.955 31.2946 166.963 31.4797C166.981 31.8789 166.993 32.2787 166.996 32.6782C166.998 32.9289 166.978 33.1796 166.968 33.4303C166.957 33.6729 166.923 33.7139 166.677 33.7505C166.568 33.7667 166.456 33.772 166.345 33.772C165.096 33.7734 163.846 33.7728 162.596 33.7731L162.596 33.7734Z" fill="white"/>
<path d="M134.084 27.2899C135.352 27.2899 136.619 27.2882 137.887 27.2907C138.424 27.2916 138.448 27.3189 138.448 27.8611C138.449 28.3725 138.45 28.884 138.448 29.3951C138.446 29.7952 138.38 29.8658 137.977 29.8666C135.978 29.8711 133.98 29.8728 131.981 29.8739C131.435 29.8742 130.889 29.8703 130.343 29.868C130.297 29.868 130.251 29.868 130.204 29.8669C129.782 29.8549 129.685 29.7575 129.683 29.3304C129.68 28.8281 129.682 28.3262 129.682 27.824C129.682 27.7776 129.682 27.7307 129.686 27.6846C129.713 27.3926 129.809 27.2986 130.114 27.2944C130.678 27.2863 131.243 27.2865 131.808 27.2854C132.566 27.284 133.325 27.2852 134.084 27.2852V27.2893V27.2899Z" fill="white"/>
<path d="M134.105 23.3888C135.384 23.3888 136.662 23.3888 137.94 23.3888C138.004 23.3888 138.07 23.3879 138.134 23.3935C138.371 23.4142 138.446 23.4842 138.449 23.7268C138.455 24.341 138.455 24.9552 138.449 25.5694C138.446 25.8524 138.342 25.9563 138.058 25.9644C137.688 25.975 137.317 25.9714 136.947 25.9714C134.78 25.9708 132.612 25.9697 130.445 25.968C130.316 25.968 130.185 25.9691 130.057 25.9577C129.812 25.9359 129.708 25.834 129.688 25.5875C129.675 25.4208 129.68 25.2528 129.68 25.0853C129.679 24.7224 129.678 24.3594 129.681 23.9965C129.684 23.4683 129.756 23.3918 130.272 23.3899C131.457 23.3851 132.642 23.3843 133.828 23.3818C133.92 23.3818 134.013 23.3818 134.106 23.3818V23.3888H134.105Z" fill="white"/>
<path d="M90.3933 4.00511C91.6146 4.00511 92.8363 4.00511 94.0577 4.00511C94.141 4.00511 94.2246 4.01321 94.3074 4.00734C94.6011 3.98696 94.7578 4.07239 94.7667 4.48221C94.7786 5.03972 94.7728 5.59806 94.7678 6.15584C94.7653 6.44451 94.6564 6.56315 94.3652 6.57627C94.0235 6.59191 93.6806 6.58884 93.3383 6.58884C91.1173 6.58884 88.8966 6.58772 86.6756 6.58604C86.5552 6.58604 86.4344 6.58576 86.3152 6.57208C86.1243 6.55059 86.0226 6.43808 86.0032 6.24434C86.0004 6.2167 86.0007 6.1885 86.001 6.16059C86.0012 5.59331 85.9987 5.02632 86.0035 4.45904C86.0065 4.10645 86.0946 4.01349 86.4513 4.0093C87.1732 4.00092 87.895 4.00344 88.6165 4.0026C89.2089 4.00176 89.8009 4.0026 90.3933 4.0026V4.00539V4.00511Z" fill="white"/>
<path d="M90.3797 7.90958C91.611 7.90958 92.8421 7.90958 94.0735 7.90958C94.1752 7.90958 94.2774 7.90986 94.3788 7.91572C94.6545 7.93163 94.7584 8.03214 94.7664 8.31689C94.7756 8.64212 94.7695 8.96792 94.7698 9.29343C94.7698 9.5539 94.7736 9.81436 94.7678 10.0748C94.7617 10.3417 94.6914 10.4218 94.4291 10.4606C94.3016 10.4796 94.171 10.4855 94.0418 10.4855C91.6071 10.4866 89.1725 10.4863 86.7378 10.4849C86.5992 10.4849 86.4594 10.483 86.3224 10.4646C86.1041 10.435 86.0071 10.3339 86.0049 10.1159C85.9985 9.49276 85.9985 8.86937 86.0043 8.24626C86.0065 8.00953 86.0849 7.93778 86.3255 7.91852C86.4361 7.90958 86.5475 7.91098 86.6586 7.91098C87.8991 7.91042 89.1397 7.9107 90.3802 7.9107V7.9093L90.3797 7.90958Z" fill="white"/>
<path d="M134.077 31.1966C135.353 31.1966 136.63 31.1949 137.907 31.1974C138.416 31.1986 138.447 31.2329 138.448 31.7312C138.449 32.2611 138.451 32.791 138.448 33.3208C138.445 33.684 138.376 33.7605 138.006 33.7686C137.442 33.7812 136.878 33.7823 136.313 33.782C134.315 33.7806 132.317 33.777 130.318 33.772C130.19 33.7717 130.059 33.763 129.934 33.7354C129.779 33.7013 129.701 33.588 129.699 33.4344C129.693 32.8873 129.688 32.3404 129.684 31.7932C129.683 31.7189 129.681 31.6438 129.689 31.5704C129.718 31.3044 129.812 31.21 130.08 31.2033C130.46 31.1938 130.839 31.1941 131.218 31.1935C132.171 31.1924 133.124 31.1933 134.077 31.1933V31.1969L134.077 31.1966Z" fill="white"/>
<path d="M162.615 27.2894C163.855 27.2894 165.095 27.2894 166.335 27.2894C166.381 27.2894 166.427 27.2894 166.474 27.2899C166.921 27.2955 166.96 27.3234 166.968 27.7832C166.978 28.3678 166.972 28.9529 166.966 29.5378C166.963 29.7709 166.903 29.829 166.67 29.8558C166.569 29.8672 166.467 29.8678 166.366 29.8678C163.849 29.8683 161.332 29.8689 158.815 29.8678C158.351 29.8678 158.274 29.808 158.247 29.3502C158.226 28.9892 158.245 28.6257 158.246 28.2634C158.246 28.162 158.246 28.0607 158.246 27.9594C158.245 27.8575 158.231 27.7539 158.244 27.6537C158.279 27.3868 158.374 27.2989 158.646 27.2949C159.182 27.2871 159.719 27.2871 160.256 27.2863C161.042 27.2852 161.829 27.286 162.615 27.286V27.2894H162.615Z" fill="white"/>
<path d="M90.3583 2.68186C89.09 2.68186 87.8216 2.68325 86.5533 2.68102C86.0518 2.68018 86.001 2.62519 86.0018 2.11375C86.0024 1.60203 86.0026 1.09059 86.0071 0.578866C86.0104 0.209244 86.0982 0.120745 86.4727 0.120187C88.8891 0.117116 91.3051 0.11628 93.7215 0.114884C93.9343 0.114884 94.1477 0.110975 94.3599 0.121025C94.6072 0.13275 94.6656 0.195843 94.6758 0.44598C94.6828 0.613203 94.6708 0.781264 94.6828 0.947928C94.6959 1.13134 94.7336 1.31308 94.7473 1.4965C94.7706 1.80973 94.8139 2.12296 94.7086 2.43395C94.6481 2.61262 94.5375 2.68046 94.3574 2.68018C93.9037 2.67879 93.4503 2.68688 92.9966 2.68772C92.1173 2.68912 91.2376 2.68828 90.3583 2.68828C90.3583 2.68604 90.3583 2.68409 90.3583 2.68186Z" fill="white"/>
<path d="M134.146 35.0668C135.33 35.0668 136.515 35.0651 137.699 35.0687C137.865 35.0693 138.032 35.088 138.195 35.1159C138.372 35.1463 138.441 35.2178 138.443 35.3973C138.449 35.9922 138.447 36.5874 138.439 37.1823C138.437 37.3557 138.345 37.4858 138.167 37.5229C137.988 37.5603 137.806 37.6069 137.625 37.6072C135.293 37.6128 132.961 37.6136 130.629 37.6067C130.393 37.6058 130.156 37.5447 129.92 37.5134C129.802 37.4978 129.783 37.4121 129.763 37.3158C129.641 36.7284 129.681 36.1338 129.686 35.5416C129.689 35.2203 129.833 35.0972 130.095 35.0964C130.715 35.0947 131.334 35.0685 131.953 35.0629C132.684 35.0564 133.415 35.0615 134.146 35.0615V35.0668Z" fill="white"/>
<path d="M118.92 4.0065C120.197 4.0065 121.475 4.00482 122.753 4.00733C123.223 4.00845 123.235 4.02241 123.236 4.49365C123.238 5.0612 123.24 5.62848 123.236 6.19603C123.234 6.51513 123.188 6.56845 122.865 6.5785C122.457 6.59106 122.05 6.58883 121.643 6.58855C119.504 6.58855 117.365 6.58715 115.227 6.58548C115.088 6.58548 114.948 6.58548 114.811 6.56956C114.624 6.54807 114.56 6.48861 114.559 6.30184C114.553 5.63211 114.553 4.96238 114.559 4.29265C114.561 4.10393 114.624 4.04558 114.81 4.02157C114.938 4.0051 115.069 4.00454 115.198 4.00454C116.439 4.00343 117.679 4.00398 118.92 4.00398V4.0065Z" fill="white"/>
<path d="M118.899 2.68127C117.622 2.68127 116.345 2.68295 115.068 2.68043C114.567 2.67932 114.555 2.66285 114.555 2.16062C114.556 1.60284 114.555 1.04477 114.56 0.486988C114.563 0.185204 114.613 0.127138 114.918 0.122113C115.603 0.111226 116.288 0.110107 116.972 0.110107C118.878 0.110387 120.784 0.11346 122.691 0.115693C123.185 0.116251 123.233 0.163431 123.235 0.652817C123.236 1.19217 123.238 1.73125 123.236 2.27061C123.235 2.63437 123.2 2.67597 122.841 2.6768C121.527 2.68071 120.213 2.6782 118.899 2.6782V2.68071V2.68127Z" fill="white"/>
<path d="M118.93 7.91072C120.18 7.91072 121.429 7.9082 122.678 7.91183C123.24 7.91351 123.24 7.91937 123.239 8.49111C123.239 9.02098 123.24 9.55084 123.237 10.081C123.235 10.4193 123.195 10.4665 122.853 10.4791C122.483 10.4925 122.112 10.49 121.742 10.49C119.587 10.4897 117.431 10.4883 115.275 10.4855C115.118 10.4855 114.96 10.4813 114.804 10.4598C114.603 10.4316 114.56 10.3889 114.559 10.1921C114.553 9.53214 114.552 8.8719 114.559 8.21194C114.561 8.00675 114.623 7.94533 114.823 7.92495C114.979 7.90904 115.137 7.91016 115.294 7.90988C116.506 7.90876 117.718 7.90932 118.93 7.90932V7.91044L118.93 7.91072Z" fill="white"/>
<path d="M162.627 35.0651C163.885 35.0651 165.143 35.0651 166.401 35.0651C166.42 35.0651 166.438 35.0642 166.457 35.0648C166.898 35.0757 166.968 35.1463 166.968 35.5902C166.969 36.1014 166.968 36.6125 166.965 37.1237C166.964 37.4322 166.941 37.4676 166.633 37.5282C166.417 37.5706 166.197 37.6069 165.978 37.6075C163.768 37.6131 161.557 37.6142 159.346 37.6067C159.063 37.6055 158.779 37.5544 158.498 37.5129C158.336 37.4888 158.249 37.3543 158.242 37.1335C158.234 36.8641 158.24 36.5944 158.24 36.325C158.24 36.0648 158.236 35.8043 158.24 35.5441C158.246 35.2128 158.357 35.0958 158.688 35.0679C158.78 35.0601 158.872 35.062 158.965 35.0617C160.186 35.0615 161.407 35.0617 162.628 35.0617V35.0651H162.627Z" fill="white"/>
</svg>
