<svg width="185" height="57" viewBox="0 0 185 57" fill="none" xmlns="http://www.w3.org/2000/svg">
<g clip-path="url(#clip0_530_316)">
<path d="M63.39 28C63.3365 26.6808 63.5448 25.3642 64.0027 24.1259C64.4607 22.8876 65.1594 21.7523 66.0584 20.7855C66.9574 19.8186 68.0389 19.0393 69.2406 18.4926C70.4424 17.9458 71.7404 17.6425 73.06 17.6H73.47C78.57 17.6 81.58 20.6 82.47 24.11L79.3 25.17C79.0152 23.862 78.2697 22.7 77.1994 21.896C76.1292 21.0919 74.8056 20.6994 73.47 20.79C70.17 20.79 66.86 23.2 66.86 28.06C66.86 32.92 70.09 35.24 73.51 35.24C74.8522 35.2767 76.1679 34.8621 77.2466 34.0626C78.3253 33.2631 79.1047 32.1248 79.46 30.83L82.57 31.83C82.0332 33.8052 80.8391 35.5384 79.1848 36.7437C77.5304 37.949 75.5147 38.5544 73.47 38.46C70.8433 38.5082 68.3049 37.5114 66.4129 35.6887C64.5208 33.8661 63.4299 31.3667 63.38 28.74C63.37 28.5 63.38 28.25 63.39 28Z" fill="white"/>
<path d="M88.74 38H85.46V17.54H88.74V25.54C89.2162 24.9752 89.815 24.5267 90.4909 24.2286C91.1668 23.9305 91.9019 23.7908 92.64 23.82C96.03 23.82 97.64 26.25 97.64 29.28V38H94.48V29.86C94.5747 29.1661 94.3929 28.4628 93.9739 27.9016C93.5549 27.3404 92.9322 26.9664 92.24 26.86C92.0438 26.8399 91.8462 26.8399 91.65 26.86C90.8915 26.86 90.164 27.1613 89.6277 27.6977C89.0913 28.234 88.79 28.9615 88.79 29.72C88.785 29.8033 88.785 29.8867 88.79 29.97L88.74 38Z" fill="white"/>
<path d="M105 30.12L108.52 29.57C109.32 29.47 109.52 29.06 109.52 28.57C109.52 27.41 108.74 26.48 106.92 26.48C106.233 26.4244 105.551 26.6421 105.023 27.0858C104.495 27.5294 104.164 28.1633 104.1 28.85V29L101.1 28.33C101.35 25.95 103.51 23.83 106.89 23.83C111.13 23.83 112.74 26.23 112.74 29.03V35.86C112.737 36.6001 112.793 37.3392 112.91 38.07H109.91C109.802 37.4899 109.758 36.8997 109.78 36.31C109.325 37.0108 108.693 37.58 107.95 37.9607C107.206 38.3415 106.375 38.5205 105.54 38.48C104.4 38.5741 103.269 38.2122 102.395 37.4736C101.522 36.7349 100.977 35.6799 100.88 34.54C100.88 34.47 100.88 34.4 100.88 34.34C100.83 31.81 102.64 30.45 105 30.12ZM109.54 32.33V31.7L105.95 32.24C105.463 32.2555 105 32.4587 104.659 32.8071C104.318 33.1556 104.125 33.6224 104.12 34.11C104.124 34.3516 104.176 34.59 104.273 34.8113C104.37 35.0327 104.51 35.2325 104.685 35.3991C104.86 35.5657 105.066 35.6958 105.292 35.7818C105.518 35.8678 105.758 35.908 106 35.9H106.15C106.559 35.9428 106.973 35.9043 107.367 35.7865C107.762 35.6688 108.129 35.4742 108.448 35.2139C108.767 34.9536 109.031 34.6329 109.225 34.2701C109.419 33.9073 109.54 33.5096 109.58 33.1C109.594 32.8423 109.577 32.5837 109.53 32.33H109.54Z" fill="white"/>
<path d="M118.32 17.26C118.602 17.256 118.882 17.3078 119.144 17.4123C119.405 17.5168 119.644 17.6721 119.846 17.8691C120.047 18.066 120.208 18.3009 120.319 18.5602C120.429 18.8195 120.487 19.0981 120.49 19.38C120.49 19.802 120.365 20.2145 120.131 20.5657C119.897 20.917 119.565 21.1913 119.176 21.3541C118.786 21.5169 118.358 21.561 117.943 21.4808C117.529 21.4006 117.148 21.1998 116.847 20.9035C116.547 20.6072 116.341 20.2287 116.255 19.8156C116.169 19.4025 116.207 18.9732 116.364 18.5816C116.522 18.1901 116.791 17.8539 117.139 17.6152C117.487 17.3764 117.898 17.2459 118.32 17.24V17.26ZM116.72 38.06V24.24H120V38L116.72 38.06Z" fill="white"/>
<path d="M127.47 38H124.2V24.24H127.39V26.07C127.806 25.3673 128.403 24.7895 129.119 24.3971C129.835 24.0047 130.644 23.8123 131.46 23.84C134.82 23.84 136.46 26.27 136.46 29.3V38H133.19V29.86C133.19 28.17 132.42 26.8 130.36 26.8C129.979 26.8026 129.603 26.8802 129.252 27.0284C128.901 27.1766 128.583 27.3924 128.315 27.6635C128.048 27.9347 127.836 28.2558 127.693 28.6087C127.55 28.9615 127.477 29.3392 127.48 29.72C127.48 29.83 127.48 29.94 127.48 30.05L127.47 38Z" fill="white"/>
<path d="M140.42 38V17.54H143.7V38H140.42Z" fill="white"/>
<path d="M149.55 17.26C149.972 17.258 150.385 17.3815 150.737 17.6148C151.089 17.8481 151.363 18.1806 151.526 18.5703C151.688 18.9599 151.731 19.389 151.65 19.8031C151.568 20.2172 151.365 20.5976 151.066 20.8961C150.768 21.1946 150.387 21.3977 149.973 21.4795C149.559 21.5614 149.13 21.5184 148.74 21.3559C148.351 21.1935 148.018 20.9189 147.785 20.5671C147.552 20.2153 147.428 19.8021 147.43 19.38C147.435 18.8194 147.66 18.2832 148.057 17.8867C148.453 17.4902 148.989 17.2652 149.55 17.26ZM147.94 38.06V24.24H151.19V38L147.94 38.06Z" fill="white"/>
<path d="M158.71 38H155.43V24.24H158.62V26.07C159.037 25.368 159.634 24.7908 160.35 24.3985C161.066 24.0062 161.874 23.8134 162.69 23.84C166.05 23.84 167.69 26.27 167.69 29.3V38H164.41V29.86C164.505 29.1661 164.323 28.4628 163.904 27.9016C163.485 27.3404 162.862 26.9664 162.17 26.86C161.971 26.8399 161.77 26.8399 161.57 26.86C160.806 26.8679 160.076 27.1769 159.539 27.7199C159.001 28.2629 158.7 28.996 158.7 29.76C158.69 29.8764 158.69 29.9936 158.7 30.11L158.71 38Z" fill="white"/>
<path d="M178.88 30.05L184.65 38.05H180.65L176.65 32.38L174.96 34.16V38H171.71V17.54H174.96V29.8L180.24 24.24H184.59L178.88 30.05Z" fill="white"/>
<path d="M24.56 12L38.74 20.14V36.5L24.6 44.69L10.43 36.57V20.22L24.56 12ZM24.56 0L19.36 3L5.2 11.22L0 14.22V42.59L5.2 45.59L19.38 53.73L24.58 56.73L29.78 53.73L43.91 45.53L49.11 42.53V14.12L43.91 11.12L29.74 3L24.54 0H24.56Z" fill="white"/>
</g>
<defs>
<clipPath id="clip0_530_316">
<rect width="184.65" height="56.71" fill="white"/>
</clipPath>
</defs>
</svg>
