<?xml version="1.0" encoding="utf-8"?>
<!-- Generator: Adobe Illustrator 26.5.0, SVG Export Plug-In . SVG Version: 6.00 Build 0)  -->
<svg version="1.1" id="Layer_1" xmlns="http://www.w3.org/2000/svg" xmlns:xlink="http://www.w3.org/1999/xlink" x="0px" y="0px"
	 viewBox="0 0 1200 300" style="enable-background:new 0 0 1200 300;" xml:space="preserve">
<style type="text/css">
	.st0{fill:#FFFFFF;}
</style>
<g id="XMLID_837_">
	<path id="XMLID_844_" class="st0" d="M406.7,159.8v-6.9c0-19.9,6.7-32.2,23.1-32.2c13.8,0,20.3,8.6,20.3,22h26.5V138
		c0-23.1-15.1-41.7-47.5-41.7c-35.2,0-50.5,23.7-50.5,56.5v6.9c0,32.6,15.3,56.5,50.5,56.5c32.4,0,47.5-18.1,47.5-39.9v-4.5H450
		c0,11.2-6,19.9-20.3,19.9C413.4,191.7,406.7,179.4,406.7,159.8z M543.8,216.3c35.8,0,51.8-24,51.8-56.5v-6.9
		c0-32.8-16-56.5-51.8-56.5S492,120.1,492,152.9v6.9C492,192.4,508,216.3,543.8,216.3z M543.8,191.7c-16.4,0-23.7-12.3-23.7-31.9
		v-6.9c0-19.9,7.3-32.2,23.7-32.2s23.7,12.3,23.7,32.2v6.9C567.5,179.4,560.2,191.7,543.8,191.7z M713.8,213.5v-78.3
		c0-20.7-10.1-38.9-35.2-38.9c-18.1,0-30,7.6-37.1,17.9l-2.6-15.1h-24.8l1.9,32.4v82h28.1v-79.6c3.2-5.4,10.6-13.2,23.7-13.2
		c12.7,0,18.1,8,18.1,19v73.8H713.8z M835.4,213.5v-78.3c0-20.7-10.1-38.9-35.2-38.9c-18.1,0-30,7.6-37.1,17.9l-2.6-15.1h-24.8
		l1.9,32.4v82h28.1v-79.6c3.2-5.4,10.6-13.2,23.7-13.2c12.7,0,18.1,8,18.1,19v73.8H835.4z M958.1,166.7v-13.2
		c0-32.6-16-57.2-51.2-57.2c-35.4,0-52.4,24.6-52.4,57.2v5.6c0,32.6,16.6,57.2,53.5,57.2c32.8,0,50.1-18.1,50.1-38.6v-0.9h-26.5
		c0,8.6-8,17.7-23.3,17.7c-16,0-24.6-9.1-25.7-27.8L958.1,166.7L958.1,166.7z M906.3,118.1c15.3,0,22.7,9.7,23.5,27.8h-47.3
		C883.7,127.8,891.2,118.1,906.3,118.1z M970.2,99.1l31.1,55.9l-31.1,58.5h31.9l21.6-44l21.8,44h31.9l-31.1-58.5l31.1-55.9h-32.6
		l-20.9,41.2l-21.2-41.2C1002.7,99.1,970.2,99.1,970.2,99.1z M1132.1,99.1V66.8H1104v32.4h-47.5v24.6h47.5v52.4
		c0,29.6,16.4,40.1,39.9,40.1c10.1,0,16-1.9,17.7-2.8v-23.3c-1.3,0.6-6.9,1.5-11,1.5c-11.7,0-18.6-3.2-18.6-18.6v-49.4h31.7V99.1
		H1132.1z"/>
	<path id="XMLID_2_" class="st0" d="M174.7,98.4l-27.3-27.3L131,54.7l0.2-0.2c-6.5-6.5-15.8-10.1-24.8-1.1
		c-7.9,7.9-5.3,16.6-0.6,22.5l-48.7,48.3c-20.1,20.5-12.2,41.4,1.8,55.4L99.2,220c3.6,3.6,17.6,18.3,28.8,6.8
		c6.5-6.5,5-16.5,1.4-20.5l-46.4-46c-8.3-8.3-4.3-15.8,4-23.7L126.5,97l24.8,24.8c8.6,8.6,19.4,11.9,28.4,2.9
		C188.7,115.7,183.3,107,174.7,98.4z"/>
	<path id="XMLID_3_" class="st0" d="M281.2,117.5l-40.3-39.9c-3.6-3.6-17.6-18.3-28.8-6.8c-6.5,6.5-5,16.5-1.4,20.5l46.4,46
		c8.3,8.3,4.3,15.8-4,23.7l-39.6,39.6l-24.8-24.8c-8.6-8.6-19.4-11.9-28.4-2.9s-3.6,17.6,5,26.3l27.3,27.3l16.4,16.4l-0.2,0.2
		c6.5,6.5,15.8,10.4,24.8,1.4c8-8,5.2-16.8,0.4-22.7l48.9-48.9C303.5,152.4,295.6,131.5,281.2,117.5z"/>
</g>
</svg>
