<svg width="167" height="31" viewBox="0 0 167 31" fill="none" xmlns="http://www.w3.org/2000/svg">
<path d="M0 4.88648C0 2.18775 2.18775 0 4.88647 0C7.58517 0 9.77291 2.18775 9.77291 4.88647V6.6745C9.77291 9.88188 12.373 12.482 15.5805 12.482H18.4155C20.0571 12.482 21.388 13.8128 21.388 15.4544C21.388 17.0961 20.0571 18.4269 18.4155 18.4269H15.5805C12.373 18.4269 9.77291 21.027 9.77291 24.2344V26.068C9.77291 28.7667 7.58517 30.9544 4.88647 30.9544C2.18775 30.9544 0 28.7667 0 26.068V4.88648Z" fill="white"/>
<path d="M22.5464 0H15.7359C14.8931 0 14.2098 0.683253 14.2098 1.52608C14.2098 3.89493 14.8248 5.61083 16.0548 6.67377C17.5581 7.96449 20.3673 8.60982 24.4824 8.60982C25.7907 8.60982 26.8513 7.54929 26.8513 6.241V4.30492C26.8513 1.92738 24.9239 0 22.5464 0Z" fill="white"/>
<path d="M19.6535 22.3902C16.0092 23.5138 14.187 25.6473 14.187 28.7906C14.187 30.0108 15.1761 31 16.3964 31H22.2274C24.7811 31 26.8512 28.9299 26.8512 26.3762V23.5518C26.8512 22.558 26.0455 21.7524 25.0518 21.7524C22.85 21.7524 21.0506 21.9649 19.6535 22.3902Z" fill="white"/>
<path d="M52.4321 20.3721V23H43.7285V20.3721H52.4321ZM44.8291 6.64844V23H41.46V6.64844H44.8291ZM51.2979 13.3081V15.8687H43.7285V13.3081H51.2979ZM52.4209 6.64844V9.2876H43.7285V6.64844H52.4209ZM57.6094 5.75V23H54.3638V5.75H57.6094ZM66.8408 20.2598V14.8467C66.8408 14.4574 66.7772 14.1242 66.6499 13.8472C66.5226 13.5627 66.3242 13.3418 66.0547 13.1846C65.7926 13.0273 65.452 12.9487 65.0327 12.9487C64.6733 12.9487 64.3626 13.0124 64.1006 13.1396C63.8385 13.2594 63.6364 13.4354 63.4941 13.6675C63.3519 13.8921 63.2808 14.1579 63.2808 14.4648H60.0464C60.0464 13.9482 60.1662 13.4578 60.4058 12.9937C60.6453 12.5295 60.9935 12.1214 61.4502 11.7695C61.9069 11.4102 62.4497 11.1294 63.0786 10.9272C63.715 10.7251 64.4263 10.624 65.2124 10.624C66.1558 10.624 66.9943 10.7812 67.728 11.0957C68.4618 11.4102 69.0382 11.8818 69.4575 12.5107C69.8843 13.1396 70.0977 13.9258 70.0977 14.8691V20.0688C70.0977 20.7352 70.1388 21.2817 70.2212 21.7085C70.3035 22.1278 70.4233 22.4946 70.5806 22.8091V23H67.3125C67.1553 22.6706 67.0355 22.2588 66.9531 21.7646C66.8783 21.263 66.8408 20.7614 66.8408 20.2598ZM67.2676 15.5991L67.29 17.4297H65.4819C65.0552 17.4297 64.6846 17.4784 64.3701 17.5757C64.0557 17.673 63.7974 17.8115 63.5952 17.9912C63.3931 18.1634 63.2433 18.3656 63.146 18.5977C63.0562 18.8298 63.0112 19.0843 63.0112 19.3613C63.0112 19.6383 63.0749 19.8892 63.2021 20.1138C63.3294 20.3309 63.5129 20.5031 63.7524 20.6304C63.992 20.7502 64.2728 20.8101 64.5947 20.8101C65.0814 20.8101 65.5044 20.7127 65.8638 20.5181C66.2231 20.3234 66.5002 20.0838 66.6948 19.7993C66.897 19.5148 67.0018 19.2453 67.0093 18.9907L67.8628 20.3608C67.743 20.6678 67.5783 20.986 67.3687 21.3154C67.1665 21.6449 66.9082 21.9556 66.5938 22.2476C66.2793 22.5321 65.9012 22.7679 65.4595 22.9551C65.0177 23.1348 64.4937 23.2246 63.8872 23.2246C63.116 23.2246 62.416 23.0711 61.7871 22.7642C61.1657 22.4497 60.6715 22.0192 60.3047 21.4727C59.9453 20.9186 59.7656 20.2897 59.7656 19.5859C59.7656 18.9495 59.8854 18.3843 60.125 17.8901C60.3646 17.396 60.7165 16.9805 61.1807 16.6436C61.6523 16.2992 62.2401 16.0409 62.9438 15.8687C63.6476 15.689 64.4637 15.5991 65.3921 15.5991H67.2676ZM79.1606 19.6421C79.1606 19.41 79.0933 19.2004 78.9585 19.0132C78.8237 18.826 78.5729 18.6538 78.2061 18.4966C77.8467 18.3319 77.3263 18.1821 76.645 18.0474C76.0311 17.9126 75.4583 17.7441 74.9268 17.542C74.4027 17.3324 73.946 17.0815 73.5566 16.7896C73.1748 16.4976 72.8753 16.1532 72.6582 15.7563C72.4411 15.3521 72.3325 14.8916 72.3325 14.375C72.3325 13.8659 72.4411 13.3867 72.6582 12.9375C72.8828 12.4883 73.201 12.0915 73.6128 11.7471C74.0321 11.3952 74.5412 11.1219 75.1401 10.9272C75.7466 10.7251 76.4279 10.624 77.1841 10.624C78.2397 10.624 79.1457 10.7925 79.9019 11.1294C80.6655 11.4663 81.2495 11.9305 81.6538 12.522C82.0656 13.106 82.2715 13.7723 82.2715 14.521H79.0371C79.0371 14.2065 78.9697 13.9258 78.835 13.6787C78.7077 13.4242 78.5055 13.2257 78.2285 13.0835C77.959 12.9338 77.6071 12.8589 77.1729 12.8589C76.8135 12.8589 76.5028 12.9225 76.2407 13.0498C75.9787 13.1696 75.7765 13.3343 75.6343 13.5439C75.4995 13.7461 75.4321 13.9707 75.4321 14.2178C75.4321 14.4049 75.4696 14.5734 75.5444 14.7231C75.6268 14.8654 75.7578 14.9964 75.9375 15.1162C76.1172 15.236 76.3493 15.3483 76.6338 15.4531C76.9258 15.5505 77.2852 15.6403 77.7119 15.7227C78.5879 15.9023 79.3703 16.1382 80.0591 16.4302C80.7479 16.7147 81.2944 17.104 81.6987 17.5981C82.103 18.0848 82.3052 18.7249 82.3052 19.5186C82.3052 20.0576 82.1854 20.5518 81.9458 21.001C81.7062 21.4502 81.3618 21.8433 80.9126 22.1802C80.4634 22.5096 79.9243 22.7679 79.2954 22.9551C78.674 23.1348 77.974 23.2246 77.1953 23.2246C76.0648 23.2246 75.1064 23.0225 74.3203 22.6182C73.5417 22.2139 72.9502 21.701 72.5459 21.0796C72.1491 20.4507 71.9507 19.8068 71.9507 19.1479H75.0166C75.0316 19.5897 75.1439 19.9453 75.3535 20.2148C75.5706 20.4844 75.8439 20.679 76.1733 20.7988C76.5103 20.9186 76.8734 20.9785 77.2627 20.9785C77.682 20.9785 78.0301 20.9224 78.3071 20.8101C78.5841 20.6903 78.7938 20.533 78.936 20.3384C79.0858 20.1362 79.1606 19.9041 79.1606 19.6421ZM90.3574 10.8486V13.1396H83.2822V10.8486H90.3574ZM85.0342 7.8501H88.2686V19.3389C88.2686 19.6908 88.3135 19.9603 88.4033 20.1475C88.5007 20.3346 88.6429 20.4657 88.8301 20.5405C89.0173 20.6079 89.2531 20.6416 89.5376 20.6416C89.7397 20.6416 89.9194 20.6341 90.0767 20.6191C90.2414 20.5967 90.3799 20.5742 90.4922 20.5518L90.5034 22.9326C90.2264 23.0225 89.9269 23.0936 89.605 23.146C89.283 23.1984 88.9274 23.2246 88.5381 23.2246C87.8268 23.2246 87.2054 23.1086 86.6738 22.8765C86.1497 22.6369 85.7454 22.255 85.4609 21.731C85.1764 21.2069 85.0342 20.5181 85.0342 19.6646V7.8501ZM95.6133 10.8486V23H92.3677V10.8486H95.6133ZM92.1655 7.68164C92.1655 7.20996 92.3302 6.82064 92.6597 6.51367C92.9891 6.20671 93.4308 6.05322 93.9849 6.05322C94.5314 6.05322 94.9694 6.20671 95.2988 6.51367C95.6357 6.82064 95.8042 7.20996 95.8042 7.68164C95.8042 8.15332 95.6357 8.54264 95.2988 8.84961C94.9694 9.15658 94.5314 9.31006 93.9849 9.31006C93.4308 9.31006 92.9891 9.15658 92.6597 8.84961C92.3302 8.54264 92.1655 8.15332 92.1655 7.68164ZM103.306 20.6978C103.703 20.6978 104.055 20.6229 104.362 20.4731C104.669 20.3159 104.908 20.0988 105.081 19.8218C105.26 19.5373 105.354 19.2041 105.361 18.8223H108.405C108.397 19.6758 108.169 20.4357 107.72 21.1021C107.271 21.7609 106.668 22.2812 105.912 22.6631C105.155 23.0374 104.309 23.2246 103.374 23.2246C102.43 23.2246 101.607 23.0674 100.903 22.7529C100.207 22.4385 99.6263 22.0042 99.1621 21.4502C98.6979 20.8887 98.3498 20.2373 98.1177 19.4961C97.8856 18.7474 97.7695 17.9463 97.7695 17.0928V16.7671C97.7695 15.9061 97.8856 15.105 98.1177 14.3638C98.3498 13.6151 98.6979 12.9637 99.1621 12.4097C99.6263 11.8481 100.207 11.4102 100.903 11.0957C101.599 10.7812 102.415 10.624 103.351 10.624C104.347 10.624 105.219 10.8149 105.968 11.1968C106.724 11.5786 107.315 12.1252 107.742 12.8364C108.176 13.5402 108.397 14.375 108.405 15.3408H105.361C105.354 14.9365 105.268 14.5697 105.103 14.2402C104.946 13.9108 104.714 13.6488 104.407 13.4541C104.107 13.252 103.737 13.1509 103.295 13.1509C102.823 13.1509 102.438 13.252 102.138 13.4541C101.839 13.6488 101.607 13.9183 101.442 14.2627C101.277 14.5996 101.161 14.9852 101.094 15.4194C101.034 15.8462 101.004 16.2954 101.004 16.7671V17.0928C101.004 17.5645 101.034 18.0174 101.094 18.4517C101.154 18.8859 101.266 19.2715 101.431 19.6084C101.603 19.9453 101.839 20.2111 102.138 20.4058C102.438 20.6004 102.827 20.6978 103.306 20.6978ZM118.995 18.7212C118.995 18.4292 118.95 18.1672 118.86 17.9351C118.778 17.6955 118.621 17.4784 118.389 17.2837C118.157 17.0815 117.831 16.8831 117.412 16.6885C116.992 16.4938 116.45 16.2917 115.783 16.082C115.042 15.8424 114.338 15.5729 113.672 15.2734C113.013 14.974 112.429 14.6258 111.92 14.229C111.418 13.8247 111.021 13.3568 110.729 12.8252C110.445 12.2936 110.303 11.6759 110.303 10.9722C110.303 10.2909 110.452 9.67318 110.752 9.11914C111.051 8.55762 111.471 8.07845 112.01 7.68164C112.549 7.27734 113.185 6.96663 113.919 6.74951C114.66 6.53239 115.472 6.42383 116.356 6.42383C117.561 6.42383 118.613 6.64095 119.512 7.0752C120.41 7.50944 121.106 8.10465 121.601 8.86084C122.102 9.61702 122.353 10.4818 122.353 11.4551H119.006C119.006 10.9759 118.905 10.5566 118.703 10.1973C118.508 9.8304 118.209 9.54215 117.805 9.33252C117.408 9.12288 116.906 9.01807 116.3 9.01807C115.716 9.01807 115.229 9.10791 114.84 9.2876C114.451 9.4598 114.159 9.69564 113.964 9.99512C113.769 10.2871 113.672 10.6165 113.672 10.9834C113.672 11.2604 113.739 11.5112 113.874 11.7358C114.016 11.9604 114.226 12.1701 114.503 12.3647C114.78 12.5594 115.121 12.7428 115.525 12.915C115.929 13.0872 116.397 13.2557 116.929 13.4204C117.82 13.6899 118.602 13.9932 119.276 14.3301C119.957 14.667 120.526 15.0451 120.983 15.4644C121.44 15.8836 121.784 16.359 122.016 16.8906C122.248 17.4222 122.364 18.0249 122.364 18.6987C122.364 19.41 122.226 20.0464 121.949 20.6079C121.672 21.1694 121.271 21.6449 120.747 22.0342C120.223 22.4235 119.598 22.7192 118.872 22.9214C118.145 23.1235 117.333 23.2246 116.435 23.2246C115.626 23.2246 114.829 23.1198 114.042 22.9102C113.256 22.693 112.541 22.3674 111.897 21.9331C111.261 21.4989 110.752 20.9448 110.37 20.271C109.988 19.5972 109.797 18.7998 109.797 17.8789H113.178C113.178 18.388 113.256 18.8185 113.414 19.1704C113.571 19.5223 113.792 19.8068 114.076 20.0239C114.368 20.241 114.713 20.3983 115.109 20.4956C115.514 20.5929 115.955 20.6416 116.435 20.6416C117.019 20.6416 117.498 20.5592 117.872 20.3945C118.254 20.2298 118.535 20.0015 118.714 19.7095C118.902 19.4175 118.995 19.0881 118.995 18.7212ZM127.923 19.8555L130.45 10.8486H132.505L131.843 14.3862L129.316 23H127.598L127.923 19.8555ZM126.643 10.8486L128.451 19.8442L128.62 23H126.598L123.521 10.8486H126.643ZM134.819 19.6982L136.582 10.8486H139.715L136.638 23H134.628L134.819 19.6982ZM132.786 10.8486L135.302 19.7881L135.65 23H133.92L131.394 14.3975L130.753 10.8486H132.786ZM147.902 20.2598V14.8467C147.902 14.4574 147.839 14.1242 147.711 13.8472C147.584 13.5627 147.386 13.3418 147.116 13.1846C146.854 13.0273 146.514 12.9487 146.094 12.9487C145.735 12.9487 145.424 13.0124 145.162 13.1396C144.9 13.2594 144.698 13.4354 144.556 13.6675C144.413 13.8921 144.342 14.1579 144.342 14.4648H141.108C141.108 13.9482 141.228 13.4578 141.467 12.9937C141.707 12.5295 142.055 12.1214 142.512 11.7695C142.968 11.4102 143.511 11.1294 144.14 10.9272C144.777 10.7251 145.488 10.624 146.274 10.624C147.217 10.624 148.056 10.7812 148.79 11.0957C149.523 11.4102 150.1 11.8818 150.519 12.5107C150.946 13.1396 151.159 13.9258 151.159 14.8691V20.0688C151.159 20.7352 151.2 21.2817 151.283 21.7085C151.365 22.1278 151.485 22.4946 151.642 22.8091V23H148.374C148.217 22.6706 148.097 22.2588 148.015 21.7646C147.94 21.263 147.902 20.7614 147.902 20.2598ZM148.329 15.5991L148.352 17.4297H146.543C146.117 17.4297 145.746 17.4784 145.432 17.5757C145.117 17.673 144.859 17.8115 144.657 17.9912C144.455 18.1634 144.305 18.3656 144.208 18.5977C144.118 18.8298 144.073 19.0843 144.073 19.3613C144.073 19.6383 144.136 19.8892 144.264 20.1138C144.391 20.3309 144.574 20.5031 144.814 20.6304C145.054 20.7502 145.334 20.8101 145.656 20.8101C146.143 20.8101 146.566 20.7127 146.925 20.5181C147.285 20.3234 147.562 20.0838 147.756 19.7993C147.958 19.5148 148.063 19.2453 148.071 18.9907L148.924 20.3608C148.805 20.6678 148.64 20.986 148.43 21.3154C148.228 21.6449 147.97 21.9556 147.655 22.2476C147.341 22.5321 146.963 22.7679 146.521 22.9551C146.079 23.1348 145.555 23.2246 144.949 23.2246C144.178 23.2246 143.478 23.0711 142.849 22.7642C142.227 22.4497 141.733 22.0192 141.366 21.4727C141.007 20.9186 140.827 20.2897 140.827 19.5859C140.827 18.9495 140.947 18.3843 141.187 17.8901C141.426 17.396 141.778 16.9805 142.242 16.6436C142.714 16.2992 143.302 16.0409 144.005 15.8687C144.709 15.689 145.525 15.5991 146.454 15.5991H148.329ZM156.887 13.1846V27.6719H153.652V10.8486H156.651L156.887 13.1846ZM164.58 16.7896V17.0254C164.58 17.9089 164.475 18.7287 164.265 19.4849C164.063 20.241 163.764 20.8999 163.367 21.4614C162.97 22.0155 162.476 22.4497 161.884 22.7642C161.3 23.0711 160.626 23.2246 159.863 23.2246C159.122 23.2246 158.478 23.0749 157.931 22.7754C157.385 22.4759 156.924 22.0566 156.55 21.5176C156.183 20.971 155.887 20.3384 155.663 19.6196C155.438 18.9009 155.266 18.1297 155.146 17.3062V16.6885C155.266 15.805 155.438 14.9964 155.663 14.2627C155.887 13.5215 156.183 12.8813 156.55 12.3423C156.924 11.7957 157.381 11.3727 157.92 11.0732C158.466 10.7738 159.107 10.624 159.84 10.624C160.611 10.624 161.289 10.77 161.873 11.062C162.465 11.354 162.959 11.7733 163.355 12.3198C163.76 12.8664 164.063 13.5177 164.265 14.2739C164.475 15.0301 164.58 15.8687 164.58 16.7896ZM161.334 17.0254V16.7896C161.334 16.2729 161.289 15.7975 161.199 15.3633C161.117 14.9215 160.982 14.536 160.795 14.2065C160.615 13.8771 160.376 13.6226 160.076 13.4429C159.784 13.2557 159.429 13.1621 159.009 13.1621C158.568 13.1621 158.189 13.2332 157.875 13.3755C157.568 13.5177 157.317 13.7236 157.123 13.9932C156.928 14.2627 156.782 14.5846 156.685 14.959C156.587 15.3333 156.527 15.7563 156.505 16.228V17.7891C156.542 18.3431 156.647 18.841 156.819 19.2827C156.992 19.717 157.257 20.0614 157.617 20.3159C157.976 20.5705 158.448 20.6978 159.032 20.6978C159.458 20.6978 159.818 20.6042 160.11 20.417C160.402 20.2223 160.638 19.9565 160.817 19.6196C161.005 19.2827 161.136 18.8934 161.21 18.4517C161.293 18.0099 161.334 17.5345 161.334 17.0254Z" fill="white"/>
</svg>
