<?xml version="1.0" encoding="utf-8"?>
<!-- Generator: Adobe Illustrator 26.5.0, SVG Export Plug-In . SVG Version: 6.00 Build 0)  -->
<svg version="1.1" id="Layer_1" xmlns="http://www.w3.org/2000/svg" xmlns:xlink="http://www.w3.org/1999/xlink" x="0px" y="0px"
	 viewBox="0 0 41 47" style="enable-background:new 0 0 41 47;" xml:space="preserve">
<style type="text/css">
	.st0{fill:#FFFFFF;}
</style>
<path class="st0" d="M0,7.41C0,3.32,3.32,0,7.41,0c4.09,0,7.41,3.32,7.41,7.41v2.71c0,4.86,3.94,8.8,8.8,8.8h4.3
	c2.49,0,4.51,2.02,4.51,4.51c0,2.49-2.02,4.51-4.51,4.51h-4.3c-4.86,0-8.8,3.94-8.8,8.81v2.78c0,4.09-3.32,7.41-7.41,7.41
	C3.32,46.93,0,43.61,0,39.52V7.41z"/>
<path class="st0" d="M34.18,0H23.86c-1.28,0-2.31,1.04-2.31,2.31c0,3.59,0.93,6.19,2.8,7.8c2.28,1.96,6.54,2.94,12.78,2.94
	c1.98,0,3.59-1.61,3.59-3.59V6.53C40.71,2.92,37.79,0,34.18,0z"/>
<path class="st0" d="M29.8,33.95c-5.53,1.7-8.29,4.94-8.29,9.7c0,1.85,1.5,3.35,3.35,3.35h8.84c3.87,0,7.01-3.14,7.01-7.01v-4.28
	c0-1.51-1.22-2.73-2.73-2.73C34.64,32.98,31.92,33.3,29.8,33.95z"/>
</svg>
