<svg width="121" height="54" viewBox="0 0 121 54" fill="none" xmlns="http://www.w3.org/2000/svg">
<path d="M6.25473 12.5626C6.75432 11.6352 7.47513 10.8446 8.35401 10.2605L23.1012 0L7.99083 24.8949C7.99083 24.8949 6.67064 22.6719 6.15559 21.5471C5.51405 20.1328 5.19044 18.5959 5.20753 17.044C5.22462 15.492 5.5821 13.9624 6.25473 12.5626ZM0.168346 29.7358C0.334876 32.1166 1.00995 34.4343 2.14847 36.5339C3.28683 38.6337 4.86242 40.4666 6.76962 41.9104L23.0814 53.243C23.0814 53.243 12.8757 38.5889 4.26777 24.0071C3.39622 22.4665 2.81035 20.7822 2.53818 19.0347C2.41771 18.2434 2.41771 17.4384 2.53818 16.6471C2.31369 17.0615 1.87808 17.91 1.87808 17.91C1.00523 19.6835 0.410734 21.5801 0.115442 23.5336C-0.0545062 25.5983 -0.0367631 27.6742 0.168346 29.7358ZM41.7564 31.709C41.2282 30.5843 39.9212 28.3611 39.9212 28.3611L24.8373 53.243L39.5845 42.989C40.4633 42.4049 41.1842 41.6144 41.6838 40.6871C42.3564 39.2871 42.7138 37.7576 42.731 36.2057C42.7481 34.6537 42.4245 33.1167 41.7828 31.7024L41.7564 31.709ZM47.7437 23.5137C47.5771 21.1331 46.9021 18.8152 45.7637 16.7156C44.6252 14.616 43.0496 12.7829 41.1424 11.3393L24.857 0C24.857 0 35.056 14.6541 43.6708 29.2359C44.5399 30.777 45.1235 32.4614 45.3937 34.2084C45.5142 34.9997 45.5142 35.8046 45.3937 36.5959C45.6182 36.1815 46.0538 35.3331 46.0538 35.3331C46.9266 33.5595 47.5211 31.6629 47.8163 29.7095C47.9885 27.6449 47.973 25.569 47.7702 23.5072L47.7437 23.5137Z" fill="white"/>
<path d="M75.3325 38.4174H59.8907V13.9429H75.3325V18.5588H63.3776L64.872 17.1641V23.8722H74.1703V28.2556H64.872V35.1962L63.3776 33.8014H75.3325V38.4174Z" fill="white"/>
<path d="M84.3862 38.4174H79.4381V13.9429H84.3862L96.6068 32.4067H95.1124V13.9429H100.027V38.4174H95.1124L82.8586 19.9868H84.3862V38.4174Z" fill="white"/>
<path d="M103.267 20.9498C103.267 19.4887 103.643 18.2046 104.396 17.0977C105.171 15.9686 106.222 15.083 107.551 14.441C108.901 13.799 110.44 13.478 112.167 13.478C113.893 13.478 115.377 13.7879 116.617 14.4078C117.878 15.0055 118.853 15.8579 119.539 16.9648C120.247 18.0718 120.601 19.389 120.601 20.9166H115.653C115.631 19.9868 115.299 19.2562 114.657 18.7249C114.037 18.1935 113.185 17.9279 112.1 17.9279C110.927 17.9279 109.986 18.1825 109.277 18.6917C108.591 19.2008 108.248 19.8982 108.248 20.7838C108.248 21.5808 108.458 22.2007 108.879 22.6434C109.322 23.0641 109.997 23.374 110.905 23.5733L114.657 24.3703C116.805 24.813 118.399 25.5768 119.439 26.6616C120.48 27.7464 121 29.2408 121 31.1447C121 32.6944 120.624 34.056 119.871 35.2293C119.118 36.3806 118.044 37.2772 116.65 37.9192C115.277 38.5391 113.661 38.849 111.801 38.849C110.03 38.849 108.469 38.5502 107.119 37.9524C105.791 37.3325 104.761 36.4691 104.031 35.3622C103.3 34.2331 102.924 32.9269 102.902 31.4436H107.883C107.883 32.3734 108.226 33.104 108.912 33.6353C109.621 34.1445 110.595 34.3991 111.835 34.3991C113.119 34.3991 114.137 34.1556 114.89 33.6686C115.642 33.1594 116.019 32.4841 116.019 31.6429C116.019 30.8901 115.831 30.3145 115.454 29.916C115.078 29.4954 114.447 29.1965 113.561 29.0194L109.776 28.2224C107.628 27.7796 106.001 26.9494 104.894 25.7318C103.809 24.5142 103.267 22.9202 103.267 20.9498Z" fill="white"/>
</svg>
