<?xml version="1.0" encoding="utf-8"?>
<!-- Generator: Adobe Illustrator 26.5.0, SVG Export Plug-In . SVG Version: 6.00 Build 0)  -->
<svg version="1.1" id="Layer_1" xmlns="http://www.w3.org/2000/svg" xmlns:xlink="http://www.w3.org/1999/xlink" x="0px" y="0px"
	 viewBox="0 0 77.32 86.27" style="enable-background:new 0 0 77.32 86.27;" xml:space="preserve">
<style type="text/css">
	.st0{fill:#FFFFFF;}
</style>
<g>
	<g id="Layer_1_00000013178598923707128200000014990561221816399526_">
		<path class="st0" d="M11.71,35.39c0.8,1.7,2.8,5.1,2.8,5.1l22.9-37.8l-22.4,15.6c-1.3,0.9-2.4,2.1-3.2,3.5
			C9.81,26.09,9.71,31.09,11.71,35.39z"/>
		<path class="st0" d="M2.61,47.89c0.5,7.3,4.2,14.1,10,18.5l24.7,17.2c0,0-15.5-22.3-28.5-44.5c-1.3-2.3-2.2-4.9-2.6-7.6
			c-0.2-1.2-0.2-2.4,0-3.6c-0.3,0.6-1,1.9-1,1.9c-1.3,2.7-2.2,5.6-2.7,8.5C2.31,41.59,2.31,44.69,2.61,47.89z"/>
		<path class="st0" d="M65.61,50.89c-0.8-1.7-2.8-5.1-2.8-5.1l-22.8,37.8l22.3-15.6c1.3-0.9,2.4-2.1,3.2-3.5
			C67.61,60.19,67.61,55.19,65.61,50.89z"/>
		<path class="st0" d="M74.71,38.39c-0.5-7.3-4.2-14.1-10-18.5l-24.7-17.2c0,0,15.5,22.3,28.5,44.5c1.3,2.3,2.2,4.9,2.6,7.6
			c0.2,1.2,0.2,2.4,0,3.6c0.3-0.6,1-1.9,1-1.9c1.3-2.7,2.2-5.6,2.7-8.6C75.11,44.69,75.01,41.49,74.71,38.39z"/>
		<path class="st0" d="M11.81,21.79c0.8-1.4,1.8-2.6,3.2-3.5l22.4-15.6l-22.9,37.8c0,0-2-3.4-2.8-5.1
			C9.71,31.09,9.81,26.09,11.81,21.79z M2.61,47.89c0.5,7.3,4.2,14.1,10,18.5l24.7,17.2c0,0-15.5-22.3-28.5-44.5
			c-1.3-2.3-2.2-4.9-2.6-7.6c-0.2-1.2-0.2-2.4,0-3.6c-0.3,0.6-1,1.9-1,1.9c-1.3,2.7-2.2,5.6-2.7,8.5
			C2.31,41.59,2.31,44.69,2.61,47.89z M65.61,50.89c-0.8-1.7-2.8-5.1-2.8-5.1l-22.8,37.8l22.3-15.6c1.3-0.9,2.4-2.1,3.2-3.5
			C67.61,60.19,67.61,55.19,65.61,50.89L65.61,50.89z M74.71,38.39c-0.5-7.3-4.2-14.1-10-18.5l-24.7-17.2c0,0,15.5,22.3,28.5,44.5
			c1.3,2.3,2.2,4.9,2.6,7.6c0.2,1.2,0.2,2.4,0,3.6c0.3-0.6,1-1.9,1-1.9c1.3-2.7,2.2-5.6,2.7-8.6
			C75.11,44.69,75.01,41.49,74.71,38.39L74.71,38.39z"/>
	</g>
</g>
</svg>
