<?xml version="1.0" encoding="utf-8"?>
<!-- Generator: Adobe Illustrator 26.5.0, SVG Export Plug-In . SVG Version: 6.00 Build 0)  -->
<svg version="1.1" id="Layer_1" xmlns="http://www.w3.org/2000/svg" xmlns:xlink="http://www.w3.org/1999/xlink" x="0px" y="0px"
	 viewBox="0 0 295.97 108.03" style="enable-background:new 0 0 295.97 108.03;" xml:space="preserve">
<style type="text/css">
	.st0{fill:#FFFFFF;}
</style>
<circle class="st0" cx="145.61" cy="54.29" r="48.14"/>
<path class="st0" d="M287.07,99.6h-82.41c-2.45,0-4.44-1.99-4.44-4.44V13.93c0-2.45,1.99-4.44,4.44-4.44h82.41
	c2.45,0,4.44,1.99,4.44,4.44v81.24C291.51,97.62,289.52,99.6,287.07,99.6z"/>
<path class="st0" d="M104.01,99.6H6.07c-1.97,0-3.21-2.14-2.22-3.84l48.76-84.43c0.98-1.7,3.44-1.71,4.43-0.01l49.18,84.43
	C107.22,97.46,105.99,99.6,104.01,99.6z"/>
</svg>
