<svg width="113" height="40" viewBox="0 0 113 40" fill="none" xmlns="http://www.w3.org/2000/svg">
<g clip-path="url(#clip0_529_159)">
<path d="M20.1054 39.9287C9.21289 40.9822 -0.573109 30.2085 0.0260124 19.2104C0.61784 8.34748 9.66197 -0.27887 20.1893 0.0067881C25.7122 0.156693 30.4145 1.90995 34.3171 5.75926C38.9439 10.3235 40.1578 15.9753 39.9739 22.329C39.7649 29.5585 31.8539 40.9094 20.1054 39.9287ZM10.9045 13.8814C8.7737 17.6536 8.64919 21.3641 10.5455 25.1473C10.6768 25.4089 10.4684 25.9964 10.2293 26.2627C9.19569 27.4153 8.09175 28.505 6.96748 29.6654C8.16416 30.8065 9.25717 31.848 10.4278 32.9644C11.4234 31.8967 12.3992 30.9202 13.2885 29.8709C13.8308 29.2309 14.2611 29.0595 15.078 29.4977C18.3862 31.2725 21.758 31.3123 25.0828 29.5281C25.77 29.1591 26.2029 29.2178 26.6895 29.786C27.6377 30.894 28.6218 31.9706 29.4272 32.8758C30.8656 31.5985 31.9925 30.5979 33.2001 29.5255C31.8284 28.2199 30.5734 27.0253 29.2829 25.7973C31.395 22.091 31.5877 18.3817 29.6731 14.5916C29.5398 14.328 29.7372 13.7105 29.9857 13.472C31.0126 12.4861 32.1181 11.583 33.2976 10.5604C31.8065 9.16567 30.6901 8.12158 29.5403 7.04551C28.5463 8.11895 27.6304 9.03935 26.7994 10.031C26.2962 10.6317 25.8862 10.6369 25.2068 10.29C21.846 8.57444 18.4362 8.42243 15.0681 10.2648C14.4179 10.6207 14.0335 10.5269 13.5922 10.0169C12.6914 8.97593 11.7646 7.95752 11.1681 7.28871C9.6927 8.4911 8.49707 9.46548 7.2634 10.4713C7.97609 11.1396 8.56062 11.6889 9.14568 12.2371C9.72969 12.7844 10.3147 13.3305 10.9045 13.8819V13.8814Z" fill="white"/>
<path d="M90.645 14.7232V12.2697H94.8169V29.0412H90.7507V26.584C90.5538 26.5683 90.4246 26.5258 90.3996 26.5604C88.534 29.1052 86.0239 29.8935 83.0689 29.0491C80.0025 28.1732 78.1254 25.9954 77.5101 22.9208C76.7724 19.235 77.3705 15.8087 80.5656 13.383C83.7832 10.941 87.8088 11.4704 90.645 14.7232ZM90.6585 20.7582C90.7189 17.8025 88.7892 15.5325 86.1635 15.4696C83.5701 15.4077 81.5367 17.5724 81.4852 20.45C81.432 23.4193 83.3706 25.6715 86.0098 25.7066C88.7012 25.7428 90.5981 23.7238 90.6585 20.7577V20.7582Z" fill="white"/>
<path d="M49.3629 7.6635H62.3128V10.833H53.6042V16.6866H60.2143V19.7985H53.5265V29.0543H49.3629V7.6635Z" fill="white"/>
<path d="M97.676 12.2723C97.873 12.2199 97.9157 12.2 97.9595 12.1979C103.674 12.1979 101.552 10.9546 104.46 15.5671C104.807 16.1174 105.16 16.6641 105.605 17.3612C106.525 15.8422 107.384 14.4994 108.16 13.1099C108.552 12.408 109.002 12.0726 109.84 12.1486C110.769 12.233 111.712 12.168 112.962 12.168C111.076 15.0351 109.309 17.7213 107.522 20.4384C109.304 23.2693 111.079 26.0892 113 29.1408C111.465 29.1408 110.145 29.2037 108.838 29.101C108.461 29.0711 108.03 28.6266 107.783 28.2639C106.856 26.9043 105.994 25.5001 104.987 23.923C104.099 25.3549 103.219 26.6155 102.513 27.9678C102.03 28.8903 101.445 29.2708 100.415 29.1628C99.576 29.0753 98.7206 29.145 97.6068 29.145C98.1824 28.2477 98.6591 27.4897 99.1504 26.7413C100.253 25.0624 101.327 23.3626 102.487 21.7247C102.946 21.0774 102.962 20.6261 102.524 19.9552C100.893 17.4576 99.3338 14.9135 97.6766 12.2728L97.676 12.2723Z" fill="white"/>
<path d="M70.1284 29.0831H66.1466V12.2387H70.2066V14.773C71.5179 13.1429 72.9271 11.9049 75.1741 11.9431V16.1641C74.8328 16.1887 74.5322 16.2233 74.2316 16.2301C71.4486 16.2967 70.2634 17.4571 70.2165 20.2875C70.1722 22.9769 70.2055 25.6673 70.1998 28.3572C70.1998 28.5711 70.1592 28.7854 70.129 29.0826L70.1284 29.0831Z" fill="white"/>
<path d="M20.1482 13.4437C23.6596 13.4458 26.5155 16.3155 26.5275 19.8535C26.54 23.4706 23.6648 26.3618 20.081 26.3361C16.4696 26.3104 13.6527 23.4381 13.6891 19.8184C13.7235 16.3632 16.6837 13.4417 20.1477 13.4437H20.1482Z" fill="white"/>
</g>
<defs>
<clipPath id="clip0_529_159">
<rect width="113" height="40" fill="white"/>
</clipPath>
</defs>
</svg>
