<?xml version="1.0" encoding="utf-8"?>
<!-- Generator: Adobe Illustrator 26.5.0, SVG Export Plug-In . SVG Version: 6.00 Build 0)  -->
<svg version="1.1" id="Layer_1" xmlns="http://www.w3.org/2000/svg" xmlns:xlink="http://www.w3.org/1999/xlink" x="0px" y="0px"
	 viewBox="0 0 572 476" style="enable-background:new 0 0 572 476;" xml:space="preserve">
<style type="text/css">
	.st0{fill:#FFFFFF;}
</style>
<g>
	<g>
		<path class="st0" d="M295.67,46.82c-111.85,0-202.52,90.67-202.52,202.52s90.67,202.52,202.52,202.52
			c111.85,0,202.52-90.67,202.52-202.52S407.51,46.82,295.67,46.82z M391.81,375.15l-37.61-37.44
			c-17.21,11.19-37.3,17.18-58.31,17.18c-21.45,0-41.95-6.25-59.41-17.9l-38.63,38.63l-30.41-30.41l38.7-38.7
			c-11.48-17.37-17.63-37.71-17.63-59c0-20.84,5.9-40.78,16.92-57.91l-38.45-38.28l30.34-30.48l38.08,37.91
			c17.69-12.12,38.59-18.63,60.49-18.63c21.3,0,41.64,6.16,59.01,17.64l36.38-36.38l30.4,30.4l-36.31,36.31
			c11.66,17.46,17.91,37.96,17.91,59.42c0,21.74-6.42,42.49-18.36,60.1l37.23,37.07L391.81,375.15z"/>
	</g>
	<g>
		<path class="st0" d="M323.39,189.27c-8.34-3.94-17.66-6.15-27.5-6.15c-10.46,0-20.33,2.49-29.06,6.93
			c-13.12,6.64-23.66,17.65-29.7,31.11c-3.61,8.04-5.62,16.96-5.62,26.35c0,9.83,2.2,19.15,6.15,27.48
			c6.29,13.33,17.02,24.14,30.29,30.53c8.45,4.09,17.93,6.37,27.94,6.37c9.49,0,18.5-2.05,26.61-5.74
			c13.43-6.1,24.39-16.68,30.98-29.83c4.35-8.66,6.8-18.45,6.8-28.81c0-10.02-2.29-19.5-6.37-27.96
			C347.51,206.3,336.7,195.57,323.39,189.27z"/>
	</g>
</g>
</svg>
