<?xml version="1.0" encoding="utf-8"?>
<!-- Generator: Adobe Illustrator 26.5.0, SVG Export Plug-In . SVG Version: 6.00 Build 0)  -->
<svg version="1.1" id="Layer_1" xmlns="http://www.w3.org/2000/svg" xmlns:xlink="http://www.w3.org/1999/xlink" x="0px" y="0px"
	 viewBox="0 0 424 69" style="enable-background:new 0 0 424 69;" xml:space="preserve">
<style type="text/css">
	.st0{fill:#FFFFFF;}
</style>
<g>
	<g>
		<g>
			<path class="st0" d="M174.53,32.43h9.03v0.72c0,1.64-0.19,3.1-0.58,4.36c-0.38,1.17-1.01,2.27-1.91,3.29
				c-2.03,2.28-4.61,3.43-7.75,3.43c-3.06,0-5.68-1.1-7.86-3.31c-2.18-2.22-3.27-4.88-3.27-7.99c0-3.17,1.11-5.86,3.33-8.07
				c2.22-2.22,4.92-3.33,8.1-3.33c1.71,0,3.3,0.35,4.79,1.05c1.42,0.7,2.81,1.83,4.18,3.4l-2.35,2.25
				c-1.79-2.39-3.98-3.58-6.56-3.58c-2.31,0-4.25,0.8-5.82,2.39c-1.57,1.57-2.35,3.53-2.35,5.89c0,2.44,0.87,4.44,2.62,6.02
				c1.63,1.46,3.4,2.2,5.31,2.2c1.62,0,3.08-0.55,4.38-1.64c1.29-1.11,2.01-2.43,2.17-3.97h-5.45V32.43z"/>
		</g>
		<g>
			<path class="st0" d="M196.28,34.5l6.77,9.32h-4.04l-6.24-8.95h-0.59v8.95h-3.3V21.95h3.87c2.89,0,4.97,0.54,6.26,1.63
				c1.42,1.21,2.12,2.8,2.12,4.79c0,1.55-0.44,2.88-1.33,3.99C198.9,33.48,197.73,34.19,196.28,34.5z M192.17,31.99h1.05
				c3.12,0,4.69-1.19,4.69-3.58c0-2.24-1.52-3.36-4.56-3.36h-1.17V31.99z"/>
		</g>
		<g>
			<path class="st0" d="M220.92,38.51h-9.36l-2.44,5.31h-3.55l10.82-23.24l10.44,23.24h-3.61L220.92,38.51z M219.57,35.41
				l-3.24-7.43l-3.4,7.43H219.57z"/>
		</g>
		<g>
			<path class="st0" d="M230.11,21.95l6.05,15.15l6.13-15.15h3.61l-9.81,23.51l-9.59-23.51H230.11z"/>
		</g>
		<g>
			<path class="st0" d="M253.65,21.95v21.86h-3.3V21.95H253.65z"/>
		</g>
		<g>
			<path class="st0" d="M269,25.06v18.76h-3.3V25.06h-5.03v-3.1h13.34v3.1H269z"/>
		</g>
		<g>
			<path class="st0" d="M284.53,34.37l-7.14-12.42h3.79l5,8.74l5.01-8.74H295l-7.17,12.42v9.45h-3.3V34.37z"/>
		</g>
		<g>
			<path class="st0" d="M305.31,43.82V21.95h3.29c1.46,0,2.63,0.11,3.5,0.34c0.88,0.23,1.62,0.61,2.22,1.15
				c0.61,0.56,1.1,1.25,1.46,2.08c0.37,0.84,0.55,1.69,0.55,2.55c0,1.57-0.6,2.89-1.8,3.98c1.16,0.4,2.08,1.09,2.75,2.08
				c0.68,0.98,1.02,2.12,1.02,3.43c0,1.71-0.6,3.15-1.81,4.33c-0.73,0.73-1.54,1.23-2.45,1.52c-0.99,0.27-2.23,0.41-3.72,0.41
				H305.31z M308.61,31.34h1.03c1.23,0,2.13-0.27,2.7-0.81s0.86-1.34,0.86-2.4c0-1.03-0.29-1.81-0.88-2.34s-1.43-0.8-2.55-0.8h-1.16
				V31.34z M308.61,40.72h2.04c1.49,0,2.59-0.29,3.29-0.88c0.74-0.63,1.1-1.44,1.1-2.41c0-0.94-0.35-1.74-1.06-2.38
				c-0.69-0.63-1.92-0.95-3.7-0.95h-1.67V40.72z"/>
		</g>
		<g>
			<path class="st0" d="M331.6,34.5l6.77,9.32h-4.04l-6.24-8.95h-0.59v8.95h-3.3V21.95h3.87c2.89,0,4.97,0.54,6.26,1.63
				c1.42,1.21,2.12,2.8,2.12,4.79c0,1.55-0.44,2.88-1.33,3.99C334.23,33.48,333.06,34.19,331.6,34.5z M327.5,31.99h1.05
				c3.12,0,4.69-1.19,4.69-3.58c0-2.24-1.52-3.36-4.56-3.36h-1.17V31.99z"/>
		</g>
		<g>
			<path class="st0" d="M346.7,21.95v21.86h-3.3V21.95H346.7z"/>
		</g>
		<g>
			<path class="st0" d="M354.85,43.82V21.95h4.59c2.2,0,3.94,0.22,5.21,0.65c1.37,0.42,2.61,1.15,3.72,2.17
				c2.26,2.06,3.38,4.76,3.38,8.11c0,3.36-1.18,6.08-3.53,8.16c-1.18,1.04-2.42,1.76-3.71,2.17c-1.21,0.41-2.92,0.61-5.14,0.61
				H354.85z M358.15,40.72h1.49c1.48,0,2.71-0.16,3.7-0.47c0.98-0.33,1.87-0.85,2.66-1.57c1.62-1.48,2.44-3.41,2.44-5.79
				c0-2.4-0.8-4.34-2.41-5.83c-1.44-1.33-3.57-2-6.39-2h-1.49V40.72z"/>
		</g>
		<g>
			<path class="st0" d="M387.73,32.43h9.03v0.72c0,1.64-0.19,3.1-0.58,4.36c-0.38,1.17-1.01,2.27-1.91,3.29
				c-2.03,2.28-4.61,3.43-7.75,3.43c-3.06,0-5.68-1.1-7.86-3.31c-2.18-2.22-3.27-4.88-3.27-7.99c0-3.17,1.11-5.86,3.33-8.07
				c2.22-2.22,4.92-3.33,8.1-3.33c1.71,0,3.3,0.35,4.79,1.05c1.42,0.7,2.81,1.83,4.18,3.4l-2.35,2.25
				c-1.79-2.39-3.98-3.58-6.56-3.58c-2.31,0-4.25,0.8-5.82,2.39c-1.57,1.57-2.35,3.53-2.35,5.89c0,2.44,0.87,4.44,2.62,6.02
				c1.63,1.46,3.4,2.2,5.31,2.2c1.62,0,3.08-0.55,4.38-1.64c1.29-1.11,2.01-2.43,2.17-3.97h-5.45V32.43z"/>
		</g>
		<g>
			<path class="st0" d="M413.56,25.06h-8.76v5.25h8.51v3.1h-8.51v7.31h8.76v3.1h-12.06V21.95h12.06V25.06z"/>
		</g>
	</g>
	<path class="st0" d="M152.5,20.44c-1.15-6.59-9.64-11.44-23.91-13.67c-14.1-2.2-32.22-1.61-51.03,1.66
		c-17.92,3.12-33.9,8.27-45.72,14.23c-0.11-0.01-0.23-0.03-0.34-0.04l-0.02,0.22c-7.93,4.04-13.94,8.44-17.35,12.82
		c-0.16,0.02-0.32,0.04-0.48,0.07l0.07,0.48c-2.18,2.99-3.15,5.97-2.66,8.82c1.14,6.59,9.64,11.44,23.91,13.67
		c5.6,0.87,11.84,1.31,18.5,1.31c10.11,0,21.19-1,32.53-2.97c18.81-3.27,36.07-8.83,48.6-15.66
		C147.29,34.46,153.65,27.03,152.5,20.44z M151.52,20.61c0.18,1.06,0.14,2.16-0.11,3.27c-3.5,0.01-7.04,0.12-10.56,0.32
		c0.03-0.58,0.02-1.15-0.08-1.72c-0.41-2.34-1.92-4.41-4.42-6.17c0.49-0.11,0.98-0.23,1.49-0.35c3.02-0.7,6.09-1.33,9.11-1.87
		C149.53,15.99,151.09,18.18,151.52,20.61z M23.79,42.81c-0.43-2.45,0.56-5.04,2.69-7.64c3.57-0.35,6.64-0.62,9.52-0.7
		c-1.72,2.22-2.5,4.44-2.12,6.58c0.02,0.14,0.06,0.28,0.1,0.43c-1.66,0.39-3.45,0.83-5.43,1.32c-1.48,0.37-2.96,0.76-4.43,1.16
		C23.98,43.59,23.86,43.2,23.79,42.81z M120.63,12.02c5.42,0.85,9.84,2.18,13.07,3.89c-3.39,0.8-6.38,1.57-9.17,2.47
		c-3-1.64-7.17-2.84-12.2-3.53c1.68-1.06,3.51-2.09,5.52-3.19C118.79,11.76,119.73,11.88,120.63,12.02z M35.29,42.21
		c4.71-1.07,8.05-1.6,11.36-1.49c1.01,1.62,3.02,2.97,5.91,3.97c-1.84,0.38-3.66,0.9-5.42,1.54c-1.31,0.47-2.6,1.03-3.83,1.63
		C39.19,46.49,36.37,44.59,35.29,42.21z M34.86,40.89c-0.36-2.06,0.52-4.24,2.41-6.43c3.18-0.02,6.18,0.21,9.43,0.83
		c-0.69,1.25-0.95,2.49-0.75,3.67c0.04,0.25,0.12,0.5,0.2,0.75c-3.39-0.04-6.81,0.54-11.2,1.55C34.93,41.13,34.89,41.01,34.86,40.89
		z M67.52,19.66c0.55,0.57,1.08,1.16,1.6,1.76c-0.62,0.55-1.2,1.13-1.75,1.76c-4.52,1.38-8.61,3.03-12.02,4.86
		c-1.82-0.9-3.62-1.58-5.48-2.13C54.85,23.56,60.85,21.42,67.52,19.66z M116.63,26.68c0.06,0.33,0.06,0.67,0.03,1.01
		c-0.75,0.3-1.5,0.62-2.25,1c-2.95,1.47-5.68,3.42-8.16,5.8c-0.36-0.69-0.87-1.33-1.52-1.91c2.27-3.19,5.63-6.12,10.02-8.75
		C115.79,24.66,116.44,25.62,116.63,26.68z M64.1,45.61c-1.23-0.82-2.49-1.55-3.75-2.2c-0.01-0.73,0.16-1.48,0.5-2.22
		c1.16,0.92,2.25,1.94,3.25,3.04c0.21,0.48,0.44,0.94,0.69,1.4C64.56,45.62,64.32,45.62,64.1,45.61z M46.95,38.79
		c-0.18-1.03,0.1-2.14,0.8-3.29c5.01,1.07,9.14,2.78,12.3,5.08c-0.39,0.78-0.62,1.56-0.68,2.34c-3.2-1.52-6.5-2.52-9.86-2.97
		c-0.76-0.1-1.51-0.17-2.25-0.21C47.11,39.43,47,39.11,46.95,38.79z M102.05,35.01c-0.07-1.13-0.25-2.23-0.5-3.29
		c0.68,0.32,1.3,0.67,1.83,1.05C102.91,33.49,102.46,34.24,102.05,35.01z M63.25,41.94c-0.62-0.58-1.26-1.12-1.92-1.64
		c0.33-0.52,0.75-1.05,1.24-1.56C62.71,39.84,62.94,40.91,63.25,41.94z M62.7,32.9c-1.96-1.68-4.05-3.12-6.25-4.3
		c2.87-1.49,6.18-2.85,9.82-4.04C64.49,26.99,63.23,29.82,62.7,32.9z M55.8,29.37c2.39,1.27,4.65,2.87,6.75,4.74
		c-0.08,0.71-0.13,1.43-0.13,2.16c0,0.4,0.02,0.8,0.04,1.19c-0.77,0.73-1.42,1.48-1.91,2.24c-3.18-2.29-7.27-4-12.19-5.1
		c1.4-1.8,3.78-3.67,7.01-5.45C55.51,29.24,55.65,29.3,55.8,29.37z M49.37,40.94c3.42,0.46,6.77,1.51,10.02,3.12
		c0.01,0.06,0.01,0.13,0.02,0.19c0.06,0.33,0.15,0.66,0.27,0.97c-0.45-0.06-0.91-0.1-1.34-0.17c-5.11-0.8-8.73-2.3-10.41-4.26
		C48.42,40.83,48.89,40.87,49.37,40.94z M60.87,45.37c-0.13-0.24-0.23-0.48-0.31-0.73c0.48,0.26,0.96,0.54,1.43,0.82
		C61.62,45.43,61.24,45.41,60.87,45.37z M102.04,37.34c0.6-1.37,1.31-2.69,2.12-3.94c0.6,0.56,1.05,1.17,1.34,1.84
		c-1.17,1.19-2.28,2.47-3.33,3.86c-0.11,0.04-0.22,0.09-0.33,0.13C101.94,38.61,102,37.98,102.04,37.34z M105.8,36.36
		c0.05,0.38,0.04,0.76-0.01,1.15c-0.56,0.27-1.12,0.53-1.72,0.79C104.63,37.63,105.21,36.99,105.8,36.36z M106.84,36.99
		c0.01-0.33-0.02-0.65-0.07-0.97c-0.03-0.18-0.07-0.35-0.12-0.52c2.49-2.44,5.23-4.43,8.2-5.92c0.51-0.25,1.01-0.48,1.52-0.7
		C115.37,31.56,111.92,34.41,106.84,36.99z M103.94,31.96c-0.77-0.55-1.68-1.04-2.72-1.46c-0.31-1.01-0.69-1.99-1.15-2.92
		c1.4-2.52,3.05-4.83,4.95-6.85c0.08-0.09,0.17-0.16,0.25-0.25c3.64,0.57,6.6,1.49,8.59,2.74
		C109.56,25.83,106.22,28.76,103.94,31.96z M99.51,26.51c-1.52-2.66-3.64-4.94-6.17-6.65c0.86-0.03,1.72-0.06,2.54-0.06
		c2.96,0,5.71,0.17,8.19,0.49C102.36,22.16,100.83,24.24,99.51,26.51z M91.73,18.87c-0.66-0.36-1.34-0.68-2.04-0.97
		c0.29-0.77,0.62-1.52,0.96-2.27c3.63-0.32,7.12-0.48,10.42-0.48c2.98,0,5.8,0.13,8.42,0.38c-1.59,1.13-3.07,2.37-4.51,3.82
		C101.17,18.78,96.67,18.61,91.73,18.87z M88.76,17.55c-1.69-0.59-3.47-0.96-5.33-1.07c2.06-0.29,4.09-0.54,6.07-0.73
		C89.24,16.34,88.99,16.94,88.76,17.55z M69.88,20.78c-0.41-0.48-0.82-0.94-1.25-1.4c1.89-0.48,3.82-0.93,5.8-1.34
		C72.79,18.75,71.26,19.67,69.88,20.78z M54.27,28.63c-3.27,1.88-5.63,3.83-7,5.75c-3.12-0.62-6.05-0.88-9.08-0.91
		c2.37-2.36,5.9-4.71,10.31-6.91C50.49,27.09,52.38,27.75,54.27,28.63z M47.48,47.16c2.23-0.81,4.54-1.41,6.89-1.8l-0.02-0.12
		c1.17,0.31,2.45,0.58,3.85,0.8c1.74,0.27,3.61,0.45,5.57,0.55c0.09,0.06,0.18,0.12,0.27,0.18c-1.01,1.21-2.06,2.38-3.13,3.53
		c-6.31-0.1-11.83-0.79-16.16-2.01C45.65,47.88,46.56,47.5,47.48,47.16z M65.18,46.98l-0.41-0.33c0.91,0.03,1.83,0.06,2.77,0.06
		c5.1,0,10.69-0.5,16.41-1.5c6.7-1.16,12.81-2.86,17.93-4.85l-0.04,0.06c1.33,0.83,2.7,1.6,4.08,2.34
		c-6.31,2.27-13.59,4.2-21.44,5.56c-7.91,1.37-15.48,2.01-22.23,2C63.27,49.22,64.25,48.12,65.18,46.98z M102.98,39.91
		c3.43-1.4,6.38-2.95,8.72-4.55c2.3-0.38,4.64-0.55,6.96-0.51c1,0.02,2,0.09,3.01,0.19c-3.67,2.57-8.62,5.05-14.47,7.24
		C105.77,41.54,104.36,40.75,102.98,39.91z M122.87,34.16c-1.39-0.18-2.8-0.28-4.2-0.31c-1.77-0.03-3.55,0.06-5.31,0.26
		c2.31-1.88,3.78-3.82,4.19-5.71c3.07-1.13,6.4-1.7,11.18-2.2C128.42,28.79,126.32,31.51,122.87,34.16z M117.67,27.31
		c0-0.27-0.02-0.54-0.06-0.8c-0.21-1.2-0.88-2.27-1.94-3.21c2.91-1.65,5.71-2.84,8.79-3.85c2.41,1.4,3.9,3.12,4.25,5.13
		c0.04,0.2,0.05,0.41,0.06,0.61C124.28,25.66,120.85,26.2,117.67,27.31z M114.82,22.63c-1.99-1.39-4.95-2.43-8.62-3.08
		c1.52-1.46,3.1-2.7,4.82-3.85c5,0.59,9.18,1.64,12.23,3.11C120.34,19.81,117.61,21.02,114.82,22.63z M110.77,14.65
		c-5.68-0.65-12.35-0.69-19.62-0.07c0.29-0.59,0.59-1.17,0.91-1.74c0.25-0.45,0.51-0.89,0.77-1.32c4.32-0.38,8.53-0.57,12.54-0.57
		c3.78,0,7.38,0.18,10.76,0.52C114.18,12.54,112.41,13.56,110.77,14.65z M91.17,12.35c-0.42,0.76-0.81,1.54-1.18,2.33
		c-3.57,0.34-7.28,0.82-11.08,1.49c-3.85,0.67-7.56,1.47-11.08,2.38c-0.53-0.54-1.07-1.06-1.63-1.57c-0.29-0.26-0.59-0.51-0.89-0.77
		c4.19-1.07,8.57-2.02,13.12-2.81c4.46-0.78,8.87-1.36,13.17-1.77C91.46,11.87,91.31,12.11,91.17,12.35z M65.53,17.72
		c0.4,0.36,0.79,0.74,1.18,1.12c-7,1.86-13.21,4.15-18.31,6.65c-1.89-0.49-3.89-0.88-6.05-1.27c6.15-2.9,13.55-5.55,21.78-7.71
		C64.6,16.9,65.07,17.3,65.53,17.72z M47.01,26.19c-4.42,2.3-7.88,4.78-10.16,7.28c-2.91,0.04-5.97,0.28-9.4,0.61
		c2.95-3.12,7.54-6.23,13.37-9.12C43.05,25.35,45.09,25.74,47.01,26.19z M28.79,43.78c2.04-0.51,3.85-0.95,5.51-1.34
		c1.06,2.5,3.75,4.51,7.7,5.99l-7.19,3.15c-5.2-1.66-8.74-3.96-10.26-6.7C25.96,44.5,27.37,44.13,28.79,43.78z M43.38,48.92
		c4.37,1.4,10.04,2.22,16.59,2.38c-1.08,1.11-2.19,2.17-3.32,3.21c-4.91-0.06-9.53-0.41-13.71-1.06c-2.43-0.38-4.64-0.86-6.65-1.42
		L43.38,48.92z M61.32,51.32c0.38,0,0.76,0.01,1.14,0.01c6.72,0,14.27-0.66,22.2-2.04c8.32-1.45,15.95-3.49,22.48-5.9
		c1.32,0.68,2.66,1.35,4.01,1.95c-7.83,2.79-16.68,5.1-26.01,6.72c-9.43,1.64-18.63,2.46-27.02,2.45
		C59.22,53.49,60.28,52.42,61.32,51.32z M108.39,42.92c6.06-2.33,11.1-4.97,14.77-7.73l7.58,0.63c-1.61,1.11-3.4,2.22-5.39,3.31
		c-3.78,2.06-8.1,3.98-12.8,5.72C111.14,44.24,109.75,43.61,108.39,42.92z M124.31,34.28c3.26-2.7,5.18-5.49,5.44-8.18
		c1.65-0.16,3.47-0.33,5.5-0.5c1.48-0.13,2.96-0.24,4.44-0.33c-0.68,3.07-3.32,6.38-7.7,9.65L124.31,34.28z M135.16,24.6
		c-1.97,0.17-3.75,0.33-5.4,0.49c-0.01-0.23-0.03-0.46-0.07-0.68c-0.36-2.08-1.77-3.87-4.02-5.35c2.76-0.85,5.78-1.59,9.3-2.42
		c2.75,1.71,4.42,3.75,4.81,6.02c0.09,0.52,0.1,1.06,0.06,1.61C138.28,24.36,136.71,24.47,135.16,24.6z M145.78,13.31
		c-2.72,0.5-5.46,1.06-8.17,1.69c-0.84,0.19-1.64,0.38-2.43,0.57c-3.4-2.03-8.25-3.57-14.39-4.53c-0.47-0.07-0.96-0.14-1.44-0.2
		c2.22-1.21,4.49-2.35,6.77-3.39c0.79,0.1,1.56,0.21,2.32,0.33C135.98,8.94,141.83,10.84,145.78,13.31z M124.27,7.21
		c-1.86,0.89-3.71,1.81-5.53,2.81c-0.38,0.21-0.73,0.4-1.09,0.6c-7.18-0.84-15.42-0.88-24.17-0.16c0.75-1.16,1.56-2.29,2.43-3.37
		c4.88-0.4,9.63-0.62,14.17-0.62C115.09,6.47,119.85,6.72,124.27,7.21z M77.73,9.42c5.71-0.99,11.35-1.73,16.83-2.23
		c-0.83,1.08-1.62,2.21-2.34,3.37c-4.56,0.41-9.24,1.03-13.98,1.85c-4.82,0.84-9.46,1.86-13.88,3.01c-1.06-0.85-2.17-1.66-3.31-2.4
		C66.37,11.64,71.95,10.43,77.73,9.42z M59.87,13.34l-0.04,0.07c1.15,0.72,2.26,1.5,3.34,2.34c-8.49,2.29-16.08,5.11-22.34,8.2
		c-0.48-0.08-0.96-0.17-1.46-0.25c-1.94-0.34-3.9-0.6-5.85-0.83C40.9,19.29,49.86,16.02,59.87,13.34z M31.85,23.67
		c2.44,0.25,4.91,0.59,7.34,1.01c0.05,0.01,0.09,0.02,0.14,0.02c-5.8,3.01-10.33,6.25-13.19,9.51c-0.97,0.1-1.97,0.2-3.01,0.3
		c-2.57,0.26-5.15,0.6-7.7,0.97C18.79,31.45,24.45,27.41,31.85,23.67z M14.54,36.62c2.86-0.43,5.78-0.81,8.69-1.11
		c0.69-0.07,1.36-0.14,2.02-0.21c-1.98,2.61-2.87,5.21-2.44,7.68c0.07,0.43,0.2,0.85,0.35,1.26c-3.43,0.96-6.84,2-10.19,3.14
		c-0.44-0.81-0.76-1.65-0.91-2.53C11.59,42.2,12.5,39.42,14.54,36.62z M13.49,48.26c3.31-1.12,6.67-2.15,10.06-3.09
		c1.47,2.88,4.84,5.26,9.87,7.02l-7.67,3.36l0.04,0.08C19.77,53.79,15.59,51.29,13.49,48.26z M27.16,56.02l7.68-3.36
		c2.34,0.72,5,1.32,7.95,1.78c3.92,0.61,8.22,0.95,12.78,1.05c-0.27,0.24-0.54,0.49-0.82,0.73c-1.11,0.95-2.26,1.88-3.42,2.76
		c-5.8-0.08-11.25-0.5-16.2-1.27C32.21,57.25,29.56,56.68,27.16,56.02z M85.84,56.04c-11.49,2-22.71,2.98-32.91,2.95
		c0.83-0.66,1.66-1.33,2.47-2.02c0.56-0.48,1.09-0.97,1.64-1.47c0.39,0,0.78,0.02,1.18,0.02c8.42,0,17.66-0.83,27.1-2.47
		c9.79-1.7,19.07-4.15,27.2-7.13c0.61,0.26,1.21,0.53,1.83,0.77c1.02,0.4,2.06,0.78,3.1,1.15C107.95,51.26,97.18,54.07,85.84,56.04z
		 M134.13,40.5c-4.5,2.45-9.62,4.73-15.2,6.81c-1.42-0.47-2.84-0.99-4.22-1.54c-0.28-0.11-0.56-0.24-0.84-0.36
		c4.37-1.66,8.39-3.47,11.95-5.41c2.45-1.33,4.6-2.69,6.47-4.06l8.2,0.68C138.59,37.92,136.48,39.22,134.13,40.5z M141.75,35.73
		l-8.27-0.69c4.2-3.31,6.67-6.65,7.25-9.83c3.47-0.2,6.95-0.31,10.4-0.33C149.97,28.38,146.79,32.07,141.75,35.73z"/>
</g>
</svg>
