<?xml version="1.0" encoding="utf-8"?>
<!-- Generator: Adobe Illustrator 26.5.0, SVG Export Plug-In . SVG Version: 6.00 Build 0)  -->
<svg version="1.1" id="Layer_1" xmlns="http://www.w3.org/2000/svg" xmlns:xlink="http://www.w3.org/1999/xlink" x="0px" y="0px"
	 viewBox="0 0 216.68 262.6" style="enable-background:new 0 0 216.68 262.6;" xml:space="preserve">
<style type="text/css">
	.st0{fill:#FFFFFF;}
	.st1{fill:none;stroke:#FFFFFF;stroke-width:7;stroke-linecap:round;stroke-miterlimit:10;}
	.st2{fill:none;stroke:#FFFFFF;stroke-width:4;stroke-miterlimit:10;}
	.st3{fill:none;stroke:#FFFFFF;stroke-width:4;stroke-linecap:round;stroke-miterlimit:10;}
</style>
<g>
	<path class="st0" d="M67.82,55.49c21.98,0.78,43.7,4.3,64.55,10.47c8.77,2.59,17.5,5.7,25.97,9.22c0.79,18.13,1.21,36.5,1.24,54.63
		c0.07,35.48-1.33,71.42-4.16,106.83c-0.01,0.16-0.09,0.31-0.21,0.4c-7.9,6.07-16.58,10.41-25.8,12.91
		c-5.42,1.47-13.67,2.32-23.23,2.41c-0.3,0-0.67,0-1.1,0c-8.52,0-31.76-1.01-63.53-10.4c-7.49-2.21-15.02-4.77-22.4-7.61
		c-2.7-21.7-4.35-43.78-4.9-65.62c-0.82-32.72,0.79-65.81,4.8-98.37c7.45-3.66,15.23-6.76,23.15-9.21
		C50.55,58.58,59.16,56.67,67.82,55.49 M67.47,48.48c-7.89,1.05-17.18,2.85-27.33,6c-9.94,3.08-18.49,6.75-25.56,10.31
		c-1.24,0.63-2.1,1.81-2.27,3.19C8.6,97.51,6.32,131.44,7.26,168.92c0.6,23.95,2.45,46.25,5,66.68c0.29,2.34,1.86,4.32,4.06,5.17
		c9.32,3.6,17.29,6.15,23.26,7.92c34.09,10.07,58.34,10.68,65.51,10.68c0.46,0,0.84,0,1.16-0.01c15.4-0.13,23.01-2.11,25-2.65
		c12.48-3.39,21.94-9.28,28.23-14.11c1.7-1.3,2.76-3.26,2.93-5.39c2.68-33.64,4.25-69.52,4.18-107.4
		c-0.04-19.2-0.49-37.85-1.29-55.91c-0.09-2.12-1.41-3.98-3.36-4.8c-8.34-3.51-17.54-6.88-27.57-9.85
		C109.06,51.77,86.09,49.1,67.47,48.48L67.47,48.48z"/>
</g>
<path class="st1" d="M160.41,73.2c-8.01,2.41-16.12,4.8-24.33,7.17c-10.05,2.89-19.99,5.67-29.83,8.33"/>
<path class="st1" d="M133.07,81.23c-0.22,23.49-0.43,46.98-0.65,70.47"/>
<path class="st0" d="M161.69,74.7c-1.74-0.11-3.47-0.21-5.21-0.32c-4.91,13.38-9.83,26.77-14.74,40.15
	c-1.94,0.13-3.89,0.26-5.83,0.39c-1.04-1.78-2.07-3.56-3.11-5.33c-7.93-7.93-15.85-15.85-23.78-23.78c-30-6.15-60-12.3-90-18.44
	c-1.41,3.56-2.81,7.11-4.22,10.67c-1.26,20.59-2.52,41.19-3.78,61.78c0.22,18.3,0.44,36.59,0.67,54.89
	c1.63,14.07,3.26,28.15,4.89,42.22c10.81,3.7,21.63,7.41,32.44,11.11c6.93,0.94,13.86,1.87,20.79,2.81
	c1.43-0.44,3.04-1.02,4.77-1.81c0,0,8.71-3.98,15.44-12.33c13.73-17.04,11.2-71.54,14.73-123.34c0.44-6.48,0.9-11.69,1.17-14.67
	c0.57,14.2,0.81,25.78,0.92,33.5c0.44,30.89-0.44,47.6-0.92,91.83c-0.15,13.49-0.2,24.46-0.22,31.32c4.17-0.04,8.77-0.32,13.72-0.99
	c3.7-0.5,7.13-1.16,10.28-1.89c3.84-0.82,8.5-2.17,13.56-4.44c6.64-2.99,11.73-6.57,15.33-9.56c1.33-15.56,2.67-31.11,4-46.67
	c0.76-14.18,1.23-28.9,1.35-44.11C164.12,121.98,163.27,97.6,161.69,74.7z M37.03,212.92c6.81-21.04,13.63-42.07,20.44-63.11
	c-13.04-1.48-26.07-2.96-39.11-4.44c13.26-14.74,26.52-29.48,39.78-44.22c-4.44,9.7-8.89,19.41-13.33,29.11
	c14.37,0.18,28.74,0.35,43.11,0.53C70.95,158.16,53.99,185.54,37.03,212.92z"/>
<line class="st2" x1="38.58" y1="59.37" x2="132.74" y2="82.37"/>
<path class="st3" d="M140.66,87.53c0.04,3.25,0.09,6.53,0.17,9.83c0.07,3.16,0.15,6.3,0.25,9.42"/>
<path class="st0" d="M117.16,71.71c-0.81-0.82-1.12-2.01-0.85-3.13c4.48-18.07,8.95-36.14,13.43-54.22c0.42-1.93,1.3-4.34,3.22-6.44
	c4.16-4.55,11.52-5.81,18.78-3.39c19.33,8.64,38.67,17.28,58,25.92c1.1,0.49,1.74,1.65,1.55,2.84c-0.23,1.51-0.87,3.56-2.55,5.41
	c-1.88,2.06-4.14,2.85-5.74,3.16c-1.1,0.21-2.23,0.06-3.25-0.39c-17.28-7.7-34.56-15.4-51.85-23.1c-0.16,0.44-0.52,1.29-1.33,2.06
	c-0.9,0.85-1.87,1.16-2.33,1.28c-3.94,16.34-7.87,32.68-11.81,49.02c-0.26,1.09-0.95,2.03-1.92,2.62c-1.54,0.94-4.1,2.01-7.27,1.53
	C120.36,74.43,118.35,72.91,117.16,71.71z"/>
</svg>
