<?xml version="1.0" encoding="utf-8"?>
<!-- Generator: Adobe Illustrator 26.5.0, SVG Export Plug-In . SVG Version: 6.00 Build 0)  -->
<svg version="1.1" id="Layer_1" xmlns="http://www.w3.org/2000/svg" xmlns:xlink="http://www.w3.org/1999/xlink" x="0px" y="0px"
	 viewBox="0 0 364 328" style="enable-background:new 0 0 364 328;" xml:space="preserve">
<style type="text/css">
	.st0{fill:#FFFFFF;stroke:#FFFFFF;stroke-width:4;stroke-miterlimit:10;}
	.st1{fill:#251B44;}
	.st2{fill:#FFFFFF;stroke:#251B44;stroke-width:4;stroke-miterlimit:10;}
	.st3{fill:none;stroke:#FFFFFF;stroke-width:4;stroke-miterlimit:10;}
</style>
<path class="st0" d="M316.97,189.05c0.43-0.46,1.18-0.01,0.97,0.58c-3.24,9.35-10.31,25.08-25.52,38.37
	c-23.94,20.91-59.78,28.56-90.22,16.67c-26.15-10.21-39.28-31.32-44.89-40.33c-11.94-19.19-15.16-37.72-16.17-48.17
	c13.21-0.87,26.95-2.07,41.17-3.67c13.36-1.5,26.22-3.24,38.56-5.17c-1.92,21.98,8.1,42.96,25.78,53.56
	C268.22,213.82,297.95,209.33,316.97,189.05z"/>
<path class="st1" d="M270.66,216.1c-5.08,0.66-22.26,2.5-40.9-6.33c-25.32-11.99-35.86-35.34-41.56-48l0,0
	c-0.97-2.54-1.92-5.08-2.87-7.62c-0.93,0.11-1.87,0.22-2.8,0.33c-12.91,1.45-26.03,2.63-39.02,3.52c0.4,3.76,1.15,8.92,2.63,14.91
	c0.26,1.03,0.63,2.46,1.14,4.22c0.14,0.47,0.28,0.94,0.42,1.4c0.04,0.12,0.08,0.25,0.12,0.37c2.73,8.6,6.48,16.81,11.18,24.37
	c4.06,6.53,12.16,19.53,26.4,29.9c5.37,3.83,10.14,6.33,13.05,7.71c1.45,0.67,2.94,1.32,4.48,1.92c0.84,0.33,1.68,0.63,2.52,0.93
	c0.19,0.07,0.39,0.13,0.58,0.2c0.55,0.19,1.11,0.37,1.67,0.54c0.47,0.15,0.97,0.3,1.48,0.45c0.5,0.15,1,0.29,1.51,0.43
	c0.23,0.06,0.45,0.13,0.69,0.19c18.55,4.87,39.02,3,57.05-4.8c0.12-0.05,0.25-0.11,0.37-0.16c0.48-0.21,0.96-0.43,1.43-0.65
	c2.64-1.22,5-2.46,7.04-3.62c0.59-0.34,1.18-0.67,1.76-1.02c0.03-0.02,0.06-0.04,0.09-0.05c3.24-1.96,6.35-4.13,9.31-6.51
	c0.15-0.12,0.3-0.24,0.45-0.36c0.09-0.07,0.18-0.15,0.27-0.23c8.32-6.93,14.21-14.48,18.33-21.08c2.54-4.13,4.58-8.18,6.2-11.98
	C308.77,199.9,293.97,213.09,270.66,216.1z"/>
<path class="st2" d="M207.76,165.22c5.55-5.67,10.31-7.08,13.72-7.26c7.33-0.39,10.94,4.77,17.75,3.13c6.12-1.48,7.9-6.78,9.64-5.97
	c3,1.39,3.3,19.62-8.39,27.06c-8.37,5.32-20.68,3.71-29.28-4.61c-0.8,2.7-2.46,6.77-6.08,10.25c-8.36,8.06-24,9.92-32.31,2.11
	c-7.85-7.38-7.01-21.37-4.42-22.33c2.05-0.76,4.55,6.85,9.81,6.86c4.72,0.01,6.09-6.14,12.36-9.28
	C193.92,163.49,199.24,162.39,207.76,165.22z"/>
<ellipse class="st2" cx="195.09" cy="293.81" rx="80.44" ry="18.74"/>
<path class="st0" d="M18.69,114.51c0.06,2.51,0.43,6.09,1.95,9.99c17.09,43.64,141.32,30.2,161.67,28
	c29.39-3.18,154.81-16.75,166.67-72c0.95-4.44,0.99-8.32,0.83-11.11C239.44,84.43,129.07,99.47,18.69,114.51z"/>
<ellipse transform="matrix(0.9903 -0.139 0.139 0.9903 -10.8979 26.4857)" class="st2" cx="184.2" cy="91.28" rx="167.13" ry="27.18"/>
<path class="st1" d="M18.69,114.51c5.29,1.8,10.58,3.59,15.87,5.39c0.49,0.17,1-0.18,1.03-0.7l0.29-4.82
	c0.1-1.63,1.85-2.6,3.28-1.83l14.54,7.81c2.67,1.44,6.01,0.31,7.26-2.46l7.8-17.24c1.03-2.27,3.89-3.01,5.89-1.51l15.25,11.43
	c2.08,1.56,5.06,0.87,6.25-1.44l9.08-17.71c1.07-2.09,3.81-2.64,5.61-1.12l14.54,12.27c2.11,1.78,5.31,1.2,6.66-1.21l10.34-18.49
	l71.87-11.95l17.79,17.03c1.55,1.48,4.06,1.23,5.28-0.54l10.93-15.84c1.55-2.24,4.8-2.39,6.54-0.29l11.24,13.52
	c1.73,2.08,4.95,1.99,6.57-0.18l11.58-15.64c1.35-1.82,4.06-1.83,5.43-0.03l11.19,14.77c1.76,2.32,5.21,2.44,7.12,0.24l10.85-12.46
	c1.59-1.83,4.54-1.36,5.49,0.87c1.74,4.08,3.47,8.16,5.21,12.24c-5.4,2.2-12.95,5.12-22.11,8.18c-7.1,2.37-19.68,6.34-44.98,12
	c-15.72,3.51-38.08,8.06-66.3,12.23c-16.85,2.49-29.35,3.89-40.7,5.16l0,0c-11.5,1.3-21.45,2.16-29.39,2.75
	c-11.76,0.87-20.64,1.25-23.51,1.37c-13.86,0.57-23.5,0.54-26.91,0.51c-3.77-0.03-7.81-0.1-12.46-0.29
	c-6.25-0.26-10.55-0.61-13.06-0.85c-2.57-0.24-4.4-0.45-5.86-0.63c-1.84-0.23-4.01-0.51-6.86-1.04c-3.48-0.64-5.82-1.25-7.17-1.62
	c-0.68-0.19-1.65-0.47-2.87-0.91c-1.9-0.68-3.05-1.25-3.55-1.51c-0.9-0.46-1.46-0.82-1.88-1.12c-0.38-0.27-0.82-0.58-1.33-1.08
	c-0.45-0.44-0.92-0.89-1.3-1.63C19.03,115.76,18.8,115.22,18.69,114.51z"/>
<path class="st1" d="M279.97,107.13l-15.09,19.13c-1.12,1.42-3.05,1.92-4.72,1.21l-21.45-9.12c-1.9-0.81-4.11-0.32-5.49,1.22
	l-16.49,18.33c-1.23,1.37-3.23,1.72-4.85,0.87l-20.64-10.88c-1.88-0.99-4.18-0.64-5.67,0.86l-16.21,16.21
	c-1.38,1.38-3.54,1.57-5.14,0.45l-18.96-13.27c-1.8-1.26-4.22-1.15-5.9,0.27l-17.28,14.65c-1.48,1.25-3.63,1.27-5.13,0.05
	l-17.47-14.26c-1.73-1.41-4.19-1.46-5.97-0.11l-17.93,13.55c-1.56,1.18-3.75,1.06-5.17-0.28l-15.5-14.62
	c-2.27-2.14-5.55-2.8-8.47-1.71l-15.19,5.69c12.48,10.37,35.93,16.63,69.11,18.32c23.6,1.2,51.11,0.13,81.74-3.18
	c14.55-1.57,53.22-5.76,89.56-16.4c39.29-11.51,63.58-26.77,72.43-45.44h-14.35c-1.59,0-3.07,0.78-3.98,2.08l-14.28,20.64
	c-1.02,1.48-2.9,2.09-4.6,1.51l-21.56-7.36C283.39,104.89,281.24,105.52,279.97,107.13z"/>
<path class="st0" d="M140.88,107.36c-0.01,0.23,0.18,0.42,0.41,0.42c11.8,0.2,21.65-0.2,28.89-0.66c24.28-1.54,34.6-4.72,37.92-5.79
	c6.22-2.02,11.15-4.24,14.41-5.85c0.18-0.09,0.26-0.3,0.2-0.49c-4.36-13.7-8.73-25.02-12.23-33.46
	c-7.04-16.97-15.09-33.16-26.56-39.54c-1.94-1.08-6.16-3.36-11.71-3.1c0,0-5.58,0.26-11.03,3.95c-6.9,4.67-13.31,15.83-17.6,49.2
	C142.43,80.95,141.24,92.98,140.88,107.36z"/>
<g>
	<path class="st1" d="M170.05,105.13c16.39-1.04,28.98-2.96,37.43-5.7c4.4-1.43,8.74-3.16,12.91-5.14
		c-1.37-4.27-2.84-8.51-4.35-12.73c-6.22,2.68-14.45,5.51-24.39,7.11c-5.77,0.93-11.09,1.28-15.83,1.3
		c1.57-20.16-1.66-34.18-4.28-42.3c-3.29-10.22-6.46-14.75-10.11-15.1c-2.7-0.26-5.78,2.17-8.87,6.67
		c-2.88,7.89-5.15,18.74-6.99,33.05c-1.41,11.01-2.3,22.28-2.64,33.52C152,105.93,161.12,105.7,170.05,105.13z"/>
</g>
<path class="st3" d="M141.23,98.28c8,0.39,14.69,0.32,19.53,0.16c11.21-0.36,27.92-1.01,47.81-6.9c4.97-1.47,8.99-2.93,11.64-3.95"
	/>
</svg>
