<svg width="148" height="18" viewBox="0 0 148 18" fill="none" xmlns="http://www.w3.org/2000/svg">
<g clip-path="url(#clip0_529_102)">
<path d="M0.059874 17.3188H2.37785C2.39373 17.3188 2.40896 17.3124 2.42019 17.3012C2.43142 17.2899 2.43773 17.2746 2.43773 17.2586V3.73266L11.3803 17.293C11.3867 17.3006 11.3945 17.3068 11.4034 17.3112C11.4122 17.3156 11.4218 17.3182 11.4317 17.3188H13.8437C13.8596 17.3188 13.8748 17.3124 13.8861 17.3012C13.8973 17.2899 13.9036 17.2746 13.9036 17.2586V0.420955C13.9036 0.405006 13.8973 0.389709 13.8861 0.378431C13.8748 0.367154 13.8596 0.36084 13.8437 0.36084H11.5471C11.5313 0.36084 11.516 0.367154 11.5048 0.378431C11.4936 0.389709 11.4873 0.405006 11.4873 0.420955V13.1351L3.20754 0.390884C3.20233 0.38182 3.19485 0.374293 3.18585 0.369019C3.17685 0.363746 3.16664 0.360933 3.15622 0.36084H0.059874C0.0439944 0.36084 0.0287652 0.367154 0.0175367 0.378431C0.00630814 0.389709 0 0.405006 0 0.420955V17.2586C0 17.2746 0.00630814 17.2899 0.0175367 17.3012C0.0287652 17.3124 0.0439944 17.3188 0.059874 17.3188Z" fill="white"/>
<path d="M27.7128 10.3775L30.4842 3.07547L33.3025 10.3775H27.7128ZM22.5423 17.3617H25.0228C25.035 17.3623 25.0471 17.3589 25.0571 17.3519C25.0672 17.3449 25.0746 17.3348 25.0784 17.3231L26.8361 12.6626H34.1792L35.984 17.3231C35.9878 17.3348 35.9952 17.3449 36.0053 17.3519C36.0153 17.3589 36.0274 17.3623 36.0396 17.3617H38.5458C38.5558 17.3621 38.5657 17.3599 38.5747 17.3554C38.5837 17.3509 38.5914 17.3442 38.5971 17.336C38.6013 17.3273 38.6034 17.3177 38.6034 17.308C38.6034 17.2984 38.6013 17.2888 38.5971 17.2801L31.934 0.44673C31.9302 0.435044 31.9227 0.424933 31.9127 0.417945C31.9026 0.410956 31.8906 0.407496 31.8784 0.408087H29.2097C29.1969 0.407249 29.1842 0.41054 29.1734 0.417499C29.1626 0.424457 29.1544 0.434701 29.1498 0.44673L22.4867 17.2801C22.4814 17.2884 22.4785 17.2981 22.4785 17.308C22.4785 17.3179 22.4814 17.3276 22.4867 17.336C22.4924 17.3442 22.5001 17.3509 22.5091 17.3554C22.518 17.3599 22.528 17.3621 22.538 17.3617" fill="white"/>
<path d="M52.2705 17.6753C55.6063 17.6753 58.1253 15.5276 58.1253 12.6283C58.1253 10.2057 56.5215 8.4618 53.7246 7.84327L51.2184 7.29776C49.8841 7.00568 49.1143 6.13802 49.1143 4.90956C49.1143 3.34606 50.4828 2.16914 52.2919 2.16914C53.4252 2.16914 55.4352 2.76189 55.7817 4.99117C55.7823 4.99984 55.785 5.00825 55.7894 5.01571C55.7939 5.02317 55.8 5.02945 55.8073 5.03411C55.8239 5.04038 55.8421 5.04038 55.8586 5.03411L57.9414 4.29963C57.955 4.29475 57.9664 4.28512 57.9734 4.27249C57.9805 4.25987 57.9828 4.24508 57.9799 4.23089C57.7746 3.23867 56.7568 0 52.2448 0C49.2169 0 46.6551 2.32377 46.6551 5.07278C46.6551 7.46098 48.1606 9.16193 50.7907 9.7375L53.1814 10.2615C54.721 10.588 55.6405 11.5501 55.6405 12.813C55.6405 14.0758 54.7467 15.4374 52.2448 15.4374C49.5548 15.4374 48.4343 13.5217 48.2889 11.8809C48.2882 11.8722 48.2855 11.8638 48.2811 11.8564C48.2766 11.8489 48.2705 11.8426 48.2632 11.8379C48.2545 11.8337 48.245 11.8316 48.2354 11.8316C48.2258 11.8316 48.2163 11.8337 48.2076 11.8379L45.988 12.5509C45.9739 12.554 45.9616 12.5625 45.9537 12.5745C45.9457 12.5865 45.9427 12.6012 45.9452 12.6154C46.2446 14.952 48.0836 17.6796 52.2705 17.6796" fill="white"/>
<path d="M74.9747 17.6753C78.6185 17.6753 81.4754 15.5835 82.4333 12.2159C82.4374 12.2011 82.4357 12.1853 82.4286 12.1717C82.4214 12.1581 82.4093 12.1478 82.3949 12.1429L80.3378 11.3826C80.3303 11.3794 80.3223 11.3778 80.3142 11.3778C80.3061 11.3778 80.2981 11.3794 80.2907 11.3826C80.2832 11.3853 80.2766 11.3899 80.2713 11.3959C80.2661 11.4019 80.2625 11.4092 80.2608 11.417C79.5038 13.9555 77.5793 15.4116 74.9747 15.4116C72.135 15.4116 69.0772 13.3499 69.0772 8.8226C69.0772 4.29532 72.135 2.25935 74.9747 2.25935C77.6691 2.25935 79.5038 3.65104 80.141 6.18098C80.1455 6.19733 80.1563 6.2112 80.171 6.21963C80.1784 6.22282 80.1864 6.22448 80.1945 6.22448C80.2026 6.22448 80.2106 6.22282 80.218 6.21963L82.3564 5.46365C82.3709 5.45872 82.3829 5.44841 82.3901 5.43483C82.3972 5.42125 82.3989 5.40544 82.3949 5.39063C81.5138 2.0145 78.734 0 74.9619 0C72.8206 0.000818667 70.7597 0.819251 69.1969 2.28942C68.3338 3.13687 67.6555 4.15521 67.2049 5.27987C66.7543 6.40452 66.5414 7.61092 66.5796 8.8226C66.5796 11.4857 67.4648 13.7494 69.1456 15.3687C70.7137 16.8702 72.8041 17.6964 74.9705 17.671" fill="white"/>
<path d="M91.9489 17.3189H102.136C102.152 17.3189 102.167 17.3125 102.178 17.3012C102.19 17.29 102.196 17.2747 102.196 17.2587V15.1111C102.196 15.0951 102.19 15.0798 102.178 15.0685C102.167 15.0573 102.152 15.0509 102.136 15.0509H94.3225V10.0039H101.405C101.421 10.0039 101.436 9.99758 101.447 9.98631C101.458 9.97503 101.465 9.95973 101.465 9.94378V7.75745C101.465 7.7415 101.458 7.7262 101.447 7.71493C101.436 7.70365 101.421 7.69731 101.405 7.69731H94.3225V2.64173H102.136C102.152 2.64173 102.167 2.63539 102.178 2.62411C102.19 2.61283 102.196 2.59753 102.196 2.58158V0.43392C102.196 0.417972 102.19 0.402674 102.178 0.391397C102.167 0.38012 102.152 0.373779 102.136 0.373779H91.9489C91.9326 0.373743 91.9169 0.37994 91.905 0.391109C91.8931 0.402278 91.8859 0.417588 91.8848 0.43392V17.2716C91.8859 17.2879 91.8931 17.3032 91.905 17.3144C91.9169 17.3256 91.9326 17.3318 91.9489 17.3317" fill="white"/>
<path d="M112.593 17.3188H114.907C114.923 17.3188 114.938 17.3124 114.949 17.3012C114.961 17.2899 114.967 17.2746 114.967 17.2586V3.73266L123.914 17.293C123.919 17.3005 123.927 17.3066 123.935 17.3111C123.943 17.3155 123.952 17.3182 123.961 17.3188H126.373C126.389 17.3188 126.404 17.3124 126.415 17.3012C126.427 17.2899 126.433 17.2746 126.433 17.2586V0.420955C126.433 0.405006 126.427 0.389709 126.415 0.378431C126.404 0.367154 126.389 0.36084 126.373 0.36084H124.059C124.043 0.360804 124.027 0.367 124.015 0.378169C124.003 0.389338 123.996 0.404622 123.995 0.420955V13.1351L115.737 0.390884C115.732 0.382415 115.725 0.375254 115.717 0.370016C115.709 0.364778 115.699 0.361643 115.69 0.36084H112.593C112.577 0.360804 112.561 0.367 112.55 0.378169C112.538 0.389338 112.53 0.404622 112.529 0.420955V17.2586C112.53 17.275 112.538 17.2903 112.55 17.3015C112.561 17.3126 112.577 17.3188 112.593 17.3188Z" fill="white"/>
<path d="M147.974 0.36084H134.443C134.427 0.36084 134.412 0.367154 134.4 0.378431C134.389 0.389709 134.383 0.405006 134.383 0.420955V2.56862C134.383 2.58499 134.389 2.60077 134.4 2.61274C134.411 2.62471 134.426 2.63197 134.443 2.63306H140.002V17.2372C140.002 17.2531 140.009 17.2684 140.02 17.2797C140.031 17.291 140.046 17.2973 140.062 17.2973H142.38C142.396 17.2973 142.411 17.291 142.423 17.2797C142.434 17.2684 142.44 17.2531 142.44 17.2372V2.63306H148" fill="white"/>
</g>
<defs>
<clipPath id="clip0_529_102">
<rect width="148" height="18" fill="white"/>
</clipPath>
</defs>
</svg>
