<?xml version="1.0" encoding="utf-8"?>
<!-- Generator: Adobe Illustrator 26.5.0, SVG Export Plug-In . SVG Version: 6.00 Build 0)  -->
<svg version="1.1" id="Layer_1" xmlns="http://www.w3.org/2000/svg" xmlns:xlink="http://www.w3.org/1999/xlink" x="0px" y="0px"
	 viewBox="0 0 406.41 406.41" style="enable-background:new 0 0 406.41 406.41;" xml:space="preserve">
<style type="text/css">
	.st0{fill:#FFFFFF;}
</style>
<path class="st0" d="M203.21,403.21c110.5,0,200-89.5,200-200s-89.5-200-200-200s-200,89.5-200,200S92.71,403.21,203.21,403.21z
	 M229.01,132.11l67.3-39.2v81.5c0,20.9-11.1,40.3-29.2,50.8l-61.4,35.8v60.6l-67.3-39.2c-18.1-10.5-29.2-29.9-29.2-50.8v-81.5
	l67.3,39.2c10.3,6,18.3,14.8,23.3,25.2v-31.6C199.71,162.01,210.91,142.71,229.01,132.11z"/>
</svg>
