<svg width="1050" height="164" viewBox="0 0 1050 164" fill="none" xmlns="http://www.w3.org/2000/svg">
<path fill-rule="evenodd" clip-rule="evenodd" d="M162.61 0H147.828V146.324L162.61 161.079V0Z" fill="white"/>
<path fill-rule="evenodd" clip-rule="evenodd" d="M133.045 0H118.262V116.813L133.045 131.568V0Z" fill="white"/>
<path fill-rule="evenodd" clip-rule="evenodd" d="M103.481 0H88.6987V87.3028L103.481 102.058V0Z" fill="white"/>
<path fill-rule="evenodd" clip-rule="evenodd" d="M59.1279 58.4067V161.079H73.9107V73.162L59.1279 58.4067Z" fill="white"/>
<path fill-rule="evenodd" clip-rule="evenodd" d="M29.5737 28.8938V161.081H44.3565V43.6491L29.5737 28.8938Z" fill="white"/>
<path fill-rule="evenodd" clip-rule="evenodd" d="M0.620154 0H0V161.078H14.7827V14.1363L0.620154 0Z" fill="white"/>
<path d="M269.523 61.6938H293.352V77.6403H293.77C295.999 72.67 299.831 68.3209 305.266 64.5932C310.84 60.7274 317.389 58.7944 324.914 58.7944C331.463 58.7944 337.037 59.968 341.635 62.3151C346.373 64.5241 350.205 67.4925 353.131 71.2203C356.197 74.9481 358.426 79.2281 359.82 84.0603C361.213 88.8926 361.91 93.863 361.91 98.9714V161.101H336.828V106.013C336.828 103.113 336.619 100.076 336.201 96.9004C335.783 93.7249 334.877 90.8946 333.483 88.4094C332.09 85.7862 330.139 83.6462 327.631 81.9894C325.262 80.3326 322.057 79.5042 318.016 79.5042C313.975 79.5042 310.491 80.3326 307.565 81.9894C304.639 83.5081 302.2 85.51 300.249 87.9952C298.438 90.4804 297.044 93.3797 296.069 96.6933C295.093 99.8688 294.606 103.113 294.606 106.427V161.101H269.523V61.6938Z" fill="white"/>
<path d="M387.417 110.983C387.417 103.113 388.81 96.003 391.597 89.652C394.524 83.1629 398.425 77.6403 403.302 73.0842C408.18 68.528 413.962 65.0074 420.651 62.5222C427.34 60.037 434.446 58.7944 441.971 58.7944C449.496 58.7944 456.602 60.037 463.291 62.5222C469.98 65.0074 475.762 68.528 480.64 73.0842C485.517 77.6403 489.349 83.1629 492.136 89.652C495.062 96.003 496.525 103.113 496.525 110.983C496.525 118.853 495.062 126.032 492.136 132.521C489.349 139.01 485.517 144.602 480.64 149.296C475.762 153.852 469.98 157.442 463.291 160.065C456.602 162.688 449.496 164 441.971 164C434.446 164 427.34 162.688 420.651 160.065C413.962 157.442 408.18 153.852 403.302 149.296C398.425 144.602 394.524 139.01 391.597 132.521C388.81 126.032 387.417 118.853 387.417 110.983ZM412.917 110.983C412.917 114.849 413.475 118.715 414.589 122.58C415.844 126.446 417.655 129.898 420.024 132.935C422.393 135.973 425.389 138.458 429.012 140.391C432.635 142.324 436.955 143.29 441.971 143.29C446.987 143.29 451.307 142.324 454.93 140.391C458.553 138.458 461.549 135.973 463.918 132.935C466.287 129.898 468.029 126.446 469.144 122.58C470.398 118.715 471.025 114.849 471.025 110.983C471.025 107.117 470.398 103.32 469.144 99.5926C468.029 95.7268 466.287 92.2752 463.918 89.2378C461.549 86.2003 458.553 83.7842 454.93 81.9894C451.307 80.0565 446.987 79.09 441.971 79.09C436.955 79.09 432.635 80.0565 429.012 81.9894C425.389 83.7842 422.393 86.2003 420.024 89.2378C417.655 92.2752 415.844 95.7268 414.589 99.5926C413.475 103.32 412.917 107.117 412.917 110.983Z" fill="white"/>
<path d="M508.513 81.5752V61.6938H526.07V32.9073H550.735V61.6938H575.817V81.5752H550.735V127.758C550.735 132.176 551.501 135.835 553.034 138.734C554.706 141.633 558.329 143.083 563.903 143.083C565.575 143.083 567.387 142.945 569.337 142.669C571.288 142.255 573.03 141.702 574.563 141.012L575.399 160.479C573.169 161.308 570.522 161.929 567.456 162.343C564.391 162.895 561.464 163.172 558.677 163.172C551.989 163.172 546.554 162.274 542.374 160.479C538.193 158.546 534.849 155.992 532.341 152.817C529.972 149.503 528.3 145.775 527.324 141.633C526.488 137.353 526.07 132.797 526.07 127.965V81.5752H508.513Z" fill="white"/>
<path d="M596.477 61.6938H621.56V161.101H596.477V61.6938ZM592.924 27.9369C592.924 23.933 594.387 20.4814 597.313 17.5821C600.379 14.5446 604.211 13.0259 608.809 13.0259C613.408 13.0259 617.24 14.4756 620.305 17.375C623.51 20.1363 625.113 23.6569 625.113 27.9369C625.113 32.2169 623.51 35.8066 620.305 38.706C617.24 41.4673 613.408 42.8479 608.809 42.8479C604.211 42.8479 600.379 41.3983 597.313 38.4989C594.387 35.4615 592.924 31.9408 592.924 27.9369Z" fill="white"/>
<path d="M648.226 110.983C648.226 103.113 649.619 96.003 652.406 89.652C655.332 83.1629 659.234 77.6403 664.111 73.0842C668.988 68.528 674.771 65.0074 681.46 62.5222C688.149 60.037 695.255 58.7944 702.78 58.7944C710.305 58.7944 717.411 60.037 724.1 62.5222C730.789 65.0074 736.571 68.528 741.449 73.0842C746.326 77.6403 750.158 83.1629 752.945 89.652C755.871 96.003 757.334 103.113 757.334 110.983C757.334 118.853 755.871 126.032 752.945 132.521C750.158 139.01 746.326 144.602 741.449 149.296C736.571 153.852 730.789 157.442 724.1 160.065C717.411 162.688 710.305 164 702.78 164C695.255 164 688.149 162.688 681.46 160.065C674.771 157.442 668.988 153.852 664.111 149.296C659.234 144.602 655.332 139.01 652.406 132.521C649.619 126.032 648.226 118.853 648.226 110.983ZM673.726 110.983C673.726 114.849 674.284 118.715 675.398 122.58C676.652 126.446 678.464 129.898 680.833 132.935C683.202 135.973 686.198 138.458 689.821 140.391C693.444 142.324 697.763 143.29 702.78 143.29C707.796 143.29 712.116 142.324 715.739 140.391C719.362 138.458 722.358 135.973 724.727 132.935C727.096 129.898 728.838 126.446 729.952 122.58C731.207 118.715 731.834 114.849 731.834 110.983C731.834 107.117 731.207 103.32 729.952 99.5926C728.838 95.7268 727.096 92.2752 724.727 89.2378C722.358 86.2003 719.362 83.7842 715.739 81.9894C712.116 80.0565 707.796 79.09 702.78 79.09C697.763 79.09 693.444 80.0565 689.821 81.9894C686.198 83.7842 683.202 86.2003 680.833 89.2378C678.464 92.2752 676.652 95.7268 675.398 99.5926C674.284 103.32 673.726 107.117 673.726 110.983Z" fill="white"/>
<path d="M783.744 61.6938H807.572V77.6403H807.99C810.22 72.67 814.052 68.3209 819.486 64.5932C825.06 60.7274 831.609 58.7944 839.134 58.7944C845.683 58.7944 851.257 59.968 855.856 62.3151C860.593 64.5241 864.425 67.4925 867.352 71.2203C870.417 74.9481 872.647 79.2281 874.04 84.0603C875.434 88.8926 876.13 93.863 876.13 98.9714V161.101H851.048V106.013C851.048 103.113 850.839 100.076 850.421 96.9004C850.003 93.7249 849.097 90.8946 847.704 88.4094C846.31 85.7862 844.359 83.6462 841.851 81.9894C839.482 80.3326 836.277 79.5042 832.236 79.5042C828.195 79.5042 824.712 80.3326 821.785 81.9894C818.859 83.5081 816.421 85.51 814.47 87.9952C812.658 90.4804 811.265 93.3797 810.289 96.6933C809.314 99.8688 808.826 103.113 808.826 106.427V161.101H783.744V61.6938Z" fill="white"/>
<path d="M969.778 148.468H969.151C966.642 152.886 962.601 156.544 957.027 159.444C951.454 162.205 945.113 163.586 938.007 163.586C933.966 163.586 929.716 163.034 925.257 161.929C920.937 160.963 916.896 159.306 913.133 156.959C909.51 154.473 906.445 151.298 903.937 147.432C901.568 143.428 900.383 138.527 900.383 132.728C900.383 125.273 902.473 119.336 906.654 114.918C910.974 110.5 916.478 107.117 923.166 104.77C929.855 102.423 937.24 100.904 945.322 100.214C953.544 99.3855 961.556 98.9714 969.36 98.9714V96.4862C969.36 90.2733 967.06 85.7171 962.462 82.8178C958.003 79.7803 952.638 78.2616 946.367 78.2616C941.072 78.2616 935.986 79.3661 931.109 81.5752C926.232 83.7842 922.191 86.4765 918.986 89.652L906.027 74.5339C911.74 69.2874 918.289 65.3525 925.675 62.7293C933.199 60.1061 940.794 58.7944 948.458 58.7944C957.376 58.7944 964.692 60.037 970.405 62.5222C976.257 65.0074 980.856 68.2519 984.2 72.2558C987.544 76.2597 989.844 80.7468 991.098 85.7171C992.491 90.6875 993.188 95.6578 993.188 100.628V161.101H969.778V148.468ZM969.36 115.746H963.716C959.675 115.746 955.425 115.953 950.966 116.368C946.507 116.644 942.396 117.403 938.634 118.646C934.871 119.75 931.736 121.407 929.228 123.616C926.72 125.687 925.466 128.586 925.466 132.314C925.466 134.661 925.953 136.663 926.929 138.32C928.043 139.839 929.437 141.081 931.109 142.048C932.781 143.014 934.662 143.704 936.753 144.119C938.843 144.533 940.933 144.74 943.023 144.74C951.663 144.74 958.212 142.462 962.671 137.906C967.13 133.35 969.36 127.137 969.36 119.267V115.746Z" fill="white"/>
<path d="M1024.92 4.53491H1050V161.101H1024.92V4.53491Z" fill="white"/>
</svg>
