<svg width="207" height="45" viewBox="0 0 207 45" fill="none" xmlns="http://www.w3.org/2000/svg">
<g clip-path="url(#clip0_530_315)">
<path d="M128.89 35.2933C128.657 35.4023 128.433 35.4619 128.196 35.4877C127.519 35.561 126.844 35.5063 126.168 35.4685C125.319 35.4209 124.47 35.3598 123.62 35.3043C123.598 35.3029 123.576 35.2966 123.539 35.2903C123.513 35.2364 123.481 35.1773 123.454 35.1165C122.402 32.8202 121.347 30.5256 120.301 28.2266C119.431 26.3133 118.639 24.369 117.986 22.3695C117.862 21.9876 117.717 21.6124 117.575 21.2365C117.537 21.1339 117.477 21.0395 117.427 20.9412C117.407 20.9439 117.387 20.9467 117.367 20.9497C117.348 21.086 117.318 21.222 117.31 21.3592C117.262 22.2222 117.201 23.0853 117.177 23.9491C117.085 27.3537 117.062 30.7594 117.08 34.165C117.081 34.4076 117.098 34.6501 117.105 34.8926C117.108 35.0207 117.105 35.1491 117.105 35.3015C116.988 35.3311 116.867 35.3689 116.743 35.3921C116.203 35.4931 115.657 35.5438 115.109 35.5189C114.411 35.4871 113.714 35.428 113.016 35.3795C112.471 35.3418 111.925 35.3026 111.379 35.2643C111.305 35.2591 111.231 35.2545 111.129 35.2479C111.129 35.1324 111.13 35.0286 111.129 34.9246C111.115 31.883 111.123 28.8414 111.08 25.8003C111.029 22.2348 110.976 18.6704 111.011 15.1054C111.031 13.1034 111.088 11.1014 111.158 9.10046C111.2 7.91113 111.3 6.72372 111.374 5.53548C111.376 5.50592 111.384 5.47663 111.394 5.41504C111.641 5.38028 111.893 5.3343 112.147 5.31076C113.564 5.18046 114.972 5.27517 116.374 5.49552C116.411 5.50127 116.448 5.51605 116.485 5.51961C116.738 5.5437 116.884 5.66523 116.968 5.92006C117.076 6.24963 117.228 6.56742 117.384 6.87892C118.023 8.15392 118.613 9.45192 119.228 10.7381C120.27 12.9211 121.378 15.0734 122.46 17.2374C122.516 17.3505 122.59 17.4548 122.665 17.5779C122.784 17.4726 122.805 17.3499 122.82 17.2361C122.872 16.8457 122.945 16.454 122.95 16.0621C122.963 14.9324 122.971 13.8017 122.936 12.6728C122.871 10.5799 122.822 8.48786 122.904 6.39443C122.917 6.0457 122.925 5.69698 122.936 5.34826C122.937 5.32608 122.945 5.30391 122.949 5.28284C123.74 4.91057 127.848 4.90099 128.849 5.27709V5.55902C128.849 9.92026 128.844 14.2818 128.85 18.643C128.854 21.5327 128.88 24.4224 128.885 27.3124C128.887 28.8217 128.859 30.331 128.858 31.8403C128.857 32.9021 128.879 33.9638 128.89 35.0256C128.891 35.1088 128.89 35.1918 128.89 35.2931L128.89 35.2933Z" fill="white"/>
<path d="M148.834 23.9471C148.78 25.2197 148.745 26.2051 148.694 27.1894C148.605 28.8941 148.458 30.5931 148.099 32.2661C148.033 32.5755 147.939 32.8848 147.813 33.1746C147.601 33.6619 147.236 34.0437 146.854 34.4053C146.345 34.8884 145.715 35.1495 145.053 35.3431C144.321 35.5568 143.572 35.6704 142.811 35.7222C141.791 35.7914 140.776 35.7498 139.758 35.6819C139.19 35.6439 138.619 35.6154 138.049 35.6214C137.483 35.6275 136.95 35.4953 136.423 35.3195C135.169 34.9013 134.153 34.1338 133.3 33.1467C132.762 32.5224 132.432 31.7838 132.224 30.9862C131.859 29.5815 131.724 28.1507 131.722 26.7057C131.721 25.5531 131.754 24.4004 131.755 23.2478C131.755 22.7403 131.709 22.2331 131.692 21.7253C131.681 21.4073 131.676 21.0884 131.682 20.7703C131.702 19.8292 131.772 18.8915 131.955 17.9668C132.026 17.6113 132.143 17.2645 132.245 16.9155C132.316 16.668 132.413 16.4269 132.471 16.1764C132.603 15.6145 132.941 15.1978 133.379 14.8508C134.032 14.3334 134.783 14.0107 135.575 13.775C136.307 13.5571 137.06 13.4608 137.82 13.4055C138.397 13.3636 138.972 13.3562 139.551 13.397C139.906 13.4219 140.265 13.3989 140.622 13.3811C142.054 13.3097 143.462 13.429 144.826 13.9004C145.58 14.161 146.274 14.53 146.876 15.0588C146.99 15.159 147.111 15.2512 147.229 15.3465C147.633 15.6714 147.88 16.1014 148.06 16.5758C148.358 17.3611 148.511 18.1784 148.61 19.0092C148.742 20.1257 148.763 21.248 148.795 22.3697C148.813 22.991 148.826 23.6124 148.835 23.9471H148.834ZM137.379 25.4595C137.371 25.4595 137.362 25.4595 137.354 25.4597C137.336 25.8991 137.315 26.3384 137.3 26.778C137.291 27.0432 137.281 27.309 137.289 27.574C137.302 28.0472 137.462 28.466 137.804 28.8016C138.044 29.0376 138.322 29.2275 138.638 29.3474C139.837 29.8021 141.02 29.726 142.182 29.2076C142.498 29.0663 142.732 28.8301 142.9 28.532C143.08 28.2115 143.19 27.8677 143.223 27.4982C143.287 26.7961 143.364 26.0953 143.433 25.3935C143.521 24.4765 143.526 23.5612 143.358 22.6508C143.285 22.2561 143.229 21.8584 143.072 21.4831C142.731 20.6688 142.15 20.1199 141.288 19.8936C140.718 19.7438 140.143 19.7876 139.57 19.901C139.059 20.0022 138.612 20.2275 138.218 20.5686C137.844 20.8932 137.573 21.274 137.53 21.7803C137.474 22.4373 137.412 23.0945 137.384 23.7531C137.36 24.3208 137.379 24.8904 137.379 25.4592L137.379 25.4595Z" fill="white"/>
<path d="M188.826 28.6114C189.097 28.584 189.345 28.543 189.595 28.5367C190.392 28.517 191.191 28.4962 191.988 28.5022C192.946 28.5093 193.904 28.5438 194.862 28.566C194.951 28.5681 195.04 28.5662 195.131 28.5662C195.143 28.6185 195.152 28.647 195.155 28.6757C195.215 29.2891 195.522 29.7619 196.009 30.1191C196.756 30.6665 197.589 30.9534 198.524 30.8984C198.973 30.8721 199.388 30.7306 199.771 30.5006C200.129 30.2858 200.35 29.9606 200.433 29.5588C200.529 29.0973 200.549 28.627 200.497 28.157C200.453 27.7593 200.255 27.4475 199.94 27.2025C199.437 26.8133 198.862 26.5771 198.252 26.4345C197.409 26.2377 196.558 26.0759 195.714 25.8835C195.323 25.7942 194.933 25.6878 194.554 25.555C193.852 25.3089 193.151 25.0593 192.49 24.7106C191.246 24.0539 190.355 23.0767 189.795 21.7916C189.445 20.9879 189.259 20.152 189.27 19.2733C189.285 18.13 189.611 17.0797 190.206 16.1072C190.789 15.1546 191.584 14.438 192.6 13.9708C193.196 13.6965 193.825 13.5235 194.471 13.4115C196.234 13.1061 198.007 13.0546 199.789 13.1712C200.914 13.2448 202.029 13.3814 203.126 13.6385C203.358 13.6929 203.581 13.8049 203.795 13.916C205.071 14.5798 205.898 15.6257 206.39 16.9601C206.801 18.0763 206.979 19.2306 206.999 20.4142C207 20.4438 206.993 20.4736 206.99 20.5007C206.063 20.8598 202.095 20.8697 200.914 20.5155C200.912 20.4895 200.903 20.4591 200.908 20.4314C201.008 19.8867 200.806 19.4225 200.48 19.0168C199.863 18.2469 199.035 17.8428 198.053 17.885C197.099 17.9261 196.37 18.4694 196.076 19.2616C195.848 19.8777 195.975 20.4539 196.299 21.0027C196.677 21.6424 197.247 22.0431 197.94 22.267C198.218 22.3571 198.522 22.3724 198.814 22.4203C200.186 22.6456 201.547 22.9259 202.878 23.3356C203.602 23.5587 204.276 23.8886 204.866 24.3714C205.203 24.6471 205.494 24.9597 205.711 25.3448C206.192 26.1996 206.529 27.1032 206.682 28.0719C206.793 28.7685 206.743 29.4632 206.628 30.1552C206.522 30.7927 206.367 31.4201 206.135 32.0206C205.994 32.3841 205.79 32.7307 205.572 33.0561C204.901 34.0574 203.975 34.7458 202.861 35.1964C201.795 35.6272 200.689 35.8771 199.542 35.9469C198.486 36.011 197.428 36.0296 196.375 35.9294C194.837 35.7829 193.371 35.38 192.046 34.5613C190.5 33.6058 189.455 32.2651 189.013 30.4891C188.862 29.8848 188.801 29.2664 188.825 28.6111L188.826 28.6114Z" fill="white"/>
<path d="M156.624 13.8807C156.642 14.1385 156.672 14.3786 156.676 14.6192C156.69 15.5594 156.711 16.5002 156.702 17.4405C156.684 19.2383 156.648 21.0366 156.742 22.8328C156.796 23.885 156.852 24.9383 157.01 25.9823C157.071 26.3882 157.172 26.7846 157.326 27.1664C157.354 27.2367 157.384 27.3068 157.42 27.3733C157.582 27.675 157.795 27.9205 158.131 28.0448C158.777 28.284 159.435 28.3943 160.121 28.2506C161.11 28.0431 161.832 27.2981 162.022 26.3025C162.125 25.7627 162.134 25.2161 162.149 24.6714C162.193 23.1158 162.1 21.5625 162.044 20.0085C161.997 18.6974 161.918 17.3857 161.98 16.0735C162.012 15.416 162.089 14.7607 162.146 14.1008C162.484 13.9869 162.807 13.9064 163.138 13.8629C163.828 13.7728 164.52 13.8032 165.211 13.8424C165.925 13.8829 166.639 13.9004 167.353 13.8363C167.375 13.8344 167.398 13.8399 167.447 13.8446C167.45 13.939 167.454 14.0351 167.455 14.1311C167.472 16.4827 167.474 18.8345 167.511 21.1858C167.56 24.3109 167.625 27.4357 167.589 30.5614C167.572 32.0556 167.532 33.5496 167.502 35.0436C167.501 35.0882 167.495 35.1328 167.49 35.2054C167.42 35.2054 167.355 35.2117 167.292 35.2046C166.227 35.0855 165.166 35.1457 164.105 35.2566C163.667 35.3026 163.23 35.3666 162.791 35.4049C162.581 35.4233 162.366 35.4112 162.154 35.394C161.982 35.38 161.94 35.3338 161.928 35.1684C161.903 34.8285 161.882 34.4879 161.872 34.1472C161.862 33.7845 161.865 33.4213 161.863 33.0276C161.782 33.0583 161.733 33.0687 161.693 33.0931C161.354 33.2959 161.007 33.4867 160.682 33.7087C159.751 34.3431 158.728 34.76 157.625 34.9612C156.333 35.1969 155.05 35.1372 153.798 34.7094C153.203 34.5057 152.668 34.1885 152.191 33.7771C152.009 33.6197 151.894 33.4141 151.805 33.1941C151.616 32.7268 151.517 32.2368 151.439 31.7417C151.296 30.8335 151.238 29.9187 151.205 29.0006C151.113 26.406 151.195 23.8125 151.239 21.2187C151.265 19.7093 151.315 18.2003 151.333 16.691C151.342 15.9027 151.308 15.1135 151.293 14.3249C151.292 14.2425 151.293 14.1599 151.293 14.0504C151.49 14.0219 151.682 13.9814 151.875 13.9685C152.535 13.925 153.195 13.8708 153.855 13.8591C154.714 13.8437 155.574 13.8648 156.433 13.8706C156.486 13.8708 156.539 13.876 156.624 13.8807H156.624Z" fill="white"/>
<path d="M186.877 35.2212C186.472 35.2648 186.088 35.308 185.704 35.3474C184.709 35.4498 183.713 35.3827 182.717 35.3904C182.338 35.3931 181.958 35.391 181.558 35.391C181.544 35.2828 181.524 35.1881 181.521 35.0931C181.499 34.3883 181.466 33.6835 181.464 32.9786C181.457 31.0979 181.48 29.2166 181.457 27.3361C181.446 26.4273 181.356 25.5197 181.302 24.6114C181.269 24.0511 181.222 23.4908 181.093 22.9439C181.016 22.6135 180.909 22.2873 180.783 21.9719C180.627 21.5822 180.346 21.3092 179.934 21.1729C179.355 20.9816 178.769 20.8869 178.162 20.9835C177.215 21.1343 176.301 21.8411 176.131 23.0375C176.055 23.5686 176.02 24.1097 176.017 24.6462C176.012 25.6697 176.033 26.6934 176.062 27.7166C176.113 29.4906 176.216 31.2635 176.161 33.0388C176.139 33.7423 176.066 34.4444 176.015 35.155C175.697 35.2765 175.38 35.3477 175.057 35.3915C174.33 35.49 173.6 35.4569 172.871 35.4186C172.202 35.3836 171.535 35.366 170.866 35.4257C170.823 35.4295 170.778 35.4263 170.706 35.4263C170.706 35.3244 170.706 35.2352 170.706 35.1462C170.684 32.4386 170.676 29.7306 170.636 27.0235C170.596 24.2857 170.536 21.5482 170.57 18.8099C170.589 17.2932 170.626 15.7768 170.656 14.26C170.657 14.2004 170.665 14.141 170.671 14.058C170.737 14.058 170.795 14.0523 170.852 14.0589C171.962 14.1856 173.069 14.1128 174.174 14.0011C174.567 13.9614 174.958 13.9023 175.351 13.8667C175.547 13.8489 175.747 13.8569 175.944 13.8675C176.178 13.8804 176.226 13.9223 176.242 14.1514C176.267 14.5067 176.283 14.8628 176.291 15.2186C176.299 15.5507 176.293 15.883 176.293 16.2437C176.375 16.2144 176.426 16.2049 176.467 16.1799C176.793 15.9861 177.129 15.8055 177.44 15.5909C178.394 14.9342 179.443 14.5056 180.578 14.3022C181.855 14.0731 183.123 14.1399 184.359 14.5573C184.948 14.7563 185.476 15.0694 185.951 15.4707C186.134 15.6259 186.251 15.8304 186.344 16.0491C186.534 16.492 186.626 16.9603 186.704 17.4317C186.947 18.9038 186.991 20.3901 186.982 21.8767C186.967 24.3793 186.926 26.882 186.892 29.3846C186.876 30.5753 186.842 31.7658 186.835 32.9565C186.83 33.6462 186.861 34.336 186.876 35.0261C186.877 35.0784 186.876 35.1306 186.876 35.2218L186.877 35.2212Z" fill="white"/>
</g>
<path d="M60.46 3.94V16.02H54.67V3.94H19.17V16.02H1.78999V33.77H7.78999V22.02H19.17V39.44H54.67V22.02H60.46V39.44H95.96V3.94H60.46ZM48.67 33.44H25.17V9.94H48.67V33.44ZM89.96 33.44H66.46V9.94H89.96V33.44Z" fill="white"/>
<path d="M48.67 9.94H36.92V33.44H48.67V9.94Z" fill="black"/>
<path d="M89.96 9.94H78.21V33.44H89.96V9.94Z" fill="black"/>
<defs>
<clipPath id="clip0_530_315">
<rect width="96" height="31" fill="white" transform="translate(111 5)"/>
</clipPath>
</defs>
</svg>
