<?xml version="1.0" encoding="utf-8"?>
<!-- Generator: Adobe Illustrator 26.5.0, SVG Export Plug-In . SVG Version: 6.00 Build 0)  -->
<svg version="1.1" id="Layer_1" xmlns="http://www.w3.org/2000/svg" xmlns:xlink="http://www.w3.org/1999/xlink" x="0px" y="0px"
	 viewBox="0 0 130.61 24.3" style="enable-background:new 0 0 130.61 24.3;" xml:space="preserve">
<style type="text/css">
	.st0{clip-path:url(#SVGID_00000147208181320773456780000010472281807796919194_);fill:#FFFFFF;}
	.st1{clip-path:url(#SVGID_00000033332410921055695630000008288021187716960919_);fill:#FFFFFF;}
	.st2{clip-path:url(#SVGID_00000049222217728187556390000005729883387147867067_);fill:#FFFFFF;}
	.st3{clip-path:url(#SVGID_00000088831938881053452210000005382608607473810831_);fill:#FFFFFF;}
	.st4{clip-path:url(#SVGID_00000014622552924452347670000013375882993144278160_);fill:#FFFFFF;}
	.st5{clip-path:url(#SVGID_00000150099437363255481610000007279925291102432428_);fill:#FFFFFF;}
	.st6{clip-path:url(#SVGID_00000147199402286134693670000016928454873804591546_);fill:#FFFFFF;}
	.st7{clip-path:url(#SVGID_00000049934339456311183740000007716506086016092311_);fill:#FFFFFF;}
</style>
<g>
	<g>
		<defs>
			<rect id="SVGID_1_" x="0.81" y="0.15" width="129" height="24"/>
		</defs>
		<clipPath id="SVGID_00000068655860625190890450000001291863543936266382_">
			<use xlink:href="#SVGID_1_"  style="overflow:visible;"/>
		</clipPath>
		<path style="clip-path:url(#SVGID_00000068655860625190890450000001291863543936266382_);fill:#FFFFFF;" d="M41.51,15.95
			c1,1,2.1,1.5,3.5,1.5s2.5-0.5,3.5-1.5s1.5-2.2,1.5-3.6c0-1.4-0.5-2.6-1.5-3.5c-1-1-2.1-1.5-3.5-1.5s-2.5,0.5-3.5,1.5
			s-1.4,2.2-1.4,3.5C40.11,13.75,40.51,14.95,41.51,15.95z M50.81,18.15c-1.6,1.6-3.5,2.4-5.8,2.4s-4.2-0.8-5.8-2.4
			s-2.4-3.5-2.4-5.7c0-2.2,0.8-4.1,2.4-5.7c1.6-1.6,3.6-2.4,5.8-2.4c2.3,0,4.2,0.8,5.8,2.4c1.6,1.6,2.4,3.5,2.4,5.7
			C53.21,14.65,52.41,16.55,50.81,18.15z"/>
	</g>
	<g>
		<defs>
			<rect id="SVGID_00000020394892084090542440000007467926875663410568_" x="0.81" y="0.15" width="129" height="24"/>
		</defs>
		<clipPath id="SVGID_00000163795389240375755670000009223685943395428282_">
			<use xlink:href="#SVGID_00000020394892084090542440000007467926875663410568_"  style="overflow:visible;"/>
		</clipPath>
		<path style="clip-path:url(#SVGID_00000163795389240375755670000009223685943395428282_);fill:#FFFFFF;" d="M55.41,20.25V4.05h3.1
			v16.1h-3.1V20.25z"/>
	</g>
	<g>
		<defs>
			<rect id="SVGID_00000048495910116395581410000010334600806483035046_" x="0.81" y="0.15" width="129" height="24"/>
		</defs>
		<clipPath id="SVGID_00000054945064081885528150000014360848363324122557_">
			<use xlink:href="#SVGID_00000048495910116395581410000010334600806483035046_"  style="overflow:visible;"/>
		</clipPath>
		<path style="clip-path:url(#SVGID_00000054945064081885528150000014360848363324122557_);fill:#FFFFFF;" d="M65.81,24.55h-3.3
			l2.2-4.9l-4.7-10.4h3.4l3,7.2l3-7.2h3.4L65.81,24.55z"/>
	</g>
	<g>
		<defs>
			<rect id="SVGID_00000117656780622558101030000001379011564750457498_" x="0.81" y="0.15" width="129" height="24"/>
		</defs>
		<clipPath id="SVGID_00000060717197260709526560000002484127869159764892_">
			<use xlink:href="#SVGID_00000117656780622558101030000001379011564750457498_"  style="overflow:visible;"/>
		</clipPath>
		<path style="clip-path:url(#SVGID_00000060717197260709526560000002484127869159764892_);fill:#FFFFFF;" d="M88.31,20.25v-5.8
			c0-1.8-0.6-2.7-1.9-2.7c-1,0-1.7,0.4-2.2,1.3c0.1,0.3,0.1,0.5,0.1,0.8v6.4h-3.1v-5.8c0-1.8-0.6-2.7-1.9-2.7
			c-0.4,0-0.8,0.1-1.2,0.3c-0.4,0.2-0.7,0.5-0.9,0.8v7.3h-3.1V9.05h3.1v0.9c0.7-0.7,1.6-1.1,2.7-1.1c1.3,0,2.3,0.5,3.2,1.5
			c0.9-1,2.1-1.5,3.7-1.5c1.5,0,2.6,0.5,3.4,1.4s1.2,2.1,1.2,3.6v6.4C91.41,20.25,88.31,20.25,88.31,20.25z"/>
	</g>
	<g>
		<defs>
			<rect id="SVGID_00000049200768815205532610000001978955911023042751_" x="0.81" y="0.15" width="129" height="24"/>
		</defs>
		<clipPath id="SVGID_00000097496840691930702550000008685815894844344466_">
			<use xlink:href="#SVGID_00000049200768815205532610000001978955911023042751_"  style="overflow:visible;"/>
		</clipPath>
		<path style="clip-path:url(#SVGID_00000097496840691930702550000008685815894844344466_);fill:#FFFFFF;" d="M94.21,24.55V9.25h3.1
			v0.8c0.7-0.7,1.7-1,2.9-1c1.6,0,2.9,0.6,4,1.7c1,1.1,1.6,2.5,1.6,4.1s-0.5,3-1.6,4.1c-1,1.1-2.4,1.7-4,1.7c-1.2,0-2.2-0.4-2.9-1.1
			v5.1h-3.1V24.55z M99.71,17.75c0.8,0,1.5-0.3,2-0.9c0.5-0.6,0.8-1.3,0.8-2.1s-0.3-1.5-0.8-2.1s-1.2-0.9-2-0.9
			c-1,0-1.8,0.4-2.4,1.2v3.6C97.81,17.25,98.61,17.75,99.71,17.75z"/>
	</g>
	<g>
		<defs>
			<rect id="SVGID_00000045604048006974569870000016122345808257939862_" x="0.81" y="0.15" width="129" height="24"/>
		</defs>
		<clipPath id="SVGID_00000158743143190105272670000010693666215215194758_">
			<use xlink:href="#SVGID_00000045604048006974569870000016122345808257939862_"  style="overflow:visible;"/>
		</clipPath>
		<path style="clip-path:url(#SVGID_00000158743143190105272670000010693666215215194758_);fill:#FFFFFF;" d="M118.11,9.15v11.1
			h-3.1v-0.9c-0.7,0.8-1.7,1.1-2.8,1.1c-1.4,0-2.5-0.4-3.3-1.3s-1.2-2.1-1.2-3.6v-6.4h3.1v5.9c0,1.8,0.7,2.6,2.1,2.6
			c0.9,0,1.6-0.4,2.1-1.3v-7.3h3.1V9.15z"/>
	</g>
	<g>
		<defs>
			<rect id="SVGID_00000132064713421297777470000002045672900740792221_" x="0.81" y="0.15" width="129" height="24"/>
		</defs>
		<clipPath id="SVGID_00000173855348234639301180000017170582344125368495_">
			<use xlink:href="#SVGID_00000132064713421297777470000002045672900740792221_"  style="overflow:visible;"/>
		</clipPath>
		<path style="clip-path:url(#SVGID_00000173855348234639301180000017170582344125368495_);fill:#FFFFFF;" d="M124.81,20.45
			c-2.1,0-3.7-0.7-4.6-2.1l2.1-1.8c0.5,0.9,1.4,1.3,2.5,1.3c0.3,0,0.6-0.1,0.9-0.2c0.2-0.1,0.4-0.3,0.4-0.6c0-0.2-0.1-0.4-0.3-0.6
			c-0.2-0.2-0.6-0.3-1.2-0.5l-0.8-0.2c-1-0.3-1.8-0.7-2.4-1.3c-0.5-0.6-0.8-1.4-0.7-2.2c0-1,0.4-1.8,1.2-2.4c0.8-0.6,1.8-0.9,3-0.9
			c1.7,0,3,0.6,3.9,1.9l-2,1.6c-0.5-0.6-1.2-1-1.9-1c-0.3,0-0.6,0.1-0.8,0.2c-0.2,0.1-0.3,0.3-0.3,0.6c0,0.4,0.4,0.8,1.1,1l1.1,0.3
			c2.2,0.6,3.2,1.7,3.2,3.4c0,1-0.4,1.9-1.2,2.6C127.11,20.15,126.11,20.45,124.81,20.45z"/>
	</g>
	<g>
		<defs>
			<rect id="SVGID_00000021827698888155410160000008456510875268363436_" x="0.81" y="0.15" width="129" height="24"/>
		</defs>
		<clipPath id="SVGID_00000043452422891541727960000004672121983129252737_">
			<use xlink:href="#SVGID_00000021827698888155410160000008456510875268363436_"  style="overflow:visible;"/>
		</clipPath>
		<path style="clip-path:url(#SVGID_00000043452422891541727960000004672121983129252737_);fill:#FFFFFF;" d="M15.41,22.55
			L15.41,22.55v1.2h9.3v-3.3h-4.6c2.8-2.1,4.6-5.3,4.6-8.9c0-6.3-5.3-11.3-11.9-11.3s-11.9,5.1-11.9,11.3c0,3.6,1.8,6.8,4.6,8.9
			h-4.7v3.3h9.3v-0.1l0,0v-4.4c-3.4-1.1-5.9-4.1-5.9-7.8c0-4.5,3.8-8.1,8.5-8.1s8.5,3.6,8.5,8.1c0,3.6-2.5,6.7-5.9,7.8v3.3H15.41z"
			/>
	</g>
</g>
</svg>
