<?xml version="1.0" encoding="utf-8"?>
<!-- Generator: Adobe Illustrator 26.5.0, SVG Export Plug-In . SVG Version: 6.00 Build 0)  -->
<svg version="1.1" id="Layer_1" xmlns="http://www.w3.org/2000/svg" xmlns:xlink="http://www.w3.org/1999/xlink" x="0px" y="0px"
	 viewBox="0 0 437 100" style="enable-background:new 0 0 437 100;" xml:space="preserve">
<style type="text/css">
	.st0{fill:#FFFFFF;}
</style>
<path class="st0" d="M50,0C22.4,0,0,22.4,0,50s22.4,50,50,50s50-22.4,50-50S77.6,0,50,0z M24.7,51.6l0.2-0.3l13-20.3
	c0.2-0.3,0.6-0.3,0.8,0.1c2.2,4.9,4,10.9,3.2,14.7c-0.4,1.6-1.4,3.7-2.6,5.6c-0.1,0.3-0.3,0.6-0.5,0.8c-0.1,0.1-0.2,0.2-0.4,0.2H25
	C24.7,52.3,24.5,51.9,24.7,51.6z M82.6,58.6c0,0.2-0.1,0.3-0.3,0.4c-1,0.4-4.5,2-5.9,4c-3.7,5.1-6.5,12.4-12.7,12.4h-26
	c-9.2,0-16.7-7.5-16.7-16.8v-0.3c0-0.2,0.2-0.4,0.4-0.4H36c0.3,0,0.5,0.3,0.5,0.5c-0.1,0.9,0.1,1.9,0.5,2.8c0.9,1.8,2.7,2.8,4.6,2.8
	h7.2v-5.6h-7.1c-0.4,0-0.6-0.4-0.4-0.7c0.1-0.1,0.2-0.2,0.3-0.4c0.7-1,1.6-2.4,2.6-4.1c0.7-1.1,1.3-2.4,1.8-3.6
	c0.1-0.2,0.2-0.4,0.3-0.7c0.1-0.4,0.3-0.8,0.4-1.1c0.1-0.3,0.2-0.6,0.3-0.9c0.2-1,0.3-2.1,0.3-3.3c0-0.4,0-0.9-0.1-1.4
	c0-0.5-0.1-1-0.1-1.5c0-0.4-0.1-0.9-0.2-1.3c-0.1-0.7-0.2-1.3-0.4-2l-0.1-0.2c-0.1-0.4-0.2-0.9-0.4-1.3c-0.4-1.4-0.9-2.8-1.4-4
	c-0.2-0.5-0.4-1-0.6-1.5c-0.3-0.7-0.6-1.4-0.9-2c-0.1-0.3-0.3-0.5-0.4-0.8c-0.1-0.3-0.3-0.6-0.4-0.9c-0.1-0.2-0.2-0.4-0.3-0.6
	l-0.9-1.6c-0.1-0.2,0.1-0.5,0.3-0.4l5.5,1.5l0,0l0,0l0.7,0.2l0.8,0.2l0.3,0.1v-3.3c0-1.6,1.3-2.9,2.8-2.9c0.8,0,1.5,0.3,2,0.8
	s0.8,1.2,0.8,2v4.8l0.6,0.2c0,0,0.1,0,0.1,0.1c0.1,0.1,0.3,0.3,0.6,0.5c0.2,0.2,0.4,0.4,0.7,0.6c0.5,0.4,1.2,1,1.9,1.6
	c0.2,0.2,0.4,0.3,0.5,0.5c0.9,0.8,1.9,1.8,2.9,2.9c0.3,0.3,0.5,0.6,0.8,0.9c0.3,0.3,0.5,0.7,0.8,1c0.3,0.4,0.7,0.9,1,1.3
	c0.1,0.2,0.3,0.4,0.4,0.7c0.4,0.6,0.7,1.2,1.1,1.8c0.1,0.3,0.3,0.6,0.4,0.9c0.4,0.8,0.7,1.6,0.8,2.5c0.1,0.2,0.1,0.4,0.1,0.5l0,0
	c0.1,0.2,0.1,0.5,0.1,0.8c0.1,0.9,0,1.7-0.1,2.6c-0.1,0.4-0.2,0.7-0.3,1.1c-0.1,0.3-0.2,0.7-0.4,1.1c-0.3,0.7-0.7,1.4-1.1,2.1
	c-0.1,0.2-0.3,0.5-0.5,0.8s-0.4,0.5-0.5,0.8c-0.2,0.3-0.5,0.6-0.7,0.9s-0.4,0.6-0.7,0.9c-0.3,0.4-0.7,0.8-1,1.2
	c-0.2,0.2-0.4,0.5-0.7,0.7c-0.2,0.2-0.4,0.5-0.7,0.7c-0.3,0.3-0.6,0.6-0.9,0.8l-0.6,0.5c-0.1,0.1-0.2,0.1-0.3,0.1h-4.4v5.6h5.5
	c1.2,0,2.4-0.4,3.3-1.2c0.3-0.3,1.7-1.5,3.4-3.3c0.1-0.1,0.1-0.1,0.2-0.1l15.2-4.4c0.3-0.1,0.6,0.1,0.6,0.4v3H82.6z"/>
<path class="st0" d="M148.7,74c-4.5,0-8.7-1-12.5-3c-3.7-2-6.7-4.8-9-8.5c-2.2-3.7-3.3-7.8-3.3-12.3s1.1-8.6,3.3-12.2
	c2.2-3.6,5.2-6.4,9-8.5c3.8-2,7.9-3,12.5-3c4.5,0,8.7,1,12.4,3c3.8,2,6.8,4.8,8.9,8.5c2.2,3.6,3.3,7.7,3.3,12.2s-1.1,8.6-3.3,12.3
	c-2.2,3.6-5.2,6.4-8.9,8.5C157.4,72.9,153.2,74,148.7,74z M148.7,63.7c3.8,0,6.9-1.2,9.2-3.7s3.5-5.7,3.5-9.8s-1.2-7.4-3.5-9.8
	c-2.3-2.5-5.3-3.7-9.2-3.7s-7,1.2-9.3,3.6c-2.3,2.4-3.4,5.7-3.4,9.8c0,4.1,1.1,7.4,3.4,9.8C141.7,62.4,144.8,63.7,148.7,63.7z"/>
<path class="st0" d="M191.5,41.9c1.1-1.7,2.7-3.1,4.7-4.2c2-1.1,4.4-1.6,7.1-1.6c3.1,0,6,0.8,8.6,2.3s4.6,3.7,6,6.6
	c1.5,2.9,2.3,6.2,2.3,10s-0.8,7.1-2.3,10s-3.5,5.1-6,6.7c-2.6,1.5-5.4,2.3-8.6,2.3c-2.6,0-5-0.5-7.1-1.6c-2-1.1-3.6-2.4-4.7-4.1
	v16.2h-11.7V36.7h11.7V41.9z M208.2,55c0-2.8-0.8-5-2.5-6.6c-1.6-1.6-3.6-2.4-6-2.4c-2.3,0-4.3,0.8-6,2.4c-1.6,1.6-2.4,3.9-2.4,6.7
	c0,2.8,0.8,5,2.4,6.7c1.6,1.6,3.6,2.4,6,2.4c2.3,0,4.3-0.8,6-2.4C207.4,60.1,208.2,57.8,208.2,55z"/>
<path class="st0" d="M262.3,54.5c0,1.1-0.1,2.2-0.2,3.3h-26.5c0.2,2.3,0.9,4.1,2.3,5.3c1.4,1.2,3,1.8,5,1.8c2.9,0,5-1.2,6.1-3.6
	h12.5c-0.6,2.4-1.8,4.6-3.5,6.5c-1.6,1.9-3.7,3.5-6.2,4.6s-5.3,1.7-8.4,1.7c-3.7,0-7.1-0.8-10-2.3s-5.2-3.7-6.8-6.6s-2.5-6.2-2.5-10
	s0.8-7.2,2.4-10c1.6-2.9,3.9-5.1,6.8-6.6c2.9-1.5,6.3-2.3,10.1-2.3c3.7,0,7,0.7,9.9,2.2c2.9,1.5,5.1,3.6,6.7,6.4
	C261.5,47.5,262.3,50.8,262.3,54.5z M250.3,51.5c0-1.9-0.7-3.5-2.1-4.6c-1.4-1.1-3.1-1.7-5.1-1.7s-3.6,0.6-5,1.7
	c-1.3,1.1-2.1,2.7-2.5,4.7h14.7V51.5z"/>
<path class="st0" d="M291.8,36.2c4.5,0,8,1.4,10.7,4.2s4,6.6,4,11.5v21.5h-11.6v-20c0-2.5-0.7-4.4-2-5.7c-1.3-1.4-3.1-2-5.3-2
	c-2.2,0-4,0.7-5.3,2c-1.3,1.4-2,3.3-2,5.7v20h-11.7V36.5h11.7v4.9c1.2-1.6,2.8-2.9,4.8-3.8C287,36.7,289.3,36.2,291.8,36.2z"/>
<path class="st0" d="M332,74c-3.5,0-6.7-0.6-9.5-1.7s-5-2.7-6.7-4.9c-1.6-2.2-2.5-4.8-2.6-7.8h12.5c0.2,1.7,0.8,3,1.9,4
	c1,0.9,2.4,1.3,4.1,1.3s3.1-0.4,4.1-1.1c1-0.8,1.5-1.9,1.5-3.2c0-1.1-0.4-2.1-1.2-2.8c-0.8-0.7-1.8-1.4-2.9-1.8
	c-1.1-0.5-2.8-1-4.9-1.7c-3.1-0.9-5.6-1.8-7.6-2.8c-2-0.9-3.7-2.3-5.1-4.1s-2.1-4.2-2.1-7.1c0-4.3,1.6-7.7,4.9-10.1
	c3.2-2.5,7.5-3.7,12.7-3.7c5.3,0,9.6,1.2,12.8,3.7c3.2,2.4,5,5.8,5.2,10.2h-12.7c-0.1-1.5-0.7-2.7-1.7-3.5c-1.1-0.9-2.4-1.3-4-1.3
	c-1.4,0-2.6,0.4-3.4,1.1c-0.9,0.7-1.3,1.7-1.3,3.1c0,1.5,0.7,2.7,2.2,3.5s3.7,1.7,6.8,2.7c3.1,1,5.6,2,7.5,2.9c2,0.9,3.7,2.3,5.1,4
	c1.4,1.8,2.1,4,2.1,6.8c0,2.6-0.7,5-2.1,7.2s-3.4,3.9-6,5.2C338.8,73.3,335.7,74,332,74z"/>
<path class="st0" d="M392.8,54.5c0,1.1-0.1,2.2-0.2,3.3h-26.5c0.2,2.3,0.9,4.1,2.3,5.3c1.4,1.2,3,1.8,5,1.8c2.9,0,5-1.2,6.1-3.6H392
	c-0.6,2.4-1.8,4.6-3.5,6.5c-1.6,1.9-3.7,3.5-6.2,4.6s-5.3,1.7-8.4,1.7c-3.7,0-7.1-0.8-10-2.3s-5.2-3.7-6.8-6.6
	c-1.6-2.9-2.5-6.2-2.5-10s0.8-7.2,2.4-10c1.6-2.9,3.9-5.1,6.8-6.6s6.3-2.3,10.1-2.3c3.7,0,7,0.7,9.9,2.2s5.1,3.6,6.7,6.4
	C392,47.5,392.8,50.8,392.8,54.5z M380.8,51.5c0-1.9-0.7-3.5-2.1-4.6s-3.1-1.7-5.1-1.7s-3.6,0.6-5,1.7c-1.3,1.1-2.1,2.7-2.5,4.7
	h14.7V51.5z"/>
<path class="st0" d="M396.7,55c0-3.8,0.7-7.1,2.2-10s3.5-5.1,6.1-6.6s5.4-2.3,8.6-2.3c2.7,0,5,0.5,7.1,1.6s3.6,2.4,4.7,4.2v-5.2H437
	v36.9h-11.7v-5.2c-1.1,1.7-2.7,3.1-4.8,4.2c-2,1.1-4.4,1.6-7.1,1.6c-3.1,0-5.9-0.8-8.5-2.3c-2.6-1.6-4.6-3.8-6.1-6.7
	C397.4,62.1,396.7,58.8,396.7,55z M425.3,55.1c0-2.8-0.8-5-2.5-6.7c-1.6-1.6-3.6-2.4-5.9-2.4s-4.3,0.8-6,2.4
	c-1.6,1.6-2.4,3.8-2.4,6.6c0,2.8,0.8,5.1,2.4,6.7s3.6,2.4,6,2.4c2.3,0,4.3-0.8,5.9-2.4C424.5,60.1,425.3,57.9,425.3,55.1z"/>
</svg>
