<?xml version="1.0" encoding="utf-8"?>
<!-- Generator: Adobe Illustrator 26.5.0, SVG Export Plug-In . SVG Version: 6.00 Build 0)  -->
<svg version="1.1" id="Layer_1" xmlns="http://www.w3.org/2000/svg" xmlns:xlink="http://www.w3.org/1999/xlink" x="0px" y="0px"
	 viewBox="0 0 716 284" style="enable-background:new 0 0 716 284;" xml:space="preserve">
<style type="text/css">
	.st0{fill:#FFFFFF;}
	.st1{fill-rule:evenodd;clip-rule:evenodd;fill:#FFFFFF;}
</style>
<path class="st0" d="M291.2,50.5c36.1,0,65.3,29.7,65.3,66.4v38.2c0,36.7-29.3,66.4-65.3,66.4c-5.7,0-11.2-0.7-16.4-2.1v4.5
	c0,26.8-21.5,48.6-48.2,49.1h-0.8V126.9h0.1v-10C225.9,80.2,255.1,50.5,291.2,50.5z M583.8,50.5c36.1,0,65.4,29.9,65.4,66.8v38.4
	c0,36.9-29.3,66.8-65.4,66.8c-36.1,0-65.4-29.9-65.4-66.8v-38.4C518.4,80.4,547.7,50.5,583.8,50.5z M437.5,47.3
	c36.1,0,65.4,29.9,65.4,66.8v38.4c0,36.9-29.3,66.8-65.4,66.8s-65.4-29.9-65.4-66.8v-38.4C372.1,77.2,401.4,47.3,437.5,47.3z
	 M714.6,0v169.5c0,27.3-21.9,49.4-49,49.9h-0.8V49.9C664.8,22.3,687.1,0,714.6,0z M583.8,100.6c-9,0-16.3,7.5-16.3,16.7v38.4
	c0,9.2,7.3,16.7,16.3,16.7s16.3-7.5,16.3-16.7v-38.4C600.2,108.1,592.8,100.6,583.8,100.6z M291.2,100.3c-9,0-16.3,7.4-16.3,16.6
	v38.2c0,9.2,7.3,16.6,16.3,16.6s16.3-7.4,16.3-16.6v-38.2C307.6,107.7,300.2,100.3,291.2,100.3z M437.5,97.4
	c-9,0-16.3,7.5-16.3,16.7v38.4c0,9.2,7.3,16.7,16.3,16.7s16.3-7.5,16.3-16.7v-38.4C453.8,104.9,446.5,97.4,437.5,97.4z"/>
<path class="st0" d="M531.6,265h-1.4c-1.4,0-2.5-1.3-2.5-3.2v-9.3h2.9c1.3,0,2.4-0.9,2.4-2.2c0-0.6-0.2-1.2-0.7-1.6
	c-0.4-0.4-1-0.6-1.7-0.6h-2.9v-5.2c0-1.4-1.1-2.5-2.5-2.5s-2.5,1.1-2.5,2.5v5.2h-1.3c-0.7,0-1.3,0.2-1.7,0.6c-0.4,0.4-0.7,1-0.7,1.6
	c0,1.3,1,2.2,2.4,2.2h1.3v9.3c0,4.6,3.2,8.2,7.5,8.2h0.7c1.6,0,2.9-1,2.9-2.5C533.8,266.1,532.9,265,531.6,265z"/>
<path class="st1" d="M561.7,258.6L561.7,258.6c0-6.7-4.8-11.5-11.5-11.5c-3.4,0-6.2,1.2-8.3,3.2c-2,2.1-3.2,4.9-3.2,8.3
	c0,3.3,1.2,6.2,3.2,8.3c2.1,2,4.9,3.2,8.3,3.2c3.3,0,6.2-1.2,8.3-3.2C560.6,264.8,561.7,262,561.7,258.6z M550.3,251.7
	c1.9,0,3.6,0.7,4.7,1.9c1.2,1.2,1.8,3,1.8,5c0,2.1-0.7,3.8-1.8,5s-2.8,1.9-4.7,1.9s-3.6-0.7-4.8-1.9s-1.9-2.9-1.9-5
	C543.6,254.5,546.4,251.7,550.3,251.7z"/>
<path class="st1" d="M579.1,279c-3.9,0-7.5-1.6-9.9-4.6c-0.4-0.5-0.6-1.2-0.5-1.8s0.5-1.1,1-1.5l0,0c1.2-0.8,2.6-0.4,3.4,0.6
	c1.3,1.7,3.4,2.7,6,2.7c1.8,0,3.4-0.7,4.6-1.9c1.2-1.2,2-3.1,2-5.6v-0.3c-1.8,2.2-4.3,3.5-7.4,3.5c-3.1,0-5.8-1.2-7.7-3.2
	s-3-4.9-3-8.2c0-3.4,1.2-6.2,3.2-8.3c2.1-2.1,4.9-3.2,8.3-3.2c6.7,0,11.5,4.8,11.5,11.5l0,0v8.6C590.7,273.7,586,279,579.1,279z
	 M579.2,265.6c-1.9,0-3.6-0.7-4.8-1.9s-1.9-2.9-1.9-5c0-4.1,2.8-7,6.6-7c1.9,0,3.6,0.7,4.7,1.9c1.2,1.2,1.8,3,1.8,5
	c0,2.1-0.7,3.8-1.8,5C582.8,264.8,581.2,265.6,579.2,265.6z"/>
<path class="st1" d="M616,264.3c-0.9-0.7-2.2-0.7-3.1,0c-1,0.7-2.8,1.4-4.3,1.4c-3.6,0-6.3-2.1-7.1-5.2h14.6c0.7,0,1.2-0.2,1.7-0.6
	c0.4-0.4,0.7-1,0.7-1.6c0-3.2-1-6-2.8-8s-4.4-3.2-7.7-3.2s-6.1,1.2-8.1,3.2c-2,2.1-3.2,4.9-3.2,8.3c0,3.3,1.2,6.2,3.3,8.3
	c2.1,2,5.1,3.2,8.5,3.2c2.5,0,5.6-1,7.5-2.5c0.5-0.4,0.8-1,0.8-1.6C616.9,265.3,616.6,264.8,616,264.3L616,264.3z M608,251.5
	c1.7,0,3,0.6,4,1.5c0.9,0.8,1.4,2,1.7,3.3h-12.1c0.3-1.4,1-2.5,2-3.3C604.6,252.1,606.1,251.5,608,251.5z"/>
<path class="st0" d="M634.4,265H633c-1.4,0-2.5-1.3-2.5-3.2v-9.3h2.9c1.3,0,2.4-0.9,2.4-2.2c0-0.6-0.2-1.2-0.7-1.6
	c-0.4-0.4-1-0.6-1.7-0.6h-2.9v-5.2c0-1.4-1.1-2.5-2.5-2.5s-2.5,1.1-2.5,2.5v5.2h-1.3c-0.7,0-1.3,0.2-1.7,0.6c-0.4,0.4-0.7,1-0.7,1.6
	c0,1.3,1,2.2,2.4,2.2h1.3v9.3c0,4.6,3.2,8.2,7.5,8.2h0.7c1.6,0,2.9-1,2.9-2.5C636.6,266.1,635.7,265,634.4,265z"/>
<path class="st0" d="M654,247.1c-2.4,0-4.6,0.7-6.3,2.1v-8.6c0-0.7-0.3-1.4-0.7-1.8s-1.1-0.7-1.8-0.7s-1.4,0.3-1.8,0.7
	c-0.5,0.5-0.7,1.1-0.7,1.8v27c0,0.7,0.3,1.3,0.7,1.8c0.5,0.5,1.1,0.7,1.8,0.7s1.4-0.3,1.8-0.7c0.5-0.5,0.7-1.1,0.7-1.8v-11.2
	c0-2.6,2.3-4.6,5.5-4.6c1.7,0,3.2,0.5,4.2,1.4c1,1,1.7,2.4,1.7,4.6v9.8c0,1.4,1.1,2.5,2.5,2.5s2.5-1.1,2.5-2.5v-9.9
	c0-3.4-1.1-6.1-2.9-7.9C659.4,248,656.9,247.1,654,247.1z"/>
<path class="st1" d="M690.2,260.5h-14.6c0.8,3.1,3.4,5.2,7.1,5.2c1.5,0,3.3-0.7,4.3-1.4s2.3-0.7,3.1,0l0,0c0.5,0.5,0.9,1.1,0.9,1.7
	c0,0.6-0.3,1.2-0.8,1.6c-1.9,1.5-5,2.5-7.5,2.5c-3.5,0-6.4-1.2-8.5-3.2s-3.3-4.9-3.3-8.3c0-3.4,1.2-6.2,3.2-8.3s4.8-3.2,8.1-3.2
	c3.2,0,5.9,1.2,7.7,3.2s2.8,4.8,2.8,8c0,0.6-0.2,1.2-0.7,1.6C691.5,260.3,690.9,260.5,690.2,260.5z M682.1,251.5c1.7,0,3,0.6,4,1.5
	c0.9,0.8,1.4,2,1.7,3.3h-12.1c0.3-1.4,1-2.5,2-3.3C678.7,252.1,680.2,251.5,682.1,251.5z"/>
<path class="st0" d="M710,247c-2.4,0-4.6,0.9-6.2,2.3c-0.1-0.6-0.3-1-0.6-1.4c-0.5-0.5-1.1-0.6-1.8-0.6s-1.4,0.2-1.8,0.7
	c-0.5,0.5-0.7,1.1-0.7,1.8v17.7c0,0.7,0.2,1.4,0.7,1.8c0.5,0.5,1.1,0.6,1.8,0.6s1.4-0.2,1.8-0.7c0.5-0.5,0.6-1.1,0.6-1.8v-11.6
	c0-1.6,0.8-2.8,2.3-3.6c1.5-0.7,3.6-1,6.1-0.5c0.6,0.1,1.2,0.1,1.7-0.1c0.5-0.3,0.9-0.8,1.1-1.4c0.1-0.5,0.1-0.9-0.1-1.3
	c-0.2-0.4-0.5-0.8-1-1C712.9,247.3,711.6,247,710,247z"/>
<g>
	<path class="st1" d="M91.2,64.4c0.2,0,0.4,0,0.6,0c17.3-0.1,34.3-2.4,50.9-7c1.6-0.5,1.7-2.7,0.1-3.2c-10.1-3.1-29.4-5.3-51.5-5.5
		c-23.1-0.2-43.5,1.8-53.5,5c-1.6,0.5-1.5,2.8,0.1,3.2C55.2,61.8,73.1,64.4,91.2,64.4z"/>
	<path class="st1" d="M171.4,84.2l-21.7-0.1c0.3-5.4,1-17.3,1.5-21.4c0.1-1.2,0-2-0.2-2.7c-19.2,6.1-39,9.2-59.2,9.3
		c-0.2,0-0.4,0-0.6,0c-20.6,0-41-3.2-60.7-9.6c-0.2,0.6-0.3,1.5-0.2,2.7c0.4,4.1,1.1,16,1.4,21.4l-21.7,0c-2.7-0.1-7.6,1.4-6,8.3
		c0.3,1.4,0.8,3.8,1.4,6.8c3.1,15.8,9.8,49.5,17.9,58.3c5.7,6.9,13.4,10.3,19.4,11.8c5,1.5,10.2,1.3,12,1.2l0,0l0,0l0,0
		c0.3,0,0.4,0,0.6,0c4,6,14.2,19,23.1,22.9c2.9,1.1,2.9,2.1,2.9,3l0,0c0,0.1,0,0.1,0,0.2c-0.5,7.7-2.5,25-6.6,32.3
		c-0.5,1.1-0.7,1.9-0.8,2.5c-0.1,0.6-0.2,0.9-0.6,0.9h-5.4c-0.6,0-1.9,0-2.9,1.1c-0.5,0.6-1.3,0.6-2.3,0.6c-1.2,0-2.6-0.1-3.4,1.4
		c-0.9,1.6-0.7,3.3-0.6,4.1c0,0.2,0,0.3,0,0.4h-8.6c-1,0-3.1,0.5-3.1,2.6v17.1c0,0.3,0,0.6,0,0.8c0.1,0.9,0.1,0.9-2.3,0.9h-7.4
		c-0.5,0-1.4,0.1-1.4,2.6v7.7c0,0.6,0,1.7,2.6,1.7l104.2,0.3c2.6,0,2.6-1.1,2.6-1.7v-7.7c0-2.5-0.9-2.6-1.4-2.6h-7.4
		c-2.4,0-2.4,0-2.3-0.9c0-0.2,0-0.5,0-0.8v-17.1c0-2.1-2.1-2.6-3.1-2.6h-8.6c0-0.1,0-0.3,0-0.4c0.1-0.9,0.3-2.6-0.6-4.1
		c-0.8-1.5-2.2-1.5-3.4-1.4c-0.9,0-1.8,0-2.3-0.6c-0.9-1.1-2.3-1.1-2.9-1.1h-5.4c-0.4,0-0.5-0.3-0.6-0.9c-0.1-0.6-0.3-1.4-0.8-2.5
		c-4.1-7.3-6-24.6-6.5-32.3c0-0.1,0-0.1,0-0.2c0-0.8,0-1.9,2.9-2.9c8.9-3.9,19.2-16.8,23.2-22.8c0.1,0,0.3,0,0.6,0
		c1.8,0.1,7,0.4,12-1.1c6-1.4,13.7-4.8,19.5-11.7c8.2-8.8,15-42.5,18.2-58.2c0.6-3.1,1.1-5.4,1.4-6.8C179,85.7,174,84.1,171.4,84.2z
		 M23.8,136.4c-6.6-19.8-9.2-32.1-9.7-35.1c-0.1-0.3-0.1-0.7-0.2-1.1c-0.6-3-1.4-6.9,1.9-6.8l13.5,0.2c2.4,0,4.4,9.2,6,18.4
		s9.7,35.7,13.5,43.9C43.3,157.7,30.5,156.3,23.8,136.4z M90.4,160.2L90.4,160.2L90.4,160.2L90.4,160.2L90.4,160.2L71.1,132
		l19.4,12.4l19.5-12.3L90.4,160.2z M90.5,136.5L90.5,136.5L90.5,136.5L90.5,136.5L90.5,136.5L71,124.2l19.7-33.6l0,0l0,0l0,0l0,0
		l19.4,33.7L90.5,136.5z M125.2,143c-0.9,0.6-4.8,0-6.2-0.9c-1.4-0.9,3.6-10.5,9.7-30.9c3.4-22,2.4-31.5,4.5-32.6
		c2.9,0,3.4,0,8.7-1.9c-0.7,3.5-4.1,30.2-5.3,34.4C133.5,122.4,129.9,139.7,125.2,143z M167.2,101.4c-0.1,0.4-0.2,0.8-0.2,1.1
		c-0.6,3-3.3,15.3-10.3,35s-19.9,20.9-25.4,19.1c4-8.2,12.5-34.6,14.3-43.7c1.8-9.1,4-18.3,6.4-18.3h13.5
		C168.8,94.5,167.9,98.4,167.2,101.4z"/>
</g>
</svg>
