<?xml version="1.0" encoding="utf-8"?>
<!-- Generator: Adobe Illustrator 26.5.0, SVG Export Plug-In . SVG Version: 6.00 Build 0)  -->
<svg version="1.1" id="Layer_1" xmlns="http://www.w3.org/2000/svg" xmlns:xlink="http://www.w3.org/1999/xlink" x="0px" y="0px"
	 viewBox="0 0 238.22 189.78" style="enable-background:new 0 0 238.22 189.78;" xml:space="preserve">
<style type="text/css">
	.st0{fill:#FFFFFF;}
</style>
<path class="st0" d="M184.22,111.11c-11.52,31.05-44.3,41.12-48.97,42.47L6.5,186.93c-1.68,0.44-3.33-0.8-3.38-2.54
	c-0.18-6.62,0.55-14.6,3.55-23.06c11.91-33.54,48.83-44.23,53.77-45.57L184.61,83.6c1.66-0.43,3.29,0.76,3.38,2.47
	C188.31,92.85,187.73,101.67,184.22,111.11z"/>
<path class="st0" d="M230.22,32.11c-11.52,31.05-44.3,41.12-48.97,42.47L52.5,107.93c-1.68,0.44-3.33-0.8-3.38-2.54
	c-0.18-6.62,0.55-14.6,3.55-23.06c11.91-33.54,48.83-44.23,53.77-45.57L230.61,4.6c1.66-0.43,3.29,0.76,3.38,2.47
	C234.31,13.85,233.73,22.67,230.22,32.11z"/>
</svg>
