<svg width="184" height="29" viewBox="0 0 184 29" fill="none" xmlns="http://www.w3.org/2000/svg">
<g clip-path="url(#clip0_529_145)">
<path d="M36.2775 0.0066364C36.2775 0.0066364 18.9074 4.34383 16.3405 5.06756C7.03963 7.6857 7.40538 15.1451 7.40817 15.202L7.40819 15.2024C7.33713 16.8418 9.18458 16.0999 9.18458 16.0999L25.4474 11.9521C25.4474 11.9521 31.129 10.502 33.678 7.96248C36.2272 5.42294 36.9555 2.32569 36.8933 0.930106C36.8459 -0.138628 36.2775 0.0066364 36.2775 0.0066364ZM0.619422 28.8027C0.619422 28.8027 17.9895 24.4655 20.5564 23.7418C29.8943 21.114 29.4917 13.6096 29.4917 13.6096C29.5628 11.9701 27.7153 12.712 27.7153 12.712L11.4525 16.8573C11.4525 16.8573 5.768 18.3073 3.21887 20.8469C0.669752 23.3864 -0.0585682 26.4837 0.00360739 27.8792C0.0509782 28.9479 0.619422 28.8027 0.619422 28.8027Z" fill="#F7F7F8"/>
</g>
<path d="M113.925 19.653H111.864V18.4036C111.8 18.436 111.762 18.4441 111.742 18.4661C110.922 19.3302 109.865 19.7432 108.689 19.8785C107.037 20.0694 105.397 19.9815 103.807 19.476C102.401 19.0294 101.255 18.2544 100.637 16.9102C100.125 15.7939 100.058 14.6174 100.239 13.4236C100.537 11.4605 101.734 10.1776 103.649 9.57262C106.101 8.79756 108.594 8.8126 111.048 9.59691C112.257 9.98328 113.192 10.7248 113.656 11.9117C113.767 12.1962 113.82 12.5028 113.908 12.829C113.774 12.8371 113.687 12.8475 113.601 12.8475C112.666 12.8475 111.731 12.844 110.798 12.8521C110.618 12.8533 110.52 12.8163 110.435 12.6428C110.129 12.025 109.608 11.6213 108.927 11.4501C107.736 11.1516 106.538 11.1528 105.362 11.5184C104.072 11.9198 103.316 12.9019 103.293 14.2079C103.285 14.6845 103.315 15.1773 103.433 15.6377C103.672 16.577 104.328 17.2017 105.27 17.5152C106.507 17.9259 107.779 17.9525 109.037 17.6228C109.874 17.403 110.503 16.9171 110.735 16.0623C110.742 16.0345 110.749 16.0056 110.751 15.9767C110.751 15.9593 110.742 15.9408 110.729 15.8957C110.216 15.8957 109.695 15.8957 109.174 15.8957C108.653 15.8957 108.135 15.8957 107.598 15.8957V14.0136H113.926V19.6541L113.925 19.653Z" fill="white"/>
<path d="M60.4325 12.4611C60.2239 12.4611 60.0345 12.4611 59.8464 12.4611C59.0624 12.4611 58.2784 12.4565 57.4945 12.4646C57.3051 12.4669 57.217 12.4253 57.1736 12.2252C57.0759 11.7682 56.772 11.4408 56.3161 11.2916C55.9301 11.1655 55.5213 11.0394 55.1208 11.0302C54.3019 11.0128 53.4793 11.0556 52.6616 11.1158C52.4143 11.1343 52.1635 11.2639 51.9415 11.3888C51.5954 11.5831 51.4724 11.9024 51.523 12.2807C51.5701 12.6381 51.8185 12.8417 52.1538 12.8938C52.9149 13.0129 53.682 13.1009 54.4478 13.1853C55.7335 13.3264 57.0229 13.4467 58.3074 13.5971C58.5812 13.6295 58.8489 13.7382 59.1082 13.8412C60.2215 14.2831 60.7702 15.1091 60.8052 16.245C60.8173 16.636 60.7992 17.0398 60.7123 17.4203C60.4579 18.5355 59.6401 19.1821 58.5606 19.4713C57.6971 19.7027 56.7937 19.8392 55.8988 19.9075C54.2633 20.0312 52.6218 20.0185 51.0128 19.653C50.569 19.5523 50.1252 19.3938 49.7223 19.1902C48.5729 18.6072 47.8649 17.3428 48.0217 16.2196H51.1696C51.1865 16.2392 51.2058 16.2531 51.2082 16.2682C51.3373 17.1543 51.8837 17.6552 52.7786 17.8333C53.975 18.0705 55.1739 18.0751 56.3643 17.8102C56.6128 17.7547 56.8576 17.6401 57.0735 17.5083C57.4426 17.2827 57.5463 16.9275 57.4957 16.5238C57.4486 16.1455 57.2183 15.876 56.8516 15.8031C56.1762 15.6689 55.4887 15.5845 54.8036 15.5012C53.4588 15.3381 52.1128 15.1981 50.768 15.0327C50.5232 15.0026 50.2832 14.9089 50.0504 14.8222C48.7755 14.3456 48.1918 13.4491 48.2895 12.1372C48.398 10.6959 49.1663 9.8676 50.8102 9.43033C52.2105 9.05784 53.6422 9 55.0834 9.05669C56.181 9.10064 57.2641 9.22905 58.3025 9.60038C59.6896 10.0966 60.4337 11.0765 60.4325 12.4611Z" fill="white"/>
<path d="M116.764 16.2231H119.971C119.983 16.2358 120.006 16.2474 120.009 16.2624C120.14 17.1612 120.699 17.6656 121.603 17.8403C122.79 18.0693 123.979 18.0751 125.16 17.8137C125.399 17.7604 125.634 17.6517 125.845 17.5302C126.231 17.307 126.349 16.9507 126.3 16.5331C126.253 16.1409 126.013 15.8725 125.634 15.7985C124.968 15.6678 124.29 15.5857 123.615 15.5035C122.27 15.3416 120.923 15.2016 119.579 15.035C119.325 15.0038 119.075 14.9066 118.834 14.8152C117.583 14.3409 117.008 13.4652 117.09 12.1743C117.183 10.7179 117.954 9.87455 119.606 9.43265C121.006 9.059 122.437 9.00001 123.878 9.05785C124.975 9.1018 126.057 9.23252 127.098 9.59923C128.344 10.0388 129.089 10.8555 129.226 12.1453C129.235 12.2379 129.237 12.3316 129.243 12.4426C129.134 12.4507 129.047 12.4611 128.959 12.4611C128.075 12.4623 127.19 12.4588 126.306 12.4646C126.125 12.4646 126.022 12.4426 125.979 12.2333C125.881 11.7648 125.568 11.4339 125.1 11.2847C124.722 11.1644 124.324 11.0406 123.932 11.0325C123.113 11.0163 122.289 11.0499 121.473 11.1193C121.191 11.1436 120.904 11.3032 120.658 11.457C120.339 11.656 120.273 11.9857 120.334 12.3316C120.39 12.6451 120.621 12.829 120.921 12.8869C121.45 12.9898 121.986 13.0719 122.523 13.124C123.843 13.2524 125.166 13.3415 126.483 13.4838C126.937 13.5323 127.388 13.6631 127.818 13.8134C128.841 14.1709 129.451 14.8731 129.582 15.9223C129.799 17.6563 129.202 18.8976 127.318 19.5026C127.08 19.5789 126.838 19.6483 126.592 19.6877C124.242 20.0717 121.89 20.1342 119.561 19.5893C118.255 19.2839 117.272 18.5644 116.933 17.2341C116.851 16.9114 116.821 16.577 116.763 16.2231H116.764Z" fill="white"/>
<path d="M155.47 9.0347C156.782 9.05552 158.076 9.18046 159.306 9.664C161.323 10.4552 162.381 11.9082 162.528 13.98C162.601 15.0119 162.492 16.0218 162.033 16.9738C161.452 18.1827 160.446 18.9647 159.166 19.3834C156.65 20.2071 154.109 20.2267 151.614 19.3233C149.572 18.5841 148.544 17.0814 148.4 15.0119C148.328 13.9893 148.436 12.9875 148.888 12.0458C149.508 10.7549 150.613 10.0018 151.97 9.54022C153.102 9.15501 154.279 9.05552 155.47 9.03586V9.0347ZM155.448 17.8287C155.453 17.809 155.459 17.7905 155.464 17.7708C155.783 17.7466 156.107 17.7373 156.424 17.6933C157.488 17.5476 158.425 17.1809 159 16.2404C159.425 15.544 159.486 14.7759 159.4 13.9997C159.252 12.6659 158.458 11.789 157.108 11.4466C156.008 11.1678 154.898 11.1667 153.802 11.4536C152.632 11.7601 151.843 12.46 151.602 13.626C151.516 14.0367 151.505 14.4705 151.525 14.8904C151.585 16.1432 152.322 17.0964 153.571 17.4712C154.177 17.6529 154.822 17.7142 155.449 17.8298L155.448 17.8287Z" fill="white"/>
<path d="M94.3148 16.2971V9.36092H97.0069V19.6437C96.9236 19.6495 96.8368 19.6622 96.7512 19.6622C95.8369 19.6634 94.9227 19.6703 94.0085 19.6553C93.8722 19.653 93.6997 19.5755 93.6093 19.4771C91.5553 17.2572 89.5097 15.0304 87.4629 12.8047C87.3942 12.7295 87.3206 12.6601 87.188 12.5259V19.6449H84.5044V9.36092C84.6057 9.35398 84.7022 9.34241 84.7987 9.34241C85.7129 9.34125 86.6271 9.34704 87.5413 9.33778C87.7416 9.33547 87.873 9.40025 88.0033 9.54254C89.9765 11.7023 91.9557 13.8562 93.9337 16.0125C94.0314 16.1189 94.1327 16.223 94.2316 16.3283C94.2593 16.3179 94.2871 16.3075 94.3148 16.2971Z" fill="white"/>
<path d="M135.528 13.279H142.405V9.36092H145.218V19.646H142.421V15.4954H135.539V19.6425H132.724V9.36092H135.528V13.279Z" fill="white"/>
<path d="M169.38 11.5808H164.59V9.36092H177V11.5681H172.215V19.6425H169.38V11.5808Z" fill="white"/>
<path d="M66.7237 17.4631H74.9638V19.6472H63.9171V9.37018H66.7237V17.4631Z" fill="white"/>
<path d="M80.9474 19.6495H78.1444V9.36324H80.9474V19.6495Z" fill="white"/>
<defs>
<clipPath id="clip0_529_145">
<rect width="37" height="29" fill="white"/>
</clipPath>
</defs>
</svg>
