<svg width="116" height="28" viewBox="0 0 116 28" fill="none" xmlns="http://www.w3.org/2000/svg">
<g clip-path="url(#clip0_529_88)">
<path fill-rule="evenodd" clip-rule="evenodd" d="M29.642 18.15L23.737 26.406C22.877 27.61 21.2 28.14 19.064 27.968C16.097 27.71 12.155 26.134 8.385 23.425C7.15572 22.5522 5.99439 21.5874 4.91099 20.539C2.91399 18.6 1.44599 16.581 0.659995 14.781C-0.200005 12.803 -0.228005 11.055 0.631995 9.85099L6.55199 1.59399C7.40999 0.389994 9.072 -0.140006 11.222 0.0319942C14.19 0.274994 18.117 1.86599 21.901 4.56199C25.671 7.26999 28.438 10.495 29.613 13.219C29.714 13.453 29.804 13.683 29.883 13.909C30.467 15.602 30.4 17.088 29.641 18.149L29.642 18.15ZM28.696 13.62C27.564 11.026 24.912 7.973 21.3 5.392C17.702 2.812 13.961 1.279 11.138 1.049C9.418 0.905996 8.056 1.222 7.368 2.182L7.338 2.239C6.694 3.199 6.838 4.561 7.511 6.109C8.643 8.719 11.295 11.771 14.893 14.351C18.491 16.931 22.232 18.465 25.055 18.695C26.747 18.823 28.08 18.522 28.782 17.619L28.826 17.548C29.514 16.602 29.37 15.197 28.696 13.62ZM23.407 13.678C23.092 14.122 22.447 14.251 21.659 14.179C20.239 14.065 18.376 13.29 16.569 12.001C14.764 10.711 13.431 9.191 12.872 7.887C12.556 7.156 12.471 6.511 12.786 6.067C13.102 5.622 13.746 5.493 14.549 5.55C15.953 5.68 17.831 6.439 19.623 7.73C21.429 9.019 22.763 10.553 23.321 11.857C23.651 12.588 23.737 13.233 23.407 13.677V13.678Z" fill="white"/>
<path d="M43.986 26.696C42.225 26.696 40.458 26.37 38.686 25.719C36.914 25.069 35.415 24.209 34.188 23.142L37.069 18.851C38.0581 19.7055 39.1767 20.3975 40.383 20.901C41.633 21.413 42.823 21.669 43.953 21.669C44.893 21.669 45.683 21.498 46.323 21.157C46.974 20.815 47.3 20.361 47.3 19.796C47.3 19.593 47.257 19.411 47.172 19.251C47.086 19.091 46.942 18.941 46.739 18.803C46.5459 18.6698 46.3426 18.5521 46.131 18.451C45.8482 18.3131 45.5537 18.2007 45.251 18.115C44.877 17.997 44.551 17.906 44.274 17.842C43.8856 17.7356 43.4959 17.6343 43.105 17.538C37.768 16.236 35.1 13.776 35.1 10.158C35.1 8.076 35.917 6.411 37.55 5.162C39.183 3.903 41.339 3.273 44.018 3.273C45.693 3.273 47.241 3.529 48.66 4.042C50.09 4.554 51.254 5.227 52.15 6.059L49.557 10.366C48.874 9.746 48.025 9.25 47.011 8.876C46.0356 8.49918 44.9996 8.30397 43.954 8.3C43.057 8.3 42.326 8.455 41.76 8.765C41.194 9.075 40.912 9.475 40.912 9.965C40.912 10.489 41.242 10.921 41.904 11.262C42.577 11.604 43.5 11.913 44.674 12.191C45.069 12.276 45.432 12.367 45.763 12.463C46.104 12.548 46.573 12.698 47.172 12.911C47.78 13.114 48.324 13.338 48.805 13.584C49.295 13.829 49.819 14.149 50.374 14.544C50.8913 14.9037 51.3549 15.335 51.751 15.825C52.124 16.285 52.434 16.839 52.679 17.49C52.935 18.141 53.063 18.835 53.063 19.572C53.063 20.959 52.663 22.202 51.863 23.302C51.062 24.39 49.973 25.228 48.596 25.815C47.22 26.402 45.683 26.696 43.986 26.696ZM68.865 24.759C67.403 26.05 65.465 26.696 63.054 26.696C60.641 26.696 58.704 26.05 57.242 24.759C55.78 23.457 55.048 21.739 55.048 19.604V9.58H60.364V18.85C60.364 19.661 60.609 20.312 61.1 20.803C61.602 21.294 62.253 21.54 63.053 21.54C63.854 21.54 64.5 21.294 64.991 20.803C65.492 20.313 65.743 19.661 65.743 18.85V9.58H71.059V19.603C71.059 21.737 70.327 23.456 68.865 24.758V24.759ZM80.264 26.696C77.585 26.696 75.162 25.863 72.996 24.198L75.349 20.852C76.897 22.016 78.482 22.597 80.104 22.597C80.809 22.597 81.374 22.501 81.801 22.309C82.228 22.106 82.441 21.829 82.441 21.477C82.441 21.114 82.217 20.837 81.769 20.644C81.332 20.452 80.649 20.26 79.719 20.068C79.229 19.961 78.834 19.876 78.535 19.812C78.1423 19.7057 77.7528 19.588 77.367 19.459C76.9546 19.3309 76.5531 19.1704 76.166 18.979C75.866 18.809 75.526 18.584 75.141 18.307C74.7983 18.0608 74.5006 17.7574 74.261 17.41C74.039 17.037 73.8615 16.6393 73.732 16.225C73.5785 15.7273 73.5029 15.2088 73.508 14.688C73.508 13.493 73.834 12.474 74.485 11.63C75.135 10.787 75.99 10.168 77.046 9.773C78.103 9.378 79.298 9.181 80.632 9.181C83.098 9.181 85.361 9.901 87.421 11.342L85.051 14.688C83.546 13.749 82.138 13.28 80.825 13.28C80.227 13.28 79.735 13.36 79.352 13.52C78.978 13.68 78.792 13.925 78.792 14.256C78.792 14.608 79.005 14.88 79.432 15.073C79.859 15.254 80.542 15.441 81.481 15.633C81.94 15.718 82.33 15.799 82.65 15.873C82.97 15.948 83.365 16.06 83.834 16.209C84.304 16.359 84.699 16.519 85.019 16.689C85.35 16.86 85.697 17.085 86.059 17.362C86.423 17.629 86.716 17.928 86.94 18.259C87.165 18.589 87.346 18.989 87.485 19.459C87.635 19.919 87.709 20.425 87.709 20.98C87.709 22.784 87.009 24.188 85.612 25.191C84.224 26.194 82.442 26.696 80.264 26.696ZM100.181 9.181C102.07 9.181 103.591 9.752 104.744 10.894C105.907 12.036 106.489 13.552 106.489 15.441V26.296H101.173V17.218C101.173 16.343 100.923 15.644 100.421 15.121C99.919 14.587 99.252 14.321 98.42 14.321C97.502 14.321 96.76 14.592 96.194 15.137C95.639 15.681 95.362 16.397 95.362 17.282V26.296H90.062V2.68H95.362V11.15C96.642 9.836 98.249 9.181 100.181 9.181ZM112.364 7.772C111.446 7.772 110.678 7.468 110.059 6.86C109.44 6.24 109.13 5.472 109.13 4.554C109.13 3.614 109.44 2.841 110.059 2.233C110.678 1.613 111.446 1.304 112.364 1.304C113.304 1.304 114.077 1.614 114.686 2.233C115.305 2.841 115.614 3.615 115.614 4.554C115.614 5.472 115.305 6.24 114.686 6.86C114.077 7.468 113.304 7.772 112.364 7.772ZM109.723 26.296V9.58H115.022V26.295L109.723 26.296Z" fill="white"/>
</g>
<defs>
<clipPath id="clip0_529_88">
<rect width="116" height="28" fill="white"/>
</clipPath>
</defs>
</svg>
