<?xml version="1.0" encoding="utf-8"?>
<!-- Generator: Adobe Illustrator 26.5.0, SVG Export Plug-In . SVG Version: 6.00 Build 0)  -->
<svg version="1.1" id="Layer_1" xmlns="http://www.w3.org/2000/svg" xmlns:xlink="http://www.w3.org/1999/xlink" x="0px" y="0px"
	 viewBox="0 0 120.72 110.76" style="enable-background:new 0 0 120.72 110.76;" xml:space="preserve">
<style type="text/css">
	.st0{fill:#FFFFFF;}
</style>
<g>
	<path class="st0" d="M118.87,58.73c-0.01-0.08-0.02-0.17-0.03-0.25c0,0-0.01-0.01-0.01-0.01c-1.9-10.75-14.38-26.2-32.65-39.05
		C70.3,8.24,54.06,1.85,43.01,1.56c0,0-0.01-0.01-0.01-0.01c-1.84-0.15-4.68-0.14-7.92,0.86c-1.21,0.37-2.28,0.83-3.21,1.29
		c-1.08,0.54-2,1.35-2.71,2.32C21.31,16.75,13.46,27.48,5.61,38.2c-0.93,1.27-1.66,2.66-2.13,4.16c-0.2,0.63-0.37,1.32-0.52,2.05
		c-0.56,2.85-0.4,5.28-0.16,6.92l0.01,0c1.36,10.78,14.02,26.71,32.79,39.92c17.09,12.03,34.6,18.53,45.6,17.82l0,0
		c1.6-0.05,4.37-0.37,7.33-1.93c1.79-0.95,3.12-2.07,4.02-2.98c8.14-11.37,16.27-22.73,24.41-34.1c0.62-0.86,1.09-1.83,1.36-2.85
		c0.39-1.46,0.7-3.21,0.74-5.2c0-0.05,0-0.09,0-0.14C119.12,60.89,119.05,59.84,118.87,58.73z"/>
</g>
<g>
	<g>
		<ellipse transform="matrix(0.5756 -0.8178 0.8178 0.5756 -1.1991 75.8354)" cx="72.46" cy="39.07" rx="20.78" ry="51.17"/>
		<path d="M102.79,73.52c-10.97,0-27.03-6.1-42.58-17.05c-11.23-7.9-20.54-17.11-26.22-25.94c-5.76-8.95-7.11-16.48-3.79-21.2
			c3.32-4.72,10.86-5.99,21.23-3.59c10.22,2.37,22.04,8.02,33.26,15.93c23.3,16.4,36.76,37.54,30.01,47.14l0,0
			C112.46,72,108.25,73.52,102.79,73.52z M42.11,5.55c-5.23,0-9.06,1.47-11.09,4.36c-3.07,4.36-1.72,11.49,3.81,20.08
			c5.61,8.72,14.83,17.83,25.95,25.66c22.85,16.08,46.67,21.72,53.1,12.58c6.44-9.14-6.92-29.66-29.76-45.74
			C73,14.66,61.31,9.06,51.21,6.72C47.84,5.94,44.79,5.55,42.11,5.55z"/>
	</g>
	<g>
		
			<ellipse transform="matrix(0.5786 -0.8156 0.8156 0.5786 -1.268 75.5785)" class="st0" cx="72.51" cy="39.02" rx="10.06" ry="24.73"/>
		<path d="M87.12,56.02c-5.46,0-13.27-3.12-20.66-8.35c-11.55-8.17-17.93-18.38-14.54-23.23c0.83-1.19,2.17-1.95,3.98-2.26
			c5.42-0.95,14.32,2.27,22.68,8.19c11.55,8.17,17.93,18.38,14.54,23.23h0c-0.83,1.19-2.17,1.95-3.98,2.26
			C88.5,55.96,87.83,56.02,87.12,56.02z M57.95,23.01c-0.67,0-1.3,0.05-1.88,0.15c-1.54,0.27-2.66,0.89-3.33,1.85
			c-2.97,4.25,3.57,14.25,14.3,21.84c8.15,5.77,16.76,8.92,21.93,8.02c1.54-0.27,2.66-0.89,3.33-1.85
			c2.97-4.25-3.58-14.25-14.3-21.84C70.77,26.06,63.18,23.01,57.95,23.01z"/>
	</g>
</g>
</svg>
