<?xml version="1.0" encoding="utf-8"?>
<!-- Generator: Adobe Illustrator 26.5.0, SVG Export Plug-In . SVG Version: 6.00 Build 0)  -->
<svg version="1.1" id="Layer_1" xmlns="http://www.w3.org/2000/svg" xmlns:xlink="http://www.w3.org/1999/xlink" x="0px" y="0px"
	 viewBox="0 0 283 61.3" style="enable-background:new 0 0 283 61.3;" xml:space="preserve">
<style type="text/css">
	.st0{fill:#FFFFFF;}
</style>
<path class="st0" d="M67.8,42.74v-32.2c0-3-0.8-4.1-4.3-3.7v-1.5l7.9-1.7c1.5-0.3,2.5,0.4,2.5,2v37c0,2.3,1.4,2.7,3.3,2.3v1
	c-0.8,1.2-2.8,1.9-4.7,1.9C69.9,47.84,67.8,46.34,67.8,42.74z M18.4,42.34c0,2.5-1.4,3.1-6.8,3.5v1.6h20.5v-1.6
	c-5.4-0.5-6.9-1.1-6.9-3.5v-30c0-3.2,0.5-4,5.3-4c4.7,0,6.2,1.4,8.1,6.6h1.7l-1.1-8.5c0-0.1,0-0.2-0.1-0.3c-0.1-0.1-0.1-0.2-0.2-0.2
	c-0.1-0.1-0.2-0.1-0.3-0.1s-0.2,0-0.3,0c-1,0.1-2.7,0.1-4.3,0.1H9.5c-1.7,0-3.3-0.1-4.3-0.1c-0.6,0-0.9,0.2-1,0.7l-1.1,8.5H5
	c1.9-5.2,3.4-6.6,8.1-6.6c4.8,0,5.3,0.8,5.3,4C18.4,12.44,18.4,42.34,18.4,42.34z M53.7,29.74c-14.5,1.7-18.7,5.6-18.7,10.8
	s4.3,7.4,8.7,7.4s8.4-2,10.8-4.9c0.5-0.6,1-0.6,1,0.1c0.1,3.1,1.9,4.8,4.7,4.8c1.9,0,3.8-0.7,4.6-1.9v-1c-1.9,0.4-3.3,0-3.3-2.3
	v-14.6c0-8-3.1-11.3-11-11.3c-6.5,0-13.4,2.1-13.4,7.2c0,1.9,1,3.3,3,3.3c1.9,0,3.3-1.2,3.3-3.7c0-3,1.5-4.8,5.3-4.8
	c4.7,0,6.8,2.9,6.8,7.7v1.5C55.5,29.14,54.9,29.54,53.7,29.74z M55.5,33.84v2.7c0,4.5-3.8,7.9-8.4,7.9c-3.9,0-5.7-2.5-5.7-5.2
	c0-3.1,2.1-6.6,11.4-7.6C55,31.44,55.5,32.24,55.5,33.84z M81.2,10.64v32.2c0,3.6,2,5.1,4.7,5.1c1.9,0,3.9-0.7,4.7-1.9v-1
	c-1.9,0.4-3.3,0-3.3-2.3v-37c0-1.6-0.9-2.3-2.5-2l-7.9,1.7v1.5C80.4,6.54,81.2,7.54,81.2,10.64z M92.9,56.34c0-0.5,0.1-0.9,0.2-1.3
	c0.2-0.4,0.4-0.8,0.8-1.1c0.3-0.3,0.7-0.6,1.1-0.7c0.4-0.2,0.9-0.2,1.3-0.2c2.3,0,2.6,1.6,2.9,3c0.2,1.2,0.5,2.3,1.7,2.3
	c1.5,0,2.9-2.2,3.8-4.5c1.3-3.5,0.5-6.3-0.4-8.5l-8.1-20.3c-1.7-4.1-2.5-5-5.3-6.1v-1.5h13.9v1.5c-3.6,1.1-3.9,1.9-2.1,6.1l5.8,14.2
	c0.9,2.1,1.6,2.1,2.5-0.1l2.8-7.3c4.3-11,3.1-11.9-0.8-13v-1.5h12v1.5c-3.9,1.1-4.9,2.1-6.5,6.1l-11,27.4c-2.1,5.2-3.9,8.4-8.9,8.4
	C95.1,60.64,92.9,58.84,92.9,56.34z M169.2,42.34v-31.2c0-2.5,1.4-3.1,4.1-3.5v-1.6h-15.2v1.6c2.7,0.4,4.2,1.1,4.2,3.5v12.5
	c0,1.6-0.9,2.3-2.5,2.3h-15.6c-1.6,0-2.5-0.7-2.5-2.3v-12.5c0-2.5,1.4-3.1,4.1-3.5v-1.6h-15.2v1.6c2.7,0.4,4.1,1.1,4.1,3.5v31.2
	c0,2.5-1.4,3.1-4.1,3.5v1.6h15.2v-1.6c-2.7-0.5-4.1-1.1-4.1-3.5v-12.2c0-1.6,0.9-2.3,2.4-2.3h15.7c1.5,0,2.5,0.7,2.5,2.3v12.2
	c0,2.5-1.5,3.1-4.2,3.5v1.6h15.2v-1.6C170.6,45.34,169.2,44.74,169.2,42.34z M175.3,32.34c0-9.8,7.4-15.6,15.6-15.6
	c8.2,0,15.5,5.7,15.5,15.5s-7.4,15.7-15.6,15.7S175.3,42.14,175.3,32.34z M199.9,34.74c0-8.6-4.3-16.1-10.6-16.1
	c-4.4,0-7.6,3.5-7.6,11.1c0,8.6,4.3,16,10.6,16C196.7,45.74,199.9,42.34,199.9,34.74z M214,4.84c-2.5,0-4.1,1.9-4.1,5
	c0,2.8,0.5,5.8,1.2,9.2c0.8,4.3,1.7,9.4,1.8,15.8h2.2c0.1-6.4,1.1-11.4,1.9-15.8c0.6-3.4,1.2-6.4,1.2-9.2
	C218.1,6.74,216.5,4.84,214,4.84z M211.2,41.24c-0.7,0.7-1.1,1.7-1.2,2.7c0,0.8,0.2,1.5,0.6,2.2c0.4,0.6,1,1.2,1.7,1.5
	s1.5,0.4,2.2,0.2c0.8-0.1,1.5-0.5,2-1s0.9-1.2,1.1-2c0.2-0.8,0.1-1.5-0.2-2.3c-0.3-0.7-0.8-1.3-1.4-1.8c-0.6-0.4-1.4-0.7-2.2-0.7
	C212.9,40.04,212,40.44,211.2,41.24z"/>
<path class="st0" d="M279.4,25.84c0,13.8-11.2,25-25,25c-13.8,0-25-11.2-25-25s11.2-25,25-25S279.4,12.04,279.4,25.84z M254.5,50.14
	c13.4,0,24.3-10.9,24.3-24.3s-10.9-24.3-24.3-24.3s-24.3,10.9-24.3,24.3C230.1,39.24,241,50.14,254.5,50.14z"/>
<path class="st0" d="M270.9,16.34l-2.1-0.1c-0.2,0-0.3-0.1-0.4-0.2c-0.1-0.1-0.2-0.2-0.2-0.4l-0.2-2v-0.1h-0.1h-0.1v0.1l-0.2,2
	c0,0.2-0.1,0.3-0.2,0.4c-0.1,0.1-0.3,0.2-0.4,0.2l-2.1,0.1h-0.1v0.1v0.1c0,0,0,0,0.1,0l2.1,0.1c0.1,0,0.3,0.1,0.4,0.2
	c0.1,0.1,0.2,0.2,0.2,0.4l0.2,2v0.1h0.1h0.1v-0.1l0.2-2c0-0.2,0.1-0.3,0.2-0.4c0.1-0.1,0.3-0.2,0.4-0.2l2.1-0.1h0.1v-0.1
	C271,16.44,271,16.44,270.9,16.34L270.9,16.34z"/>
<path class="st0" d="M266.4,23.64l0.3,0.2c0.3,0.2,0.5,0.5,0.7,0.8c0.1,0.2,0.1,0.4,0.1,0.6c0,0.2,0,0.3-0.1,0.5
	c-0.1,0.3-0.2,0.6-0.3,0.9c-0.1,0.1-0.2,0.3-0.3,0.4v0.1l0.1,0.4c0,0.2,0,0.3,0,0.5c0,0.6-0.1,1.2-0.4,1.8s-0.7,1.1-1.1,1.5h-0.1
	h-0.1c-0.6,0.2-1.3,0.4-1.9,0.5c-0.7,0.1-1.3,0.2-2,0.2l0,0h-0.1c-1.3-0.4-2.7-0.7-4.1-0.8c-0.1,0-0.2,0-0.3,0c-0.3,0-0.5,0-0.8-0.1
	c-0.4-0.1-0.7-0.2-1.1-0.3c-0.6-0.2-1.3-0.3-1.9-0.3l0,0c-0.2,0.3-0.3,0.6-0.4,1c-0.1,0.3,0,0.7,0.1,1c0.2,0.9,0.5,1.7,0.9,2.5
	c0.5,0.8,0.9,1.6,1.3,2.5c0.2,0.5,0.3,0.9,0.4,1.4c0.1,0.5,0.1,1.1-0.1,1.6l-0.2,0.6l-0.5-0.4c-0.1-0.1-0.2-0.1-0.3-0.1
	c0,0.3-0.1,0.6-0.2,0.9c-0.1,0.5-0.4,1-0.6,1.4c-0.4-2.9-2.4-3.7-4.3-4.5c-0.9-0.4-1.7-0.7-2.5-1.2c-2.3-1.7-2.5-3.7-1.1-7.3
	c0.4-1.1,0.7-2.2,0.9-3.4c0-0.3,0.1-0.5,0.1-0.8v-0.1v-0.2c0,0.1,0,0.2,0,0.3c0,0.3,0,0.6,0.1,0.8c0,0.4,0.1,0.7,0.2,1.1
	c0.1,0.2,0.1,0.3,0.3,0.4l0.1,0.1l0.1,0.1c0.1,0.1,0.1,0.1,0.2,0.2c0.3,0.2,0.6,0.4,0.9,0.5c0.7,0.2,1.4,0.4,2.2,0.5
	c0.7,0.1,1.4,0.1,2.2,0.1h0.1c0.8,0,1.5,0.1,2.2,0.4c0.6,0.2,1.3,0.3,2,0.4c1.4,0.1,2.8,0.4,4.2,0.9c0.6,0,1.2,0,1.7-0.2
	c0.4-0.1,0.8-0.2,1.2-0.3c0.9-0.4,1.5-1.4,0.3-1.3c-0.3,0-0.6,0.1-0.8,0.1c-0.2,0-0.4,0.1-0.7,0.2c-0.2,0.1-0.4,0.2-0.7,0.2
	c-0.5,0.1-1,0.1-1.5,0c-0.4-0.2-0.9-0.3-1.3-0.3c0.2-0.1,0.4-0.2,0.7-0.2c0.2,0,0.3,0,0.5,0c0.1,0,0.1,0,0.2,0
	c0.4,0.1,0.8,0,1.2-0.1c0.2-0.1,0.4-0.2,0.6-0.3s0.4-0.2,0.6-0.3c0.5-0.2,1-0.3,1.5-0.3h0.3c0.3-0.5,0.6-1,0.5-1.5
	c-0.1-0.2-0.3-0.3-0.5-0.4c-0.1,0-0.2,0-0.3-0.1c-0.5-0.1-1.5-0.4-1.9-0.7c-0.3-0.3-0.1-0.9,1-1.1c0.5-0.1,1.1-0.1,1.6,0
	c0.2,0,0.4,0,0.5,0l-0.1-0.1l-0.3-0.2l-0.3-0.3l-1.3-1c-0.2-0.2-0.4-0.3-0.7-0.5l-0.1-0.1l-0.2-0.1c-0.1-0.1-0.3-0.1-0.4-0.2
	c-0.4-0.2-0.8-0.5-1.2-0.8c-1.3-1.1-2.7-3.7-3.1-4.6c-0.3-0.7-0.8-1.2-1.5-1.5c0.3,0,0.7,0,1,0.2c0.3,0.2,0.6,0.3,0.8,0.6
	c0.1,0.1,0.3,0.4,0.6,0.8c0.5,0.7,1.2,1.7,1.6,1.8c0.2,0,0.4,0,0.7-0.1c-0.2-0.2-0.4-0.4-0.6-0.7s-0.4-0.6-0.6-0.9
	c-0.1-0.1-0.1-0.2-0.2-0.3c-0.2-0.4-0.4-0.7-0.7-1c-0.1-0.1-0.1-0.1-0.2-0.2c-0.1-0.1-0.2-0.1-0.2-0.1c-0.2-0.1-0.4-0.2-0.6-0.3
	c-0.2-0.1-0.4-0.2-0.7-0.3l-0.6-0.3l-1.2-0.6c-0.8-0.4-1.7-0.7-2.5-1c-0.9-0.3-1.7-0.5-2.6-0.6c-0.2,0-0.4,0-0.6,0
	c-0.2,0-0.3,0-0.5,0.1c-0.1,0-0.2,0.1-0.3,0.1c-0.1,0.1-0.2,0.1-0.4,0.2l-0.6,0.3c-0.8,0.4-1.6,0.9-2.3,1.4
	c-0.6,0.4-1.1,0.8-1.5,1.4c0.6,0,1.2,0.1,1.8,0.3c-0.8,0-1.6,0.1-2.3,0.3c-0.4,0.1-0.7,0.2-1.1,0.4c-0.4,0.1-0.7,0.3-1,0.5
	s-0.6,0.4-0.9,0.7c-0.1,0.1-0.2,0.2-0.2,0.4c-0.1,0.2-0.1,0.3-0.2,0.5c-0.3,0.7-0.5,1.5-0.6,2.3c-0.3,1.5-0.4,3.1-0.4,4.7
	c0.1,1.3,0.4,2.5,1,3.6c0.5-0.7,1.1-1.4,1.6-2.2c0.7-1,1.3-1.9,1.8-2.9c0.3-0.5,0.5-1.1,0.8-1.6c0.2-0.5,0.5-1,0.7-1.5
	c0.3-0.5,0.6-1,1-1.5c0.2-0.2,0.4-0.5,0.6-0.7c0.2-0.2,0.5-0.3,0.8-0.3c-1,0.9-1.8,3.3-2.5,5.9c-0.6,2.2-2.7,7.1-4,7.2
	c-0.5,0-0.7-0.2-1.1-0.7l-0.3-0.4c-0.5-0.7-0.9-1.5-1.1-2.3c-0.2-0.8-0.4-1.7-0.4-2.5s0-1.7,0.1-2.5s0.2-1.6,0.4-2.5
	c0.2-0.8,0.4-1.6,0.7-2.4c0.1-0.2,0.2-0.4,0.3-0.6c0.1-0.1,0.1-0.2,0.2-0.3c0.1-0.1,0.2-0.2,0.2-0.3c0.3-0.3,0.7-0.6,1.1-0.8
	c0.7-0.3,1.4-0.6,2.1-0.7c0.2-0.5,0.5-0.9,0.8-1.2c0.3-0.4,0.7-0.7,1.1-1c0.7-0.6,1.5-1.1,2.4-1.5c0.2-0.1,0.5-0.2,0.6-0.3
	c0.1,0,0.2-0.1,0.3-0.1c0.1-0.1,0.2-0.1,0.3-0.2c0.3-0.1,0.6-0.2,0.8-0.2s0.5,0,0.7,0.1c0.9,0.1,1.9,0.3,2.8,0.6
	c0.9,0.3,1.8,0.7,2.6,1.1l1.3,0.6l0.6,0.3c0.1,0.1,0.3,0.1,0.5,0.2h0.1c0.2,0.1,0.4,0.2,0.7,0.3c0.1,0.1,0.2,0.1,0.4,0.2
	c0.1,0.1,0.2,0.2,0.3,0.3c0.3,0.4,0.6,0.8,0.9,1.2v0.1c0.5,0.8,0.9,1.5,1.5,2l0.5,0.3v0.1l-0.1,0.3l-0.5,0.1c-0.1,0-0.2,0.1-0.2,0.2
	v0.1c0,0.1,0,0.2,0,0.3s0,0.3-0.1,0.4c0,0.1,0,0.1-0.1,0.2v0.1v0.1v0.1c0.3,0.4,0.7,0.7,1.2,0.9c0.1,0.1,0.2,0.1,0.3,0.2l0.2,0.1
	c0.1,0,0.2,0.1,0.3,0.1c0.2,0.1,0.4,0.3,0.6,0.4c0,0,0.1,0,0.1,0.1l1.3,1L266.4,23.64z M254.9,20.84c-0.1,0-0.2,0-0.3,0
	c-0.8,0-1.1-0.6-1-1.1s0-0.7-0.1-0.7c-0.2,0.1-0.4,0.2-0.6,0.4l0,0l0,0l0,0l0,0l0,0c0.2-1.1,0.8-1.2,1.1-1.2
	c0.9,0.1,1.7,0.2,2.6,0.4c0,0,0,0,0.1,0c0,0,0,0,0,0.1c0,0,0,0,0,0.1c0,0,0,0,0,0.1c-0.1,0.1-0.2,0.3-0.3,0.4
	c-0.1,0.2-0.1,0.3,0,0.5C256.3,20.34,255.7,20.74,254.9,20.84z"/>
</svg>
