<svg width="128" id="Layer_1" xmlns="http://www.w3.org/2000/svg" x="0px" y="0px" viewBox="0 0 1363.2 257.3" xml:space="preserve" class="w-[108px] md:w-[128px] undefined"><style>.st0{fill:#e7e6e1}</style><path class="st0" d="M69.4 54.9H0V14.2h183.4v40.7H114V252H69.3V54.9h.1zM207.4 14.2h152.8v40.7h-108v56.7h98.5v40.7h-98.5v58.8h110.1v40.7H207.4V14.2zM377.9 174.5v-9.6h44.2v9.6c0 28.5 18.7 42.8 49.2 42.8s45.9-13.5 45.9-32.6c0-19.7-17.3-26.5-47.9-33.4l-7.8-1.8c-49.2-10.9-78.2-27.5-78.2-71s32.9-69.4 83.9-69.4 88 25.9 88 77.4v10.1H511V86.5c0-27.2-16.6-38.1-43.8-38.1s-39.6 11-39.6 28.7c0 17.6 13.2 26.2 41.7 32.3l7.8 1.8c50.6 10.9 84.2 28.5 84.2 72s-35 73.3-90.1 73.3c-54.8.3-93.3-30.2-93.3-82zM577 174.5v-9.6h44.2v9.6c0 28.5 18.7 42.8 49.2 42.8s45.9-13.5 45.9-32.6c0-19.7-17.3-26.5-47.9-33.4l-7.8-1.8c-49.2-10.9-78.2-27.5-78.2-71s32.9-69.4 83.9-69.4 88 25.9 88 77.4v10.1h-44.2V86.5c0-27.2-16.6-38.1-43.8-38.1-27.2 0-39.7 10.9-39.7 28.5s13.2 26.2 41.7 32.3l7.8 1.8c50.6 10.9 84.2 28.5 84.2 72s-35 73.3-90.1 73.3c-54.8.5-93.2-30-93.2-81.8zM786.9 14.2h152.8v40.7h-108v56.7h98.5v40.7h-98.5v58.8h110.1v40.7H786.9V14.2zM968.4 14.2h103.3c44.5 0 74.1 25.1 74.1 63.5v4.1c0 28.5-15.3 45.9-35.3 54.1v6.2c18.1 1 28.5 13.2 28.5 32.3v77.7h-44.8v-71.3c0-10.9-5.1-18.4-18.4-18.4h-62.5V252h-44.8l-.1-237.8zm98.5 107.4c21 0 33.9-12.6 33.9-31.6v-3.4c0-19-12.2-31.6-33.9-31.6h-53.6v66.6h53.6zM1222.5 14.2h78.2l62.5 237.8h-46.1l-12.9-52.3h-84.9l-12.9 52.3h-46.1l62.2-237.8zm71 144.2l-28.8-115.9h-6.2l-28.8 115.8h63.8v.1z"></path></svg>