<svg width="146" height="65" viewBox="0 0 146 65" fill="none" xmlns="http://www.w3.org/2000/svg">
<g clip-path="url(#clip0_530_214)">
<path d="M60.8416 41.5589C60.8968 41.4034 60.9358 41.3423 60.938 41.2789C60.9733 40.3549 61.4605 39.8919 62.3995 39.8899C63.4577 39.8884 64.5159 39.8899 65.6249 39.8899C65.6485 40.1286 65.6823 40.3077 65.6816 40.486C65.6816 45.7288 65.6786 50.9709 65.6727 56.2136C65.6705 58.2135 65.296 60.1198 64.1001 61.774C62.6386 63.796 60.5111 64.6198 58.1445 64.9079C55.3885 65.2439 52.8372 64.6846 50.6331 62.9125C49.4447 61.9568 48.789 60.6628 48.4519 59.1979C48.4012 58.9784 48.4446 58.7374 48.4446 58.425C49.8597 58.425 51.2454 58.3852 52.6252 58.4596C52.8924 58.4743 53.2 58.8988 53.3781 59.2001C54.1986 60.584 55.4798 61.043 56.9781 61.0106C58.5831 60.9753 59.9747 60.3563 60.5178 58.7846C60.9056 57.6631 60.8835 56.3993 61.0638 55.0568C60.7518 55.1607 60.6451 55.1629 60.5958 55.2174C58.4992 57.5437 54.2089 57.7249 51.3985 55.731C48.2304 53.4828 47.1774 50.2723 47.7675 46.585C48.3106 43.1918 50.366 40.8265 53.6614 39.7963C56.0898 39.0366 58.4256 39.4183 60.4008 41.1956C60.5214 41.3047 60.6517 41.4042 60.8401 41.5596L60.8416 41.5589ZM56.9656 43.8461C54.373 43.8373 52.4611 45.7133 52.4604 48.2666C52.4604 50.8611 54.32 52.7821 56.8692 52.8189C59.3381 52.8543 61.2846 50.9009 61.3015 48.3727C61.3184 45.8158 59.4397 43.855 56.9663 43.8469L56.9656 43.8461Z" fill="white"/>
<path d="M112.148 41.5383C113.11 40.5811 114.225 39.9068 115.557 39.632C118.936 38.9349 122.344 40.6304 124.122 43.8962C126.412 48.0986 125.192 53.7297 121.432 56.3477C118.532 58.3675 114.565 58.1494 112.327 55.8047C112.269 55.7435 112.179 55.7118 111.972 55.5866C111.972 55.9579 111.972 56.2262 111.972 56.4951C111.972 58.9747 111.961 61.4542 111.983 63.9338C111.988 64.4672 111.858 64.7045 111.276 64.6861C110.121 64.6493 108.964 64.6647 107.809 64.6817C107.364 64.6883 107.19 64.5431 107.191 64.0686C107.202 56.2048 107.202 48.3417 107.189 40.4779C107.188 39.9923 107.379 39.873 107.817 39.8803C108.949 39.9002 110.081 39.9135 111.212 39.8803C111.795 39.8634 112.046 40.0527 111.968 40.6518C111.932 40.9215 111.962 41.2 111.962 41.4742C112.023 41.4955 112.085 41.5176 112.147 41.539L112.148 41.5383ZM120.411 48.6151C120.439 46.1473 118.921 44.1954 116.726 43.8771C114.355 43.5337 112.427 44.8519 111.76 47.2718C111.121 49.5892 112.188 52.0887 114.184 52.9538C117.306 54.3059 120.369 52.1712 120.411 48.6158V48.6151Z" fill="white"/>
<path d="M134.415 41.4727C134.572 41.3378 134.73 41.2037 134.886 41.0681C136.512 39.6548 138.392 39.2105 140.493 39.576C144.105 40.2053 145.798 42.813 145.935 46.4097C146.064 49.8295 145.959 53.2581 145.979 56.683C145.982 57.2165 145.795 57.3749 145.276 57.3573C144.215 57.3219 143.15 57.302 142.092 57.3624C141.38 57.4037 141.162 57.1951 141.172 56.4656C141.214 53.5609 141.202 50.6555 141.184 47.75C141.18 47.2129 141.112 46.6602 140.972 46.1429C140.376 43.939 137.946 43.1056 136.08 44.4364C134.613 45.482 134.267 47.0227 134.25 48.6792C134.223 51.2774 134.217 53.8756 134.256 56.4738C134.267 57.1635 134.061 57.3772 133.384 57.3433C132.372 57.2931 131.356 57.3359 130.341 57.3329C129.465 57.3307 129.453 57.3138 129.453 56.4008C129.453 51.0394 129.453 45.6772 129.453 40.3158C129.453 37.5054 129.469 34.6943 129.436 31.8839C129.429 31.2568 129.606 31.0645 130.232 31.0932C131.315 31.1441 132.404 31.1396 133.487 31.0947C134.093 31.0696 134.24 31.2959 134.235 31.8662C134.213 34.7473 134.227 37.6292 134.228 40.5111C134.228 40.8095 134.228 41.1072 134.228 41.4056C134.29 41.4277 134.353 41.4498 134.415 41.4719L134.415 41.4727Z" fill="white"/>
<path d="M69.1793 17.3669C70.1706 16.8091 71.0831 16.073 72.1244 15.7488C76.5074 14.3819 80.5674 17.1798 80.7962 21.8058C80.9758 25.4349 80.8684 29.0779 80.8985 32.7143C80.9022 33.1542 80.7138 33.2758 80.298 33.2677C79.1427 33.2463 77.9851 33.236 76.8305 33.2729C76.2888 33.2898 76.1498 33.0931 76.1542 32.578C76.1748 29.8148 76.1748 27.0508 76.1557 24.2876C76.1512 23.6303 76.1034 22.9605 75.9709 22.3187C75.6788 20.898 74.6765 19.9194 73.4571 19.7654C71.9559 19.5761 70.4053 20.3011 69.8372 21.6894C69.4538 22.6252 69.2271 23.6811 69.1911 24.6928C69.0998 27.2409 69.1396 29.7941 69.1646 32.3452C69.1712 33.0282 69.0012 33.3178 68.2506 33.264C67.2409 33.1918 66.2203 33.2007 65.2091 33.2611C64.5328 33.3016 64.3842 33.054 64.3857 32.424C64.4033 25.3847 64.3952 18.3462 64.3952 11.307C64.3952 10.0786 64.4129 8.85026 64.3893 7.62191C64.3805 7.15843 64.5453 6.99853 65.0009 7.00663C66.1805 7.02653 67.3609 7.0339 68.5398 7.00147C69.0586 6.98747 69.1852 7.21369 69.183 7.67423C69.1668 10.7447 69.1631 13.8153 69.158 16.8858C69.158 17.0862 69.1771 17.2859 69.1815 17.3677L69.1793 17.3669Z" fill="white"/>
<path d="M97.042 41.598C97.042 41.1241 96.9942 40.7491 97.0611 40.3954C97.0979 40.2009 97.3231 39.8951 97.4695 39.8914C98.8795 39.8531 100.291 39.8685 101.752 39.8685V57.3447C100.274 57.3447 98.8435 57.3572 97.4136 57.3234C97.2834 57.3204 97.0803 57.0279 97.0508 56.8473C96.9934 56.4914 97.0339 56.1193 97.0339 55.6278C96.8036 55.7745 96.6946 55.8165 96.6218 55.8931C94.3692 58.2798 89.6432 58.6048 86.4259 55.3567C82.6669 51.5618 83.0076 44.7525 87.0507 41.2642C89.5336 39.1221 94.1801 38.6623 96.6696 41.3342C96.7425 41.4123 96.847 41.4609 97.0427 41.598H97.042ZM97.4541 48.7617C97.4372 46.9048 96.8845 45.423 95.3612 44.4747C93.3205 43.2036 90.7015 43.7909 89.4372 45.7502C88.0279 47.9335 88.5004 51.147 90.4601 52.5183C91.9231 53.5418 93.5038 53.628 95.0779 52.8432C96.7852 51.9921 97.368 50.4425 97.4541 48.7617Z" fill="white"/>
<path d="M103.121 27.6196C102.6 28.565 102.274 29.411 101.736 30.0889C97.3378 35.6419 88.7499 34.3325 86.044 29.2687C83.823 25.1136 84.8275 19.7647 88.4805 17.1584C93.3735 13.6671 101.807 15.2352 103.058 23.1557C103.146 23.7143 103.165 24.2824 103.239 24.8439C103.321 25.4739 103.109 25.7075 102.434 25.6994C99.533 25.6648 96.6321 25.6839 93.7312 25.6854C92.6229 25.6854 91.5139 25.6905 90.4056 25.6986C90.1797 25.7001 89.9545 25.7266 89.6742 25.7451C89.8294 27.1613 90.4498 28.187 91.5985 28.8686C93.5141 30.0041 96.6395 29.7676 97.892 27.8916C97.9744 27.7685 98.1503 27.6322 98.2842 27.6307C99.8075 27.6123 101.331 27.6189 103.121 27.6189V27.6196ZM89.9361 22.4366H97.7941C97.644 20.6113 95.8601 19.24 93.7849 19.3041C91.7023 19.3683 89.9862 20.7499 89.9361 22.4366Z" fill="white"/>
<path d="M60.1837 29.0167C60.1837 30.3261 60.194 31.5943 60.1675 32.861C60.1645 32.9862 59.9563 33.1896 59.815 33.2176C57.4925 33.6781 55.2024 33.7179 53.1117 32.3894C51.347 31.2679 50.6015 29.548 50.5581 27.5231C50.5095 25.2801 50.5242 23.0349 50.5566 20.7911C50.5654 20.17 50.3587 19.9401 49.753 19.9629C49.0465 19.9894 48.3371 19.9518 47.6299 19.9688C47.184 19.9798 46.989 19.8192 46.9993 19.352C47.0221 18.3602 47.0258 17.3677 47.0022 16.3758C46.9919 15.9359 47.1656 15.79 47.5821 15.8018C48.2187 15.8203 48.8559 15.807 49.4932 15.8055C50.185 15.804 50.5311 15.468 50.5316 14.7975C50.5331 13.7106 50.55 12.6245 50.5353 11.5376C50.5294 11.1169 50.6736 10.943 51.1071 10.9503C52.2867 10.9702 53.4671 10.9813 54.646 10.9547C55.1965 10.9422 55.3223 11.192 55.3149 11.682C55.2965 12.8625 55.3297 14.0437 55.3113 15.2249C55.3039 15.6854 55.4702 15.8453 55.9272 15.8372C57.154 15.8158 58.3814 15.8519 59.6075 15.8225C60.1425 15.8099 60.3044 16.0089 60.286 16.5254C60.2521 17.4694 60.2477 18.4155 60.2815 19.3594C60.3014 19.9062 60.0806 20.0417 59.5736 20.0322C58.3711 20.0093 57.1672 20.058 55.964 20.0359C55.4621 20.027 55.3164 20.2105 55.3223 20.6953C55.3451 22.5375 55.3201 24.3804 55.337 26.2226C55.3584 28.4494 56.4902 29.453 58.7177 29.2356C59.1615 29.1921 59.6001 29.1044 60.1822 29.0153L60.1837 29.0167Z" fill="white"/>
<path d="M75.9746 42.1572C76.0938 41.9914 76.2123 41.8242 76.333 41.6591C77.4884 40.08 79.072 39.5082 80.9729 39.6769C81.5608 39.7293 81.8353 39.9879 81.8125 40.6349C81.7669 41.9273 81.7993 43.2227 81.7993 44.6228C81.4718 44.5697 81.2267 44.5439 80.989 44.4901C78.1536 43.8469 76.0085 45.3714 75.8782 48.2857C75.7597 50.948 75.8238 53.6184 75.8238 56.2851C75.8238 57.3425 75.8436 57.3396 74.7935 57.3388C73.7559 57.3388 72.7183 57.33 71.6814 57.355C71.2457 57.3654 71.0433 57.2541 71.0448 56.77C71.0566 51.3643 71.0559 45.9594 71.0463 40.5538C71.0456 40.0785 71.1927 39.8789 71.6939 39.8899C72.8485 39.9164 74.0046 39.915 75.1592 39.8877C75.6994 39.8752 75.8679 40.1058 75.8407 40.6098C75.8135 41.1146 75.8348 41.6223 75.8348 42.1285C75.8812 42.1381 75.9283 42.1477 75.9746 42.1572Z" fill="white"/>
</g>
<g clip-path="url(#clip1_530_214)">
<path fill-rule="evenodd" clip-rule="evenodd" d="M15.2727 25.5555C9.64956 25.5555 5.09089 20.979 5.09089 15.3333C5.09089 9.68754 9.64956 5.11109 15.2727 5.11109C20.8961 5.11109 25.4545 9.68754 25.4545 15.3333C25.4545 20.979 20.8961 25.5555 15.2727 25.5555ZM15.2727 0C23.7075 0 30.5454 6.86497 30.5454 15.3333C30.5454 23.8016 23.7075 30.6666 15.2727 30.6666C6.83785 30.6666 0 23.8016 0 15.3333C0 6.86497 6.83785 0 15.2727 0ZM29.7999 31.415C30.794 32.413 30.794 34.0309 29.7999 35.029L19.6178 45.2515C18.6237 46.2495 17.0122 46.2495 16.0181 45.2515C15.024 44.2534 15.024 42.6355 16.0181 41.6375L26.2002 31.415C27.1943 30.4169 28.8058 30.4169 29.7999 31.415ZM35.6362 2.55555C35.6362 3.96714 34.4968 5.11109 33.0911 5.11109C31.6851 5.11109 30.5457 3.96714 30.5457 2.55555C30.5457 1.14395 31.6851 0 33.0911 0C34.4968 0 35.6362 1.14395 35.6362 2.55555Z" fill="white"/>
</g>
<defs>
<clipPath id="clip0_530_214">
<rect width="99" height="58" fill="white" transform="translate(47 7)"/>
</clipPath>
<clipPath id="clip1_530_214">
<rect width="36" height="46" fill="white"/>
</clipPath>
</defs>
</svg>
