<svg width="112" height="19" viewBox="0 0 112 19" fill="none" xmlns="http://www.w3.org/2000/svg">
<path d="M8.771 1.64844V18H5.41309V1.64844H8.771ZM13.8022 1.64844V4.2876H0.460449V1.64844H13.8022ZM17.9688 8.49902V18H14.7344V5.84863H17.7778L17.9688 8.49902ZM21.6299 5.77002L21.5737 8.76855C21.4165 8.74609 21.2256 8.72738 21.001 8.7124C20.7839 8.68994 20.5854 8.67871 20.4058 8.67871C19.9491 8.67871 19.5522 8.73861 19.2153 8.8584C18.8859 8.9707 18.6089 9.13916 18.3843 9.36377C18.1672 9.58838 18.0024 9.86165 17.8901 10.1836C17.7853 10.5055 17.7254 10.8724 17.7104 11.2842L17.0591 11.082C17.0591 10.2959 17.1377 9.5734 17.2949 8.91455C17.4521 8.24821 17.6805 7.66797 17.98 7.17383C18.2869 6.67969 18.6613 6.29785 19.103 6.02832C19.5448 5.75879 20.0501 5.62402 20.6191 5.62402C20.7988 5.62402 20.9823 5.639 21.1694 5.66895C21.3566 5.69141 21.5101 5.7251 21.6299 5.77002ZM29.334 15.2598V9.84668C29.334 9.45736 29.2703 9.12419 29.1431 8.84717C29.0158 8.56266 28.8174 8.3418 28.5479 8.18457C28.2858 8.02734 27.9451 7.94873 27.5259 7.94873C27.1665 7.94873 26.8558 8.01237 26.5938 8.13965C26.3317 8.25944 26.1296 8.43538 25.9873 8.66748C25.8451 8.89209 25.7739 9.15788 25.7739 9.46484H22.5396C22.5396 8.94824 22.6593 8.45785 22.8989 7.99365C23.1385 7.52946 23.4867 7.12142 23.9434 6.76953C24.4001 6.41016 24.9429 6.12939 25.5718 5.92725C26.2082 5.7251 26.9194 5.62402 27.7056 5.62402C28.6489 5.62402 29.4875 5.78125 30.2212 6.0957C30.9549 6.41016 31.5314 6.88184 31.9507 7.51074C32.3774 8.13965 32.5908 8.92578 32.5908 9.86914V15.0688C32.5908 15.7352 32.632 16.2817 32.7144 16.7085C32.7967 17.1278 32.9165 17.4946 33.0737 17.8091V18H29.8057C29.6484 17.6706 29.5286 17.2588 29.4463 16.7646C29.3714 16.263 29.334 15.7614 29.334 15.2598ZM29.7607 10.5991L29.7832 12.4297H27.9751C27.5483 12.4297 27.1777 12.4784 26.8633 12.5757C26.5488 12.673 26.2905 12.8115 26.0884 12.9912C25.8862 13.1634 25.7365 13.3656 25.6392 13.5977C25.5493 13.8298 25.5044 14.0843 25.5044 14.3613C25.5044 14.6383 25.568 14.8892 25.6953 15.1138C25.8226 15.3309 26.006 15.5031 26.2456 15.6304C26.4852 15.7502 26.766 15.8101 27.0879 15.8101C27.5745 15.8101 27.9976 15.7127 28.3569 15.5181C28.7163 15.3234 28.9933 15.0838 29.188 14.7993C29.3901 14.5148 29.495 14.2453 29.5024 13.9907L30.356 15.3608C30.2362 15.6678 30.0715 15.986 29.8618 16.3154C29.6597 16.6449 29.4014 16.9556 29.0869 17.2476C28.7725 17.5321 28.3944 17.7679 27.9526 17.9551C27.5109 18.1348 26.9868 18.2246 26.3804 18.2246C25.6092 18.2246 24.9092 18.0711 24.2803 17.7642C23.6589 17.4497 23.1647 17.0192 22.7979 16.4727C22.4385 15.9186 22.2588 15.2897 22.2588 14.5859C22.2588 13.9495 22.3786 13.3843 22.6182 12.8901C22.8577 12.396 23.2096 11.9805 23.6738 11.6436C24.1455 11.2992 24.7332 11.0409 25.437 10.8687C26.1408 10.689 26.9569 10.5991 27.8853 10.5991H29.7607ZM42.2603 15.3496V0.75H45.5171V18H42.5859L42.2603 15.3496ZM34.5786 12.0703V11.8345C34.5786 10.9061 34.6834 10.0638 34.8931 9.30762C35.1027 8.54395 35.4097 7.88883 35.814 7.34229C36.2183 6.79574 36.7161 6.37272 37.3076 6.07324C37.8991 5.77376 38.5729 5.62402 39.3291 5.62402C40.0404 5.62402 40.6618 5.77376 41.1934 6.07324C41.7324 6.37272 42.1891 6.79948 42.5635 7.35352C42.9453 7.90007 43.2523 8.54769 43.4844 9.29639C43.7165 10.0376 43.8849 10.8499 43.9897 11.7334V12.25C43.8849 13.096 43.7165 13.8822 43.4844 14.6084C43.2523 15.3346 42.9453 15.971 42.5635 16.5176C42.1891 17.0566 41.7324 17.4759 41.1934 17.7754C40.6543 18.0749 40.0254 18.2246 39.3066 18.2246C38.5505 18.2246 37.8766 18.0711 37.2852 17.7642C36.7012 17.4572 36.207 17.0267 35.8027 16.4727C35.4059 15.9186 35.1027 15.2673 34.8931 14.5186C34.6834 13.7699 34.5786 12.9538 34.5786 12.0703ZM37.813 11.8345V12.0703C37.813 12.5719 37.8504 13.0399 37.9253 13.4741C38.0076 13.9084 38.1387 14.2939 38.3184 14.6309C38.5055 14.9603 38.7451 15.2186 39.0371 15.4058C39.3366 15.5854 39.6997 15.6753 40.1265 15.6753C40.6805 15.6753 41.1372 15.5518 41.4966 15.3047C41.856 15.0501 42.1292 14.702 42.3164 14.2603C42.5111 13.8185 42.6234 13.3094 42.6533 12.7329V11.2617C42.6309 10.79 42.5635 10.367 42.4512 9.99268C42.3464 9.61084 42.1891 9.28516 41.9795 9.01562C41.7773 8.74609 41.5228 8.53646 41.2158 8.38672C40.9163 8.23698 40.5607 8.16211 40.1489 8.16211C39.7297 8.16211 39.3703 8.25944 39.0708 8.4541C38.7713 8.64128 38.528 8.89958 38.3408 9.229C38.1611 9.55843 38.0264 9.94775 37.9365 10.397C37.8542 10.8387 37.813 11.3179 37.813 11.8345ZM53.6367 18.2246C52.6934 18.2246 51.8473 18.0749 51.0986 17.7754C50.3499 17.4684 49.7135 17.0454 49.1895 16.5063C48.6729 15.9673 48.276 15.3421 47.999 14.6309C47.722 13.9121 47.5835 13.1484 47.5835 12.3398V11.8906C47.5835 10.9697 47.7145 10.1274 47.9766 9.36377C48.2386 8.6001 48.613 7.9375 49.0996 7.37598C49.5938 6.81445 50.1927 6.38395 50.8965 6.08447C51.6003 5.77751 52.3939 5.62402 53.2773 5.62402C54.1383 5.62402 54.902 5.76628 55.5684 6.05078C56.2347 6.33529 56.7925 6.73958 57.2417 7.26367C57.6984 7.78776 58.0428 8.41667 58.2749 9.15039C58.507 9.87663 58.623 10.6852 58.623 11.5762V12.9238H48.9648V10.7676H55.4448V10.5205C55.4448 10.0713 55.3625 9.67074 55.1978 9.31885C55.0405 8.95947 54.8009 8.67497 54.479 8.46533C54.1571 8.2557 53.7453 8.15088 53.2437 8.15088C52.8169 8.15088 52.45 8.24447 52.1431 8.43164C51.8361 8.61882 51.5853 8.88086 51.3906 9.21777C51.2035 9.55469 51.0612 9.9515 50.9639 10.4082C50.874 10.8574 50.8291 11.3516 50.8291 11.8906V12.3398C50.8291 12.8265 50.8965 13.2757 51.0312 13.6875C51.1735 14.0993 51.3719 14.4549 51.6265 14.7544C51.8885 15.0539 52.203 15.286 52.5698 15.4507C52.9442 15.6154 53.3672 15.6978 53.8389 15.6978C54.4229 15.6978 54.9657 15.5854 55.4673 15.3608C55.9764 15.1287 56.4144 14.7806 56.7812 14.3164L58.3535 16.0234C58.099 16.3903 57.7508 16.7422 57.3091 17.0791C56.8748 17.416 56.3507 17.693 55.7368 17.9102C55.1229 18.1198 54.4229 18.2246 53.6367 18.2246ZM63.6992 8.49902V18H60.4648V5.84863H63.5083L63.6992 8.49902ZM67.3604 5.77002L67.3042 8.76855C67.147 8.74609 66.9561 8.72738 66.7314 8.7124C66.5143 8.68994 66.3159 8.67871 66.1362 8.67871C65.6795 8.67871 65.2827 8.73861 64.9458 8.8584C64.6164 8.9707 64.3394 9.13916 64.1147 9.36377C63.8976 9.58838 63.7329 9.86165 63.6206 10.1836C63.5158 10.5055 63.4559 10.8724 63.4409 11.2842L62.7896 11.082C62.7896 10.2959 62.8682 9.5734 63.0254 8.91455C63.1826 8.24821 63.411 7.66797 63.7104 7.17383C64.0174 6.67969 64.3918 6.29785 64.8335 6.02832C65.2752 5.75879 65.7806 5.62402 66.3496 5.62402C66.5293 5.62402 66.7127 5.639 66.8999 5.66895C67.0871 5.69141 67.2406 5.7251 67.3604 5.77002ZM81.4321 12.98V1.64844H84.79V12.98C84.79 14.0731 84.5505 15.0127 84.0713 15.7988C83.5921 16.5775 82.937 17.1764 82.106 17.5957C81.2824 18.015 80.354 18.2246 79.3208 18.2246C78.2502 18.2246 77.3031 18.0449 76.4795 17.6855C75.6559 17.3262 75.0083 16.7759 74.5366 16.0347C74.0649 15.286 73.8291 14.3389 73.8291 13.1934H77.2095C77.2095 13.7923 77.2918 14.2677 77.4565 14.6196C77.6287 14.9715 77.8721 15.2223 78.1865 15.3721C78.501 15.5218 78.8791 15.5967 79.3208 15.5967C79.7476 15.5967 80.1182 15.4956 80.4326 15.2935C80.7471 15.0913 80.9904 14.7956 81.1626 14.4062C81.3423 14.0169 81.4321 13.5415 81.4321 12.98ZM86.9463 12.0479V11.812C86.9463 10.9211 87.0736 10.1012 87.3281 9.35254C87.5827 8.59635 87.9533 7.94124 88.4399 7.38721C88.9266 6.83317 89.5256 6.40267 90.2368 6.0957C90.9481 5.78125 91.7642 5.62402 92.6851 5.62402C93.606 5.62402 94.4258 5.78125 95.1445 6.0957C95.8633 6.40267 96.466 6.83317 96.9526 7.38721C97.4468 7.94124 97.8211 8.59635 98.0757 9.35254C98.3302 10.1012 98.4575 10.9211 98.4575 11.812V12.0479C98.4575 12.9313 98.3302 13.7511 98.0757 14.5073C97.8211 15.256 97.4468 15.9111 96.9526 16.4727C96.466 17.0267 95.867 17.4572 95.1558 17.7642C94.4445 18.0711 93.6284 18.2246 92.7075 18.2246C91.7866 18.2246 90.9668 18.0711 90.248 17.7642C89.5368 17.4572 88.9341 17.0267 88.4399 16.4727C87.9533 15.9111 87.5827 15.256 87.3281 14.5073C87.0736 13.7511 86.9463 12.9313 86.9463 12.0479ZM90.1807 11.812V12.0479C90.1807 12.557 90.2256 13.0324 90.3154 13.4741C90.4053 13.9159 90.5475 14.3052 90.7422 14.6421C90.9443 14.9715 91.2064 15.2298 91.5283 15.417C91.8503 15.6042 92.2433 15.6978 92.7075 15.6978C93.1567 15.6978 93.5423 15.6042 93.8643 15.417C94.1862 15.2298 94.4445 14.9715 94.6392 14.6421C94.8338 14.3052 94.9761 13.9159 95.0659 13.4741C95.1632 13.0324 95.2119 12.557 95.2119 12.0479V11.812C95.2119 11.3179 95.1632 10.8537 95.0659 10.4194C94.9761 9.9777 94.8301 9.58838 94.6279 9.25146C94.4333 8.90706 94.175 8.63753 93.853 8.44287C93.5311 8.24821 93.1418 8.15088 92.6851 8.15088C92.2284 8.15088 91.839 8.24821 91.5171 8.44287C91.2026 8.63753 90.9443 8.90706 90.7422 9.25146C90.5475 9.58838 90.4053 9.9777 90.3154 10.4194C90.2256 10.8537 90.1807 11.3179 90.1807 11.812ZM106.038 18.2246C105.095 18.2246 104.249 18.0749 103.5 17.7754C102.751 17.4684 102.115 17.0454 101.591 16.5063C101.074 15.9673 100.677 15.3421 100.4 14.6309C100.123 13.9121 99.9849 13.1484 99.9849 12.3398V11.8906C99.9849 10.9697 100.116 10.1274 100.378 9.36377C100.64 8.6001 101.014 7.9375 101.501 7.37598C101.995 6.81445 102.594 6.38395 103.298 6.08447C104.002 5.77751 104.795 5.62402 105.679 5.62402C106.54 5.62402 107.303 5.76628 107.97 6.05078C108.636 6.33529 109.194 6.73958 109.643 7.26367C110.1 7.78776 110.444 8.41667 110.676 9.15039C110.908 9.87663 111.024 10.6852 111.024 11.5762V12.9238H101.366V10.7676H107.846V10.5205C107.846 10.0713 107.764 9.67074 107.599 9.31885C107.442 8.95947 107.202 8.67497 106.88 8.46533C106.558 8.2557 106.147 8.15088 105.645 8.15088C105.218 8.15088 104.851 8.24447 104.544 8.43164C104.237 8.61882 103.987 8.88086 103.792 9.21777C103.605 9.55469 103.463 9.9515 103.365 10.4082C103.275 10.8574 103.23 11.3516 103.23 11.8906V12.3398C103.23 12.8265 103.298 13.2757 103.433 13.6875C103.575 14.0993 103.773 14.4549 104.028 14.7544C104.29 15.0539 104.604 15.286 104.971 15.4507C105.346 15.6154 105.769 15.6978 106.24 15.6978C106.824 15.6978 107.367 15.5854 107.869 15.3608C108.378 15.1287 108.816 14.7806 109.183 14.3164L110.755 16.0234C110.5 16.3903 110.152 16.7422 109.71 17.0791C109.276 17.416 108.752 17.693 108.138 17.9102C107.524 18.1198 106.824 18.2246 106.038 18.2246Z" fill="white"/>
</svg>
