<?xml version="1.0" encoding="utf-8"?>
<!-- Generator: Adobe Illustrator 26.5.0, SVG Export Plug-In . SVG Version: 6.00 Build 0)  -->
<svg version="1.1" id="Layer_1" xmlns="http://www.w3.org/2000/svg" xmlns:xlink="http://www.w3.org/1999/xlink" x="0px" y="0px"
	 viewBox="0 0 32 32" style="enable-background:new 0 0 32 32;" xml:space="preserve">
<style type="text/css">
	.st0{fill:#FFFFFF;}
</style>
<path class="st0" d="M17.1,13.9c2-2,4.4-3.5,7-4.6c2.5-1,5.1-1.5,7.8-1.5V3.9C26.5,4,21,5.8,16.6,9.2l-0.3,0.3l-0.4-0.2
	c-0.4-0.2-1.9-0.8-3.6-2.3c-2-1.7-3.7-3.9-4.9-6.4L4.8,3.2C7.2,8.4,11.7,12.4,17.1,13.9z"/>
<path class="st0" d="M16.5,16.2C10.7,14.6,5.8,10.6,3.1,5.1L0,8.4c2.8,4.9,7.2,8.9,12.5,11.1l0,0l0.4,0.2l0,0.2l0,0.3
	c0.1,1,0.5,5.9-3,11.3h4.1c1.4-2.2,2.4-4.7,2.9-7.3C17.3,21.5,17.2,18.8,16.5,16.2z"/>
<path class="st0" d="M18.8,15.6c0.7,2.8,0.9,5.8,0.4,8.7c-0.4,2.6-1.2,5-2.5,7.2h4.8c0.9-2,1.5-4.2,1.8-6.4c0.4-2.4,0.4-4.8,0.1-7.1
	l-0.1-0.4l0.3-0.3c0.6-0.4,3.5-2.5,8.2-3v-4.1C27.1,10.3,22.3,12.2,18.8,15.6z"/>
</svg>
