<svg width="115" height="32" viewBox="0 0 115 32" fill="none" xmlns="http://www.w3.org/2000/svg">
<g clip-path="url(#clip0_529_179)">
<path d="M17.1349 13.9167C19.1775 11.9184 21.5493 10.3707 24.1848 9.31262C26.6793 8.3122 29.3044 7.79627 31.9948 7.77532V3.88625C26.4782 3.95958 21.0477 5.82162 16.6413 9.16596L16.3017 9.42261L15.9073 9.26024C15.4946 9.09001 14.0135 8.41696 12.2687 6.93203C10.247 5.20879 8.60926 3.0482 7.38944 0.5L4.84271 3.23414C7.15697 8.4091 11.7123 12.3689 17.1349 13.9167Z" fill="white"/>
<path d="M16.508 16.2422C10.6571 14.5897 5.81438 10.5776 3.07697 5.13023L0 8.43791C2.80793 13.3798 7.21704 17.3081 12.4568 19.5316L12.462 19.5342L12.8721 19.7097L12.8982 19.9087L12.9322 20.1942C13.0471 21.171 13.3971 26.0815 9.88393 31.5H13.9482C15.377 29.3054 16.3618 26.7807 16.8058 24.1775C17.2551 21.5403 17.1506 18.8062 16.508 16.2422Z" fill="white"/>
<path d="M18.838 15.6216C19.5615 18.4709 19.6999 21.3805 19.2533 24.2718C18.8563 26.8226 18.0204 29.2477 16.764 31.5H21.6015C22.4739 29.4625 23.0851 27.315 23.4195 25.1072C23.7799 22.7345 23.8139 20.333 23.5187 17.976L23.4665 17.5491L23.8061 17.2898C24.3624 16.8655 27.2696 14.8071 32 14.3174V10.1978C27.0894 10.2607 22.3433 12.2118 18.838 15.6216Z" fill="white"/>
</g>
<g clip-path="url(#clip1_529_179)">
<path d="M94.3044 16.4112C94.3044 14.1316 94.2879 11.852 94.3108 9.57243C94.3233 8.31824 94.6473 8.00649 95.902 8.01195C97.7929 8.02015 99.6963 7.93581 101.572 8.12259C104.93 8.45688 107.107 10.5569 107.74 13.8977C108.171 16.1725 108.092 18.4405 107.307 20.6354C106.339 23.3408 104.325 24.732 101.565 24.9177C99.5415 25.054 97.5032 24.973 95.4717 24.957C94.6794 24.9508 94.3921 24.6828 94.3459 23.852C94.2818 22.7054 94.2967 21.5543 94.2903 20.405C94.2825 19.0736 94.2886 17.7419 94.2886 16.4105C94.294 16.4105 94.299 16.4105 94.3044 16.4105V16.4112ZM98.0097 21.6834C98.9295 21.6834 99.8227 21.7288 100.71 21.6731C102.211 21.5796 103.266 20.7925 103.748 19.3471C104.343 17.5626 104.343 15.7382 103.867 13.9237C103.538 12.6746 102.727 11.7848 101.504 11.5136C100.379 11.2644 99.1966 11.2814 98.0097 11.1787V21.683V21.6834Z" fill="white"/>
<path d="M73.0891 24.9587C71.8543 24.9587 70.6169 25.0126 69.3855 24.9471C67.1294 24.8265 65.7399 23.5481 65.6549 21.2641C65.5389 18.1424 65.5295 15.0095 65.6482 11.8882C65.7396 9.49014 67.3546 8.06419 69.7233 8.03005C72.0138 7.99727 74.3049 8.02937 76.5954 8.00478C77.1747 7.99863 77.4495 8.18849 77.4208 8.80004C77.3945 9.3638 77.3989 9.92994 77.4164 10.494C77.433 11.0172 77.1915 11.2138 76.6942 11.2094C75.0609 11.1947 73.4276 11.192 71.7943 11.1954C71.3172 11.1964 70.8391 11.2196 70.3633 11.2562C69.7375 11.3047 69.3754 11.6564 69.3234 12.2935C69.2793 12.8358 69.2796 13.3814 69.2311 13.923C69.1876 14.4096 69.402 14.5554 69.8545 14.5537C71.707 14.5468 73.5594 14.566 75.4119 14.569C76.6166 14.5711 76.6187 14.566 76.6291 15.7945C76.6325 16.1777 76.6038 16.5618 76.6217 16.9439C76.6433 17.4076 76.469 17.5777 75.9939 17.5722C73.9624 17.5497 71.9302 17.5787 69.8987 17.5507C69.3713 17.5435 69.1913 17.6982 69.2284 18.2374C69.2725 18.8796 69.2294 19.5277 69.2344 20.1731C69.2439 21.3812 69.6198 21.7828 70.8074 21.7933C72.7195 21.8104 74.632 21.7995 76.5442 21.806C77.6943 21.8097 77.6939 21.8142 77.6855 22.9697C77.6825 23.3733 77.6366 23.7827 77.6896 24.1784C77.7759 24.8224 77.4562 24.9952 76.912 24.9939C75.6371 24.9901 74.3623 24.9928 73.0874 24.9928C73.0874 24.9812 73.0874 24.9693 73.0874 24.9577L73.0891 24.9587Z" fill="white"/>
<path d="M48.3249 15.3523C48.4823 15.0734 48.6095 14.8801 48.7059 14.6722C49.6449 12.6463 50.5874 10.6221 51.5065 8.58697C51.7011 8.15673 51.9634 7.99249 52.429 8.01093C53.2443 8.04371 54.0617 8.01332 54.878 8.01741C55.1089 8.01844 55.3399 8.0478 55.6768 8.07136C55.5459 8.41761 55.4751 8.68395 55.351 8.9216C53.7494 11.9872 52.13 15.0433 50.5456 18.1182C50.3429 18.5116 50.2296 18.994 50.2182 19.439C50.1797 20.9506 50.2053 22.4636 50.2063 23.9763C50.207 24.9198 50.1497 24.987 49.244 24.9918C48.5474 24.9956 47.8505 24.9652 47.1542 24.9764C46.6906 24.9836 46.5243 24.7692 46.526 24.3188C46.5314 22.7662 46.4589 21.2108 46.5348 19.6623C46.586 18.614 46.0176 17.8617 45.5843 17.0436C44.1455 14.3245 42.6646 11.6287 41.2077 8.91955C40.8216 8.20146 40.9555 8.00649 41.7644 8.01844C42.5406 8.03005 43.3184 8.0519 44.0933 8.01776C44.715 7.99044 45.0296 8.30185 45.2694 8.83419C46.1767 10.8515 47.1067 12.8587 48.0319 14.8678C48.0956 15.0061 48.1897 15.1301 48.3252 15.3517L48.3249 15.3523Z" fill="white"/>
<path d="M80.3445 14.8477C80.3445 12.8918 80.3415 10.9362 80.3459 8.98034C80.3479 8.11883 80.4598 8.01537 81.3193 8.01605C81.9964 8.01639 82.6737 8.03141 83.3498 8.01093C83.8589 7.99522 84.0444 8.19293 84.0414 8.72458C84.0228 12.273 84.0299 15.8215 84.0339 19.3703C84.0343 19.7121 84.0538 20.056 84.0929 20.3954C84.2224 21.515 84.5289 21.795 85.6757 21.8012C87.5669 21.8114 89.4585 21.8015 91.3497 21.8039C92.247 21.8049 92.2722 21.8347 92.2709 22.7665C92.2702 23.2906 92.2463 23.8155 92.2699 24.3386C92.2915 24.8211 92.0554 24.9887 91.6249 24.9884C90.7887 24.9877 89.9525 24.9915 89.1162 24.9915C87.5831 24.9911 86.0496 25.0167 84.5174 24.9802C83.0106 24.944 81.614 24.5254 80.9353 23.0311C80.5738 22.2352 80.4109 21.2958 80.3711 20.4114C80.2882 18.5604 80.3459 16.7028 80.3459 14.8477H80.3435H80.3445Z" fill="white"/>
<path d="M61.6627 16.5464C61.6627 19.0449 61.6624 21.5434 61.6627 24.0419C61.6627 24.9464 61.627 24.9874 60.7206 24.9894C60.0442 24.9911 59.3652 24.9409 58.6925 24.9887C58.1277 25.0287 57.9733 24.8153 57.975 24.2727C57.9861 20.8471 57.9699 17.4219 57.9672 13.9964C57.9659 12.3239 57.9622 10.6514 57.981 8.97897C57.9915 8.04883 58.0296 8.02732 58.9312 8.02322C59.6076 8.02015 60.285 8.04849 60.9604 8.02117C61.4506 8.00137 61.6536 8.20966 61.6512 8.68839C61.6458 9.6957 61.6499 10.703 61.6499 11.7107C61.6499 13.3227 61.6499 14.9347 61.6499 16.5468C61.6543 16.5468 61.6583 16.5468 61.6627 16.5468V16.5464Z" fill="white"/>
</g>
<defs>
<clipPath id="clip0_529_179">
<rect width="32" height="32" fill="white"/>
</clipPath>
<clipPath id="clip1_529_179">
<rect width="67" height="17" fill="white" transform="translate(41 8)"/>
</clipPath>
</defs>
</svg>
