<svg width="120" height="24" viewBox="0 0 120 24" fill="none" xmlns="http://www.w3.org/2000/svg">
<g clip-path="url(#clip0_1948_1403)">
<path fill-rule="evenodd" clip-rule="evenodd" d="M41.6539 11.7792L29.8378 0.00439453V8.62766L18.1055 17.2616L29.8378 17.2697V23.5539L41.6539 11.7792Z" fill="white"/>
<path fill-rule="evenodd" clip-rule="evenodd" d="M-0.00146484 11.7747L11.8146 23.5494V14.9955L23.547 6.29224L11.8146 6.28418V0L-0.00146484 11.7747Z" fill="white"/>
<path d="M59.2586 17.6593H50.2148V15.0622L55.3922 9.29099H50.3482V6.73828H59.1697V9.20219L53.8368 15.0844H59.2586V17.6593Z" fill="white" fill-opacity="0.9"/>
<path d="M71.6007 6.73811L67.2233 11.3329L71.6896 17.6591H68.0676L65.179 13.486L63.9568 14.7734V17.6591H61.0015V1.58838H63.9568V10.8002L67.7343 6.73811H71.6007Z" fill="white" fill-opacity="0.9"/>
<path d="M84.4546 5.67265L81.6993 6.51614C81.5956 5.95381 81.3141 5.44328 80.8549 4.98454C80.3957 4.5258 79.7216 4.29643 78.8328 4.29643C78.107 4.29643 77.5144 4.4962 77.0552 4.89575C76.596 5.2805 76.3663 5.74664 76.3663 6.29417C76.3663 7.25604 76.9367 7.84796 78.0773 8.06993L80.2772 8.49172C81.6696 8.75802 82.7511 9.31292 83.5214 10.1564C84.2917 10.9999 84.6768 11.9914 84.6768 13.1308C84.6768 14.4331 84.1583 15.5725 83.1214 16.5492C82.0992 17.5111 80.7216 17.992 78.9884 17.992C77.9959 17.992 77.0996 17.844 76.2997 17.5481C75.4997 17.2521 74.8553 16.86 74.3665 16.3716C73.8776 15.8685 73.4925 15.3432 73.211 14.7956C72.9444 14.2333 72.7814 13.6562 72.7222 13.0643L75.5664 12.3096C75.6405 13.153 75.9664 13.856 76.5441 14.4183C77.1367 14.9806 77.9588 15.2618 79.0106 15.2618C79.8105 15.2618 80.4327 15.0842 80.8771 14.729C81.3363 14.3739 81.566 13.9077 81.566 13.3306C81.566 12.8719 81.3956 12.4797 81.0549 12.1542C80.729 11.8138 80.2623 11.5845 79.655 11.4661L77.4552 11.0221C76.1812 10.7558 75.1738 10.2304 74.4332 9.44612C73.6925 8.66182 73.3221 7.68518 73.3221 6.51614C73.3221 5.12512 73.8554 3.95607 74.922 3.009C76.0034 2.06192 77.2996 1.58838 78.8106 1.58838C79.7142 1.58838 80.5216 1.71417 81.2326 1.96574C81.9437 2.2173 82.514 2.55766 82.9436 2.9868C83.3732 3.40115 83.7065 3.83029 83.9436 4.27423C84.1806 4.71817 84.3509 5.18431 84.4546 5.67265Z" fill="white" fill-opacity="0.9"/>
<path d="M89.6557 21.9655H86.5226L89.1002 16.283L84.4561 6.73828H87.767L90.6778 13.131L93.3666 6.73828H96.5219L89.6557 21.9655Z" fill="white" fill-opacity="0.9"/>
<path d="M100.601 11.3775V17.6593H97.6455V6.73827H100.512V8.09229C100.823 7.55956 101.267 7.15261 101.845 6.87145C102.423 6.59029 103.03 6.44971 103.667 6.44971C104.956 6.44971 105.934 6.85665 106.6 7.67055C107.282 8.46968 107.622 9.50548 107.622 10.7782V17.6593H104.667V11.2887C104.667 10.6376 104.497 10.1122 104.156 9.71268C103.83 9.31308 103.326 9.11338 102.645 9.11338C102.023 9.11338 101.527 9.32788 101.156 9.75708C100.786 10.1862 100.601 10.7264 100.601 11.3775Z" fill="white" fill-opacity="0.9"/>
<path d="M114.866 9.13554C114.081 9.13554 113.422 9.40924 112.888 9.95684C112.355 10.5043 112.088 11.2516 112.088 12.1987C112.088 13.1457 112.355 13.9004 112.888 14.4628C113.436 15.0103 114.103 15.2841 114.888 15.2841C115.584 15.2841 116.14 15.1065 116.555 14.7513C116.97 14.3814 117.251 13.9448 117.399 13.4417L119.999 14.3074C119.732 15.3137 119.155 16.1793 118.266 16.9045C117.377 17.6296 116.251 17.9921 114.888 17.9921C113.259 17.9921 111.888 17.4446 110.777 16.3495C109.681 15.2397 109.133 13.8561 109.133 12.1987C109.133 10.5265 109.674 9.14294 110.755 8.04786C111.851 6.9528 113.199 6.40527 114.799 6.40527C116.192 6.40527 117.332 6.76782 118.221 7.49293C119.11 8.20324 119.68 9.06894 119.932 10.0899L117.288 10.9778C116.932 9.74964 116.125 9.13554 114.866 9.13554Z" fill="white" fill-opacity="0.9"/>
</g>
<defs>
<clipPath id="clip0_1948_1403">
<rect width="120" height="24" fill="white"/>
</clipPath>
</defs>
</svg>
