<svg width="16" height="16" viewBox="0 0 16 16" fill="none" xmlns="http://www.w3.org/2000/svg">
<path d="M12.2447 10.1967C12.2454 9.64519 11.7974 9.19659 11.2459 9.19594C10.6944 9.19528 10.2457 9.6433 10.2451 10.1948C10.2447 10.7477 10.6924 11.1949 11.2439 11.1955C11.7954 11.1962 12.2444 10.7496 12.2447 10.1967Z" fill="white"/>
<path d="M5.24474 10.1967C5.24539 9.64522 4.79737 9.1966 4.24589 9.19593C3.69296 9.19559 3.24582 9.64329 3.24516 10.1948C3.2445 10.7463 3.69107 11.1952 4.244 11.1956C4.79548 11.1962 5.24408 10.7482 5.24474 10.1967Z" fill="white"/>
<path d="M6.96755 15.1758C7.27902 15.0967 7.51059 14.8135 7.51129 14.4781L7.51149 13.6003C7.51157 13.3988 7.4291 13.216 7.29673 13.0857C7.16608 12.9564 6.98628 12.8764 6.78934 12.8768L4.94531 12.8758C4.77481 12.876 4.61867 12.9334 4.49534 13.0318C4.32842 13.1651 4.22149 13.3686 4.22182 13.5979L4.2213 14.4744C4.22041 14.5745 4.2405 14.67 4.27751 14.7557C4.38606 15.015 4.64353 15.198 4.94345 15.1978L6.78749 15.1989C6.8494 15.1996 6.91082 15.1916 6.96755 15.1758Z" stroke="white" stroke-linecap="round" stroke-linejoin="round"/>
<path d="M6.9697 15.1856C6.9697 15.1856 8.71159 14.8906 9.04725 14.8339C9.13277 14.822 9.21576 14.7988 9.29374 14.7665L9.29513 14.7662M6 11.5C5.83561 11.6644 4.53111 12.956 4.4831 13.0169L4.48094 13.0203" stroke="white" stroke-linecap="round" stroke-linejoin="round"/>
<path d="M9.61264 11.6156L7.30981 13.0724" stroke="white" stroke-linecap="round" stroke-linejoin="round"/>
<path d="M8.10921 6C8.10921 6 8.09348 5.93609 8.07157 5.82949C7.9955 5.4531 7.93192 4.54953 8.1465 4" stroke="white" stroke-linecap="round" stroke-linejoin="round"/>
<path d="M10.199 2.31752C10.261 1.49317 9.64287 0.774315 8.81787 0.707359C7.99359 0.645267 7.26996 1.26419 7.20789 2.08854C7.18636 2.38002 7.24751 2.65927 7.37244 2.89928C7.60683 3.34182 8.05616 3.65815 8.58899 3.6987C9.41327 3.76079 10.1376 3.14673 10.199 2.31752Z" stroke="white" stroke-linecap="round" stroke-linejoin="round"/>
<path d="M13.9788 14.3992C14.5903 13.9949 14.9951 13.3006 14.9964 12.5122L15 8.6356C15.0005 7.8371 14.5875 7.13494 13.9628 6.73203C13.6116 6.50552 13.1919 6.37242 12.7421 6.37259L11.5555 4.18066L9.71341 6.36964L6.49 6.36649L5.24768 4.18066L3.2666 6.36335C2.89605 6.36324 2.54681 6.45095 2.23841 6.60883C1.50655 6.98147 1.00519 7.74314 1.00358 8.62129L1 12.4979C0.998795 13.3797 1.50255 14.1437 2.23841 14.5172M11.9905 14.7702L12.7334 14.7701C13.1909 14.7712 13.616 14.6355 13.9721 14.4021" stroke="white" stroke-linecap="round" stroke-linejoin="round"/>
</svg>
