<svg width="24" height="25" viewBox="0 0 24 25" fill="none" xmlns="http://www.w3.org/2000/svg">
<path d="M18.246 16.5071C18.2469 15.7107 17.6 15.0629 16.8036 15.0619C16.0072 15.061 15.3593 15.7079 15.3584 16.5043C15.3579 17.3028 16.0044 17.9486 16.8008 17.9495C17.5972 17.9505 18.2455 17.3056 18.246 16.5071Z" stroke="white" stroke-linecap="round" stroke-linejoin="round"/>
<path d="M8.5353 16.5071C8.53625 15.7107 7.88927 15.0629 7.09286 15.0619C6.29436 15.0614 5.64863 15.7079 5.64767 16.5043C5.64672 17.3007 6.29161 17.9491 7.09011 17.9495C7.88651 17.9505 8.53434 17.3035 8.5353 16.5071Z" stroke="white" stroke-linecap="round" stroke-linejoin="round"/>
<path d="M10.9513 23.7638C11.4185 23.645 11.7658 23.2203 11.7669 22.7172L11.7672 21.4004C11.7673 21.0982 11.6436 20.824 11.445 20.6285C11.2491 20.4346 10.9794 20.3146 10.6839 20.3152L7.9179 20.3136C7.66216 20.3141 7.42795 20.4001 7.24295 20.5477C6.99257 20.7476 6.83217 21.0529 6.83267 21.3969L6.83189 22.7115C6.83055 22.8618 6.86068 23.005 6.9162 23.1336C7.07903 23.5225 7.46524 23.7969 7.91512 23.7968L10.6812 23.7983C10.774 23.7994 10.8662 23.7874 10.9513 23.7638Z" stroke="white" stroke-linecap="round" stroke-linejoin="round"/>
<path d="M10.9546 23.7784C10.9546 23.7784 13.5674 23.336 14.0709 23.2509C14.1991 23.233 14.3236 23.1982 14.4406 23.1498L14.4427 23.1493C15.0054 22.9163 15.3985 22.3621 15.4002 21.7155L15.4027 19.5492C15.4019 19.1061 15.2168 18.7068 14.919 18.4234C14.6407 18.1576 14.2644 17.9956 13.8495 17.9945L9.95828 17.9913C9.44423 17.9905 8.98868 18.2389 8.70487 18.6229C8.43866 18.9675 7.29667 20.4341 7.22465 20.5253L7.2214 20.5305" stroke="white" stroke-linecap="round" stroke-linejoin="round"/>
<path d="M14.9189 18.4234L11.4647 20.6085" stroke="white" stroke-linecap="round" stroke-linejoin="round"/>
<path d="M12.4771 10.3713C12.4771 10.3713 12.4242 10.1755 12.3562 9.84793C12.1222 8.69068 12.1127 5.8792 13.2826 4.09815" stroke="white" stroke-linecap="round" stroke-linejoin="round"/>
<path d="M15.2354 2.87847C15.2926 2.11866 14.7228 1.4561 13.9623 1.3944C13.2025 1.33718 12.5355 1.90765 12.4782 2.66746C12.4584 2.93611 12.5148 3.1935 12.6299 3.41472C12.846 3.8226 13.2601 4.11416 13.7513 4.15153C14.5111 4.20875 15.1788 3.64276 15.2354 2.87847Z" stroke="white" stroke-linecap="round" stroke-linejoin="round"/>
<path d="M21.4682 22.5987C22.3854 21.9923 22.9927 20.9509 22.9946 19.7683L23 13.9534C23.0007 12.7556 22.3813 11.7024 21.4441 11.098C20.9175 10.7583 20.2879 10.5586 19.6131 10.5589L17.8332 5.77098L15.0701 10.5544L10.235 10.5497L8.37152 5.77098L5.39989 10.545C4.84407 10.5448 4.32021 10.6764 3.85762 10.9132C2.75982 11.4722 2.00778 12.6147 2.00538 13.9319L2 19.7468C1.99819 21.0695 2.75383 22.2156 3.85762 22.7758M18.4857 23.1552L19.6001 23.1552C20.2863 23.1568 20.9241 22.9532 21.4581 22.6032" stroke="white" stroke-width="1.5" stroke-linecap="round" stroke-linejoin="round"/>
</svg>
