<svg width="32" height="33" viewBox="0 0 32 33" fill="none" xmlns="http://www.w3.org/2000/svg">
<path d="M23.8969 21.3646C23.8982 20.3028 23.0356 19.439 21.9737 19.4377C20.9118 19.4364 20.048 20.2991 20.0468 21.361C20.0461 22.4256 20.9081 23.2866 21.97 23.2879C23.0319 23.2891 23.8963 22.4293 23.8969 21.3646Z" stroke="white" stroke-linecap="round" stroke-linejoin="round"/>
<path d="M10.9494 21.3646C10.9506 20.3028 10.088 19.439 9.02612 19.4377C7.96145 19.4371 7.10047 20.2991 7.0992 21.361C7.09793 22.4228 7.95778 23.2872 9.02245 23.2879C10.0843 23.2892 10.9481 22.4265 10.9494 21.3646Z" stroke="white" stroke-linecap="round" stroke-linejoin="round"/>
<path d="M14.1706 31.0402C14.7936 30.8818 15.2567 30.3155 15.2581 29.6447L15.2585 27.8891C15.2587 27.4862 15.0937 27.1205 14.829 26.8598C14.5677 26.6012 14.2081 26.4413 13.8142 26.4421L10.1261 26.44C9.78516 26.4406 9.47288 26.5552 9.22622 26.7521C8.89238 27.0187 8.67851 27.4257 8.67917 27.8843L8.67814 29.6372C8.67635 29.8376 8.71652 30.0285 8.79055 30.2C9.00766 30.7185 9.5226 31.0844 10.1224 31.0842L13.8105 31.0862C13.9343 31.0877 14.0572 31.0717 14.1706 31.0402Z" stroke="white" stroke-linecap="round" stroke-linejoin="round"/>
<path d="M14.1751 31.0597C14.1751 31.0597 17.6588 30.4698 18.3302 30.3564C18.5012 30.3325 18.6672 30.2861 18.8231 30.2215L18.8259 30.2209C19.5762 29.9102 20.1004 29.1714 20.1026 28.3092L20.1059 25.4207C20.1048 24.8299 19.8581 24.2975 19.461 23.9196C19.0899 23.5653 18.5882 23.3493 18.035 23.3478L12.8467 23.3435C12.1613 23.3425 11.5539 23.6738 11.1755 24.1856C10.8206 24.6452 9.29789 26.6006 9.20187 26.7223L9.19754 26.7291" stroke="white" stroke-linecap="round" stroke-linejoin="round"/>
<path d="M19.4609 23.9196L14.8552 26.8332" stroke="white" stroke-linecap="round" stroke-linejoin="round"/>
<path d="M16.2051 13.1835C16.2051 13.1835 16.1346 12.9225 16.044 12.4857C15.7318 10.9427 15.7192 7.19407 17.2791 4.81935" stroke="white" stroke-linecap="round" stroke-linejoin="round"/>
<path d="M19.8829 3.19313C19.9592 2.18005 19.1994 1.29664 18.1855 1.21437C17.1724 1.13807 16.283 1.8987 16.2067 2.91178C16.1802 3.26999 16.2554 3.61317 16.4089 3.90813C16.697 4.45198 17.2492 4.84072 17.9041 4.89054C18.9172 4.96683 19.8075 4.21219 19.8829 3.19313Z" stroke="white" stroke-linecap="round" stroke-linejoin="round"/>
<path d="M28.1932 29.4868C29.4162 28.6782 30.2259 27.2897 30.2285 25.7129L30.2356 17.9597C30.2366 16.3627 29.4106 14.9583 28.1611 14.1525C27.4589 13.6995 26.6195 13.4333 25.7197 13.4336L23.3465 7.04979L19.6624 13.4277L13.2156 13.4214L10.731 7.04979L6.76882 13.4152C6.02772 13.4149 5.32924 13.5904 4.71245 13.9061C3.24872 14.6514 2.246 16.1747 2.24279 17.931L2.23563 25.6843C2.23322 27.4478 3.24073 28.9759 4.71245 29.7229M24.2166 30.2288L25.7024 30.2288C26.6174 30.2309 27.4677 29.9594 28.1798 29.4927" stroke="white" stroke-width="1.5" stroke-linecap="round" stroke-linejoin="round"/>
</svg>
